  0
SECTION
  2
HEADER
  9
$ACADVER
  1
AC1009
  9
$DWGCODEPAGE
  3
dos932
  9
$INSBASE
 10
0.0
 20
0.0
 30
0.0
  9
$EXTMIN
 10
-1236.217169093547
 20
-666.2920567199685
 30
0.0
  9
$EXTMAX
 10
1270.698994673543
 20
986.217169093547
 30
0.0
  9
$LIMMIN
 10
0.0
 20
0.0
  9
$LIMMAX
 10
12.0
 20
9.0
  9
$ORTHOMODE
 70
     0
  9
$REGENMODE
 70
     1
  9
$FILLMODE
 70
     1
  9
$QTEXTMODE
 70
     0
  9
$MIRRTEXT
 70
     1
  9
$DRAGMODE
 70
     2
  9
$LTSCALE
 40
20.0
  9
$OSMODE
 70
    37
  9
$ATTMODE
 70
     1
  9
$TEXTSIZE
 40
0.2
  9
$TRACEWID
 40
1.0
  9
$TEXTSTYLE
  7
STANDARD
  9
$CLAYER
  8
__
  9
$CELTYPE
  6
BYLAYER
  9
$CECOLOR
 62
   256
  9
$DIMSCALE
 40
1.0
  9
$DIMASZ
 40
0.18
  9
$DIMEXO
 40
0.0625
  9
$DIMDLI
 40
0.38
  9
$DIMRND
 40
0.0
  9
$DIMDLE
 40
0.0
  9
$DIMEXE
 40
0.18
  9
$DIMTP
 40
0.0
  9
$DIMTM
 40
0.0
  9
$DIMTXT
 40
0.18
  9
$DIMCEN
 40
0.09
  9
$DIMTSZ
 40
0.0
  9
$DIMTOL
 70
     0
  9
$DIMLIM
 70
     0
  9
$DIMTIH
 70
     1
  9
$DIMTOH
 70
     1
  9
$DIMSE1
 70
     0
  9
$DIMSE2
 70
     0
  9
$DIMTAD
 70
     0
  9
$DIMZIN
 70
     0
  9
$DIMBLK
  1

  9
$DIMASO
 70
     1
  9
$DIMSHO
 70
     1
  9
$DIMPOST
  1

  9
$DIMAPOST
  1

  9
$DIMALT
 70
     0
  9
$DIMALTD
 70
     2
  9
$DIMALTF
 40
25.4
  9
$DIMLFAC
 40
1.0
  9
$DIMTOFL
 70
     0
  9
$DIMTVP
 40
0.0
  9
$DIMTIX
 70
     0
  9
$DIMSOXD
 70
     0
  9
$DIMSAH
 70
     0
  9
$DIMBLK1
  1

  9
$DIMBLK2
  1

  9
$DIMSTYLE
  2
STANDARD
  9
$DIMCLRD
 70
     0
  9
$DIMCLRE
 70
     0
  9
$DIMCLRT
 70
     0
  9
$DIMTFAC
 40
1.0
  9
$DIMGAP
 40
0.09
  9
$LUNITS
 70
     2
  9
$LUPREC
 70
     2
  9
$SKETCHINC
 40
0.1
  9
$FILLETRAD
 40
0.0
  9
$AUNITS
 70
     0
  9
$AUPREC
 70
     2
  9
$MENU
  1
.
  9
$ELEVATION
 40
0.0
  9
$PELEVATION
 40
0.0
  9
$THICKNESS
 40
0.0
  9
$LIMCHECK
 70
     0
  9
$CHAMFERA
 40
0.0
  9
$CHAMFERB
 40
0.0
  9
$SKPOLY
 70
     0
  9
$TDCREATE
 40
2460803.471714075
  9
$TDUPDATE
 40
2460803.471715336
  9
$TDINDWG
 40
0.0000000116
  9
$TDUSRTIMER
 40
0.0000000116
  9
$USRTIMER
 70
     1
  9
$ANGBASE
 50
0.0
  9
$ANGDIR
 70
     0
  9
$PDMODE
 70
     1
  9
$PDSIZE
 40
-2.0
  9
$PLINEWID
 40
0.0
  9
$COORDS
 70
     1
  9
$SPLFRAME
 70
     0
  9
$SPLINETYPE
 70
     6
  9
$SPLINESEGS
 70
     8
  9
$ATTDIA
 70
     0
  9
$ATTREQ
 70
     1
  9
$HANDLING
 70
     1
  9
$HANDSEED
  5
582
  9
$SURFTAB1
 70
     6
  9
$SURFTAB2
 70
     6
  9
$SURFTYPE
 70
     6
  9
$SURFU
 70
     6
  9
$SURFV
 70
     6
  9
$UCSNAME
  2

  9
$UCSORG
 10
0.0
 20
0.0
 30
0.0
  9
$UCSXDIR
 10
1.0
 20
0.0
 30
0.0
  9
$UCSYDIR
 10
0.0
 20
1.0
 30
0.0
  9
$PUCSNAME
  2

  9
$PUCSORG
 10
0.0
 20
0.0
 30
0.0
  9
$PUCSXDIR
 10
1.0
 20
0.0
 30
0.0
  9
$PUCSYDIR
 10
0.0
 20
1.0
 30
0.0
  9
$USERI1
 70
     0
  9
$USERI2
 70
     0
  9
$USERI3
 70
     0
  9
$USERI4
 70
     0
  9
$USERI5
 70
     0
  9
$USERR1
 40
0.0
  9
$USERR2
 40
0.0
  9
$USERR3
 40
0.0
  9
$USERR4
 40
0.0
  9
$USERR5
 40
0.0
  9
$WORLDVIEW
 70
     1
  9
$SHADEDGE
 70
     3
  9
$SHADEDIF
 70
    70
  9
$TILEMODE
 70
     1
  9
$MAXACTVP
 70
    64
  9
$PLIMCHECK
 70
     0
  9
$PEXTMIN
 10
1.000000000000000E+20
 20
1.000000000000000E+20
 30
1.000000000000000E+20
  9
$PEXTMAX
 10
-1.000000000000000E+20
 20
-1.000000000000000E+20
 30
-1.000000000000000E+20
  9
$PLIMMIN
 10
-20.0
 20
-7.5
  9
$PLIMMAX
 10
277.0
 20
202.5
  9
$UNITMODE
 70
     0
  9
$VISRETAIN
 70
     1
  9
$PLINEGEN
 70
     0
  9
$PSLTSCALE
 70
     1
  0
ENDSEC
  0
SECTION
  2
TABLES
  0
TABLE
  2
VPORT
 70
     1
  0
VPORT
  2
*ACTIVE
 70
     0
 10
0.0
 20
0.0
 11
1.0
 21
1.0
 12
17.24091278999776
 22
159.9625561867892
 13
0.0
 23
0.0
 14
0.5
 24
0.5
 15
0.5
 25
0.5
 16
0.0
 26
0.0
 36
1.0
 17
0.0
 27
0.0
 37
0.0
 40
1652.509225813516
 41
1.517036107639857
 42
2000.0
 43
0.0
 44
0.0
 50
0.0
 51
0.0
 71
     0
 72
   100
 73
     1
 74
     3
 75
     0
 76
     0
 77
     0
 78
     0
  0
ENDTAB
  0
TABLE
  2
LTYPE
 70
     1
  0
LTYPE
  2
CONTINUOUS
 70
     0
  3
Solid line
 72
    65
 73
     0
 40
0.0
  0
ENDTAB
  0
TABLE
  2
LAYER
 70
     4
  0
LAYER
  2
0
 70
     0
 62
     7
  6
CONTINUOUS
  0
LAYER
  2
__
 70
     0
 62
     7
  6
CONTINUOUS
  0
LAYER
  2
_____1
 70
     0
 62
     7
  6
CONTINUOUS
  0
ENDTAB
  0
TABLE
  2
STYLE
 70
     1
  0
STYLE
  2
STANDARD
 70
     0
 40
0.0
 41
1.0
 50
0.0
 71
     0
 42
0.2
  3
txt
  4
BIGFONT.SHX
  0
ENDTAB
  0
TABLE
  2
VIEW
 70
     0
  0
ENDTAB
  0
TABLE
  2
UCS
 70
     0
  0
ENDTAB
  0
TABLE
  2
APPID
 70
     3
  0
APPID
  2
ACAD
 70
     0
  0
APPID
  2
ACCMTRANSPARENCY
 70
     0
  0
APPID
  2
ACAECLAYERSTANDARD
 70
     0
  0
ENDTAB
  0
TABLE
  2
DIMSTYLE
 70
     1
  0
DIMSTYLE
  2
STANDARD
 70
     0
  3

  4

  5

  6

  7

 40
1.0
 41
0.18
 42
0.0625
 43
0.38
 44
0.18
 45
0.0
 46
0.0
 47
0.0
 48
0.0
140
0.18
141
0.09
142
0.0
143
25.4
144
1.0
145
0.0
146
1.0
147
0.09
 71
     0
 72
     0
 73
     1
 74
     1
 75
     0
 76
     0
 77
     0
 78
     0
170
     0
171
     2
172
     0
173
     0
174
     0
175
     0
176
     0
177
     0
178
     0
  0
ENDTAB
  0
ENDSEC
  0
SECTION
  2
BLOCKS
  0
BLOCK
  8
0
  2
$MODEL_SPACE
 70
     0
 10
0.0
 20
0.0
 30
0.0
  3
$MODEL_SPACE
  1

  0
ENDBLK
  5
21
  8
0
  0
BLOCK
 67
     1
  8
0
  2
$PAPER_SPACE
 70
     0
 10
0.0
 20
0.0
 30
0.0
  3
$PAPER_SPACE
  1

  0
ENDBLK
  5
1D
 67
     1
  8
0
  0
ENDSEC
  0
SECTION
  2
ENTITIES
  0
POLYLINE
  5
67
  8
_____1
 62
     0
 66
     1
 10
0.0
 20
0.0
 30
0.0
 70
   129
  0
VERTEX
  5
68
  8
_____1
 62
     0
 10
1061.101753804627
 20
963.8386119538804
 30
0.0
  0
VERTEX
  5
69
  8
_____1
 62
     0
 10
1036.773502632346
 20
956.3529962085609
 30
0.0
  0
VERTEX
  5
6A
  8
_____1
 62
     0
 10
1036.773502632346
 20
956.3529962085609
 30
0.0
  0
VERTEX
  5
6B
  8
_____1
 62
     0
 10
1021.802271141708
 20
958.2244001448903
 30
0.0
  0
VERTEX
  5
6C
  8
_____1
 62
     0
 10
1021.802271141708
 20
958.2244001448903
 30
0.0
  0
VERTEX
  5
6D
  8
_____1
 62
     0
 10
1004.959635714754
 20
950.7387843995734
 30
0.0
  0
VERTEX
  5
6E
  8
_____1
 62
     0
 10
1004.959635714754
 20
950.7387843995734
 30
0.0
  0
VERTEX
  5
6F
  8
_____1
 62
     0
 10
978.7599806061367
 20
928.2819371636183
 30
0.0
  0
VERTEX
  5
70
  8
_____1
 62
     0
 10
978.7599806061367
 20
928.2819371636183
 30
0.0
  0
VERTEX
  5
71
  8
_____1
 62
     0
 10
965.660153051836
 20
903.9536859913355
 30
0.0
  0
VERTEX
  5
72
  8
_____1
 62
     0
 10
965.660153051836
 20
903.9536859913355
 30
0.0
  0
VERTEX
  5
73
  8
_____1
 62
     0
 10
960.0459412428313
 20
881.4968387553818
 30
0.0
  0
VERTEX
  5
74
  8
_____1
 62
     0
 10
960.0459412428313
 20
881.4968387553818
 30
0.0
  0
VERTEX
  5
75
  8
_____1
 62
     0
 10
960.0459412428313
 20
868.3970112010752
 30
0.0
  0
VERTEX
  5
76
  8
_____1
 62
     0
 10
960.0459412428313
 20
868.3970112010752
 30
0.0
  0
VERTEX
  5
77
  8
_____1
 62
     0
 10
946.9461136885307
 20
849.6829718377808
 30
0.0
  0
VERTEX
  5
78
  8
_____1
 62
     0
 10
946.9461136885307
 20
849.6829718377808
 30
0.0
  0
VERTEX
  5
79
  8
_____1
 62
     0
 10
939.4604979432202
 20
825.354720665498
 30
0.0
  0
VERTEX
  5
7A
  8
_____1
 62
     0
 10
939.4604979432202
 20
825.354720665498
 30
0.0
  0
VERTEX
  5
7B
  8
_____1
 62
     0
 10
945.0747097522103
 20
797.2836616205564
 30
0.0
  0
VERTEX
  5
7C
  8
_____1
 62
     0
 10
945.0747097522103
 20
797.2836616205564
 30
0.0
  0
VERTEX
  5
7D
  8
_____1
 62
     0
 10
937.5890940068853
 20
784.1838340662484
 30
0.0
  0
VERTEX
  5
7E
  8
_____1
 62
     0
 10
937.5890940068853
 20
784.1838340662484
 30
0.0
  0
VERTEX
  5
7F
  8
_____1
 62
     0
 10
931.9748821978951
 20
765.4697947029517
 30
0.0
  0
VERTEX
  5
80
  8
_____1
 62
     0
 10
931.9748821978951
 20
765.4697947029517
 30
0.0
  0
VERTEX
  5
81
  8
_____1
 62
     0
 10
933.84628613423
 20
720.5561002310465
 30
0.0
  0
VERTEX
  5
82
  8
_____1
 62
     0
 10
933.84628613423
 20
720.5561002310465
 30
0.0
  0
VERTEX
  5
83
  8
_____1
 62
     0
 10
941.3319018795405
 20
705.5848687404068
 30
0.0
  0
VERTEX
  5
84
  8
_____1
 62
     0
 10
941.3319018795405
 20
705.5848687404068
 30
0.0
  0
VERTEX
  5
85
  8
_____1
 62
     0
 10
935.7176900705649
 20
698.0992529950886
 30
0.0
  0
VERTEX
  5
86
  8
_____1
 62
     0
 10
935.7176900705649
 20
698.0992529950886
 30
0.0
  0
VERTEX
  5
87
  8
_____1
 62
     0
 10
907.6466310256142
 20
692.4850411861025
 30
0.0
  0
VERTEX
  5
88
  8
_____1
 62
     0
 10
907.6466310256142
 20
692.4850411861025
 30
0.0
  0
VERTEX
  5
89
  8
_____1
 62
     0
 10
888.9325916623234
 20
683.128021504453
 30
0.0
  0
VERTEX
  5
8A
  8
_____1
 62
     0
 10
888.9325916623234
 20
683.128021504453
 30
0.0
  0
VERTEX
  5
8B
  8
_____1
 62
     0
 10
877.7041680443413
 20
670.0281939501488
 30
0.0
  0
VERTEX
  5
8C
  8
_____1
 62
     0
 10
877.7041680443413
 20
670.0281939501488
 30
0.0
  0
VERTEX
  5
8D
  8
_____1
 62
     0
 10
866.475744426361
 20
630.7287112872277
 30
0.0
  0
VERTEX
  5
8E
  8
_____1
 62
     0
 10
866.475744426361
 20
630.7287112872277
 30
0.0
  0
VERTEX
  5
8F
  8
_____1
 62
     0
 10
866.475744426361
 20
587.6864207516505
 30
0.0
  0
VERTEX
  5
90
  8
_____1
 62
     0
 10
866.475744426361
 20
587.6864207516505
 30
0.0
  0
VERTEX
  5
91
  8
_____1
 62
     0
 10
845.8903011267498
 20
510.958859362142
 30
0.0
  0
VERTEX
  5
92
  8
_____1
 62
     0
 10
845.8903011267498
 20
510.958859362142
 30
0.0
  0
VERTEX
  5
93
  8
_____1
 62
     0
 10
847.7617050630702
 20
481.0163963808684
 30
0.0
  0
VERTEX
  5
94
  8
_____1
 62
     0
 10
847.7617050630702
 20
481.0163963808684
 30
0.0
  0
VERTEX
  5
95
  8
_____1
 62
     0
 10
853.3759168720603
 20
462.3023570175758
 30
0.0
  0
VERTEX
  5
96
  8
_____1
 62
     0
 10
853.3759168720603
 20
462.3023570175758
 30
0.0
  0
VERTEX
  5
97
  8
_____1
 62
     0
 10
864.6043404900406
 20
443.5883176542791
 30
0.0
  0
VERTEX
  5
98
  8
_____1
 62
     0
 10
864.6043404900406
 20
443.5883176542791
 30
0.0
  0
VERTEX
  5
99
  8
_____1
 62
     0
 10
885.1897837896681
 20
419.2600664819961
 30
0.0
  0
VERTEX
  5
9A
  8
_____1
 62
     0
 10
885.1897837896681
 20
419.2600664819961
 30
0.0
  0
VERTEX
  5
9B
  8
_____1
 62
     0
 10
902.0324192166222
 20
419.2600664819961
 30
0.0
  0
VERTEX
  5
9C
  8
_____1
 62
     0
 10
902.0324192166222
 20
419.2600664819961
 30
0.0
  0
VERTEX
  5
9D
  8
_____1
 62
     0
 10
920.746458579913
 20
436.1027019089631
 30
0.0
  0
VERTEX
  5
9E
  8
_____1
 62
     0
 10
920.746458579913
 20
436.1027019089631
 30
0.0
  0
VERTEX
  5
9F
  8
_____1
 62
     0
 10
924.4892664525846
 20
445.4597215906085
 30
0.0
  0
VERTEX
  5
A0
  8
_____1
 62
     0
 10
924.4892664525846
 20
445.4597215906085
 30
0.0
  0
VERTEX
  5
A1
  8
_____1
 62
     0
 10
928.2320743252399
 20
445.4597215906085
 30
0.0
  0
VERTEX
  5
A2
  8
_____1
 62
     0
 10
928.2320743252399
 20
445.4597215906085
 30
0.0
  0
VERTEX
  5
A3
  8
_____1
 62
     0
 10
909.5180349619491
 20
394.9318153097108
 30
0.0
  0
VERTEX
  5
A4
  8
_____1
 62
     0
 10
909.5180349619491
 20
394.9318153097108
 30
0.0
  0
VERTEX
  5
A5
  8
_____1
 62
     0
 10
905.7752270892938
 20
376.2177759464162
 30
0.0
  0
VERTEX
  5
A6
  8
_____1
 62
     0
 10
905.7752270892938
 20
376.2177759464162
 30
0.0
  0
VERTEX
  5
A7
  8
_____1
 62
     0
 10
907.6466310256142
 20
363.1179483921119
 30
0.0
  0
VERTEX
  5
A8
  8
_____1
 62
     0
 10
907.6466310256142
 20
363.1179483921119
 30
0.0
  0
VERTEX
  5
A9
  8
_____1
 62
     0
 10
900.1610152802873
 20
350.0181208378035
 30
0.0
  0
VERTEX
  5
AA
  8
_____1
 62
     0
 10
900.1610152802873
 20
350.0181208378035
 30
0.0
  0
VERTEX
  5
AB
  8
_____1
 62
     0
 10
883.3183798533314
 20
292.0045988115921
 30
0.0
  0
VERTEX
  5
AC
  8
_____1
 62
     0
 10
883.3183798533314
 20
292.0045988115921
 30
0.0
  0
VERTEX
  5
AD
  8
_____1
 62
     0
 10
873.961360171686
 20
228.3768649763883
 30
0.0
  0
VERTEX
  5
AE
  8
_____1
 62
     0
 10
873.961360171686
 20
228.3768649763883
 30
0.0
  0
VERTEX
  5
AF
  8
_____1
 62
     0
 10
873.961360171686
 20
174.1061508228318
 30
0.0
  0
VERTEX
  5
B0
  8
_____1
 62
     0
 10
873.961360171686
 20
174.1061508228318
 30
0.0
  0
VERTEX
  5
B1
  8
_____1
 62
     0
 10
920.746458579913
 20
-129.0612868625462
 30
0.0
  0
VERTEX
  5
B2
  8
_____1
 62
     0
 10
920.746458579913
 20
-129.0612868625462
 30
0.0
  0
VERTEX
  5
B3
  8
_____1
 62
     0
 10
933.84628613423
 20
-333.0443159224606
 30
0.0
  0
VERTEX
  5
B4
  8
_____1
 62
     0
 10
933.84628613423
 20
-333.0443159224606
 30
0.0
  0
VERTEX
  5
B5
  8
_____1
 62
     0
 10
950.6889215611859
 20
-508.9562859374325
 30
0.0
  0
VERTEX
  5
B6
  8
_____1
 62
     0
 10
950.6889215611859
 20
-508.9562859374325
 30
0.0
  0
VERTEX
  5
B7
  8
_____1
 62
     0
 10
954.4317294338557
 20
-516.4419016827544
 30
0.0
  0
VERTEX
  5
B8
  8
_____1
 62
     0
 10
954.4317294338557
 20
-516.4419016827544
 30
0.0
  0
VERTEX
  5
B9
  8
_____1
 62
     0
 10
973.1457687971465
 20
-523.9275174280722
 30
0.0
  0
VERTEX
  5
BA
  8
_____1
 62
     0
 10
973.1457687971465
 20
-523.9275174280722
 30
0.0
  0
VERTEX
  5
BB
  8
_____1
 62
     0
 10
967.5315569881564
 20
-581.9410394542838
 30
0.0
  0
VERTEX
  5
BC
  8
_____1
 62
     0
 10
967.5315569881564
 20
-581.9410394542838
 30
0.0
  0
VERTEX
  5
BD
  8
_____1
 62
     0
 10
958.174537306511
 20
-613.7549063718827
 30
0.0
  0
VERTEX
  5
BE
  8
_____1
 62
     0
 10
958.174537306511
 20
-613.7549063718827
 30
0.0
  0
VERTEX
  5
BF
  8
_____1
 62
     0
 10
956.3031333701906
 20
-638.083157544168
 30
0.0
  0
VERTEX
  5
C0
  8
_____1
 62
     0
 10
956.3031333701906
 20
-638.083157544168
 30
0.0
  0
VERTEX
  5
C1
  8
_____1
 62
     0
 10
958.174537306511
 20
-651.1829850984761
 30
0.0
  0
VERTEX
  5
C2
  8
_____1
 62
     0
 10
958.174537306511
 20
-651.1829850984761
 30
0.0
  0
VERTEX
  5
C3
  8
_____1
 62
     0
 10
961.9173451791662
 20
-656.7971969074645
 30
0.0
  0
VERTEX
  5
C4
  8
_____1
 62
     0
 10
961.9173451791662
 20
-656.7971969074645
 30
0.0
  0
VERTEX
  5
C5
  8
_____1
 62
     0
 10
980.631384542457
 20
-666.1542165891119
 30
0.0
  0
VERTEX
  5
C6
  8
_____1
 62
     0
 10
980.631384542457
 20
-666.1542165891119
 30
0.0
  0
VERTEX
  5
C7
  8
_____1
 62
     0
 10
1010.573847523728
 20
-664.2828126527804
 30
0.0
  0
VERTEX
  5
C8
  8
_____1
 62
     0
 10
1010.573847523728
 20
-664.2828126527804
 30
0.0
  0
VERTEX
  5
C9
  8
_____1
 62
     0
 10
1023.673675078045
 20
-656.7971969074645
 30
0.0
  0
VERTEX
  5
CA
  8
_____1
 62
     0
 10
1023.673675078045
 20
-656.7971969074645
 30
0.0
  0
VERTEX
  5
CB
  8
_____1
 62
     0
 10
1033.030694759691
 20
-643.6973693531543
 30
0.0
  0
VERTEX
  5
CC
  8
_____1
 62
     0
 10
1033.030694759691
 20
-643.6973693531543
 30
0.0
  0
VERTEX
  5
CD
  8
_____1
 62
     0
 10
1033.030694759691
 20
-606.269290626565
 30
0.0
  0
VERTEX
  5
CE
  8
_____1
 62
     0
 10
1033.030694759691
 20
-606.269290626565
 30
0.0
  0
VERTEX
  5
CF
  8
_____1
 62
     0
 10
1036.773502632346
 20
-576.3268276452934
 30
0.0
  0
VERTEX
  5
D0
  8
_____1
 62
     0
 10
1036.773502632346
 20
-576.3268276452934
 30
0.0
  0
VERTEX
  5
D1
  8
_____1
 62
     0
 10
1033.030694759691
 20
-522.0561134917407
 30
0.0
  0
VERTEX
  5
D2
  8
_____1
 62
     0
 10
1033.030694759691
 20
-522.0561134917407
 30
0.0
  0
VERTEX
  5
D3
  8
_____1
 62
     0
 10
1036.773502632346
 20
-514.5704977464229
 30
0.0
  0
VERTEX
  5
D4
  8
_____1
 62
     0
 10
1036.773502632346
 20
-514.5704977464229
 30
0.0
  0
VERTEX
  5
D5
  8
_____1
 62
     0
 10
1036.773502632346
 20
-432.2287245479224
 30
0.0
  0
VERTEX
  5
D6
  8
_____1
 62
     0
 10
1036.773502632346
 20
-432.2287245479224
 30
0.0
  0
VERTEX
  5
D7
  8
_____1
 62
     0
 10
1029.287886887035
 20
-192.6890206977482
 30
0.0
  0
VERTEX
  5
D8
  8
_____1
 62
     0
 10
1029.287886887035
 20
-192.6890206977482
 30
0.0
  0
VERTEX
  5
D9
  8
_____1
 62
     0
 10
1036.773502632346
 20
82.40735794268767
 30
0.0
  0
VERTEX
  5
DA
  8
_____1
 62
     0
 10
1036.773502632346
 20
82.40735794268767
 30
0.0
  0
VERTEX
  5
DB
  8
_____1
 62
     0
 10
1044.259118377671
 20
164.7491311411843
 30
0.0
  0
VERTEX
  5
DC
  8
_____1
 62
     0
 10
1044.259118377671
 20
164.7491311411843
 30
0.0
  0
VERTEX
  5
DD
  8
_____1
 62
     0
 10
1059.230349868306
 20
114.2212248602905
 30
0.0
  0
VERTEX
  5
DE
  8
_____1
 62
     0
 10
1059.230349868306
 20
114.2212248602905
 30
0.0
  0
VERTEX
  5
DF
  8
_____1
 62
     0
 10
1100.401236467543
 20
-125.3184789898855
 30
0.0
  0
VERTEX
  5
E0
  8
_____1
 62
     0
 10
1100.401236467543
 20
-125.3184789898855
 30
0.0
  0
VERTEX
  5
E1
  8
_____1
 62
     0
 10
1113.501064021858
 20
-177.7177892071145
 30
0.0
  0
VERTEX
  5
E2
  8
_____1
 62
     0
 10
1113.501064021858
 20
-177.7177892071145
 30
0.0
  0
VERTEX
  5
E3
  8
_____1
 62
     0
 10
1134.086507321486
 20
-319.9444883681542
 30
0.0
  0
VERTEX
  5
E4
  8
_____1
 62
     0
 10
1134.086507321486
 20
-319.9444883681542
 30
0.0
  0
VERTEX
  5
E5
  8
_____1
 62
     0
 10
1149.057738812122
 20
-396.6720497576644
 30
0.0
  0
VERTEX
  5
E6
  8
_____1
 62
     0
 10
1149.057738812122
 20
-396.6720497576644
 30
0.0
  0
VERTEX
  5
E7
  8
_____1
 62
     0
 10
1169.643182111747
 20
-523.9275174280722
 30
0.0
  0
VERTEX
  5
E8
  8
_____1
 62
     0
 10
1169.643182111747
 20
-523.9275174280722
 30
0.0
  0
VERTEX
  5
E9
  8
_____1
 62
     0
 10
1186.485817538718
 20
-523.9275174280722
 30
0.0
  0
VERTEX
  5
EA
  8
_____1
 62
     0
 10
1186.485817538718
 20
-523.9275174280722
 30
0.0
  0
VERTEX
  5
EB
  8
_____1
 62
     0
 10
1190.228625411357
 20
-527.6703253007272
 30
0.0
  0
VERTEX
  5
EC
  8
_____1
 62
     0
 10
1190.228625411357
 20
-527.6703253007272
 30
0.0
  0
VERTEX
  5
ED
  8
_____1
 62
     0
 10
1188.357221475038
 20
-574.4554237089699
 30
0.0
  0
VERTEX
  5
EE
  8
_____1
 62
     0
 10
1188.357221475038
 20
-574.4554237089699
 30
0.0
  0
VERTEX
  5
EF
  8
_____1
 62
     0
 10
1193.971433284028
 20
-651.1829850984761
 30
0.0
  0
VERTEX
  5
F0
  8
_____1
 62
     0
 10
1193.971433284028
 20
-651.1829850984761
 30
0.0
  0
VERTEX
  5
F1
  8
_____1
 62
     0
 10
1199.585645093018
 20
-660.5400047801254
 30
0.0
  0
VERTEX
  5
F2
  8
_____1
 62
     0
 10
1199.585645093018
 20
-660.5400047801254
 30
0.0
  0
VERTEX
  5
F3
  8
_____1
 62
     0
 10
1212.685472647319
 20
-666.1542165891119
 30
0.0
  0
VERTEX
  5
F4
  8
_____1
 62
     0
 10
1212.685472647319
 20
-666.1542165891119
 30
0.0
  0
VERTEX
  5
F5
  8
_____1
 62
     0
 10
1250.113551373917
 20
-666.1542165891119
 30
0.0
  0
VERTEX
  5
F6
  8
_____1
 62
     0
 10
1250.113551373917
 20
-666.1542165891119
 30
0.0
  0
VERTEX
  5
F7
  8
_____1
 62
     0
 10
1259.470571055562
 20
-662.4114087164489
 30
0.0
  0
VERTEX
  5
F8
  8
_____1
 62
     0
 10
1259.470571055562
 20
-662.4114087164489
 30
0.0
  0
VERTEX
  5
F9
  8
_____1
 62
     0
 10
1266.956186800871
 20
-654.9257929711332
 30
0.0
  0
VERTEX
  5
FA
  8
_____1
 62
     0
 10
1266.956186800871
 20
-654.9257929711332
 30
0.0
  0
VERTEX
  5
FB
  8
_____1
 62
     0
 10
1270.698994673543
 20
-647.4401772258173
 30
0.0
  0
VERTEX
  5
FC
  8
_____1
 62
     0
 10
1270.698994673543
 20
-647.4401772258173
 30
0.0
  0
VERTEX
  5
FD
  8
_____1
 62
     0
 10
1270.698994673543
 20
-626.8547339261911
 30
0.0
  0
VERTEX
  5
FE
  8
_____1
 62
     0
 10
1270.698994673543
 20
-626.8547339261911
 30
0.0
  0
VERTEX
  5
FF
  8
_____1
 62
     0
 10
1248.24214743758
 20
-520.1847095554094
 30
0.0
  0
VERTEX
  5
100
  8
_____1
 62
     0
 10
1248.24214743758
 20
-520.1847095554094
 30
0.0
  0
VERTEX
  5
101
  8
_____1
 62
     0
 10
1255.727763182907
 20
-510.827689873762
 30
0.0
  0
VERTEX
  5
102
  8
_____1
 62
     0
 10
1255.727763182907
 20
-510.827689873762
 30
0.0
  0
VERTEX
  5
103
  8
_____1
 62
     0
 10
1255.727763182907
 20
-484.6280347651514
 30
0.0
  0
VERTEX
  5
104
  8
_____1
 62
     0
 10
1255.727763182907
 20
-484.6280347651514
 30
0.0
  0
VERTEX
  5
105
  8
_____1
 62
     0
 10
1233.270915946945
 20
-231.9885033606672
 30
0.0
  0
VERTEX
  5
106
  8
_____1
 62
     0
 10
1233.270915946945
 20
-231.9885033606672
 30
0.0
  0
VERTEX
  5
107
  8
_____1
 62
     0
 10
1216.428280519974
 20
-115.9614593082381
 30
0.0
  0
VERTEX
  5
108
  8
_____1
 62
     0
 10
1216.428280519974
 20
-115.9614593082381
 30
0.0
  0
VERTEX
  5
109
  8
_____1
 62
     0
 10
1210.814068710984
 20
-20.51985855543512
 30
0.0
  0
VERTEX
  5
10A
  8
_____1
 62
     0
 10
1210.814068710984
 20
-20.51985855543512
 30
0.0
  0
VERTEX
  5
10B
  8
_____1
 62
     0
 10
1210.814068710984
 20
76.79314613370116
 30
0.0
  0
VERTEX
  5
10C
  8
_____1
 62
     0
 10
1210.814068710984
 20
76.79314613370116
 30
0.0
  0
VERTEX
  5
10D
  8
_____1
 62
     0
 10
1227.656704137955
 20
132.9352642235854
 30
0.0
  0
VERTEX
  5
10E
  8
_____1
 62
     0
 10
1227.656704137955
 20
132.9352642235854
 30
0.0
  0
VERTEX
  5
10F
  8
_____1
 62
     0
 10
1223.913896265299
 20
205.9200177404327
 30
0.0
  0
VERTEX
  5
110
  8
_____1
 62
     0
 10
1223.913896265299
 20
205.9200177404327
 30
0.0
  0
VERTEX
  5
111
  8
_____1
 62
     0
 10
1235.142319883281
 20
265.8049437029777
 30
0.0
  0
VERTEX
  5
112
  8
_____1
 62
     0
 10
1235.142319883281
 20
265.8049437029777
 30
0.0
  0
VERTEX
  5
113
  8
_____1
 62
     0
 10
1240.756531692255
 20
331.3040814745091
 30
0.0
  0
VERTEX
  5
114
  8
_____1
 62
     0
 10
1240.756531692255
 20
331.3040814745091
 30
0.0
  0
VERTEX
  5
115
  8
_____1
 62
     0
 10
1240.756531692255
 20
415.517258609337
 30
0.0
  0
VERTEX
  5
116
  8
_____1
 62
     0
 10
1240.756531692255
 20
415.517258609337
 30
0.0
  0
VERTEX
  5
117
  8
_____1
 62
     0
 10
1237.0137238196
 20
449.2025294632674
 30
0.0
  0
VERTEX
  5
118
  8
_____1
 62
     0
 10
1237.0137238196
 20
449.2025294632674
 30
0.0
  0
VERTEX
  5
119
  8
_____1
 62
     0
 10
1235.142319883281
 20
540.9013223434135
 30
0.0
  0
VERTEX
  5
11A
  8
_____1
 62
     0
 10
1235.142319883281
 20
540.9013223434135
 30
0.0
  0
VERTEX
  5
11B
  8
_____1
 62
     0
 10
1229.528108074289
 20
621.3716916055823
 30
0.0
  0
VERTEX
  5
11C
  8
_____1
 62
     0
 10
1229.528108074289
 20
621.3716916055823
 30
0.0
  0
VERTEX
  5
11D
  8
_____1
 62
     0
 10
1225.785300201636
 20
645.6999427778637
 30
0.0
  0
VERTEX
  5
11E
  8
_____1
 62
     0
 10
1225.785300201636
 20
645.6999427778637
 30
0.0
  0
VERTEX
  5
11F
  8
_____1
 62
     0
 10
1212.685472647319
 20
673.7710018228076
 30
0.0
  0
VERTEX
  5
120
  8
_____1
 62
     0
 10
1212.685472647319
 20
673.7710018228076
 30
0.0
  0
VERTEX
  5
121
  8
_____1
 62
     0
 10
1201.457049029339
 20
683.128021504453
 30
0.0
  0
VERTEX
  5
122
  8
_____1
 62
     0
 10
1201.457049029339
 20
683.128021504453
 30
0.0
  0
VERTEX
  5
123
  8
_____1
 62
     0
 10
1165.900374239092
 20
698.0992529950886
 30
0.0
  0
VERTEX
  5
124
  8
_____1
 62
     0
 10
1165.900374239092
 20
698.0992529950886
 30
0.0
  0
VERTEX
  5
125
  8
_____1
 62
     0
 10
1152.800546684777
 20
709.3276766130698
 30
0.0
  0
VERTEX
  5
126
  8
_____1
 62
     0
 10
1152.800546684777
 20
709.3276766130698
 30
0.0
  0
VERTEX
  5
127
  8
_____1
 62
     0
 10
1152.800546684777
 20
714.9418884220563
 30
0.0
  0
VERTEX
  5
128
  8
_____1
 62
     0
 10
1152.800546684777
 20
714.9418884220563
 30
0.0
  0
VERTEX
  5
129
  8
_____1
 62
     0
 10
1173.385989984403
 20
731.7845238490195
 30
0.0
  0
VERTEX
  5
12A
  8
_____1
 62
     0
 10
1173.385989984403
 20
731.7845238490195
 30
0.0
  0
VERTEX
  5
12B
  8
_____1
 62
     0
 10
1173.385989984403
 20
746.7557553396591
 30
0.0
  0
VERTEX
  5
12C
  8
_____1
 62
     0
 10
1173.385989984403
 20
746.7557553396591
 30
0.0
  0
VERTEX
  5
12D
  8
_____1
 62
     0
 10
1167.771778175412
 20
761.7269868302951
 30
0.0
  0
VERTEX
  5
12E
  8
_____1
 62
     0
 10
1167.771778175412
 20
761.7269868302951
 30
0.0
  0
VERTEX
  5
12F
  8
_____1
 62
     0
 10
1154.671950621112
 20
780.4410261935896
 30
0.0
  0
VERTEX
  5
130
  8
_____1
 62
     0
 10
1154.671950621112
 20
780.4410261935896
 30
0.0
  0
VERTEX
  5
131
  8
_____1
 62
     0
 10
1152.800546684777
 20
795.4122576842251
 30
0.0
  0
VERTEX
  5
132
  8
_____1
 62
     0
 10
1152.800546684777
 20
795.4122576842251
 30
0.0
  0
VERTEX
  5
133
  8
_____1
 62
     0
 10
1162.157566366422
 20
817.8691049201789
 30
0.0
  0
VERTEX
  5
134
  8
_____1
 62
     0
 10
1162.157566366422
 20
817.8691049201789
 30
0.0
  0
VERTEX
  5
135
  8
_____1
 62
     0
 10
1162.157566366422
 20
829.0975285381546
 30
0.0
  0
VERTEX
  5
136
  8
_____1
 62
     0
 10
1162.157566366422
 20
829.0975285381546
 30
0.0
  0
VERTEX
  5
137
  8
_____1
 62
     0
 10
1154.671950621112
 20
849.6829718377808
 30
0.0
  0
VERTEX
  5
138
  8
_____1
 62
     0
 10
1154.671950621112
 20
849.6829718377808
 30
0.0
  0
VERTEX
  5
139
  8
_____1
 62
     0
 10
1141.572123066795
 20
866.5256072647458
 30
0.0
  0
VERTEX
  5
13A
  8
_____1
 62
     0
 10
1141.572123066795
 20
866.5256072647458
 30
0.0
  0
VERTEX
  5
13B
  8
_____1
 62
     0
 10
1137.829315194139
 20
903.9536859913355
 30
0.0
  0
VERTEX
  5
13C
  8
_____1
 62
     0
 10
1137.829315194139
 20
903.9536859913355
 30
0.0
  0
VERTEX
  5
13D
  8
_____1
 62
     0
 10
1126.600891576176
 20
924.5391292909594
 30
0.0
  0
VERTEX
  5
13E
  8
_____1
 62
     0
 10
1126.600891576176
 20
924.5391292909594
 30
0.0
  0
VERTEX
  5
13F
  8
_____1
 62
     0
 10
1106.01544827655
 20
946.9959765269132
 30
0.0
  0
VERTEX
  5
140
  8
_____1
 62
     0
 10
1106.01544827655
 20
946.9959765269132
 30
0.0
  0
VERTEX
  5
141
  8
_____1
 62
     0
 10
1083.558601040587
 20
960.0958040812216
 30
0.0
  0
VERTEX
  5
142
  8
_____1
 62
     0
 10
1083.558601040587
 20
960.0958040812216
 30
0.0
  0
VERTEX
  5
143
  8
_____1
 62
     0
 10
1061.101753804627
 20
963.8386119538804
 30
0.0
  0
SEQEND
  5
144
  8
_____1
 62
     0
  0
POLYLINE
  5
145
  8
_____1
  6
CONTINUOUS
 62
     0
 66
     1
 10
0.0
 20
0.0
 30
0.0
 70
   129
  0
VERTEX
  5
146
  8
_____1
  6
CONTINUOUS
 62
     0
 10
1061.101753804627
 20
963.8386119538804
 30
0.0
  0
VERTEX
  5
147
  8
_____1
  6
CONTINUOUS
 62
     0
 10
1036.773502632346
 20
956.3529962085609
 30
0.0
  0
VERTEX
  5
148
  8
_____1
  6
CONTINUOUS
 62
     0
 10
1021.802271141708
 20
958.2244001448903
 30
0.0
  0
VERTEX
  5
149
  8
_____1
  6
CONTINUOUS
 62
     0
 10
1004.959635714754
 20
950.7387843995734
 30
0.0
  0
VERTEX
  5
14A
  8
_____1
  6
CONTINUOUS
 62
     0
 10
978.7599806061367
 20
928.2819371636183
 30
0.0
  0
VERTEX
  5
14B
  8
_____1
  6
CONTINUOUS
 62
     0
 10
965.660153051836
 20
903.9536859913355
 30
0.0
  0
VERTEX
  5
14C
  8
_____1
  6
CONTINUOUS
 62
     0
 10
960.0459412428313
 20
881.4968387553818
 30
0.0
  0
VERTEX
  5
14D
  8
_____1
  6
CONTINUOUS
 62
     0
 10
960.0459412428313
 20
868.3970112010752
 30
0.0
  0
VERTEX
  5
14E
  8
_____1
  6
CONTINUOUS
 62
     0
 10
946.9461136885307
 20
849.6829718377808
 30
0.0
  0
VERTEX
  5
14F
  8
_____1
  6
CONTINUOUS
 62
     0
 10
939.4604979432202
 20
825.354720665498
 30
0.0
  0
VERTEX
  5
150
  8
_____1
  6
CONTINUOUS
 62
     0
 10
945.0747097522103
 20
797.2836616205564
 30
0.0
  0
VERTEX
  5
151
  8
_____1
  6
CONTINUOUS
 62
     0
 10
937.5890940068853
 20
784.1838340662484
 30
0.0
  0
VERTEX
  5
152
  8
_____1
  6
CONTINUOUS
 62
     0
 10
931.9748821978951
 20
765.4697947029517
 30
0.0
  0
VERTEX
  5
153
  8
_____1
  6
CONTINUOUS
 62
     0
 10
933.84628613423
 20
720.5561002310465
 30
0.0
  0
VERTEX
  5
154
  8
_____1
  6
CONTINUOUS
 62
     0
 10
941.3319018795405
 20
705.5848687404068
 30
0.0
  0
VERTEX
  5
155
  8
_____1
  6
CONTINUOUS
 62
     0
 10
935.7176900705649
 20
698.0992529950886
 30
0.0
  0
VERTEX
  5
156
  8
_____1
  6
CONTINUOUS
 62
     0
 10
907.6466310256142
 20
692.4850411861025
 30
0.0
  0
VERTEX
  5
157
  8
_____1
  6
CONTINUOUS
 62
     0
 10
888.9325916623234
 20
683.128021504453
 30
0.0
  0
VERTEX
  5
158
  8
_____1
  6
CONTINUOUS
 62
     0
 10
877.7041680443413
 20
670.0281939501488
 30
0.0
  0
VERTEX
  5
159
  8
_____1
  6
CONTINUOUS
 62
     0
 10
866.475744426361
 20
630.7287112872277
 30
0.0
  0
VERTEX
  5
15A
  8
_____1
  6
CONTINUOUS
 62
     0
 10
866.475744426361
 20
587.6864207516505
 30
0.0
  0
VERTEX
  5
15B
  8
_____1
  6
CONTINUOUS
 62
     0
 10
845.8903011267498
 20
510.958859362142
 30
0.0
  0
VERTEX
  5
15C
  8
_____1
  6
CONTINUOUS
 62
     0
 10
847.7617050630702
 20
481.0163963808684
 30
0.0
  0
VERTEX
  5
15D
  8
_____1
  6
CONTINUOUS
 62
     0
 10
853.3759168720603
 20
462.3023570175758
 30
0.0
  0
VERTEX
  5
15E
  8
_____1
  6
CONTINUOUS
 62
     0
 10
864.6043404900406
 20
443.5883176542791
 30
0.0
  0
VERTEX
  5
15F
  8
_____1
  6
CONTINUOUS
 62
     0
 10
885.1897837896681
 20
419.2600664819961
 30
0.0
  0
VERTEX
  5
160
  8
_____1
  6
CONTINUOUS
 62
     0
 10
902.0324192166222
 20
419.2600664819961
 30
0.0
  0
VERTEX
  5
161
  8
_____1
  6
CONTINUOUS
 62
     0
 10
920.746458579913
 20
436.1027019089631
 30
0.0
  0
VERTEX
  5
162
  8
_____1
  6
CONTINUOUS
 62
     0
 10
924.4892664525846
 20
445.4597215906085
 30
0.0
  0
VERTEX
  5
163
  8
_____1
  6
CONTINUOUS
 62
     0
 10
928.2320743252399
 20
445.4597215906085
 30
0.0
  0
VERTEX
  5
164
  8
_____1
  6
CONTINUOUS
 62
     0
 10
909.5180349619491
 20
394.9318153097108
 30
0.0
  0
VERTEX
  5
165
  8
_____1
  6
CONTINUOUS
 62
     0
 10
905.7752270892938
 20
376.2177759464162
 30
0.0
  0
VERTEX
  5
166
  8
_____1
  6
CONTINUOUS
 62
     0
 10
907.6466310256142
 20
363.1179483921119
 30
0.0
  0
VERTEX
  5
167
  8
_____1
  6
CONTINUOUS
 62
     0
 10
900.1610152802873
 20
350.0181208378035
 30
0.0
  0
VERTEX
  5
168
  8
_____1
  6
CONTINUOUS
 62
     0
 10
883.3183798533314
 20
292.0045988115921
 30
0.0
  0
VERTEX
  5
169
  8
_____1
  6
CONTINUOUS
 62
     0
 10
873.961360171686
 20
228.3768649763883
 30
0.0
  0
VERTEX
  5
16A
  8
_____1
  6
CONTINUOUS
 62
     0
 10
873.961360171686
 20
174.1061508228318
 30
0.0
  0
VERTEX
  5
16B
  8
_____1
  6
CONTINUOUS
 62
     0
 10
920.746458579913
 20
-129.0612868625462
 30
0.0
  0
VERTEX
  5
16C
  8
_____1
  6
CONTINUOUS
 62
     0
 10
933.84628613423
 20
-333.0443159224606
 30
0.0
  0
VERTEX
  5
16D
  8
_____1
  6
CONTINUOUS
 62
     0
 10
950.6889215611859
 20
-508.9562859374325
 30
0.0
  0
VERTEX
  5
16E
  8
_____1
  6
CONTINUOUS
 62
     0
 10
954.4317294338557
 20
-516.4419016827544
 30
0.0
  0
VERTEX
  5
16F
  8
_____1
  6
CONTINUOUS
 62
     0
 10
973.1457687971465
 20
-523.9275174280722
 30
0.0
  0
VERTEX
  5
170
  8
_____1
  6
CONTINUOUS
 62
     0
 10
967.5315569881564
 20
-581.9410394542838
 30
0.0
  0
VERTEX
  5
171
  8
_____1
  6
CONTINUOUS
 62
     0
 10
958.174537306511
 20
-613.7549063718827
 30
0.0
  0
VERTEX
  5
172
  8
_____1
  6
CONTINUOUS
 62
     0
 10
956.3031333701906
 20
-638.083157544168
 30
0.0
  0
VERTEX
  5
173
  8
_____1
  6
CONTINUOUS
 62
     0
 10
958.174537306511
 20
-651.1829850984761
 30
0.0
  0
VERTEX
  5
174
  8
_____1
  6
CONTINUOUS
 62
     0
 10
961.9173451791662
 20
-656.7971969074645
 30
0.0
  0
VERTEX
  5
175
  8
_____1
  6
CONTINUOUS
 62
     0
 10
980.631384542457
 20
-666.1542165891119
 30
0.0
  0
VERTEX
  5
176
  8
_____1
  6
CONTINUOUS
 62
     0
 10
1010.573847523728
 20
-664.2828126527804
 30
0.0
  0
VERTEX
  5
177
  8
_____1
  6
CONTINUOUS
 62
     0
 10
1023.673675078045
 20
-656.7971969074645
 30
0.0
  0
VERTEX
  5
178
  8
_____1
  6
CONTINUOUS
 62
     0
 10
1033.030694759691
 20
-643.6973693531543
 30
0.0
  0
VERTEX
  5
179
  8
_____1
  6
CONTINUOUS
 62
     0
 10
1033.030694759691
 20
-606.269290626565
 30
0.0
  0
VERTEX
  5
17A
  8
_____1
  6
CONTINUOUS
 62
     0
 10
1036.773502632346
 20
-576.3268276452934
 30
0.0
  0
VERTEX
  5
17B
  8
_____1
  6
CONTINUOUS
 62
     0
 10
1033.030694759691
 20
-522.0561134917407
 30
0.0
  0
VERTEX
  5
17C
  8
_____1
  6
CONTINUOUS
 62
     0
 10
1036.773502632346
 20
-514.5704977464229
 30
0.0
  0
VERTEX
  5
17D
  8
_____1
  6
CONTINUOUS
 62
     0
 10
1036.773502632346
 20
-432.2287245479224
 30
0.0
  0
VERTEX
  5
17E
  8
_____1
  6
CONTINUOUS
 62
     0
 10
1029.287886887035
 20
-192.6890206977482
 30
0.0
  0
VERTEX
  5
17F
  8
_____1
  6
CONTINUOUS
 62
     0
 10
1036.773502632346
 20
82.40735794268767
 30
0.0
  0
VERTEX
  5
180
  8
_____1
  6
CONTINUOUS
 62
     0
 10
1044.259118377671
 20
164.7491311411843
 30
0.0
  0
VERTEX
  5
181
  8
_____1
  6
CONTINUOUS
 62
     0
 10
1059.230349868306
 20
114.2212248602905
 30
0.0
  0
VERTEX
  5
182
  8
_____1
  6
CONTINUOUS
 62
     0
 10
1100.401236467543
 20
-125.3184789898855
 30
0.0
  0
VERTEX
  5
183
  8
_____1
  6
CONTINUOUS
 62
     0
 10
1113.501064021858
 20
-177.7177892071145
 30
0.0
  0
VERTEX
  5
184
  8
_____1
  6
CONTINUOUS
 62
     0
 10
1134.086507321486
 20
-319.9444883681542
 30
0.0
  0
VERTEX
  5
185
  8
_____1
  6
CONTINUOUS
 62
     0
 10
1149.057738812122
 20
-396.6720497576644
 30
0.0
  0
VERTEX
  5
186
  8
_____1
  6
CONTINUOUS
 62
     0
 10
1169.643182111747
 20
-523.9275174280722
 30
0.0
  0
VERTEX
  5
187
  8
_____1
  6
CONTINUOUS
 62
     0
 10
1186.485817538718
 20
-523.9275174280722
 30
0.0
  0
VERTEX
  5
188
  8
_____1
  6
CONTINUOUS
 62
     0
 10
1190.228625411357
 20
-527.6703253007272
 30
0.0
  0
VERTEX
  5
189
  8
_____1
  6
CONTINUOUS
 62
     0
 10
1188.357221475038
 20
-574.4554237089699
 30
0.0
  0
VERTEX
  5
18A
  8
_____1
  6
CONTINUOUS
 62
     0
 10
1193.971433284028
 20
-651.1829850984761
 30
0.0
  0
VERTEX
  5
18B
  8
_____1
  6
CONTINUOUS
 62
     0
 10
1199.585645093018
 20
-660.5400047801254
 30
0.0
  0
VERTEX
  5
18C
  8
_____1
  6
CONTINUOUS
 62
     0
 10
1212.685472647319
 20
-666.1542165891119
 30
0.0
  0
VERTEX
  5
18D
  8
_____1
  6
CONTINUOUS
 62
     0
 10
1250.113551373917
 20
-666.1542165891119
 30
0.0
  0
VERTEX
  5
18E
  8
_____1
  6
CONTINUOUS
 62
     0
 10
1259.470571055562
 20
-662.4114087164489
 30
0.0
  0
VERTEX
  5
18F
  8
_____1
  6
CONTINUOUS
 62
     0
 10
1266.956186800871
 20
-654.9257929711332
 30
0.0
  0
VERTEX
  5
190
  8
_____1
  6
CONTINUOUS
 62
     0
 10
1270.698994673543
 20
-647.4401772258173
 30
0.0
  0
VERTEX
  5
191
  8
_____1
  6
CONTINUOUS
 62
     0
 10
1270.698994673543
 20
-626.8547339261911
 30
0.0
  0
VERTEX
  5
192
  8
_____1
  6
CONTINUOUS
 62
     0
 10
1248.24214743758
 20
-520.1847095554094
 30
0.0
  0
VERTEX
  5
193
  8
_____1
  6
CONTINUOUS
 62
     0
 10
1255.727763182907
 20
-510.827689873762
 30
0.0
  0
VERTEX
  5
194
  8
_____1
  6
CONTINUOUS
 62
     0
 10
1255.727763182907
 20
-484.6280347651514
 30
0.0
  0
VERTEX
  5
195
  8
_____1
  6
CONTINUOUS
 62
     0
 10
1233.270915946945
 20
-231.9885033606672
 30
0.0
  0
VERTEX
  5
196
  8
_____1
  6
CONTINUOUS
 62
     0
 10
1216.428280519974
 20
-115.9614593082381
 30
0.0
  0
VERTEX
  5
197
  8
_____1
  6
CONTINUOUS
 62
     0
 10
1210.814068710984
 20
-20.51985855543512
 30
0.0
  0
VERTEX
  5
198
  8
_____1
  6
CONTINUOUS
 62
     0
 10
1210.814068710984
 20
76.79314613370116
 30
0.0
  0
VERTEX
  5
199
  8
_____1
  6
CONTINUOUS
 62
     0
 10
1227.656704137955
 20
132.9352642235854
 30
0.0
  0
VERTEX
  5
19A
  8
_____1
  6
CONTINUOUS
 62
     0
 10
1223.913896265299
 20
205.9200177404327
 30
0.0
  0
VERTEX
  5
19B
  8
_____1
  6
CONTINUOUS
 62
     0
 10
1235.142319883281
 20
265.8049437029777
 30
0.0
  0
VERTEX
  5
19C
  8
_____1
  6
CONTINUOUS
 62
     0
 10
1240.756531692255
 20
331.3040814745091
 30
0.0
  0
VERTEX
  5
19D
  8
_____1
  6
CONTINUOUS
 62
     0
 10
1240.756531692255
 20
415.517258609337
 30
0.0
  0
VERTEX
  5
19E
  8
_____1
  6
CONTINUOUS
 62
     0
 10
1237.0137238196
 20
449.2025294632674
 30
0.0
  0
VERTEX
  5
19F
  8
_____1
  6
CONTINUOUS
 62
     0
 10
1235.142319883281
 20
540.9013223434135
 30
0.0
  0
VERTEX
  5
1A0
  8
_____1
  6
CONTINUOUS
 62
     0
 10
1229.528108074289
 20
621.3716916055823
 30
0.0
  0
VERTEX
  5
1A1
  8
_____1
  6
CONTINUOUS
 62
     0
 10
1225.785300201636
 20
645.6999427778637
 30
0.0
  0
VERTEX
  5
1A2
  8
_____1
  6
CONTINUOUS
 62
     0
 10
1212.685472647319
 20
673.7710018228076
 30
0.0
  0
VERTEX
  5
1A3
  8
_____1
  6
CONTINUOUS
 62
     0
 10
1201.457049029339
 20
683.128021504453
 30
0.0
  0
VERTEX
  5
1A4
  8
_____1
  6
CONTINUOUS
 62
     0
 10
1165.900374239092
 20
698.0992529950886
 30
0.0
  0
VERTEX
  5
1A5
  8
_____1
  6
CONTINUOUS
 62
     0
 10
1152.800546684777
 20
709.3276766130698
 30
0.0
  0
VERTEX
  5
1A6
  8
_____1
  6
CONTINUOUS
 62
     0
 10
1152.800546684777
 20
714.9418884220563
 30
0.0
  0
VERTEX
  5
1A7
  8
_____1
  6
CONTINUOUS
 62
     0
 10
1173.385989984403
 20
731.7845238490195
 30
0.0
  0
VERTEX
  5
1A8
  8
_____1
  6
CONTINUOUS
 62
     0
 10
1173.385989984403
 20
746.7557553396591
 30
0.0
  0
VERTEX
  5
1A9
  8
_____1
  6
CONTINUOUS
 62
     0
 10
1167.771778175412
 20
761.7269868302951
 30
0.0
  0
VERTEX
  5
1AA
  8
_____1
  6
CONTINUOUS
 62
     0
 10
1154.671950621112
 20
780.4410261935896
 30
0.0
  0
VERTEX
  5
1AB
  8
_____1
  6
CONTINUOUS
 62
     0
 10
1152.800546684777
 20
795.4122576842251
 30
0.0
  0
VERTEX
  5
1AC
  8
_____1
  6
CONTINUOUS
 62
     0
 10
1162.157566366422
 20
817.8691049201789
 30
0.0
  0
VERTEX
  5
1AD
  8
_____1
  6
CONTINUOUS
 62
     0
 10
1162.157566366422
 20
829.0975285381546
 30
0.0
  0
VERTEX
  5
1AE
  8
_____1
  6
CONTINUOUS
 62
     0
 10
1154.671950621112
 20
849.6829718377808
 30
0.0
  0
VERTEX
  5
1AF
  8
_____1
  6
CONTINUOUS
 62
     0
 10
1141.572123066795
 20
866.5256072647458
 30
0.0
  0
VERTEX
  5
1B0
  8
_____1
  6
CONTINUOUS
 62
     0
 10
1137.829315194139
 20
903.9536859913355
 30
0.0
  0
VERTEX
  5
1B1
  8
_____1
  6
CONTINUOUS
 62
     0
 10
1126.600891576176
 20
924.5391292909594
 30
0.0
  0
VERTEX
  5
1B2
  8
_____1
  6
CONTINUOUS
 62
     0
 10
1106.01544827655
 20
946.9959765269132
 30
0.0
  0
VERTEX
  5
1B3
  8
_____1
  6
CONTINUOUS
 62
     0
 10
1083.558601040587
 20
960.0958040812216
 30
0.0
  0
SEQEND
  5
1B4
  8
_____1
  6
CONTINUOUS
 62
     0
  0
POLYLINE
  5
1B5
  8
_____1
 62
     0
 66
     1
 10
0.0
 20
0.0
 30
0.0
 70
   129
  0
VERTEX
  5
1B6
  8
_____1
 62
     0
 10
540.8514595050287
 20
967.5814198265375
 30
0.0
  0
VERTEX
  5
1B7
  8
_____1
 62
     0
 10
512.7804004600926
 20
952.610188335902
 30
0.0
  0
VERTEX
  5
1B8
  8
_____1
 62
     0
 10
512.7804004600926
 20
952.610188335902
 30
0.0
  0
VERTEX
  5
1B9
  8
_____1
 62
     0
 10
497.809168969457
 20
937.6389568452646
 30
0.0
  0
VERTEX
  5
1BA
  8
_____1
 62
     0
 10
497.809168969457
 20
937.6389568452646
 30
0.0
  0
VERTEX
  5
1BB
  8
_____1
 62
     0
 10
480.9665335424866
 20
905.825089927665
 30
0.0
  0
VERTEX
  5
1BC
  8
_____1
 62
     0
 10
480.9665335424866
 20
905.825089927665
 30
0.0
  0
VERTEX
  5
1BD
  8
_____1
 62
     0
 10
467.8667059881859
 20
851.5543757741084
 30
0.0
  0
VERTEX
  5
1BE
  8
_____1
 62
     0
 10
467.8667059881859
 20
851.5543757741084
 30
0.0
  0
VERTEX
  5
1BF
  8
_____1
 62
     0
 10
452.8954744975504
 20
726.170312040033
 30
0.0
  0
VERTEX
  5
1C0
  8
_____1
 62
     0
 10
452.8954744975504
 20
726.170312040033
 30
0.0
  0
VERTEX
  5
1C1
  8
_____1
 62
     0
 10
441.6670508795701
 20
713.0704844857269
 30
0.0
  0
VERTEX
  5
1C2
  8
_____1
 62
     0
 10
441.6670508795701
 20
713.0704844857269
 30
0.0
  0
VERTEX
  5
1C3
  8
_____1
 62
     0
 10
415.4673957709524
 20
703.7134648040792
 30
0.0
  0
VERTEX
  5
1C4
  8
_____1
 62
     0
 10
415.4673957709524
 20
703.7134648040792
 30
0.0
  0
VERTEX
  5
1C5
  8
_____1
 62
     0
 10
394.8819524713431
 20
690.6136372497749
 30
0.0
  0
VERTEX
  5
1C6
  8
_____1
 62
     0
 10
394.8819524713431
 20
690.6136372497749
 30
0.0
  0
VERTEX
  5
1C7
  8
_____1
 62
     0
 10
381.7821249170261
 20
671.89959788648
 30
0.0
  0
VERTEX
  5
1C8
  8
_____1
 62
     0
 10
381.7821249170261
 20
671.89959788648
 30
0.0
  0
VERTEX
  5
1C9
  8
_____1
 62
     0
 10
376.1679131080359
 20
651.3141545868543
 30
0.0
  0
VERTEX
  5
1CA
  8
_____1
 62
     0
 10
376.1679131080359
 20
651.3141545868543
 30
0.0
  0
VERTEX
  5
1CB
  8
_____1
 62
     0
 10
368.6822973627109
 20
587.6864207516505
 30
0.0
  0
VERTEX
  5
1CC
  8
_____1
 62
     0
 10
368.6822973627109
 20
587.6864207516505
 30
0.0
  0
VERTEX
  5
1CD
  8
_____1
 62
     0
 10
364.9394894900556
 20
462.3023570175758
 30
0.0
  0
VERTEX
  5
1CE
  8
_____1
 62
     0
 10
364.9394894900556
 20
462.3023570175758
 30
0.0
  0
VERTEX
  5
1CF
  8
_____1
 62
     0
 10
357.4538737447451
 20
383.703391691738
 30
0.0
  0
VERTEX
  5
1D0
  8
_____1
 62
     0
 10
357.4538737447451
 20
383.703391691738
 30
0.0
  0
VERTEX
  5
1D1
  8
_____1
 62
     0
 10
357.4538737447451
 20
205.9200177404327
 30
0.0
  0
VERTEX
  5
1D2
  8
_____1
 62
     0
 10
357.4538737447451
 20
205.9200177404327
 30
0.0
  0
VERTEX
  5
1D3
  8
_____1
 62
     0
 10
361.1966816174004
 20
202.1772098677736
 30
0.0
  0
VERTEX
  5
1D4
  8
_____1
 62
     0
 10
361.1966816174004
 20
202.1772098677736
 30
0.0
  0
VERTEX
  5
1D5
  8
_____1
 62
     0
 10
357.4538737447451
 20
142.2922839052308
 30
0.0
  0
VERTEX
  5
1D6
  8
_____1
 62
     0
 10
357.4538737447451
 20
142.2922839052308
 30
0.0
  0
VERTEX
  5
1D7
  8
_____1
 62
     0
 10
364.9394894900556
 20
112.3498209239592
 30
0.0
  0
VERTEX
  5
1D8
  8
_____1
 62
     0
 10
364.9394894900556
 20
112.3498209239592
 30
0.0
  0
VERTEX
  5
1D9
  8
_____1
 62
     0
 10
374.2965091717156
 20
93.63578156066433
 30
0.0
  0
VERTEX
  5
1DA
  8
_____1
 62
     0
 10
374.2965091717156
 20
93.63578156066433
 30
0.0
  0
VERTEX
  5
1DB
  8
_____1
 62
     0
 10
383.653528853361
 20
84.27876187901711
 30
0.0
  0
VERTEX
  5
1DC
  8
_____1
 62
     0
 10
383.653528853361
 20
84.27876187901711
 30
0.0
  0
VERTEX
  5
1DD
  8
_____1
 62
     0
 10
404.2389721529885
 20
73.05033826103818
 30
0.0
  0
VERTEX
  5
1DE
  8
_____1
 62
     0
 10
404.2389721529885
 20
73.05033826103818
 30
0.0
  0
VERTEX
  5
1DF
  8
_____1
 62
     0
 10
407.9817800256419
 20
67.4361264520519
 30
0.0
  0
VERTEX
  5
1E0
  8
_____1
 62
     0
 10
407.9817800256419
 20
67.4361264520519
 30
0.0
  0
VERTEX
  5
1E1
  8
_____1
 62
     0
 10
441.6670508795701
 20
-151.5181340985
 30
0.0
  0
VERTEX
  5
1E2
  8
_____1
 62
     0
 10
441.6670508795701
 20
-151.5181340985
 30
0.0
  0
VERTEX
  5
1E3
  8
_____1
 62
     0
 10
443.538454815905
 20
-261.9309663419385
 30
0.0
  0
VERTEX
  5
1E4
  8
_____1
 62
     0
 10
443.538454815905
 20
-261.9309663419385
 30
0.0
  0
VERTEX
  5
1E5
  8
_____1
 62
     0
 10
462.2524941791958
 20
-514.5704977464229
 30
0.0
  0
VERTEX
  5
1E6
  8
_____1
 62
     0
 10
462.2524941791958
 20
-514.5704977464229
 30
0.0
  0
VERTEX
  5
1E7
  8
_____1
 62
     0
 10
467.8667059881859
 20
-520.1847095554094
 30
0.0
  0
VERTEX
  5
1E8
  8
_____1
 62
     0
 10
467.8667059881859
 20
-520.1847095554094
 30
0.0
  0
VERTEX
  5
1E9
  8
_____1
 62
     0
 10
486.5807453514767
 20
-522.0561134917407
 30
0.0
  0
VERTEX
  5
1EA
  8
_____1
 62
     0
 10
486.5807453514767
 20
-522.0561134917407
 30
0.0
  0
VERTEX
  5
1EB
  8
_____1
 62
     0
 10
494.0663610968018
 20
-527.6703253007272
 30
0.0
  0
VERTEX
  5
1EC
  8
_____1
 62
     0
 10
494.0663610968018
 20
-527.6703253007272
 30
0.0
  0
VERTEX
  5
1ED
  8
_____1
 62
     0
 10
492.1949571604669
 20
-581.9410394542838
 30
0.0
  0
VERTEX
  5
1EE
  8
_____1
 62
     0
 10
492.1949571604669
 20
-581.9410394542838
 30
0.0
  0
VERTEX
  5
1EF
  8
_____1
 62
     0
 10
488.4521492877971
 20
-602.5264827539099
 30
0.0
  0
VERTEX
  5
1F0
  8
_____1
 62
     0
 10
488.4521492877971
 20
-602.5264827539099
 30
0.0
  0
VERTEX
  5
1F1
  8
_____1
 62
     0
 10
482.8379374788215
 20
-613.7549063718827
 30
0.0
  0
VERTEX
  5
1F2
  8
_____1
 62
     0
 10
482.8379374788215
 20
-613.7549063718827
 30
0.0
  0
VERTEX
  5
1F3
  8
_____1
 62
     0
 10
484.7093414151564
 20
-649.3115811621487
 30
0.0
  0
VERTEX
  5
1F4
  8
_____1
 62
     0
 10
484.7093414151564
 20
-649.3115811621487
 30
0.0
  0
VERTEX
  5
1F5
  8
_____1
 62
     0
 10
495.9377650331221
 20
-660.5400047801254
 30
0.0
  0
VERTEX
  5
1F6
  8
_____1
 62
     0
 10
495.9377650331221
 20
-660.5400047801254
 30
0.0
  0
VERTEX
  5
1F7
  8
_____1
 62
     0
 10
505.2947847147675
 20
-664.2828126527804
 30
0.0
  0
VERTEX
  5
1F8
  8
_____1
 62
     0
 10
505.2947847147675
 20
-664.2828126527804
 30
0.0
  0
VERTEX
  5
1F9
  8
_____1
 62
     0
 10
533.3658437597201
 20
-664.2828126527804
 30
0.0
  0
VERTEX
  5
1FA
  8
_____1
 62
     0
 10
533.3658437597201
 20
-664.2828126527804
 30
0.0
  0
VERTEX
  5
1FB
  8
_____1
 62
     0
 10
544.5942673777004
 20
-660.5400047801254
 30
0.0
  0
VERTEX
  5
1FC
  8
_____1
 62
     0
 10
544.5942673777004
 20
-660.5400047801254
 30
0.0
  0
VERTEX
  5
1FD
  8
_____1
 62
     0
 10
555.8226909956643
 20
-649.3115811621487
 30
0.0
  0
VERTEX
  5
1FE
  8
_____1
 62
     0
 10
555.8226909956643
 20
-649.3115811621487
 30
0.0
  0
VERTEX
  5
1FF
  8
_____1
 62
     0
 10
557.694094932001
 20
-643.6973693531543
 30
0.0
  0
VERTEX
  5
200
  8
_____1
 62
     0
 10
557.694094932001
 20
-643.6973693531543
 30
0.0
  0
VERTEX
  5
201
  8
_____1
 62
     0
 10
559.5654988683195
 20
-572.5840197726384
 30
0.0
  0
VERTEX
  5
202
  8
_____1
 62
     0
 10
559.5654988683195
 20
-572.5840197726384
 30
0.0
  0
VERTEX
  5
203
  8
_____1
 62
     0
 10
550.2084791866741
 20
-529.5417292370566
 30
0.0
  0
VERTEX
  5
204
  8
_____1
 62
     0
 10
550.2084791866741
 20
-529.5417292370566
 30
0.0
  0
VERTEX
  5
205
  8
_____1
 62
     0
 10
550.2084791866741
 20
-518.3133056190779
 30
0.0
  0
VERTEX
  5
206
  8
_____1
 62
     0
 10
550.2084791866741
 20
-518.3133056190779
 30
0.0
  0
VERTEX
  5
207
  8
_____1
 62
     0
 10
557.694094932001
 20
-510.827689873762
 30
0.0
  0
VERTEX
  5
208
  8
_____1
 62
     0
 10
557.694094932001
 20
-510.827689873762
 30
0.0
  0
VERTEX
  5
209
  8
_____1
 62
     0
 10
542.7228634413655
 20
-190.8176167614188
 30
0.0
  0
VERTEX
  5
20A
  8
_____1
 62
     0
 10
542.7228634413655
 20
-190.8176167614188
 30
0.0
  0
VERTEX
  5
20B
  8
_____1
 62
     0
 10
553.9512870593458
 20
56.20770283407501
 30
0.0
  0
VERTEX
  5
20C
  8
_____1
 62
     0
 10
553.9512870593458
 20
56.20770283407501
 30
0.0
  0
VERTEX
  5
20D
  8
_____1
 62
     0
 10
559.5654988683195
 20
123.5782445419359
 30
0.0
  0
VERTEX
  5
20E
  8
_____1
 62
     0
 10
559.5654988683195
 20
123.5782445419359
 30
0.0
  0
VERTEX
  5
20F
  8
_____1
 62
     0
 10
565.1797106773097
 20
149.7778996505485
 30
0.0
  0
VERTEX
  5
210
  8
_____1
 62
     0
 10
565.1797106773097
 20
149.7778996505485
 30
0.0
  0
VERTEX
  5
211
  8
_____1
 62
     0
 10
580.150942167947
 20
78.66455007002878
 30
0.0
  0
VERTEX
  5
212
  8
_____1
 62
     0
 10
580.150942167947
 20
78.66455007002878
 30
0.0
  0
VERTEX
  5
213
  8
_____1
 62
     0
 10
615.7076169582083
 20
-155.2609419711589
 30
0.0
  0
VERTEX
  5
214
  8
_____1
 62
     0
 10
615.7076169582083
 20
-155.2609419711589
 30
0.0
  0
VERTEX
  5
215
  8
_____1
 62
     0
 10
632.5502523851787
 20
-230.1170994243396
 30
0.0
  0
VERTEX
  5
216
  8
_____1
 62
     0
 10
632.5502523851787
 20
-230.1170994243396
 30
0.0
  0
VERTEX
  5
217
  8
_____1
 62
     0
 10
651.2642917484695
 20
-417.2574930572905
 30
0.0
  0
VERTEX
  5
218
  8
_____1
 62
     0
 10
651.2642917484695
 20
-417.2574930572905
 30
0.0
  0
VERTEX
  5
219
  8
_____1
 62
     0
 10
660.6213114301149
 20
-480.8852268924885
 30
0.0
  0
VERTEX
  5
21A
  8
_____1
 62
     0
 10
660.6213114301149
 20
-480.8852268924885
 30
0.0
  0
VERTEX
  5
21B
  8
_____1
 62
     0
 10
660.6213114301149
 20
-507.0848820011051
 30
0.0
  0
VERTEX
  5
21C
  8
_____1
 62
     0
 10
660.6213114301149
 20
-507.0848820011051
 30
0.0
  0
VERTEX
  5
21D
  8
_____1
 62
     0
 10
662.4927153664498
 20
-512.6990938100935
 30
0.0
  0
VERTEX
  5
21E
  8
_____1
 62
     0
 10
662.4927153664498
 20
-512.6990938100935
 30
0.0
  0
VERTEX
  5
21F
  8
_____1
 62
     0
 10
690.563774411386
 20
-522.0561134917407
 30
0.0
  0
VERTEX
  5
220
  8
_____1
 62
     0
 10
690.563774411386
 20
-522.0561134917407
 30
0.0
  0
VERTEX
  5
221
  8
_____1
 62
     0
 10
690.563774411386
 20
-540.7701528550356
 30
0.0
  0
VERTEX
  5
222
  8
_____1
 62
     0
 10
690.563774411386
 20
-540.7701528550356
 30
0.0
  0
VERTEX
  5
223
  8
_____1
 62
     0
 10
683.0781586660773
 20
-566.9698079636462
 30
0.0
  0
VERTEX
  5
224
  8
_____1
 62
     0
 10
683.0781586660773
 20
-566.9698079636462
 30
0.0
  0
VERTEX
  5
225
  8
_____1
 62
     0
 10
683.0781586660773
 20
-580.0696355179543
 30
0.0
  0
VERTEX
  5
226
  8
_____1
 62
     0
 10
683.0781586660773
 20
-580.0696355179543
 30
0.0
  0
VERTEX
  5
227
  8
_____1
 62
     0
 10
688.6923704750675
 20
-593.1694630722645
 30
0.0
  0
VERTEX
  5
228
  8
_____1
 62
     0
 10
688.6923704750675
 20
-593.1694630722645
 30
0.0
  0
VERTEX
  5
229
  8
_____1
 62
     0
 10
688.6923704750675
 20
-611.8835024355592
 30
0.0
  0
VERTEX
  5
22A
  8
_____1
 62
     0
 10
688.6923704750675
 20
-611.8835024355592
 30
0.0
  0
VERTEX
  5
22B
  8
_____1
 62
     0
 10
694.3065822840576
 20
-638.083157544168
 30
0.0
  0
VERTEX
  5
22C
  8
_____1
 62
     0
 10
694.3065822840576
 20
-638.083157544168
 30
0.0
  0
VERTEX
  5
22D
  8
_____1
 62
     0
 10
705.5350059020234
 20
-639.9545614804993
 30
0.0
  0
VERTEX
  5
22E
  8
_____1
 62
     0
 10
705.5350059020234
 20
-639.9545614804993
 30
0.0
  0
VERTEX
  5
22F
  8
_____1
 62
     0
 10
707.4064098383583
 20
-647.4401772258173
 30
0.0
  0
VERTEX
  5
230
  8
_____1
 62
     0
 10
707.4064098383583
 20
-647.4401772258173
 30
0.0
  0
VERTEX
  5
231
  8
_____1
 62
     0
 10
713.0206216473484
 20
-653.0543890348035
 30
0.0
  0
VERTEX
  5
232
  8
_____1
 62
     0
 10
713.0206216473484
 20
-653.0543890348035
 30
0.0
  0
VERTEX
  5
233
  8
_____1
 62
     0
 10
733.6060649469741
 20
-662.4114087164489
 30
0.0
  0
VERTEX
  5
234
  8
_____1
 62
     0
 10
733.6060649469741
 20
-662.4114087164489
 30
0.0
  0
VERTEX
  5
235
  8
_____1
 62
     0
 10
776.6483554825459
 20
-664.2828126527804
 30
0.0
  0
VERTEX
  5
236
  8
_____1
 62
     0
 10
776.6483554825459
 20
-664.2828126527804
 30
0.0
  0
VERTEX
  5
237
  8
_____1
 62
     0
 10
787.876779100528
 20
-658.6686008437941
 30
0.0
  0
VERTEX
  5
238
  8
_____1
 62
     0
 10
787.876779100528
 20
-658.6686008437941
 30
0.0
  0
VERTEX
  5
239
  8
_____1
 62
     0
 10
789.7481830368465
 20
-638.083157544168
 30
0.0
  0
VERTEX
  5
23A
  8
_____1
 62
     0
 10
789.7481830368465
 20
-638.083157544168
 30
0.0
  0
VERTEX
  5
23B
  8
_____1
 62
     0
 10
759.8057200555754
 20
-585.6838473269427
 30
0.0
  0
VERTEX
  5
23C
  8
_____1
 62
     0
 10
759.8057200555754
 20
-585.6838473269427
 30
0.0
  0
VERTEX
  5
23D
  8
_____1
 62
     0
 10
746.7058925012748
 20
-535.1559410460491
 30
0.0
  0
VERTEX
  5
23E
  8
_____1
 62
     0
 10
746.7058925012748
 20
-535.1559410460491
 30
0.0
  0
VERTEX
  5
23F
  8
_____1
 62
     0
 10
746.7058925012748
 20
-514.5704977464229
 30
0.0
  0
VERTEX
  5
240
  8
_____1
 62
     0
 10
746.7058925012748
 20
-514.5704977464229
 30
0.0
  0
VERTEX
  5
241
  8
_____1
 62
     0
 10
757.9343161192551
 20
-508.9562859374325
 30
0.0
  0
VERTEX
  5
242
  8
_____1
 62
     0
 10
757.9343161192551
 20
-508.9562859374325
 30
0.0
  0
VERTEX
  5
243
  8
_____1
 62
     0
 10
759.8057200555754
 20
-499.5992662557851
 30
0.0
  0
VERTEX
  5
244
  8
_____1
 62
     0
 10
759.8057200555754
 20
-499.5992662557851
 30
0.0
  0
VERTEX
  5
245
  8
_____1
 62
     0
 10
739.2202767559497
 20
-250.7025427239619
 30
0.0
  0
VERTEX
  5
246
  8
_____1
 62
     0
 10
739.2202767559497
 20
-250.7025427239619
 30
0.0
  0
VERTEX
  5
247
  8
_____1
 62
     0
 10
722.3776413289938
 20
-140.2897104805211
 30
0.0
  0
VERTEX
  5
248
  8
_____1
 62
     0
 10
722.3776413289938
 20
-140.2897104805211
 30
0.0
  0
VERTEX
  5
249
  8
_____1
 62
     0
 10
722.3776413289938
 20
-48.59091760037518
 30
0.0
  0
VERTEX
  5
24A
  8
_____1
 62
     0
 10
722.3776413289938
 20
-48.59091760037518
 30
0.0
  0
VERTEX
  5
24B
  8
_____1
 62
     0
 10
729.8632570743043
 20
71.17893432470873
 30
0.0
  0
VERTEX
  5
24C
  8
_____1
 62
     0
 10
729.8632570743043
 20
71.17893432470873
 30
0.0
  0
VERTEX
  5
24D
  8
_____1
 62
     0
 10
748.5772964376097
 20
86.15016581534655
 30
0.0
  0
VERTEX
  5
24E
  8
_____1
 62
     0
 10
748.5772964376097
 20
86.15016581534655
 30
0.0
  0
VERTEX
  5
24F
  8
_____1
 62
     0
 10
763.548527928247
 20
131.0638602872536
 30
0.0
  0
VERTEX
  5
250
  8
_____1
 62
     0
 10
763.548527928247
 20
131.0638602872536
 30
0.0
  0
VERTEX
  5
251
  8
_____1
 62
     0
 10
763.548527928247
 20
153.5207075232095
 30
0.0
  0
VERTEX
  5
252
  8
_____1
 62
     0
 10
763.548527928247
 20
153.5207075232095
 30
0.0
  0
VERTEX
  5
253
  8
_____1
 62
     0
 10
759.8057200555754
 20
174.1061508228318
 30
0.0
  0
VERTEX
  5
254
  8
_____1
 62
     0
 10
759.8057200555754
 20
174.1061508228318
 30
0.0
  0
VERTEX
  5
255
  8
_____1
 62
     0
 10
759.8057200555754
 20
202.1772098677736
 30
0.0
  0
VERTEX
  5
256
  8
_____1
 62
     0
 10
759.8057200555754
 20
202.1772098677736
 30
0.0
  0
VERTEX
  5
257
  8
_____1
 62
     0
 10
763.548527928247
 20
205.9200177404327
 30
0.0
  0
VERTEX
  5
258
  8
_____1
 62
     0
 10
763.548527928247
 20
205.9200177404327
 30
0.0
  0
VERTEX
  5
259
  8
_____1
 62
     0
 10
763.548527928247
 20
381.8319877554065
 30
0.0
  0
VERTEX
  5
25A
  8
_____1
 62
     0
 10
763.548527928247
 20
381.8319877554065
 30
0.0
  0
VERTEX
  5
25B
  8
_____1
 62
     0
 10
742.9630846286195
 20
632.6001152235594
 30
0.0
  0
VERTEX
  5
25C
  8
_____1
 62
     0
 10
742.9630846286195
 20
632.6001152235594
 30
0.0
  0
VERTEX
  5
25D
  8
_____1
 62
     0
 10
737.3488728196294
 20
658.7997703321721
 30
0.0
  0
VERTEX
  5
25E
  8
_____1
 62
     0
 10
737.3488728196294
 20
658.7997703321721
 30
0.0
  0
VERTEX
  5
25F
  8
_____1
 62
     0
 10
727.991853137984
 20
679.385213631796
 30
0.0
  0
VERTEX
  5
260
  8
_____1
 62
     0
 10
727.991853137984
 20
679.385213631796
 30
0.0
  0
VERTEX
  5
261
  8
_____1
 62
     0
 10
714.8920255836833
 20
692.4850411861025
 30
0.0
  0
VERTEX
  5
262
  8
_____1
 62
     0
 10
714.8920255836833
 20
692.4850411861025
 30
0.0
  0
VERTEX
  5
263
  8
_____1
 62
     0
 10
673.721138984432
 20
713.0704844857269
 30
0.0
  0
VERTEX
  5
264
  8
_____1
 62
     0
 10
673.721138984432
 20
713.0704844857269
 30
0.0
  0
VERTEX
  5
265
  8
_____1
 62
     0
 10
669.9783311117603
 20
718.6846962947152
 30
0.0
  0
VERTEX
  5
266
  8
_____1
 62
     0
 10
669.9783311117603
 20
718.6846962947152
 30
0.0
  0
VERTEX
  5
267
  8
_____1
 62
     0
 10
660.6213114301149
 20
761.7269868302951
 30
0.0
  0
VERTEX
  5
268
  8
_____1
 62
     0
 10
660.6213114301149
 20
761.7269868302951
 30
0.0
  0
VERTEX
  5
269
  8
_____1
 62
     0
 10
655.0070996211412
 20
834.7117403471452
 30
0.0
  0
VERTEX
  5
26A
  8
_____1
 62
     0
 10
655.0070996211412
 20
834.7117403471452
 30
0.0
  0
VERTEX
  5
26B
  8
_____1
 62
     0
 10
647.5214838758143
 20
885.2396466280397
 30
0.0
  0
VERTEX
  5
26C
  8
_____1
 62
     0
 10
647.5214838758143
 20
885.2396466280397
 30
0.0
  0
VERTEX
  5
26D
  8
_____1
 62
     0
 10
632.5502523851787
 20
928.2819371636183
 30
0.0
  0
VERTEX
  5
26E
  8
_____1
 62
     0
 10
632.5502523851787
 20
928.2819371636183
 30
0.0
  0
VERTEX
  5
26F
  8
_____1
 62
     0
 10
623.1932327035333
 20
943.2531686542543
 30
0.0
  0
VERTEX
  5
270
  8
_____1
 62
     0
 10
623.1932327035333
 20
943.2531686542543
 30
0.0
  0
VERTEX
  5
271
  8
_____1
 62
     0
 10
610.0934051492181
 20
956.3529962085609
 30
0.0
  0
VERTEX
  5
272
  8
_____1
 62
     0
 10
610.0934051492181
 20
956.3529962085609
 30
0.0
  0
VERTEX
  5
273
  8
_____1
 62
     0
 10
593.2507697222622
 20
965.7100158902081
 30
0.0
  0
VERTEX
  5
274
  8
_____1
 62
     0
 10
593.2507697222622
 20
965.7100158902081
 30
0.0
  0
VERTEX
  5
275
  8
_____1
 62
     0
 10
540.8514595050287
 20
967.5814198265375
 30
0.0
  0
SEQEND
  5
276
  8
_____1
 62
     0
  0
POLYLINE
  5
277
  8
_____1
  6
CONTINUOUS
 62
     0
 66
     1
 10
0.0
 20
0.0
 30
0.0
 70
   129
  0
VERTEX
  5
278
  8
_____1
  6
CONTINUOUS
 62
     0
 10
540.8514595050287
 20
967.5814198265375
 30
0.0
  0
VERTEX
  5
279
  8
_____1
  6
CONTINUOUS
 62
     0
 10
512.7804004600926
 20
952.610188335902
 30
0.0
  0
VERTEX
  5
27A
  8
_____1
  6
CONTINUOUS
 62
     0
 10
497.809168969457
 20
937.6389568452646
 30
0.0
  0
VERTEX
  5
27B
  8
_____1
  6
CONTINUOUS
 62
     0
 10
480.9665335424866
 20
905.825089927665
 30
0.0
  0
VERTEX
  5
27C
  8
_____1
  6
CONTINUOUS
 62
     0
 10
467.8667059881859
 20
851.5543757741084
 30
0.0
  0
VERTEX
  5
27D
  8
_____1
  6
CONTINUOUS
 62
     0
 10
452.8954744975504
 20
726.170312040033
 30
0.0
  0
VERTEX
  5
27E
  8
_____1
  6
CONTINUOUS
 62
     0
 10
441.6670508795701
 20
713.0704844857269
 30
0.0
  0
VERTEX
  5
27F
  8
_____1
  6
CONTINUOUS
 62
     0
 10
415.4673957709524
 20
703.7134648040792
 30
0.0
  0
VERTEX
  5
280
  8
_____1
  6
CONTINUOUS
 62
     0
 10
394.8819524713431
 20
690.6136372497749
 30
0.0
  0
VERTEX
  5
281
  8
_____1
  6
CONTINUOUS
 62
     0
 10
381.7821249170261
 20
671.89959788648
 30
0.0
  0
VERTEX
  5
282
  8
_____1
  6
CONTINUOUS
 62
     0
 10
376.1679131080359
 20
651.3141545868543
 30
0.0
  0
VERTEX
  5
283
  8
_____1
  6
CONTINUOUS
 62
     0
 10
368.6822973627109
 20
587.6864207516505
 30
0.0
  0
VERTEX
  5
284
  8
_____1
  6
CONTINUOUS
 62
     0
 10
364.9394894900556
 20
462.3023570175758
 30
0.0
  0
VERTEX
  5
285
  8
_____1
  6
CONTINUOUS
 62
     0
 10
357.4538737447451
 20
383.703391691738
 30
0.0
  0
VERTEX
  5
286
  8
_____1
  6
CONTINUOUS
 62
     0
 10
357.4538737447451
 20
205.9200177404327
 30
0.0
  0
VERTEX
  5
287
  8
_____1
  6
CONTINUOUS
 62
     0
 10
361.1966816174004
 20
202.1772098677736
 30
0.0
  0
VERTEX
  5
288
  8
_____1
  6
CONTINUOUS
 62
     0
 10
357.4538737447451
 20
142.2922839052308
 30
0.0
  0
VERTEX
  5
289
  8
_____1
  6
CONTINUOUS
 62
     0
 10
364.9394894900556
 20
112.3498209239592
 30
0.0
  0
VERTEX
  5
28A
  8
_____1
  6
CONTINUOUS
 62
     0
 10
374.2965091717156
 20
93.63578156066433
 30
0.0
  0
VERTEX
  5
28B
  8
_____1
  6
CONTINUOUS
 62
     0
 10
383.653528853361
 20
84.27876187901711
 30
0.0
  0
VERTEX
  5
28C
  8
_____1
  6
CONTINUOUS
 62
     0
 10
404.2389721529885
 20
73.05033826103818
 30
0.0
  0
VERTEX
  5
28D
  8
_____1
  6
CONTINUOUS
 62
     0
 10
407.9817800256419
 20
67.4361264520519
 30
0.0
  0
VERTEX
  5
28E
  8
_____1
  6
CONTINUOUS
 62
     0
 10
441.6670508795701
 20
-151.5181340985
 30
0.0
  0
VERTEX
  5
28F
  8
_____1
  6
CONTINUOUS
 62
     0
 10
443.538454815905
 20
-261.9309663419385
 30
0.0
  0
VERTEX
  5
290
  8
_____1
  6
CONTINUOUS
 62
     0
 10
462.2524941791958
 20
-514.5704977464229
 30
0.0
  0
VERTEX
  5
291
  8
_____1
  6
CONTINUOUS
 62
     0
 10
467.8667059881859
 20
-520.1847095554094
 30
0.0
  0
VERTEX
  5
292
  8
_____1
  6
CONTINUOUS
 62
     0
 10
486.5807453514767
 20
-522.0561134917407
 30
0.0
  0
VERTEX
  5
293
  8
_____1
  6
CONTINUOUS
 62
     0
 10
494.0663610968018
 20
-527.6703253007272
 30
0.0
  0
VERTEX
  5
294
  8
_____1
  6
CONTINUOUS
 62
     0
 10
492.1949571604669
 20
-581.9410394542838
 30
0.0
  0
VERTEX
  5
295
  8
_____1
  6
CONTINUOUS
 62
     0
 10
488.4521492877971
 20
-602.5264827539099
 30
0.0
  0
VERTEX
  5
296
  8
_____1
  6
CONTINUOUS
 62
     0
 10
482.8379374788215
 20
-613.7549063718827
 30
0.0
  0
VERTEX
  5
297
  8
_____1
  6
CONTINUOUS
 62
     0
 10
484.7093414151564
 20
-649.3115811621487
 30
0.0
  0
VERTEX
  5
298
  8
_____1
  6
CONTINUOUS
 62
     0
 10
495.9377650331221
 20
-660.5400047801254
 30
0.0
  0
VERTEX
  5
299
  8
_____1
  6
CONTINUOUS
 62
     0
 10
505.2947847147675
 20
-664.2828126527804
 30
0.0
  0
VERTEX
  5
29A
  8
_____1
  6
CONTINUOUS
 62
     0
 10
533.3658437597201
 20
-664.2828126527804
 30
0.0
  0
VERTEX
  5
29B
  8
_____1
  6
CONTINUOUS
 62
     0
 10
544.5942673777004
 20
-660.5400047801254
 30
0.0
  0
VERTEX
  5
29C
  8
_____1
  6
CONTINUOUS
 62
     0
 10
555.8226909956643
 20
-649.3115811621487
 30
0.0
  0
VERTEX
  5
29D
  8
_____1
  6
CONTINUOUS
 62
     0
 10
557.694094932001
 20
-643.6973693531543
 30
0.0
  0
VERTEX
  5
29E
  8
_____1
  6
CONTINUOUS
 62
     0
 10
559.5654988683195
 20
-572.5840197726384
 30
0.0
  0
VERTEX
  5
29F
  8
_____1
  6
CONTINUOUS
 62
     0
 10
550.2084791866741
 20
-529.5417292370566
 30
0.0
  0
VERTEX
  5
2A0
  8
_____1
  6
CONTINUOUS
 62
     0
 10
550.2084791866741
 20
-518.3133056190779
 30
0.0
  0
VERTEX
  5
2A1
  8
_____1
  6
CONTINUOUS
 62
     0
 10
557.694094932001
 20
-510.827689873762
 30
0.0
  0
VERTEX
  5
2A2
  8
_____1
  6
CONTINUOUS
 62
     0
 10
542.7228634413655
 20
-190.8176167614188
 30
0.0
  0
VERTEX
  5
2A3
  8
_____1
  6
CONTINUOUS
 62
     0
 10
553.9512870593458
 20
56.20770283407501
 30
0.0
  0
VERTEX
  5
2A4
  8
_____1
  6
CONTINUOUS
 62
     0
 10
559.5654988683195
 20
123.5782445419359
 30
0.0
  0
VERTEX
  5
2A5
  8
_____1
  6
CONTINUOUS
 62
     0
 10
565.1797106773097
 20
149.7778996505485
 30
0.0
  0
VERTEX
  5
2A6
  8
_____1
  6
CONTINUOUS
 62
     0
 10
580.150942167947
 20
78.66455007002878
 30
0.0
  0
VERTEX
  5
2A7
  8
_____1
  6
CONTINUOUS
 62
     0
 10
615.7076169582083
 20
-155.2609419711589
 30
0.0
  0
VERTEX
  5
2A8
  8
_____1
  6
CONTINUOUS
 62
     0
 10
632.5502523851787
 20
-230.1170994243396
 30
0.0
  0
VERTEX
  5
2A9
  8
_____1
  6
CONTINUOUS
 62
     0
 10
651.2642917484695
 20
-417.2574930572905
 30
0.0
  0
VERTEX
  5
2AA
  8
_____1
  6
CONTINUOUS
 62
     0
 10
660.6213114301149
 20
-480.8852268924885
 30
0.0
  0
VERTEX
  5
2AB
  8
_____1
  6
CONTINUOUS
 62
     0
 10
660.6213114301149
 20
-507.0848820011051
 30
0.0
  0
VERTEX
  5
2AC
  8
_____1
  6
CONTINUOUS
 62
     0
 10
662.4927153664498
 20
-512.6990938100935
 30
0.0
  0
VERTEX
  5
2AD
  8
_____1
  6
CONTINUOUS
 62
     0
 10
690.563774411386
 20
-522.0561134917407
 30
0.0
  0
VERTEX
  5
2AE
  8
_____1
  6
CONTINUOUS
 62
     0
 10
690.563774411386
 20
-540.7701528550356
 30
0.0
  0
VERTEX
  5
2AF
  8
_____1
  6
CONTINUOUS
 62
     0
 10
683.0781586660773
 20
-566.9698079636462
 30
0.0
  0
VERTEX
  5
2B0
  8
_____1
  6
CONTINUOUS
 62
     0
 10
683.0781586660773
 20
-580.0696355179543
 30
0.0
  0
VERTEX
  5
2B1
  8
_____1
  6
CONTINUOUS
 62
     0
 10
688.6923704750675
 20
-593.1694630722645
 30
0.0
  0
VERTEX
  5
2B2
  8
_____1
  6
CONTINUOUS
 62
     0
 10
688.6923704750675
 20
-611.8835024355592
 30
0.0
  0
VERTEX
  5
2B3
  8
_____1
  6
CONTINUOUS
 62
     0
 10
694.3065822840576
 20
-638.083157544168
 30
0.0
  0
VERTEX
  5
2B4
  8
_____1
  6
CONTINUOUS
 62
     0
 10
705.5350059020234
 20
-639.9545614804993
 30
0.0
  0
VERTEX
  5
2B5
  8
_____1
  6
CONTINUOUS
 62
     0
 10
707.4064098383583
 20
-647.4401772258173
 30
0.0
  0
VERTEX
  5
2B6
  8
_____1
  6
CONTINUOUS
 62
     0
 10
713.0206216473484
 20
-653.0543890348035
 30
0.0
  0
VERTEX
  5
2B7
  8
_____1
  6
CONTINUOUS
 62
     0
 10
733.6060649469741
 20
-662.4114087164489
 30
0.0
  0
VERTEX
  5
2B8
  8
_____1
  6
CONTINUOUS
 62
     0
 10
776.6483554825459
 20
-664.2828126527804
 30
0.0
  0
VERTEX
  5
2B9
  8
_____1
  6
CONTINUOUS
 62
     0
 10
787.876779100528
 20
-658.6686008437941
 30
0.0
  0
VERTEX
  5
2BA
  8
_____1
  6
CONTINUOUS
 62
     0
 10
789.7481830368465
 20
-638.083157544168
 30
0.0
  0
VERTEX
  5
2BB
  8
_____1
  6
CONTINUOUS
 62
     0
 10
759.8057200555754
 20
-585.6838473269427
 30
0.0
  0
VERTEX
  5
2BC
  8
_____1
  6
CONTINUOUS
 62
     0
 10
746.7058925012748
 20
-535.1559410460491
 30
0.0
  0
VERTEX
  5
2BD
  8
_____1
  6
CONTINUOUS
 62
     0
 10
746.7058925012748
 20
-514.5704977464229
 30
0.0
  0
VERTEX
  5
2BE
  8
_____1
  6
CONTINUOUS
 62
     0
 10
757.9343161192551
 20
-508.9562859374325
 30
0.0
  0
VERTEX
  5
2BF
  8
_____1
  6
CONTINUOUS
 62
     0
 10
759.8057200555754
 20
-499.5992662557851
 30
0.0
  0
VERTEX
  5
2C0
  8
_____1
  6
CONTINUOUS
 62
     0
 10
739.2202767559497
 20
-250.7025427239619
 30
0.0
  0
VERTEX
  5
2C1
  8
_____1
  6
CONTINUOUS
 62
     0
 10
722.3776413289938
 20
-140.2897104805211
 30
0.0
  0
VERTEX
  5
2C2
  8
_____1
  6
CONTINUOUS
 62
     0
 10
722.3776413289938
 20
-48.59091760037518
 30
0.0
  0
VERTEX
  5
2C3
  8
_____1
  6
CONTINUOUS
 62
     0
 10
729.8632570743043
 20
71.17893432470873
 30
0.0
  0
VERTEX
  5
2C4
  8
_____1
  6
CONTINUOUS
 62
     0
 10
748.5772964376097
 20
86.15016581534655
 30
0.0
  0
VERTEX
  5
2C5
  8
_____1
  6
CONTINUOUS
 62
     0
 10
763.548527928247
 20
131.0638602872536
 30
0.0
  0
VERTEX
  5
2C6
  8
_____1
  6
CONTINUOUS
 62
     0
 10
763.548527928247
 20
153.5207075232095
 30
0.0
  0
VERTEX
  5
2C7
  8
_____1
  6
CONTINUOUS
 62
     0
 10
759.8057200555754
 20
174.1061508228318
 30
0.0
  0
VERTEX
  5
2C8
  8
_____1
  6
CONTINUOUS
 62
     0
 10
759.8057200555754
 20
202.1772098677736
 30
0.0
  0
VERTEX
  5
2C9
  8
_____1
  6
CONTINUOUS
 62
     0
 10
763.548527928247
 20
205.9200177404327
 30
0.0
  0
VERTEX
  5
2CA
  8
_____1
  6
CONTINUOUS
 62
     0
 10
763.548527928247
 20
381.8319877554065
 30
0.0
  0
VERTEX
  5
2CB
  8
_____1
  6
CONTINUOUS
 62
     0
 10
742.9630846286195
 20
632.6001152235594
 30
0.0
  0
VERTEX
  5
2CC
  8
_____1
  6
CONTINUOUS
 62
     0
 10
737.3488728196294
 20
658.7997703321721
 30
0.0
  0
VERTEX
  5
2CD
  8
_____1
  6
CONTINUOUS
 62
     0
 10
727.991853137984
 20
679.385213631796
 30
0.0
  0
VERTEX
  5
2CE
  8
_____1
  6
CONTINUOUS
 62
     0
 10
714.8920255836833
 20
692.4850411861025
 30
0.0
  0
VERTEX
  5
2CF
  8
_____1
  6
CONTINUOUS
 62
     0
 10
673.721138984432
 20
713.0704844857269
 30
0.0
  0
VERTEX
  5
2D0
  8
_____1
  6
CONTINUOUS
 62
     0
 10
669.9783311117603
 20
718.6846962947152
 30
0.0
  0
VERTEX
  5
2D1
  8
_____1
  6
CONTINUOUS
 62
     0
 10
660.6213114301149
 20
761.7269868302951
 30
0.0
  0
VERTEX
  5
2D2
  8
_____1
  6
CONTINUOUS
 62
     0
 10
655.0070996211412
 20
834.7117403471452
 30
0.0
  0
VERTEX
  5
2D3
  8
_____1
  6
CONTINUOUS
 62
     0
 10
647.5214838758143
 20
885.2396466280397
 30
0.0
  0
VERTEX
  5
2D4
  8
_____1
  6
CONTINUOUS
 62
     0
 10
632.5502523851787
 20
928.2819371636183
 30
0.0
  0
VERTEX
  5
2D5
  8
_____1
  6
CONTINUOUS
 62
     0
 10
623.1932327035333
 20
943.2531686542543
 30
0.0
  0
VERTEX
  5
2D6
  8
_____1
  6
CONTINUOUS
 62
     0
 10
610.0934051492181
 20
956.3529962085609
 30
0.0
  0
VERTEX
  5
2D7
  8
_____1
  6
CONTINUOUS
 62
     0
 10
593.2507697222622
 20
965.7100158902081
 30
0.0
  0
SEQEND
  5
2D8
  8
_____1
  6
CONTINUOUS
 62
     0
  0
POLYLINE
  5
2D9
  8
_____1
  6
CONTINUOUS
 62
     0
 66
     1
 10
0.0
 20
0.0
 30
0.0
 70
   129
  0
VERTEX
  5
2DA
  8
_____1
  6
CONTINUOUS
 62
     0
 10
34.55961082102249
 20
972.5068292792307
 30
0.0
  0
VERTEX
  5
2DB
  8
_____1
  6
CONTINUOUS
 62
     0
 10
7.815226602718667
 20
963.5920345397949
 30
0.0
  0
VERTEX
  5
2DC
  8
_____1
  6
CONTINUOUS
 62
     0
 10
7.815226602718667
 20
963.5920345397949
 30
0.0
  0
VERTEX
  5
2DD
  8
_____1
  6
CONTINUOUS
 62
     0
 10
-2.882527084603225
 20
956.4601987482447
 30
0.0
  0
VERTEX
  5
2DE
  8
_____1
  6
CONTINUOUS
 62
     0
 10
-2.882527084603225
 20
956.4601987482447
 30
0.0
  0
VERTEX
  5
2DF
  8
_____1
  6
CONTINUOUS
 62
     0
 10
-15.36323971980937
 20
942.1965271651457
 30
0.0
  0
VERTEX
  5
2E0
  8
_____1
  6
CONTINUOUS
 62
     0
 10
-15.36323971980937
 20
942.1965271651457
 30
0.0
  0
VERTEX
  5
2E1
  8
_____1
  6
CONTINUOUS
 62
     0
 10
-27.84395235503553
 20
913.6691839989521
 30
0.0
  0
VERTEX
  5
2E2
  8
_____1
  6
CONTINUOUS
 62
     0
 10
-27.84395235503553
 20
913.6691839989521
 30
0.0
  0
VERTEX
  5
2E3
  8
_____1
  6
CONTINUOUS
 62
     0
 10
-34.97578814657254
 20
886.9247997806474
 30
0.0
  0
VERTEX
  5
2E4
  8
_____1
  6
CONTINUOUS
 62
     0
 10
-34.97578814657254
 20
886.9247997806474
 30
0.0
  0
VERTEX
  5
2E5
  8
_____1
  6
CONTINUOUS
 62
     0
 10
-59.93721341699029
 20
713.977781835601
 30
0.0
  0
VERTEX
  5
2E6
  8
_____1
  6
CONTINUOUS
 62
     0
 10
-59.93721341699029
 20
713.977781835601
 30
0.0
  0
VERTEX
  5
2E7
  8
_____1
  6
CONTINUOUS
 62
     0
 10
-99.16231027051663
 20
699.7141102524997
 30
0.0
  0
VERTEX
  5
2E8
  8
_____1
  6
CONTINUOUS
 62
     0
 10
-99.16231027051663
 20
699.7141102524997
 30
0.0
  0
VERTEX
  5
2E9
  8
_____1
  6
CONTINUOUS
 62
     0
 10
-113.4259818536088
 20
683.6674797215142
 30
0.0
  0
VERTEX
  5
2EA
  8
_____1
  6
CONTINUOUS
 62
     0
 10
-113.4259818536088
 20
683.6674797215142
 30
0.0
  0
VERTEX
  5
2EB
  8
_____1
  6
CONTINUOUS
 62
     0
 10
-120.5578176451641
 20
662.2719723468713
 30
0.0
  0
VERTEX
  5
2EC
  8
_____1
  6
CONTINUOUS
 62
     0
 10
-120.5578176451641
 20
662.2719723468713
 30
0.0
  0
VERTEX
  5
2ED
  8
_____1
  6
CONTINUOUS
 62
     0
 10
-124.1237355409326
 20
623.0468754933586
 30
0.0
  0
VERTEX
  5
2EE
  8
_____1
  6
CONTINUOUS
 62
     0
 10
-124.1237355409326
 20
623.0468754933586
 30
0.0
  0
VERTEX
  5
2EF
  8
_____1
  6
CONTINUOUS
 62
     0
 10
-124.1237355409326
 20
451.8828164961919
 30
0.0
  0
VERTEX
  5
2F0
  8
_____1
  6
CONTINUOUS
 62
     0
 10
-124.1237355409326
 20
451.8828164961919
 30
0.0
  0
VERTEX
  5
2F1
  8
_____1
  6
CONTINUOUS
 62
     0
 10
-127.6896534367029
 20
430.4873091215491
 30
0.0
  0
VERTEX
  5
2F2
  8
_____1
  6
CONTINUOUS
 62
     0
 10
-127.6896534367029
 20
430.4873091215491
 30
0.0
  0
VERTEX
  5
2F3
  8
_____1
  6
CONTINUOUS
 62
     0
 10
-136.6044481761387
 20
407.3088427990128
 30
0.0
  0
VERTEX
  5
2F4
  8
_____1
  6
CONTINUOUS
 62
     0
 10
-136.6044481761387
 20
407.3088427990128
 30
0.0
  0
VERTEX
  5
2F5
  8
_____1
  6
CONTINUOUS
 62
     0
 10
-140.170366071909
 20
380.5644585807124
 30
0.0
  0
VERTEX
  5
2F6
  8
_____1
  6
CONTINUOUS
 62
     0
 10
-140.170366071909
 20
380.5644585807124
 30
0.0
  0
VERTEX
  5
2F7
  8
_____1
  6
CONTINUOUS
 62
     0
 10
-147.3022018634642
 20
216.5322353750967
 30
0.0
  0
VERTEX
  5
2F8
  8
_____1
  6
CONTINUOUS
 62
     0
 10
-147.3022018634642
 20
216.5322353750967
 30
0.0
  0
VERTEX
  5
2F9
  8
_____1
  6
CONTINUOUS
 62
     0
 10
-150.8681197592327
 20
182.6560153652413
 30
0.0
  0
VERTEX
  5
2FA
  8
_____1
  6
CONTINUOUS
 62
     0
 10
-150.8681197592327
 20
182.6560153652413
 30
0.0
  0
VERTEX
  5
2FB
  8
_____1
  6
CONTINUOUS
 62
     0
 10
-157.9999555507879
 20
152.3457132511608
 30
0.0
  0
VERTEX
  5
2FC
  8
_____1
  6
CONTINUOUS
 62
     0
 10
-157.9999555507879
 20
152.3457132511608
 30
0.0
  0
VERTEX
  5
2FD
  8
_____1
  6
CONTINUOUS
 62
     0
 10
-159.7829144986722
 20
125.6013290328538
 30
0.0
  0
VERTEX
  5
2FE
  8
_____1
  6
CONTINUOUS
 62
     0
 10
-159.7829144986722
 20
125.6013290328538
 30
0.0
  0
VERTEX
  5
2FF
  8
_____1
  6
CONTINUOUS
 62
     0
 10
-147.3022018634642
 20
84.59327323145203
 30
0.0
  0
VERTEX
  5
300
  8
_____1
  6
CONTINUOUS
 62
     0
 10
-147.3022018634642
 20
84.59327323145203
 30
0.0
  0
VERTEX
  5
301
  8
_____1
  6
CONTINUOUS
 62
     0
 10
-136.6044481761387
 20
73.89551954412627
 30
0.0
  0
VERTEX
  5
302
  8
_____1
  6
CONTINUOUS
 62
     0
 10
-136.6044481761387
 20
73.89551954412627
 30
0.0
  0
VERTEX
  5
303
  8
_____1
  6
CONTINUOUS
 62
     0
 10
-116.9918997493774
 20
63.19776585680484
 30
0.0
  0
VERTEX
  5
304
  8
_____1
  6
CONTINUOUS
 62
     0
 10
-116.9918997493774
 20
63.19776585680484
 30
0.0
  0
VERTEX
  5
305
  8
_____1
  6
CONTINUOUS
 62
     0
 10
-106.2941460620555
 20
64.98072480468909
 30
0.0
  0
VERTEX
  5
306
  8
_____1
  6
CONTINUOUS
 62
     0
 10
-106.2941460620555
 20
64.98072480468909
 30
0.0
  0
VERTEX
  5
307
  8
_____1
  6
CONTINUOUS
 62
     0
 10
-108.0771050099397
 20
77.46143743990365
 30
0.0
  0
VERTEX
  5
308
  8
_____1
  6
CONTINUOUS
 62
     0
 10
-108.0771050099397
 20
77.46143743990365
 30
0.0
  0
VERTEX
  5
309
  8
_____1
  6
CONTINUOUS
 62
     0
 10
-127.6896534367029
 20
95.29102691877597
 30
0.0
  0
VERTEX
  5
30A
  8
_____1
  6
CONTINUOUS
 62
     0
 10
-127.6896534367029
 20
95.29102691877597
 30
0.0
  0
VERTEX
  5
30B
  8
_____1
  6
CONTINUOUS
 62
     0
 10
-131.2555713324678
 20
105.9887806060974
 30
0.0
  0
VERTEX
  5
30C
  8
_____1
  6
CONTINUOUS
 62
     0
 10
-131.2555713324678
 20
105.9887806060974
 30
0.0
  0
VERTEX
  5
30D
  8
_____1
  6
CONTINUOUS
 62
     0
 10
-131.2555713324678
 20
129.167246928627
 30
0.0
  0
VERTEX
  5
30E
  8
_____1
  6
CONTINUOUS
 62
     0
 10
-131.2555713324678
 20
129.167246928627
 30
0.0
  0
VERTEX
  5
30F
  8
_____1
  6
CONTINUOUS
 62
     0
 10
-127.6896534367029
 20
132.7331648244044
 30
0.0
  0
VERTEX
  5
310
  8
_____1
  6
CONTINUOUS
 62
     0
 10
-127.6896534367029
 20
132.7331648244044
 30
0.0
  0
VERTEX
  5
311
  8
_____1
  6
CONTINUOUS
 62
     0
 10
-122.3407765930483
 20
130.9502058765179
 30
0.0
  0
VERTEX
  5
312
  8
_____1
  6
CONTINUOUS
 62
     0
 10
-122.3407765930483
 20
130.9502058765179
 30
0.0
  0
VERTEX
  5
313
  8
_____1
  6
CONTINUOUS
 62
     0
 10
-120.5578176451641
 20
109.5546985018682
 30
0.0
  0
VERTEX
  5
314
  8
_____1
  6
CONTINUOUS
 62
     0
 10
-120.5578176451641
 20
109.5546985018682
 30
0.0
  0
VERTEX
  5
315
  8
_____1
  6
CONTINUOUS
 62
     0
 10
-116.9918997493774
 20
102.4228627103198
 30
0.0
  0
VERTEX
  5
316
  8
_____1
  6
CONTINUOUS
 62
     0
 10
-116.9918997493774
 20
102.4228627103198
 30
0.0
  0
VERTEX
  5
317
  8
_____1
  6
CONTINUOUS
 62
     0
 10
-109.8600639578403
 20
95.29102691877597
 30
0.0
  0
VERTEX
  5
318
  8
_____1
  6
CONTINUOUS
 62
     0
 10
-109.8600639578403
 20
95.29102691877597
 30
0.0
  0
VERTEX
  5
319
  8
_____1
  6
CONTINUOUS
 62
     0
 10
-104.5111871141694
 20
97.07398586666022
 30
0.0
  0
VERTEX
  5
31A
  8
_____1
  6
CONTINUOUS
 62
     0
 10
-104.5111871141694
 20
97.07398586666022
 30
0.0
  0
VERTEX
  5
31B
  8
_____1
  6
CONTINUOUS
 62
     0
 10
-102.7282281662851
 20
136.2990827201754
 30
0.0
  0
VERTEX
  5
31C
  8
_____1
  6
CONTINUOUS
 62
     0
 10
-102.7282281662851
 20
136.2990827201754
 30
0.0
  0
VERTEX
  5
31D
  8
_____1
  6
CONTINUOUS
 62
     0
 10
-106.2941460620555
 20
150.5627543032765
 30
0.0
  0
VERTEX
  5
31E
  8
_____1
  6
CONTINUOUS
 62
     0
 10
-106.2941460620555
 20
150.5627543032765
 30
0.0
  0
VERTEX
  5
31F
  8
_____1
  6
CONTINUOUS
 62
     0
 10
-106.2941460620555
 20
175.5241795736906
 30
0.0
  0
VERTEX
  5
320
  8
_____1
  6
CONTINUOUS
 62
     0
 10
-106.2941460620555
 20
175.5241795736906
 30
0.0
  0
VERTEX
  5
321
  8
_____1
  6
CONTINUOUS
 62
     0
 10
-115.2089408014931
 20
198.7026458962266
 30
0.0
  0
VERTEX
  5
322
  8
_____1
  6
CONTINUOUS
 62
     0
 10
-115.2089408014931
 20
198.7026458962266
 30
0.0
  0
VERTEX
  5
323
  8
_____1
  6
CONTINUOUS
 62
     0
 10
-115.2089408014931
 20
212.9663174793191
 30
0.0
  0
VERTEX
  5
324
  8
_____1
  6
CONTINUOUS
 62
     0
 10
-115.2089408014931
 20
212.9663174793191
 30
0.0
  0
VERTEX
  5
325
  8
_____1
  6
CONTINUOUS
 62
     0
 10
-106.2941460620555
 20
262.8891680201625
 30
0.0
  0
VERTEX
  5
326
  8
_____1
  6
CONTINUOUS
 62
     0
 10
-106.2941460620555
 20
262.8891680201625
 30
0.0
  0
VERTEX
  5
327
  8
_____1
  6
CONTINUOUS
 62
     0
 10
-84.89863868740622
 20
335.9904848835331
 30
0.0
  0
VERTEX
  5
328
  8
_____1
  6
CONTINUOUS
 62
     0
 10
-84.89863868740622
 20
335.9904848835331
 30
0.0
  0
VERTEX
  5
329
  8
_____1
  6
CONTINUOUS
 62
     0
 10
-72.41792605221463
 20
393.0451712159204
 30
0.0
  0
VERTEX
  5
32A
  8
_____1
  6
CONTINUOUS
 62
     0
 10
-72.41792605221463
 20
393.0451712159204
 30
0.0
  0
VERTEX
  5
32B
  8
_____1
  6
CONTINUOUS
 62
     0
 10
-70.634967104314
 20
460.7976112356291
 30
0.0
  0
VERTEX
  5
32C
  8
_____1
  6
CONTINUOUS
 62
     0
 10
-70.634967104314
 20
460.7976112356291
 30
0.0
  0
VERTEX
  5
32D
  8
_____1
  6
CONTINUOUS
 62
     0
 10
-63.50313131276062
 20
535.6818870468842
 30
0.0
  0
VERTEX
  5
32E
  8
_____1
  6
CONTINUOUS
 62
     0
 10
-63.50313131276062
 20
535.6818870468842
 30
0.0
  0
VERTEX
  5
32F
  8
_____1
  6
CONTINUOUS
 62
     0
 10
-65.28609026066124
 20
546.3796407342122
 30
0.0
  0
VERTEX
  5
330
  8
_____1
  6
CONTINUOUS
 62
     0
 10
-65.28609026066124
 20
546.3796407342122
 30
0.0
  0
VERTEX
  5
331
  8
_____1
  6
CONTINUOUS
 62
     0
 10
-59.93721341699029
 20
546.3796407342122
 30
0.0
  0
VERTEX
  5
332
  8
_____1
  6
CONTINUOUS
 62
     0
 10
-59.93721341699029
 20
546.3796407342122
 30
0.0
  0
VERTEX
  5
333
  8
_____1
  6
CONTINUOUS
 62
     0
 10
-49.2394597296684
 20
476.8442417666147
 30
0.0
  0
VERTEX
  5
334
  8
_____1
  6
CONTINUOUS
 62
     0
 10
-49.2394597296684
 20
476.8442417666147
 30
0.0
  0
VERTEX
  5
335
  8
_____1
  6
CONTINUOUS
 62
     0
 10
-43.89058288601382
 20
412.657719642679
 30
0.0
  0
VERTEX
  5
336
  8
_____1
  6
CONTINUOUS
 62
     0
 10
-43.89058288601382
 20
412.657719642679
 30
0.0
  0
VERTEX
  5
337
  8
_____1
  6
CONTINUOUS
 62
     0
 10
-56.37129552122178
 20
369.8667048933842
 30
0.0
  0
VERTEX
  5
338
  8
_____1
  6
CONTINUOUS
 62
     0
 10
-56.37129552122178
 20
369.8667048933842
 30
0.0
  0
VERTEX
  5
339
  8
_____1
  6
CONTINUOUS
 62
     0
 10
-77.76680289586739
 20
314.5949775088857
 30
0.0
  0
VERTEX
  5
33A
  8
_____1
  6
CONTINUOUS
 62
     0
 10
-77.76680289586739
 20
314.5949775088857
 30
0.0
  0
VERTEX
  5
33B
  8
_____1
  6
CONTINUOUS
 62
     0
 10
-90.24751553107717
 20
257.5402911764984
 30
0.0
  0
VERTEX
  5
33C
  8
_____1
  6
CONTINUOUS
 62
     0
 10
-90.24751553107717
 20
257.5402911764984
 30
0.0
  0
VERTEX
  5
33D
  8
_____1
  6
CONTINUOUS
 62
     0
 10
-95.59639237472993
 20
207.6174406356618
 30
0.0
  0
VERTEX
  5
33E
  8
_____1
  6
CONTINUOUS
 62
     0
 10
-95.59639237472993
 20
207.6174406356618
 30
0.0
  0
VERTEX
  5
33F
  8
_____1
  6
CONTINUOUS
 62
     0
 10
-95.59639237472993
 20
100.6399037624333
 30
0.0
  0
VERTEX
  5
340
  8
_____1
  6
CONTINUOUS
 62
     0
 10
-95.59639237472993
 20
100.6399037624333
 30
0.0
  0
VERTEX
  5
341
  8
_____1
  6
CONTINUOUS
 62
     0
 10
-90.24751553107717
 20
34.67042269061108
 30
0.0
  0
VERTEX
  5
342
  8
_____1
  6
CONTINUOUS
 62
     0
 10
-90.24751553107717
 20
34.67042269061108
 30
0.0
  0
VERTEX
  5
343
  8
_____1
  6
CONTINUOUS
 62
     0
 10
-75.98384394798313
 20
-79.438949974161
 30
0.0
  0
VERTEX
  5
344
  8
_____1
  6
CONTINUOUS
 62
     0
 10
-75.98384394798313
 20
-79.438949974161
 30
0.0
  0
VERTEX
  5
345
  8
_____1
  6
CONTINUOUS
 62
     0
 10
-68.85200815642975
 20
-84.78782681782513
 30
0.0
  0
VERTEX
  5
346
  8
_____1
  6
CONTINUOUS
 62
     0
 10
-68.85200815642975
 20
-84.78782681782513
 30
0.0
  0
VERTEX
  5
347
  8
_____1
  6
CONTINUOUS
 62
     0
 10
-52.80537762545327
 20
-86.57078576571189
 30
0.0
  0
VERTEX
  5
348
  8
_____1
  6
CONTINUOUS
 62
     0
 10
-52.80537762545327
 20
-86.57078576571189
 30
0.0
  0
VERTEX
  5
349
  8
_____1
  6
CONTINUOUS
 62
     0
 10
-47.45650078178232
 20
-148.974348941761
 30
0.0
  0
VERTEX
  5
34A
  8
_____1
  6
CONTINUOUS
 62
     0
 10
-47.45650078178232
 20
-148.974348941761
 30
0.0
  0
VERTEX
  5
34B
  8
_____1
  6
CONTINUOUS
 62
     0
 10
-51.02241867755083
 20
-216.7267889614698
 30
0.0
  0
VERTEX
  5
34C
  8
_____1
  6
CONTINUOUS
 62
     0
 10
-51.02241867755083
 20
-216.7267889614698
 30
0.0
  0
VERTEX
  5
34D
  8
_____1
  6
CONTINUOUS
 62
     0
 10
-49.2394597296684
 20
-279.1303521375189
 30
0.0
  0
VERTEX
  5
34E
  8
_____1
  6
CONTINUOUS
 62
     0
 10
-49.2394597296684
 20
-279.1303521375189
 30
0.0
  0
VERTEX
  5
34F
  8
_____1
  6
CONTINUOUS
 62
     0
 10
-10.01436287615661
 20
-500.2172616755217
 30
0.0
  0
VERTEX
  5
350
  8
_____1
  6
CONTINUOUS
 62
     0
 10
-10.01436287615661
 20
-500.2172616755217
 30
0.0
  0
VERTEX
  5
351
  8
_____1
  6
CONTINUOUS
 62
     0
 10
-10.01436287615661
 20
-550.1401122163586
 30
0.0
  0
VERTEX
  5
352
  8
_____1
  6
CONTINUOUS
 62
     0
 10
-10.01436287615661
 20
-550.1401122163586
 30
0.0
  0
VERTEX
  5
353
  8
_____1
  6
CONTINUOUS
 62
     0
 10
-17.14619866769362
 20
-596.497044861422
 30
0.0
  0
VERTEX
  5
354
  8
_____1
  6
CONTINUOUS
 62
     0
 10
-17.14619866769362
 20
-596.497044861422
 30
0.0
  0
VERTEX
  5
355
  8
_____1
  6
CONTINUOUS
 62
     0
 10
-24.27803445925065
 20
-623.241429079729
 30
0.0
  0
VERTEX
  5
356
  8
_____1
  6
CONTINUOUS
 62
     0
 10
-24.27803445925065
 20
-623.241429079729
 30
0.0
  0
VERTEX
  5
357
  8
_____1
  6
CONTINUOUS
 62
     0
 10
-24.27803445925065
 20
-648.2028543501494
 30
0.0
  0
VERTEX
  5
358
  8
_____1
  6
CONTINUOUS
 62
     0
 10
-24.27803445925065
 20
-648.2028543501494
 30
0.0
  0
VERTEX
  5
359
  8
_____1
  6
CONTINUOUS
 62
     0
 10
-18.9291576155797
 20
-658.9006080374713
 30
0.0
  0
VERTEX
  5
35A
  8
_____1
  6
CONTINUOUS
 62
     0
 10
-18.9291576155797
 20
-658.9006080374713
 30
0.0
  0
VERTEX
  5
35B
  8
_____1
  6
CONTINUOUS
 62
     0
 10
-1.099568136718972
 20
-666.0324438290218
 30
0.0
  0
VERTEX
  5
35C
  8
_____1
  6
CONTINUOUS
 62
     0
 10
-1.099568136718972
 20
-666.0324438290218
 30
0.0
  0
VERTEX
  5
35D
  8
_____1
  6
CONTINUOUS
 62
     0
 10
29.21073397736791
 20
-664.2494848811352
 30
0.0
  0
VERTEX
  5
35E
  8
_____1
  6
CONTINUOUS
 62
     0
 10
29.21073397736791
 20
-664.2494848811352
 30
0.0
  0
VERTEX
  5
35F
  8
_____1
  6
CONTINUOUS
 62
     0
 10
39.90848766469344
 20
-658.9006080374713
 30
0.0
  0
VERTEX
  5
360
  8
_____1
  6
CONTINUOUS
 62
     0
 10
39.90848766469344
 20
-658.9006080374713
 30
0.0
  0
VERTEX
  5
361
  8
_____1
  6
CONTINUOUS
 62
     0
 10
45.25736450834438
 20
-651.7687722459207
 30
0.0
  0
VERTEX
  5
362
  8
_____1
  6
CONTINUOUS
 62
     0
 10
45.25736450834438
 20
-651.7687722459207
 30
0.0
  0
VERTEX
  5
363
  8
_____1
  6
CONTINUOUS
 62
     0
 10
47.04032345623045
 20
-623.241429079729
 30
0.0
  0
VERTEX
  5
364
  8
_____1
  6
CONTINUOUS
 62
     0
 10
47.04032345623045
 20
-623.241429079729
 30
0.0
  0
VERTEX
  5
365
  8
_____1
  6
CONTINUOUS
 62
     0
 10
38.125528716791
 20
-557.271948007907
 30
0.0
  0
VERTEX
  5
366
  8
_____1
  6
CONTINUOUS
 62
     0
 10
38.125528716791
 20
-557.271948007907
 30
0.0
  0
VERTEX
  5
367
  8
_____1
  6
CONTINUOUS
 62
     0
 10
38.125528716791
 20
-521.6127690501648
 30
0.0
  0
VERTEX
  5
368
  8
_____1
  6
CONTINUOUS
 62
     0
 10
38.125528716791
 20
-521.6127690501648
 30
0.0
  0
VERTEX
  5
369
  8
_____1
  6
CONTINUOUS
 62
     0
 10
27.42777502948366
 20
-471.6899185093281
 30
0.0
  0
VERTEX
  5
36A
  8
_____1
  6
CONTINUOUS
 62
     0
 10
27.42777502948366
 20
-471.6899185093281
 30
0.0
  0
VERTEX
  5
36B
  8
_____1
  6
CONTINUOUS
 62
     0
 10
27.42777502948366
 20
-391.4567658544047
 30
0.0
  0
VERTEX
  5
36C
  8
_____1
  6
CONTINUOUS
 62
     0
 10
27.42777502948366
 20
-391.4567658544047
 30
0.0
  0
VERTEX
  5
36D
  8
_____1
  6
CONTINUOUS
 62
     0
 10
32.77665187313642
 20
-321.9213668868138
 30
0.0
  0
VERTEX
  5
36E
  8
_____1
  6
CONTINUOUS
 62
     0
 10
32.77665187313642
 20
-321.9213668868138
 30
0.0
  0
VERTEX
  5
36F
  8
_____1
  6
CONTINUOUS
 62
     0
 10
32.77665187313642
 20
-280.9133110854054
 30
0.0
  0
VERTEX
  5
370
  8
_____1
  6
CONTINUOUS
 62
     0
 10
32.77665187313642
 20
-280.9133110854054
 30
0.0
  0
VERTEX
  5
371
  8
_____1
  6
CONTINUOUS
 62
     0
 10
25.64481608158121
 20
-229.207501596678
 30
0.0
  0
VERTEX
  5
372
  8
_____1
  6
CONTINUOUS
 62
     0
 10
25.64481608158121
 20
-229.207501596678
 30
0.0
  0
VERTEX
  5
373
  8
_____1
  6
CONTINUOUS
 62
     0
 10
25.64481608158121
 20
-195.3312815868267
 30
0.0
  0
VERTEX
  5
374
  8
_____1
  6
CONTINUOUS
 62
     0
 10
25.64481608158121
 20
-195.3312815868267
 30
0.0
  0
VERTEX
  5
375
  8
_____1
  6
CONTINUOUS
 62
     0
 10
30.99369292525216
 20
-148.974348941761
 30
0.0
  0
VERTEX
  5
376
  8
_____1
  6
CONTINUOUS
 62
     0
 10
30.99369292525216
 20
-148.974348941761
 30
0.0
  0
VERTEX
  5
377
  8
_____1
  6
CONTINUOUS
 62
     0
 10
29.21073397736791
 20
-88.35374471359819
 30
0.0
  0
VERTEX
  5
378
  8
_____1
  6
CONTINUOUS
 62
     0
 10
29.21073397736791
 20
-88.35374471359819
 30
0.0
  0
VERTEX
  5
379
  8
_____1
  6
CONTINUOUS
 62
     0
 10
77.35062557031551
 20
-86.57078576571189
 30
0.0
  0
VERTEX
  5
37A
  8
_____1
  6
CONTINUOUS
 62
     0
 10
77.35062557031551
 20
-86.57078576571189
 30
0.0
  0
VERTEX
  5
37B
  8
_____1
  6
CONTINUOUS
 62
     0
 10
80.91654346608584
 20
-95.4855805051468
 30
0.0
  0
VERTEX
  5
37C
  8
_____1
  6
CONTINUOUS
 62
     0
 10
80.91654346608584
 20
-95.4855805051468
 30
0.0
  0
VERTEX
  5
37D
  8
_____1
  6
CONTINUOUS
 62
     0
 10
82.69950241396828
 20
-145.4084310459834
 30
0.0
  0
VERTEX
  5
37E
  8
_____1
  6
CONTINUOUS
 62
     0
 10
82.69950241396828
 20
-145.4084310459834
 30
0.0
  0
VERTEX
  5
37F
  8
_____1
  6
CONTINUOUS
 62
     0
 10
95.18021504917806
 20
-206.0290352741483
 30
0.0
  0
VERTEX
  5
380
  8
_____1
  6
CONTINUOUS
 62
     0
 10
95.18021504917806
 20
-206.0290352741483
 30
0.0
  0
VERTEX
  5
381
  8
_____1
  6
CONTINUOUS
 62
     0
 10
100.529091892849
 20
-302.3088184600483
 30
0.0
  0
VERTEX
  5
382
  8
_____1
  6
CONTINUOUS
 62
     0
 10
100.529091892849
 20
-302.3088184600483
 30
0.0
  0
VERTEX
  5
383
  8
_____1
  6
CONTINUOUS
 62
     0
 10
113.009804528057
 20
-386.1078890107428
 30
0.0
  0
VERTEX
  5
384
  8
_____1
  6
CONTINUOUS
 62
     0
 10
113.009804528057
 20
-386.1078890107428
 30
0.0
  0
VERTEX
  5
385
  8
_____1
  6
CONTINUOUS
 62
     0
 10
120.1416403196122
 20
-457.4262469262292
 30
0.0
  0
VERTEX
  5
386
  8
_____1
  6
CONTINUOUS
 62
     0
 10
120.1416403196122
 20
-457.4262469262292
 30
0.0
  0
VERTEX
  5
387
  8
_____1
  6
CONTINUOUS
 62
     0
 10
120.1416403196122
 20
-489.5195079881981
 30
0.0
  0
VERTEX
  5
388
  8
_____1
  6
CONTINUOUS
 62
     0
 10
120.1416403196122
 20
-489.5195079881981
 30
0.0
  0
VERTEX
  5
389
  8
_____1
  6
CONTINUOUS
 62
     0
 10
113.009804528057
 20
-526.9616458938267
 30
0.0
  0
VERTEX
  5
38A
  8
_____1
  6
CONTINUOUS
 62
     0
 10
113.009804528057
 20
-526.9616458938267
 30
0.0
  0
VERTEX
  5
38B
  8
_____1
  6
CONTINUOUS
 62
     0
 10
113.009804528057
 20
-569.752660643115
 30
0.0
  0
VERTEX
  5
38C
  8
_____1
  6
CONTINUOUS
 62
     0
 10
113.009804528057
 20
-569.752660643115
 30
0.0
  0
VERTEX
  5
38D
  8
_____1
  6
CONTINUOUS
 62
     0
 10
105.8779687365018
 20
-612.5436753924077
 30
0.0
  0
VERTEX
  5
38E
  8
_____1
  6
CONTINUOUS
 62
     0
 10
105.8779687365018
 20
-612.5436753924077
 30
0.0
  0
VERTEX
  5
38F
  8
_____1
  6
CONTINUOUS
 62
     0
 10
105.8779687365018
 20
-649.9858132980362
 30
0.0
  0
VERTEX
  5
390
  8
_____1
  6
CONTINUOUS
 62
     0
 10
105.8779687365018
 20
-649.9858132980362
 30
0.0
  0
VERTEX
  5
391
  8
_____1
  6
CONTINUOUS
 62
     0
 10
107.660927684386
 20
-655.3346901417003
 30
0.0
  0
VERTEX
  5
392
  8
_____1
  6
CONTINUOUS
 62
     0
 10
107.660927684386
 20
-655.3346901417003
 30
0.0
  0
VERTEX
  5
393
  8
_____1
  6
CONTINUOUS
 62
     0
 10
116.5757224238437
 20
-662.4665259332442
 30
0.0
  0
VERTEX
  5
394
  8
_____1
  6
CONTINUOUS
 62
     0
 10
116.5757224238437
 20
-662.4665259332442
 30
0.0
  0
VERTEX
  5
395
  8
_____1
  6
CONTINUOUS
 62
     0
 10
146.8860245379105
 20
-664.2494848811352
 30
0.0
  0
VERTEX
  5
396
  8
_____1
  6
CONTINUOUS
 62
     0
 10
146.8860245379105
 20
-664.2494848811352
 30
0.0
  0
VERTEX
  5
397
  8
_____1
  6
CONTINUOUS
 62
     0
 10
168.2815319125598
 20
-655.3346901417003
 30
0.0
  0
VERTEX
  5
398
  8
_____1
  6
CONTINUOUS
 62
     0
 10
168.2815319125598
 20
-655.3346901417003
 30
0.0
  0
VERTEX
  5
399
  8
_____1
  6
CONTINUOUS
 62
     0
 10
175.4133677040986
 20
-644.6369364543723
 30
0.0
  0
VERTEX
  5
39A
  8
_____1
  6
CONTINUOUS
 62
     0
 10
175.4133677040986
 20
-644.6369364543723
 30
0.0
  0
VERTEX
  5
39B
  8
_____1
  6
CONTINUOUS
 62
     0
 10
175.4133677040986
 20
-616.1095932881785
 30
0.0
  0
VERTEX
  5
39C
  8
_____1
  6
CONTINUOUS
 62
     0
 10
175.4133677040986
 20
-616.1095932881785
 30
0.0
  0
VERTEX
  5
39D
  8
_____1
  6
CONTINUOUS
 62
     0
 10
164.7156140167895
 20
-571.5356195910058
 30
0.0
  0
VERTEX
  5
39E
  8
_____1
  6
CONTINUOUS
 62
     0
 10
164.7156140167895
 20
-571.5356195910058
 30
0.0
  0
VERTEX
  5
39F
  8
_____1
  6
CONTINUOUS
 62
     0
 10
161.1496961210028
 20
-544.7912353726988
 30
0.0
  0
VERTEX
  5
3A0
  8
_____1
  6
CONTINUOUS
 62
     0
 10
161.1496961210028
 20
-544.7912353726988
 30
0.0
  0
VERTEX
  5
3A1
  8
_____1
  6
CONTINUOUS
 62
     0
 10
162.932655068907
 20
-518.0468511543918
 30
0.0
  0
VERTEX
  5
3A2
  8
_____1
  6
CONTINUOUS
 62
     0
 10
162.932655068907
 20
-518.0468511543918
 30
0.0
  0
VERTEX
  5
3A3
  8
_____1
  6
CONTINUOUS
 62
     0
 10
159.3667371731203
 20
-503.783179571293
 30
0.0
  0
VERTEX
  5
3A4
  8
_____1
  6
CONTINUOUS
 62
     0
 10
159.3667371731203
 20
-503.783179571293
 30
0.0
  0
VERTEX
  5
3A5
  8
_____1
  6
CONTINUOUS
 62
     0
 10
159.3667371731203
 20
-480.6047132487631
 30
0.0
  0
VERTEX
  5
3A6
  8
_____1
  6
CONTINUOUS
 62
     0
 10
159.3667371731203
 20
-480.6047132487631
 30
0.0
  0
VERTEX
  5
3A7
  8
_____1
  6
CONTINUOUS
 62
     0
 10
162.932655068907
 20
-466.3410416656641
 30
0.0
  0
VERTEX
  5
3A8
  8
_____1
  6
CONTINUOUS
 62
     0
 10
162.932655068907
 20
-466.3410416656641
 30
0.0
  0
VERTEX
  5
3A9
  8
_____1
  6
CONTINUOUS
 62
     0
 10
180.7622445477678
 20
-298.7429005642775
 30
0.0
  0
VERTEX
  5
3AA
  8
_____1
  6
CONTINUOUS
 62
     0
 10
180.7622445477678
 20
-298.7429005642775
 30
0.0
  0
VERTEX
  5
3AB
  8
_____1
  6
CONTINUOUS
 62
     0
 10
180.7622445477678
 20
-234.5563784403419
 30
0.0
  0
VERTEX
  5
3AC
  8
_____1
  6
CONTINUOUS
 62
     0
 10
180.7622445477678
 20
-234.5563784403419
 30
0.0
  0
VERTEX
  5
3AD
  8
_____1
  6
CONTINUOUS
 62
     0
 10
166.4985729646737
 20
-159.6721026290825
 30
0.0
  0
VERTEX
  5
3AE
  8
_____1
  6
CONTINUOUS
 62
     0
 10
166.4985729646737
 20
-159.6721026290825
 30
0.0
  0
VERTEX
  5
3AF
  8
_____1
  6
CONTINUOUS
 62
     0
 10
164.7156140167895
 20
-90.1367036614829
 30
0.0
  0
VERTEX
  5
3B0
  8
_____1
  6
CONTINUOUS
 62
     0
 10
164.7156140167895
 20
-90.1367036614829
 30
0.0
  0
VERTEX
  5
3B1
  8
_____1
  6
CONTINUOUS
 62
     0
 10
168.2815319125598
 20
-84.78782681782513
 30
0.0
  0
VERTEX
  5
3B2
  8
_____1
  6
CONTINUOUS
 62
     0
 10
168.2815319125598
 20
-84.78782681782513
 30
0.0
  0
VERTEX
  5
3B3
  8
_____1
  6
CONTINUOUS
 62
     0
 10
177.1963266519811
 20
-84.78782681782513
 30
0.0
  0
VERTEX
  5
3B4
  8
_____1
  6
CONTINUOUS
 62
     0
 10
177.1963266519811
 20
-84.78782681782513
 30
0.0
  0
VERTEX
  5
3B5
  8
_____1
  6
CONTINUOUS
 62
     0
 10
184.3281624435344
 20
-75.87303207839022
 30
0.0
  0
VERTEX
  5
3B6
  8
_____1
  6
CONTINUOUS
 62
     0
 10
184.3281624435344
 20
-75.87303207839022
 30
0.0
  0
VERTEX
  5
3B7
  8
_____1
  6
CONTINUOUS
 62
     0
 10
198.5918340266267
 20
127.3842879807403
 30
0.0
  0
VERTEX
  5
3B8
  8
_____1
  6
CONTINUOUS
 62
     0
 10
198.5918340266267
 20
127.3842879807403
 30
0.0
  0
VERTEX
  5
3B9
  8
_____1
  6
CONTINUOUS
 62
     0
 10
195.02591613086
 20
196.9196869483403
 30
0.0
  0
VERTEX
  5
3BA
  8
_____1
  6
CONTINUOUS
 62
     0
 10
195.02591613086
 20
196.9196869483403
 30
0.0
  0
VERTEX
  5
3BB
  8
_____1
  6
CONTINUOUS
 62
     0
 10
182.5452034956502
 20
275.3698806553682
 30
0.0
  0
VERTEX
  5
3BC
  8
_____1
  6
CONTINUOUS
 62
     0
 10
182.5452034956502
 20
275.3698806553682
 30
0.0
  0
VERTEX
  5
3BD
  8
_____1
  6
CONTINUOUS
 62
     0
 10
171.8474498083283
 20
318.1608954046631
 30
0.0
  0
VERTEX
  5
3BE
  8
_____1
  6
CONTINUOUS
 62
     0
 10
171.8474498083283
 20
318.1608954046631
 30
0.0
  0
VERTEX
  5
3BF
  8
_____1
  6
CONTINUOUS
 62
     0
 10
152.2349013815651
 20
371.6496638412773
 30
0.0
  0
VERTEX
  5
3C0
  8
_____1
  6
CONTINUOUS
 62
     0
 10
152.2349013815651
 20
371.6496638412773
 30
0.0
  0
VERTEX
  5
3C1
  8
_____1
  6
CONTINUOUS
 62
     0
 10
141.5371476942596
 20
414.4406785905633
 30
0.0
  0
VERTEX
  5
3C2
  8
_____1
  6
CONTINUOUS
 62
     0
 10
141.5371476942596
 20
414.4406785905633
 30
0.0
  0
VERTEX
  5
3C3
  8
_____1
  6
CONTINUOUS
 62
     0
 10
143.3201066421439
 20
466.1464880792932
 30
0.0
  0
VERTEX
  5
3C4
  8
_____1
  6
CONTINUOUS
 62
     0
 10
143.3201066421439
 20
466.1464880792932
 30
0.0
  0
VERTEX
  5
3C5
  8
_____1
  6
CONTINUOUS
 62
     0
 10
150.4519424336809
 20
503.5886259849219
 30
0.0
  0
VERTEX
  5
3C6
  8
_____1
  6
CONTINUOUS
 62
     0
 10
150.4519424336809
 20
503.5886259849219
 30
0.0
  0
VERTEX
  5
3C7
  8
_____1
  6
CONTINUOUS
 62
     0
 10
154.0178603294676
 20
544.5966817863211
 30
0.0
  0
VERTEX
  5
3C8
  8
_____1
  6
CONTINUOUS
 62
     0
 10
154.0178603294676
 20
544.5966817863211
 30
0.0
  0
VERTEX
  5
3C9
  8
_____1
  6
CONTINUOUS
 62
     0
 10
157.5837782252361
 20
548.1625996821008
 30
0.0
  0
VERTEX
  5
3CA
  8
_____1
  6
CONTINUOUS
 62
     0
 10
157.5837782252361
 20
548.1625996821008
 30
0.0
  0
VERTEX
  5
3CB
  8
_____1
  6
CONTINUOUS
 62
     0
 10
159.3667371731203
 20
546.3796407342122
 30
0.0
  0
VERTEX
  5
3CC
  8
_____1
  6
CONTINUOUS
 62
     0
 10
159.3667371731203
 20
546.3796407342122
 30
0.0
  0
VERTEX
  5
3CD
  8
_____1
  6
CONTINUOUS
 62
     0
 10
178.9792855998635
 20
369.8667048933842
 30
0.0
  0
VERTEX
  5
3CE
  8
_____1
  6
CONTINUOUS
 62
     0
 10
178.9792855998635
 20
369.8667048933842
 30
0.0
  0
VERTEX
  5
3CF
  8
_____1
  6
CONTINUOUS
 62
     0
 10
189.6770392872054
 20
323.5097722483206
 30
0.0
  0
VERTEX
  5
3D0
  8
_____1
  6
CONTINUOUS
 62
     0
 10
189.6770392872054
 20
323.5097722483206
 30
0.0
  0
VERTEX
  5
3D1
  8
_____1
  6
CONTINUOUS
 62
     0
 10
205.7236698181837
 20
275.3698806553682
 30
0.0
  0
VERTEX
  5
3D2
  8
_____1
  6
CONTINUOUS
 62
     0
 10
205.7236698181837
 20
275.3698806553682
 30
0.0
  0
VERTEX
  5
3D3
  8
_____1
  6
CONTINUOUS
 62
     0
 10
218.2043824533916
 20
220.0981532708697
 30
0.0
  0
VERTEX
  5
3D4
  8
_____1
  6
CONTINUOUS
 62
     0
 10
218.2043824533916
 20
220.0981532708697
 30
0.0
  0
VERTEX
  5
3D5
  8
_____1
  6
CONTINUOUS
 62
     0
 10
218.2043824533916
 20
196.9196869483403
 30
0.0
  0
VERTEX
  5
3D6
  8
_____1
  6
CONTINUOUS
 62
     0
 10
218.2043824533916
 20
196.9196869483403
 30
0.0
  0
VERTEX
  5
3D7
  8
_____1
  6
CONTINUOUS
 62
     0
 10
212.8555056097389
 20
186.2219332610184
 30
0.0
  0
VERTEX
  5
3D8
  8
_____1
  6
CONTINUOUS
 62
     0
 10
212.8555056097389
 20
186.2219332610184
 30
0.0
  0
VERTEX
  5
3D9
  8
_____1
  6
CONTINUOUS
 62
     0
 10
209.2895877139686
 20
166.6093848342557
 30
0.0
  0
VERTEX
  5
3DA
  8
_____1
  6
CONTINUOUS
 62
     0
 10
209.2895877139686
 20
166.6093848342557
 30
0.0
  0
VERTEX
  5
3DB
  8
_____1
  6
CONTINUOUS
 62
     0
 10
211.0725466618528
 20
104.2058216582109
 30
0.0
  0
VERTEX
  5
3DC
  8
_____1
  6
CONTINUOUS
 62
     0
 10
211.0725466618528
 20
104.2058216582109
 30
0.0
  0
VERTEX
  5
3DD
  8
_____1
  6
CONTINUOUS
 62
     0
 10
214.6384645576231
 20
97.07398586666022
 30
0.0
  0
VERTEX
  5
3DE
  8
_____1
  6
CONTINUOUS
 62
     0
 10
214.6384645576231
 20
97.07398586666022
 30
0.0
  0
VERTEX
  5
3DF
  8
_____1
  6
CONTINUOUS
 62
     0
 10
219.9873414012759
 20
97.07398586666022
 30
0.0
  0
VERTEX
  5
3E0
  8
_____1
  6
CONTINUOUS
 62
     0
 10
219.9873414012759
 20
97.07398586666022
 30
0.0
  0
VERTEX
  5
3E1
  8
_____1
  6
CONTINUOUS
 62
     0
 10
227.1191771928311
 20
107.7717395539839
 30
0.0
  0
VERTEX
  5
3E2
  8
_____1
  6
CONTINUOUS
 62
     0
 10
227.1191771928311
 20
107.7717395539839
 30
0.0
  0
VERTEX
  5
3E3
  8
_____1
  6
CONTINUOUS
 62
     0
 10
225.3362182449468
 20
129.167246928627
 30
0.0
  0
VERTEX
  5
3E4
  8
_____1
  6
CONTINUOUS
 62
     0
 10
225.3362182449468
 20
129.167246928627
 30
0.0
  0
VERTEX
  5
3E5
  8
_____1
  6
CONTINUOUS
 62
     0
 10
232.4680540364857
 20
138.0820416680619
 30
0.0
  0
VERTEX
  5
3E6
  8
_____1
  6
CONTINUOUS
 62
     0
 10
232.4680540364857
 20
138.0820416680619
 30
0.0
  0
VERTEX
  5
3E7
  8
_____1
  6
CONTINUOUS
 62
     0
 10
237.8169308801566
 20
127.3842879807403
 30
0.0
  0
VERTEX
  5
3E8
  8
_____1
  6
CONTINUOUS
 62
     0
 10
237.8169308801566
 20
127.3842879807403
 30
0.0
  0
VERTEX
  5
3E9
  8
_____1
  6
CONTINUOUS
 62
     0
 10
234.2510129843863
 20
104.2058216582109
 30
0.0
  0
VERTEX
  5
3EA
  8
_____1
  6
CONTINUOUS
 62
     0
 10
234.2510129843863
 20
104.2058216582109
 30
0.0
  0
VERTEX
  5
3EB
  8
_____1
  6
CONTINUOUS
 62
     0
 10
214.6384645576231
 20
81.02735533567466
 30
0.0
  0
VERTEX
  5
3EC
  8
_____1
  6
CONTINUOUS
 62
     0
 10
214.6384645576231
 20
81.02735533567466
 30
0.0
  0
VERTEX
  5
3ED
  8
_____1
  6
CONTINUOUS
 62
     0
 10
214.6384645576231
 20
68.54664270046669
 30
0.0
  0
VERTEX
  5
3EE
  8
_____1
  6
CONTINUOUS
 62
     0
 10
214.6384645576231
 20
68.54664270046669
 30
0.0
  0
VERTEX
  5
3EF
  8
_____1
  6
CONTINUOUS
 62
     0
 10
223.5532592970444
 20
66.76368375258221
 30
0.0
  0
VERTEX
  5
3F0
  8
_____1
  6
CONTINUOUS
 62
     0
 10
223.5532592970444
 20
66.76368375258221
 30
0.0
  0
VERTEX
  5
3F1
  8
_____1
  6
CONTINUOUS
 62
     0
 10
244.9487666717082
 20
79.2443963877904
 30
0.0
  0
VERTEX
  5
3F2
  8
_____1
  6
CONTINUOUS
 62
     0
 10
244.9487666717082
 20
79.2443963877904
 30
0.0
  0
VERTEX
  5
3F3
  8
_____1
  6
CONTINUOUS
 62
     0
 10
255.6465203590319
 20
91.72510902299837
 30
0.0
  0
VERTEX
  5
3F4
  8
_____1
  6
CONTINUOUS
 62
     0
 10
255.6465203590319
 20
91.72510902299837
 30
0.0
  0
VERTEX
  5
3F5
  8
_____1
  6
CONTINUOUS
 62
     0
 10
266.3442740463393
 20
127.3842879807403
 30
0.0
  0
VERTEX
  5
3F6
  8
_____1
  6
CONTINUOUS
 62
     0
 10
266.3442740463393
 20
127.3842879807403
 30
0.0
  0
VERTEX
  5
3F7
  8
_____1
  6
CONTINUOUS
 62
     0
 10
266.3442740463393
 20
152.3457132511608
 30
0.0
  0
VERTEX
  5
3F8
  8
_____1
  6
CONTINUOUS
 62
     0
 10
266.3442740463393
 20
152.3457132511608
 30
0.0
  0
VERTEX
  5
3F9
  8
_____1
  6
CONTINUOUS
 62
     0
 10
257.429479306918
 20
177.3071385215835
 30
0.0
  0
VERTEX
  5
3FA
  8
_____1
  6
CONTINUOUS
 62
     0
 10
257.429479306918
 20
177.3071385215835
 30
0.0
  0
VERTEX
  5
3FB
  8
_____1
  6
CONTINUOUS
 62
     0
 10
250.2976435153628
 20
221.8811122187562
 30
0.0
  0
VERTEX
  5
3FC
  8
_____1
  6
CONTINUOUS
 62
     0
 10
250.2976435153628
 20
221.8811122187562
 30
0.0
  0
VERTEX
  5
3FD
  8
_____1
  6
CONTINUOUS
 62
     0
 10
244.9487666717082
 20
337.7734438314196
 30
0.0
  0
VERTEX
  5
3FE
  8
_____1
  6
CONTINUOUS
 62
     0
 10
244.9487666717082
 20
337.7734438314196
 30
0.0
  0
VERTEX
  5
3FF
  8
_____1
  6
CONTINUOUS
 62
     0
 10
239.5998898280372
 20
394.8281301638069
 30
0.0
  0
VERTEX
  5
400
  8
_____1
  6
CONTINUOUS
 62
     0
 10
239.5998898280372
 20
394.8281301638069
 30
0.0
  0
VERTEX
  5
401
  8
_____1
  6
CONTINUOUS
 62
     0
 10
234.2510129843863
 20
423.3554733299982
 30
0.0
  0
VERTEX
  5
402
  8
_____1
  6
CONTINUOUS
 62
     0
 10
234.2510129843863
 20
423.3554733299982
 30
0.0
  0
VERTEX
  5
403
  8
_____1
  6
CONTINUOUS
 62
     0
 10
223.5532592970444
 20
448.3168986004209
 30
0.0
  0
VERTEX
  5
404
  8
_____1
  6
CONTINUOUS
 62
     0
 10
223.5532592970444
 20
448.3168986004209
 30
0.0
  0
VERTEX
  5
405
  8
_____1
  6
CONTINUOUS
 62
     0
 10
219.9873414012759
 20
476.8442417666147
 30
0.0
  0
VERTEX
  5
406
  8
_____1
  6
CONTINUOUS
 62
     0
 10
219.9873414012759
 20
476.8442417666147
 30
0.0
  0
VERTEX
  5
407
  8
_____1
  6
CONTINUOUS
 62
     0
 10
216.4214235055074
 20
592.7365733792781
 30
0.0
  0
VERTEX
  5
408
  8
_____1
  6
CONTINUOUS
 62
     0
 10
216.4214235055074
 20
592.7365733792781
 30
0.0
  0
VERTEX
  5
409
  8
_____1
  6
CONTINUOUS
 62
     0
 10
209.2895877139686
 20
671.186767086308
 30
0.0
  0
VERTEX
  5
40A
  8
_____1
  6
CONTINUOUS
 62
     0
 10
209.2895877139686
 20
671.186767086308
 30
0.0
  0
VERTEX
  5
40B
  8
_____1
  6
CONTINUOUS
 62
     0
 10
202.1577519224134
 20
687.2333976172918
 30
0.0
  0
VERTEX
  5
40C
  8
_____1
  6
CONTINUOUS
 62
     0
 10
202.1577519224134
 20
687.2333976172918
 30
0.0
  0
VERTEX
  5
40D
  8
_____1
  6
CONTINUOUS
 62
     0
 10
187.8940803393211
 20
703.2800281482791
 30
0.0
  0
VERTEX
  5
40E
  8
_____1
  6
CONTINUOUS
 62
     0
 10
187.8940803393211
 20
703.2800281482791
 30
0.0
  0
VERTEX
  5
40F
  8
_____1
  6
CONTINUOUS
 62
     0
 10
154.0178603294676
 20
713.977781835601
 30
0.0
  0
VERTEX
  5
410
  8
_____1
  6
CONTINUOUS
 62
     0
 10
154.0178603294676
 20
713.977781835601
 30
0.0
  0
VERTEX
  5
411
  8
_____1
  6
CONTINUOUS
 62
     0
 10
150.4519424336809
 20
717.5436997313718
 30
0.0
  0
VERTEX
  5
412
  8
_____1
  6
CONTINUOUS
 62
     0
 10
150.4519424336809
 20
717.5436997313718
 30
0.0
  0
VERTEX
  5
413
  8
_____1
  6
CONTINUOUS
 62
     0
 10
129.0564350590316
 20
878.0100050412098
 30
0.0
  0
VERTEX
  5
414
  8
_____1
  6
CONTINUOUS
 62
     0
 10
129.0564350590316
 20
878.0100050412098
 30
0.0
  0
VERTEX
  5
415
  8
_____1
  6
CONTINUOUS
 62
     0
 10
121.9245992674946
 20
910.1032661031809
 30
0.0
  0
VERTEX
  5
416
  8
_____1
  6
CONTINUOUS
 62
     0
 10
121.9245992674946
 20
910.1032661031809
 30
0.0
  0
VERTEX
  5
417
  8
_____1
  6
CONTINUOUS
 62
     0
 10
109.4438866322866
 20
938.6306092693726
 30
0.0
  0
VERTEX
  5
418
  8
_____1
  6
CONTINUOUS
 62
     0
 10
109.4438866322866
 20
938.6306092693726
 30
0.0
  0
VERTEX
  5
419
  8
_____1
  6
CONTINUOUS
 62
     0
 10
102.3120508407333
 20
949.3283629566963
 30
0.0
  0
VERTEX
  5
41A
  8
_____1
  6
CONTINUOUS
 62
     0
 10
102.3120508407333
 20
949.3283629566963
 30
0.0
  0
VERTEX
  5
41B
  8
_____1
  6
CONTINUOUS
 62
     0
 10
88.04837925763923
 20
963.5920345397949
 30
0.0
  0
VERTEX
  5
41C
  8
_____1
  6
CONTINUOUS
 62
     0
 10
88.04837925763923
 20
963.5920345397949
 30
0.0
  0
VERTEX
  5
41D
  8
_____1
  6
CONTINUOUS
 62
     0
 10
68.43583083087606
 20
970.7238703313446
 30
0.0
  0
VERTEX
  5
41E
  8
_____1
  6
CONTINUOUS
 62
     0
 10
68.43583083087606
 20
970.7238703313446
 30
0.0
  0
VERTEX
  5
41F
  8
_____1
  6
CONTINUOUS
 62
     0
 10
34.55961082102249
 20
972.5068292792307
 30
0.0
  0
SEQEND
  5
420
  8
_____1
  6
CONTINUOUS
 62
     0
  0
POLYLINE
  5
421
  8
_____1
  6
CONTINUOUS
 62
     0
 66
     1
 10
0.0
 20
0.0
 30
0.0
 70
   129
  0
VERTEX
  5
422
  8
_____1
  6
CONTINUOUS
 62
     0
 10
-503.152167974144
 20
954.6939207455912
 30
0.0
  0
VERTEX
  5
423
  8
_____1
  6
CONTINUOUS
 62
     0
 10
-534.936206747991
 20
963.522820404989
 30
0.0
  0
VERTEX
  5
424
  8
_____1
  6
CONTINUOUS
 62
     0
 10
-550.8282261349
 20
961.7570404731109
 30
0.0
  0
VERTEX
  5
425
  8
_____1
  6
CONTINUOUS
 62
     0
 10
-573.7833652493377
 20
952.9281408137117
 30
0.0
  0
VERTEX
  5
426
  8
_____1
  6
CONTINUOUS
 62
     0
 10
-591.4411645681525
 20
937.0361214267937
 30
0.0
  0
VERTEX
  5
427
  8
_____1
  6
CONTINUOUS
 62
     0
 10
-605.5674040231847
 20
905.252082652959
 30
0.0
  0
VERTEX
  5
428
  8
_____1
  6
CONTINUOUS
 62
     0
 10
-605.567404023192
 20
859.3418044240871
 30
0.0
  0
VERTEX
  5
429
  8
_____1
  6
CONTINUOUS
 62
     0
 10
-609.0989638869564
 20
843.4497850371713
 30
0.0
  0
VERTEX
  5
42A
  8
_____1
  6
CONTINUOUS
 62
     0
 10
-607.3331839550688
 20
811.6657462633357
 30
0.0
  0
VERTEX
  5
42B
  8
_____1
  6
CONTINUOUS
 62
     0
 10
-602.0358441594385
 20
792.2421670126591
 30
0.0
  0
VERTEX
  5
42C
  8
_____1
  6
CONTINUOUS
 62
     0
 10
-587.909604704399
 20
763.9896881025838
 30
0.0
  0
VERTEX
  5
42D
  8
_____1
  6
CONTINUOUS
 62
     0
 10
-577.3149251131003
 20
753.3950085113052
 30
0.0
  0
VERTEX
  5
42E
  8
_____1
  6
CONTINUOUS
 62
     0
 10
-566.7202455218289
 20
748.0976687156667
 30
0.0
  0
VERTEX
  5
42F
  8
_____1
  6
CONTINUOUS
 62
     0
 10
-570.2518053855933
 20
726.9083095331102
 30
0.0
  0
VERTEX
  5
430
  8
_____1
  6
CONTINUOUS
 62
     0
 10
-589.6753846362649
 20
711.0162901461931
 30
0.0
  0
VERTEX
  5
431
  8
_____1
  6
CONTINUOUS
 62
     0
 10
-655.0092421158374
 20
695.1242707592769
 30
0.0
  0
VERTEX
  5
432
  8
_____1
  6
CONTINUOUS
 62
     0
 10
-669.1354815708605
 20
688.0611510317572
 30
0.0
  0
VERTEX
  5
433
  8
_____1
  6
CONTINUOUS
 62
     0
 10
-685.0275009577895
 20
672.16913164484
 30
0.0
  0
VERTEX
  5
434
  8
_____1
  6
CONTINUOUS
 62
     0
 10
-750.361358437342
 20
580.3485751870967
 30
0.0
  0
VERTEX
  5
435
  8
_____1
  6
CONTINUOUS
 62
     0
 10
-794.5058567343444
 20
506.1858180481479
 30
0.0
  0
VERTEX
  5
436
  8
_____1
  6
CONTINUOUS
 62
     0
 10
-812.163656053132
 20
470.8702194105549
 30
0.0
  0
VERTEX
  5
437
  8
_____1
  6
CONTINUOUS
 62
     0
 10
-812.163656053132
 20
454.9782000236373
 30
0.0
  0
VERTEX
  5
438
  8
_____1
  6
CONTINUOUS
 62
     0
 10
-806.8663162574926
 20
433.788840841082
 30
0.0
  0
VERTEX
  5
439
  8
_____1
  6
CONTINUOUS
 62
     0
 10
-782.1453972111817
 20
379.0496629528104
 30
0.0
  0
VERTEX
  5
43A
  8
_____1
  6
CONTINUOUS
 62
     0
 10
-736.2351189823098
 20
301.3553459501034
 30
0.0
  0
VERTEX
  5
43B
  8
_____1
  6
CONTINUOUS
 62
     0
 10
-723.8746594591344
 20
288.9948864269459
 30
0.0
  0
VERTEX
  5
43C
  8
_____1
  6
CONTINUOUS
 62
     0
 10
-716.8115397316164
 20
288.9948864269459
 30
0.0
  0
VERTEX
  5
43D
  8
_____1
  6
CONTINUOUS
 62
     0
 10
-709.7484200040931
 20
283.697546631307
 30
0.0
  0
VERTEX
  5
43E
  8
_____1
  6
CONTINUOUS
 62
     0
 10
-709.7484200040931
 20
274.8686469719082
 30
0.0
  0
VERTEX
  5
43F
  8
_____1
  6
CONTINUOUS
 62
     0
 10
-715.0457597997397
 20
262.508187448751
 30
0.0
  0
VERTEX
  5
440
  8
_____1
  6
CONTINUOUS
 62
     0
 10
-722.1088795272667
 20
230.7241486749158
 30
0.0
  0
VERTEX
  5
441
  8
_____1
  6
CONTINUOUS
 62
     0
 10
-727.4062193228879
 20
168.9218510591268
 30
0.0
  0
VERTEX
  5
442
  8
_____1
  6
CONTINUOUS
 62
     0
 10
-727.4062193228879
 20
89.46175412454068
 30
0.0
  0
VERTEX
  5
443
  8
_____1
  6
CONTINUOUS
 62
     0
 10
-720.3430995953718
 20
-64.16109994899352
 30
0.0
  0
VERTEX
  5
444
  8
_____1
  6
CONTINUOUS
 62
     0
 10
-716.8115397316164
 20
-72.98999960839137
 30
0.0
  0
VERTEX
  5
445
  8
_____1
  6
CONTINUOUS
 62
     0
 10
-690.3248407534197
 20
-74.7557795402713
 30
0.0
  0
VERTEX
  5
446
  8
_____1
  6
CONTINUOUS
 62
     0
 10
-686.7932808896662
 20
-81.81889926778922
 30
0.0
  0
VERTEX
  5
447
  8
_____1
  6
CONTINUOUS
 62
     0
 10
-683.2617210258945
 20
-129.4949574285413
 30
0.0
  0
VERTEX
  5
448
  8
_____1
  6
CONTINUOUS
 62
     0
 10
-683.2617210258945
 20
-302.5413907527513
 30
0.0
  0
VERTEX
  5
449
  8
_____1
  6
CONTINUOUS
 62
     0
 10
-663.8381417752212
 20
-392.5961672786166
 30
0.0
  0
VERTEX
  5
44A
  8
_____1
  6
CONTINUOUS
 62
     0
 10
-633.8198829332691
 20
-495.0114033276386
 30
0.0
  0
VERTEX
  5
44B
  8
_____1
  6
CONTINUOUS
 62
     0
 10
-633.8198829332691
 20
-544.4532414202695
 30
0.0
  0
VERTEX
  5
44C
  8
_____1
  6
CONTINUOUS
 62
     0
 10
-649.7119023201872
 20
-604.4897591041795
 30
0.0
  0
VERTEX
  5
44D
  8
_____1
  6
CONTINUOUS
 62
     0
 10
-651.4776822520748
 20
-636.2737978780146
 30
0.0
  0
VERTEX
  5
44E
  8
_____1
  6
CONTINUOUS
 62
     0
 10
-646.1803424564246
 20
-650.4000373330516
 30
0.0
  0
VERTEX
  5
44F
  8
_____1
  6
CONTINUOUS
 62
     0
 10
-639.1172227289085
 20
-657.4631570605704
 30
0.0
  0
VERTEX
  5
450
  8
_____1
  6
CONTINUOUS
 62
     0
 10
-623.2252033419795
 20
-662.7604968562096
 30
0.0
  0
VERTEX
  5
451
  8
_____1
  6
CONTINUOUS
 62
     0
 10
-605.5674040231847
 20
-662.7604968562096
 30
0.0
  0
VERTEX
  5
452
  8
_____1
  6
CONTINUOUS
 62
     0
 10
-591.4411645681689
 20
-659.2289369924506
 30
0.0
  0
VERTEX
  5
453
  8
_____1
  6
CONTINUOUS
 62
     0
 10
-579.0807050449862
 20
-652.1658172649315
 30
0.0
  0
VERTEX
  5
454
  8
_____1
  6
CONTINUOUS
 62
     0
 10
-573.7833652493377
 20
-639.8053577417736
 30
0.0
  0
VERTEX
  5
455
  8
_____1
  6
CONTINUOUS
 62
     0
 10
-572.0175853174792
 20
-546.2190213521496
 30
0.0
  0
VERTEX
  5
456
  8
_____1
  6
CONTINUOUS
 62
     0
 10
-591.4411645681525
 20
-466.7589244175635
 30
0.0
  0
VERTEX
  5
457
  8
_____1
  6
CONTINUOUS
 62
     0
 10
-591.4411645681525
 20
-434.9748856437295
 30
0.0
  0
VERTEX
  5
458
  8
_____1
  6
CONTINUOUS
 62
     0
 10
-580.846484976872
 20
-321.9649700034283
 30
0.0
  0
VERTEX
  5
459
  8
_____1
  6
CONTINUOUS
 62
     0
 10
-580.846484976872
 20
-258.3968924557594
 30
0.0
  0
VERTEX
  5
45A
  8
_____1
  6
CONTINUOUS
 62
     0
 10
-586.1438247725114
 20
-191.2972550443315
 30
0.0
  0
VERTEX
  5
45B
  8
_____1
  6
CONTINUOUS
 62
     0
 10
-570.2518053855824
 20
-83.58467919967052
 30
0.0
  0
VERTEX
  5
45C
  8
_____1
  6
CONTINUOUS
 62
     0
 10
-515.5126274973104
 20
-80.0531193359102
 30
0.0
  0
VERTEX
  5
45D
  8
_____1
  6
CONTINUOUS
 62
     0
 10
-510.2152877016711
 20
-87.11623906343038
 30
0.0
  0
VERTEX
  5
45E
  8
_____1
  6
CONTINUOUS
 62
     0
 10
-469.6023492684385
 20
-207.1892744312484
 30
0.0
  0
VERTEX
  5
45F
  8
_____1
  6
CONTINUOUS
 62
     0
 10
-455.4761098133954
 20
-237.2075332732034
 30
0.0
  0
VERTEX
  5
460
  8
_____1
  6
CONTINUOUS
 62
     0
 10
-432.5209706989504
 20
-327.2623097990675
 30
0.0
  0
VERTEX
  5
461
  8
_____1
  6
CONTINUOUS
 62
     0
 10
-388.376472401957
 20
-449.1011250987676
 30
0.0
  0
VERTEX
  5
462
  8
_____1
  6
CONTINUOUS
 62
     0
 10
-377.7817928106856
 20
-495.0114033276398
 30
0.0
  0
VERTEX
  5
463
  8
_____1
  6
CONTINUOUS
 62
     0
 10
-377.7817928106765
 20
-540.9216815565105
 30
0.0
  0
VERTEX
  5
464
  8
_____1
  6
CONTINUOUS
 62
     0
 10
-383.0791326063068
 20
-553.2821410796685
 30
0.0
  0
VERTEX
  5
465
  8
_____1
  6
CONTINUOUS
 62
     0
 10
-383.0791326063177
 20
-569.1741604665856
 30
0.0
  0
VERTEX
  5
466
  8
_____1
  6
CONTINUOUS
 62
     0
 10
-376.0160128787998
 20
-593.8950795129015
 30
0.0
  0
VERTEX
  5
467
  8
_____1
  6
CONTINUOUS
 62
     0
 10
-372.4844530150372
 20
-632.7422380142557
 30
0.0
  0
VERTEX
  5
468
  8
_____1
  6
CONTINUOUS
 62
     0
 10
-365.421333287512
 20
-641.5711376736524
 30
0.0
  0
VERTEX
  5
469
  8
_____1
  6
CONTINUOUS
 62
     0
 10
-353.0608737643547
 20
-645.1026975374125
 30
0.0
  0
VERTEX
  5
46A
  8
_____1
  6
CONTINUOUS
 62
     0
 10
-344.2319741049528
 20
-641.5711376736535
 30
0.0
  0
VERTEX
  5
46B
  8
_____1
  6
CONTINUOUS
 62
     0
 10
-342.4661941730851
 20
-629.2106781504956
 30
0.0
  0
VERTEX
  5
46C
  8
_____1
  6
CONTINUOUS
 62
     0
 10
-333.637294513665
 20
-648.6342574011728
 30
0.0
  0
VERTEX
  5
46D
  8
_____1
  6
CONTINUOUS
 62
     0
 10
-324.8083948542812
 20
-659.2289369924506
 30
0.0
  0
VERTEX
  5
46E
  8
_____1
  6
CONTINUOUS
 62
     0
 10
-296.555915944195
 20
-666.2920567199685
 30
0.0
  0
VERTEX
  5
46F
  8
_____1
  6
CONTINUOUS
 62
     0
 10
-271.8349968978823
 20
-666.2920567199685
 30
0.0
  0
VERTEX
  5
470
  8
_____1
  6
CONTINUOUS
 62
     0
 10
-257.7087574428501
 20
-662.7604968562096
 30
0.0
  0
VERTEX
  5
471
  8
_____1
  6
CONTINUOUS
 62
     0
 10
-248.8798577834373
 20
-655.6973771286905
 30
0.0
  0
VERTEX
  5
472
  8
_____1
  6
CONTINUOUS
 62
     0
 10
-247.1140778515605
 20
-638.0395778098948
 30
0.0
  0
VERTEX
  5
473
  8
_____1
  6
CONTINUOUS
 62
     0
 10
-254.1771975790766
 20
-623.9133383548567
 30
0.0
  0
VERTEX
  5
474
  8
_____1
  6
CONTINUOUS
 62
     0
 10
-277.1323366935126
 20
-599.1924193085406
 30
0.0
  0
VERTEX
  5
475
  8
_____1
  6
CONTINUOUS
 62
     0
 10
-294.7901360123183
 20
-570.9399403984658
 30
0.0
  0
VERTEX
  5
476
  8
_____1
  6
CONTINUOUS
 62
     0
 10
-305.3848156035988
 20
-547.9848012840296
 30
0.0
  0
VERTEX
  5
477
  8
_____1
  6
CONTINUOUS
 62
     0
 10
-317.7452751267615
 20
-505.6060829189175
 30
0.0
  0
VERTEX
  5
478
  8
_____1
  6
CONTINUOUS
 62
     0
 10
-342.4661941730851
 20
-284.8835914339554
 30
0.0
  0
VERTEX
  5
479
  8
_____1
  6
CONTINUOUS
 62
     0
 10
-353.0608737643456
 20
-242.5048730688422
 30
0.0
  0
VERTEX
  5
47A
  8
_____1
  6
CONTINUOUS
 62
     0
 10
-377.7817928106856
 20
-178.9367955211733
 30
0.0
  0
VERTEX
  5
47B
  8
_____1
  6
CONTINUOUS
 62
     0
 10
-397.2053720613499
 20
-115.3687179735043
 30
0.0
  0
VERTEX
  5
47C
  8
_____1
  6
CONTINUOUS
 62
     0
 10
-400.7369319251125
 20
-94.1793587909483
 30
0.0
  0
VERTEX
  5
47D
  8
_____1
  6
CONTINUOUS
 62
     0
 10
-404.2684917888769
 20
-12.95348192448228
 30
0.0
  0
VERTEX
  5
47E
  8
_____1
  6
CONTINUOUS
 62
     0
 10
-409.5658315845162
 20
20.59633678123282
 30
0.0
  0
VERTEX
  5
47F
  8
_____1
  6
CONTINUOUS
 62
     0
 10
-409.5658315845162
 20
32.95679630438963
 30
0.0
  0
VERTEX
  5
480
  8
_____1
  6
CONTINUOUS
 62
     0
 10
-393.6738121975964
 20
38.25413610002852
 30
0.0
  0
VERTEX
  5
481
  8
_____1
  6
CONTINUOUS
 62
     0
 10
-379.5475727425533
 20
55.91193541882467
 30
0.0
  0
VERTEX
  5
482
  8
_____1
  6
CONTINUOUS
 62
     0
 10
-372.4844530150372
 20
70.03817487386254
 30
0.0
  0
VERTEX
  5
483
  8
_____1
  6
CONTINUOUS
 62
     0
 10
-363.6555533556243
 20
101.8222136476988
 30
0.0
  0
VERTEX
  5
484
  8
_____1
  6
CONTINUOUS
 62
     0
 10
-368.9528931512655
 20
168.9218510591268
 30
0.0
  0
VERTEX
  5
485
  8
_____1
  6
CONTINUOUS
 62
     0
 10
-361.8897734237476
 20
228.9583687430363
 30
0.0
  0
VERTEX
  5
486
  8
_____1
  6
CONTINUOUS
 62
     0
 10
-349.5293139005921
 20
297.8237860863442
 30
0.0
  0
VERTEX
  5
487
  8
_____1
  6
CONTINUOUS
 62
     0
 10
-340.7004142411993
 20
394.9416823397285
 30
0.0
  0
VERTEX
  5
488
  8
_____1
  6
CONTINUOUS
 62
     0
 10
-340.7004142411993
 20
534.4382969582241
 30
0.0
  0
VERTEX
  5
489
  8
_____1
  6
CONTINUOUS
 62
     0
 10
-349.5293139005921
 20
633.321973143487
 30
0.0
  0
VERTEX
  5
48A
  8
_____1
  6
CONTINUOUS
 62
     0
 10
-361.8897734237585
 20
663.3402319854426
 30
0.0
  0
VERTEX
  5
48B
  8
_____1
  6
CONTINUOUS
 62
     0
 10
-372.4844530150372
 20
677.4664714404794
 30
0.0
  0
VERTEX
  5
48C
  8
_____1
  6
CONTINUOUS
 62
     0
 10
-391.9080322657105
 20
688.0611510317572
 30
0.0
  0
VERTEX
  5
48D
  8
_____1
  6
CONTINUOUS
 62
     0
 10
-444.8814302221058
 20
707.4847302824342
 30
0.0
  0
VERTEX
  5
48E
  8
_____1
  6
CONTINUOUS
 62
     0
 10
-453.7103298815096
 20
714.5478500099539
 30
0.0
  0
VERTEX
  5
48F
  8
_____1
  6
CONTINUOUS
 62
     0
 10
-459.0076696771489
 20
737.5029891243898
 30
0.0
  0
VERTEX
  5
490
  8
_____1
  6
CONTINUOUS
 62
     0
 10
-462.5392295409115
 20
785.1790472851403
 30
0.0
  0
VERTEX
  5
491
  8
_____1
  6
CONTINUOUS
 62
     0
 10
-467.8365693365527
 20
804.6026265358178
 30
0.0
  0
VERTEX
  5
492
  8
_____1
  6
CONTINUOUS
 62
     0
 10
-473.133909132192
 20
813.4315261952147
 30
0.0
  0
VERTEX
  5
493
  8
_____1
  6
CONTINUOUS
 62
     0
 10
-460.7734496090166
 20
839.918225173411
 30
0.0
  0
VERTEX
  5
494
  8
_____1
  6
CONTINUOUS
 62
     0
 10
-466.070789404665
 20
857.576024492208
 30
0.0
  0
VERTEX
  5
495
  8
_____1
  6
CONTINUOUS
 62
     0
 10
-464.3050094727882
 20
907.0178625848398
 30
0.0
  0
VERTEX
  5
496
  8
_____1
  6
CONTINUOUS
 62
     0
 10
-473.133909132192
 20
928.2072217673963
 30
0.0
  0
VERTEX
  5
497
  8
_____1
  6
CONTINUOUS
 62
     0
 10
-490.7917084509795
 20
947.6308010180724
 30
0.0
  0
SEQEND
  5
498
  8
_____1
  6
CONTINUOUS
 62
     0
  0
POLYLINE
  5
499
  8
_____1
  6
CONTINUOUS
 62
     0
 66
     1
 10
0.0
 20
0.0
 30
0.0
 70
   129
  0
VERTEX
  5
49A
  8
_____1
  6
CONTINUOUS
 62
     0
 10
-732.5399867791025
 20
449.0303908437661
 30
0.0
  0
VERTEX
  5
49B
  8
_____1
  6
CONTINUOUS
 62
     0
 10
-678.4820940478626
 20
517.3535608234988
 30
0.0
  0
VERTEX
  5
49C
  8
_____1
  6
CONTINUOUS
 62
     0
 10
-694.4992474497108
 20
361.9371192212504
 30
0.0
  0
SEQEND
  5
49D
  8
_____1
  6
CONTINUOUS
 62
     0
  0
POLYLINE
  5
49E
  8
_____1
  6
CONTINUOUS
 62
     0
 66
     1
 10
0.0
 20
0.0
 30
0.0
 70
   129
  0
VERTEX
  5
49F
  8
_____1
  6
CONTINUOUS
 62
     0
 10
-980.3360797953505
 20
984.4402170845319
 30
0.0
  0
VERTEX
  5
4A0
  8
_____1
  6
CONTINUOUS
 62
     0
 10
-1001.659503903533
 20
982.6632650755168
 30
0.0
  0
VERTEX
  5
4A1
  8
_____1
  6
CONTINUOUS
 62
     0
 10
-1001.659503903533
 20
982.6632650755168
 30
0.0
  0
VERTEX
  5
4A2
  8
_____1
  6
CONTINUOUS
 62
     0
 10
-1010.544263948603
 20
986.217169093547
 30
0.0
  0
VERTEX
  5
4A3
  8
_____1
  6
CONTINUOUS
 62
     0
 10
-1010.544263948603
 20
986.217169093547
 30
0.0
  0
VERTEX
  5
4A4
  8
_____1
  6
CONTINUOUS
 62
     0
 10
-1026.536832029741
 20
986.217169093547
 30
0.0
  0
VERTEX
  5
4A5
  8
_____1
  6
CONTINUOUS
 62
     0
 10
-1026.536832029741
 20
986.217169093547
 30
0.0
  0
VERTEX
  5
4A6
  8
_____1
  6
CONTINUOUS
 62
     0
 10
-1049.637208146946
 20
977.3324090484716
 30
0.0
  0
VERTEX
  5
4A7
  8
_____1
  6
CONTINUOUS
 62
     0
 10
-1049.637208146946
 20
977.3324090484716
 30
0.0
  0
VERTEX
  5
4A8
  8
_____1
  6
CONTINUOUS
 62
     0
 10
-1070.960632255129
 20
956.0089849402893
 30
0.0
  0
VERTEX
  5
4A9
  8
_____1
  6
CONTINUOUS
 62
     0
 10
-1070.960632255129
 20
956.0089849402893
 30
0.0
  0
VERTEX
  5
4AA
  8
_____1
  6
CONTINUOUS
 62
     0
 10
-1085.176248327246
 20
927.5777527960486
 30
0.0
  0
VERTEX
  5
4AB
  8
_____1
  6
CONTINUOUS
 62
     0
 10
-1085.176248327246
 20
927.5777527960486
 30
0.0
  0
VERTEX
  5
4AC
  8
_____1
  6
CONTINUOUS
 62
     0
 10
-1097.614912390357
 20
886.7078565887
 30
0.0
  0
VERTEX
  5
4AD
  8
_____1
  6
CONTINUOUS
 62
     0
 10
-1097.614912390357
 20
886.7078565887
 30
0.0
  0
VERTEX
  5
4AE
  8
_____1
  6
CONTINUOUS
 62
     0
 10
-1101.168816408381
 20
838.7301523452925
 30
0.0
  0
VERTEX
  5
4AF
  8
_____1
  6
CONTINUOUS
 62
     0
 10
-1101.168816408381
 20
838.7301523452925
 30
0.0
  0
VERTEX
  5
4B0
  8
_____1
  6
CONTINUOUS
 62
     0
 10
-1101.168816408381
 20
772.9829280117328
 30
0.0
  0
VERTEX
  5
4B1
  8
_____1
  6
CONTINUOUS
 62
     0
 10
-1101.168816408381
 20
772.9829280117328
 30
0.0
  0
VERTEX
  5
4B2
  8
_____1
  6
CONTINUOUS
 62
     0
 10
-1095.837960381336
 20
730.3360797953696
 30
0.0
  0
VERTEX
  5
4B3
  8
_____1
  6
CONTINUOUS
 62
     0
 10
-1095.837960381336
 20
730.3360797953696
 30
0.0
  0
VERTEX
  5
4B4
  8
_____1
  6
CONTINUOUS
 62
     0
 10
-1111.830528462472
 20
719.6743677412792
 30
0.0
  0
VERTEX
  5
4B5
  8
_____1
  6
CONTINUOUS
 62
     0
 10
-1111.830528462472
 20
719.6743677412792
 30
0.0
  0
VERTEX
  5
4B6
  8
_____1
  6
CONTINUOUS
 62
     0
 10
-1158.031280696873
 20
710.7896076962043
 30
0.0
  0
VERTEX
  5
4B7
  8
_____1
  6
CONTINUOUS
 62
     0
 10
-1158.031280696873
 20
710.7896076962043
 30
0.0
  0
VERTEX
  5
4B8
  8
_____1
  6
CONTINUOUS
 62
     0
 10
-1170.469944759977
 20
703.6817996601435
 30
0.0
  0
VERTEX
  5
4B9
  8
_____1
  6
CONTINUOUS
 62
     0
 10
-1170.469944759977
 20
703.6817996601435
 30
0.0
  0
VERTEX
  5
4BA
  8
_____1
  6
CONTINUOUS
 62
     0
 10
-1181.131656814069
 20
691.243135597037
 30
0.0
  0
VERTEX
  5
4BB
  8
_____1
  6
CONTINUOUS
 62
     0
 10
-1181.131656814069
 20
691.243135597037
 30
0.0
  0
VERTEX
  5
4BC
  8
_____1
  6
CONTINUOUS
 62
     0
 10
-1197.124224895205
 20
618.388103227418
 30
0.0
  0
VERTEX
  5
4BD
  8
_____1
  6
CONTINUOUS
 62
     0
 10
-1197.124224895205
 20
618.388103227418
 30
0.0
  0
VERTEX
  5
4BE
  8
_____1
  6
CONTINUOUS
 62
     0
 10
-1222.001553021432
 20
534.8713588037069
 30
0.0
  0
VERTEX
  5
4BF
  8
_____1
  6
CONTINUOUS
 62
     0
 10
-1222.001553021432
 20
534.8713588037069
 30
0.0
  0
VERTEX
  5
4C0
  8
_____1
  6
CONTINUOUS
 62
     0
 10
-1236.217169093547
 20
463.7932784431021
 30
0.0
  0
VERTEX
  5
4C1
  8
_____1
  6
CONTINUOUS
 62
     0
 10
-1236.217169093547
 20
463.7932784431021
 30
0.0
  0
VERTEX
  5
4C2
  8
_____1
  6
CONTINUOUS
 62
     0
 10
-1234.440217084525
 20
437.1389983078757
 30
0.0
  0
VERTEX
  5
4C3
  8
_____1
  6
CONTINUOUS
 62
     0
 10
-1234.440217084525
 20
437.1389983078757
 30
0.0
  0
VERTEX
  5
4C4
  8
_____1
  6
CONTINUOUS
 62
     0
 10
-1218.447649003387
 20
417.5925262087089
 30
0.0
  0
VERTEX
  5
4C5
  8
_____1
  6
CONTINUOUS
 62
     0
 10
-1218.447649003387
 20
417.5925262087089
 30
0.0
  0
VERTEX
  5
4C6
  8
_____1
  6
CONTINUOUS
 62
     0
 10
-1193.57032087718
 20
406.9308141546182
 30
0.0
  0
VERTEX
  5
4C7
  8
_____1
  6
CONTINUOUS
 62
     0
 10
-1193.57032087718
 20
406.9308141546182
 30
0.0
  0
VERTEX
  5
4C8
  8
_____1
  6
CONTINUOUS
 62
     0
 10
-1156.254328687861
 20
403.3769101365885
 30
0.0
  0
VERTEX
  5
4C9
  8
_____1
  6
CONTINUOUS
 62
     0
 10
-1156.254328687861
 20
403.3769101365885
 30
0.0
  0
VERTEX
  5
4CA
  8
_____1
  6
CONTINUOUS
 62
     0
 10
-1170.469944759977
 20
366.0609179472706
 30
0.0
  0
VERTEX
  5
4CB
  8
_____1
  6
CONTINUOUS
 62
     0
 10
-1170.469944759977
 20
366.0609179472706
 30
0.0
  0
VERTEX
  5
4CC
  8
_____1
  6
CONTINUOUS
 62
     0
 10
-1181.131656814069
 20
326.9679737489382
 30
0.0
  0
VERTEX
  5
4CD
  8
_____1
  6
CONTINUOUS
 62
     0
 10
-1181.131656814069
 20
326.9679737489382
 30
0.0
  0
VERTEX
  5
4CE
  8
_____1
  6
CONTINUOUS
 62
     0
 10
-1191.793368868161
 20
248.7820853522726
 30
0.0
  0
VERTEX
  5
4CF
  8
_____1
  6
CONTINUOUS
 62
     0
 10
-1191.793368868161
 20
248.7820853522726
 30
0.0
  0
VERTEX
  5
4D0
  8
_____1
  6
CONTINUOUS
 62
     0
 10
-1195.347272886202
 20
129.7263007482591
 30
0.0
  0
VERTEX
  5
4D1
  8
_____1
  6
CONTINUOUS
 62
     0
 10
-1195.347272886202
 20
129.7263007482591
 30
0.0
  0
VERTEX
  5
4D2
  8
_____1
  6
CONTINUOUS
 62
     0
 10
-1193.57032087718
 20
-28.42242805408569
 30
0.0
  0
VERTEX
  5
4D3
  8
_____1
  6
CONTINUOUS
 62
     0
 10
-1193.57032087718
 20
-28.42242805408569
 30
0.0
  0
VERTEX
  5
4D4
  8
_____1
  6
CONTINUOUS
 62
     0
 10
-1191.793368868161
 20
-40.86109211719167
 30
0.0
  0
VERTEX
  5
4D5
  8
_____1
  6
CONTINUOUS
 62
     0
 10
-1191.793368868161
 20
-40.86109211719167
 30
0.0
  0
VERTEX
  5
4D6
  8
_____1
  6
CONTINUOUS
 62
     0
 10
-1184.68556083211
 20
-47.96890015325243
 30
0.0
  0
VERTEX
  5
4D7
  8
_____1
  6
CONTINUOUS
 62
     0
 10
-1184.68556083211
 20
-47.96890015325243
 30
0.0
  0
VERTEX
  5
4D8
  8
_____1
  6
CONTINUOUS
 62
     0
 10
-1133.153952570656
 20
-56.85366019832736
 30
0.0
  0
VERTEX
  5
4D9
  8
_____1
  6
CONTINUOUS
 62
     0
 10
-1133.153952570656
 20
-56.85366019832736
 30
0.0
  0
VERTEX
  5
4DA
  8
_____1
  6
CONTINUOUS
 62
     0
 10
-1113.607480471494
 20
-156.3629727031741
 30
0.0
  0
VERTEX
  5
4DB
  8
_____1
  6
CONTINUOUS
 62
     0
 10
-1113.607480471494
 20
-156.3629727031741
 30
0.0
  0
VERTEX
  5
4DC
  8
_____1
  6
CONTINUOUS
 62
     0
 10
-1115.384432480506
 20
-202.5637249375682
 30
0.0
  0
VERTEX
  5
4DD
  8
_____1
  6
CONTINUOUS
 62
     0
 10
-1115.384432480506
 20
-202.5637249375682
 30
0.0
  0
VERTEX
  5
4DE
  8
_____1
  6
CONTINUOUS
 62
     0
 10
-1159.808232705886
 20
-479.7682383439264
 30
0.0
  0
VERTEX
  5
4DF
  8
_____1
  6
CONTINUOUS
 62
     0
 10
-1159.808232705886
 20
-479.7682383439264
 30
0.0
  0
VERTEX
  5
4E0
  8
_____1
  6
CONTINUOUS
 62
     0
 10
-1174.02384877801
 20
-513.5303265152136
 30
0.0
  0
VERTEX
  5
4E1
  8
_____1
  6
CONTINUOUS
 62
     0
 10
-1174.02384877801
 20
-513.5303265152136
 30
0.0
  0
VERTEX
  5
4E2
  8
_____1
  6
CONTINUOUS
 62
     0
 10
-1193.57032087718
 20
-573.9466948217269
 30
0.0
  0
VERTEX
  5
4E3
  8
_____1
  6
CONTINUOUS
 62
     0
 10
-1193.57032087718
 20
-573.9466948217269
 30
0.0
  0
VERTEX
  5
4E4
  8
_____1
  6
CONTINUOUS
 62
     0
 10
-1220.22460101241
 20
-632.5861111192271
 30
0.0
  0
VERTEX
  5
4E5
  8
_____1
  6
CONTINUOUS
 62
     0
 10
-1220.22460101241
 20
-632.5861111192271
 30
0.0
  0
VERTEX
  5
4E6
  8
_____1
  6
CONTINUOUS
 62
     0
 10
-1220.22460101241
 20
-648.578679200363
 30
0.0
  0
VERTEX
  5
4E7
  8
_____1
  6
CONTINUOUS
 62
     0
 10
-1220.22460101241
 20
-648.578679200363
 30
0.0
  0
VERTEX
  5
4E8
  8
_____1
  6
CONTINUOUS
 62
     0
 10
-1216.670696994385
 20
-655.6864872364224
 30
0.0
  0
VERTEX
  5
4E9
  8
_____1
  6
CONTINUOUS
 62
     0
 10
-1216.670696994385
 20
-655.6864872364224
 30
0.0
  0
VERTEX
  5
4EA
  8
_____1
  6
CONTINUOUS
 62
     0
 10
-1202.45508092225
 20
-664.5712472814987
 30
0.0
  0
VERTEX
  5
4EB
  8
_____1
  6
CONTINUOUS
 62
     0
 10
-1202.45508092225
 20
-664.5712472814987
 30
0.0
  0
VERTEX
  5
4EC
  8
_____1
  6
CONTINUOUS
 62
     0
 10
-1168.692992750965
 20
-664.5712472814987
 30
0.0
  0
VERTEX
  5
4ED
  8
_____1
  6
CONTINUOUS
 62
     0
 10
-1168.692992750965
 20
-664.5712472814987
 30
0.0
  0
VERTEX
  5
4EE
  8
_____1
  6
CONTINUOUS
 62
     0
 10
-1156.254328687861
 20
-659.2403912544532
 30
0.0
  0
VERTEX
  5
4EF
  8
_____1
  6
CONTINUOUS
 62
     0
 10
-1156.254328687861
 20
-659.2403912544532
 30
0.0
  0
VERTEX
  5
4F0
  8
_____1
  6
CONTINUOUS
 62
     0
 10
-1150.923472660814
 20
-653.9095352274082
 30
0.0
  0
VERTEX
  5
4F1
  8
_____1
  6
CONTINUOUS
 62
     0
 10
-1150.923472660814
 20
-653.9095352274082
 30
0.0
  0
VERTEX
  5
4F2
  8
_____1
  6
CONTINUOUS
 62
     0
 10
-1140.261760606724
 20
-625.4783030831652
 30
0.0
  0
VERTEX
  5
4F3
  8
_____1
  6
CONTINUOUS
 62
     0
 10
-1140.261760606724
 20
-625.4783030831652
 30
0.0
  0
VERTEX
  5
4F4
  8
_____1
  6
CONTINUOUS
 62
     0
 10
-1138.484808597702
 20
-645.024775182332
 30
0.0
  0
VERTEX
  5
4F5
  8
_____1
  6
CONTINUOUS
 62
     0
 10
-1138.484808597702
 20
-645.024775182332
 30
0.0
  0
VERTEX
  5
4F6
  8
_____1
  6
CONTINUOUS
 62
     0
 10
-1122.492240516564
 20
-645.024775182332
 30
0.0
  0
VERTEX
  5
4F7
  8
_____1
  6
CONTINUOUS
 62
     0
 10
-1122.492240516564
 20
-645.024775182332
 30
0.0
  0
VERTEX
  5
4F8
  8
_____1
  6
CONTINUOUS
 62
     0
 10
-1117.161384489519
 20
-641.470871164302
 30
0.0
  0
VERTEX
  5
4F9
  8
_____1
  6
CONTINUOUS
 62
     0
 10
-1117.161384489519
 20
-641.470871164302
 30
0.0
  0
VERTEX
  5
4FA
  8
_____1
  6
CONTINUOUS
 62
     0
 10
-1111.830528462472
 20
-577.5005988397579
 30
0.0
  0
VERTEX
  5
4FB
  8
_____1
  6
CONTINUOUS
 62
     0
 10
-1111.830528462472
 20
-577.5005988397579
 30
0.0
  0
VERTEX
  5
4FC
  8
_____1
  6
CONTINUOUS
 62
     0
 10
-1115.384432480506
 20
-559.7310787496067
 30
0.0
  0
VERTEX
  5
4FD
  8
_____1
  6
CONTINUOUS
 62
     0
 10
-1115.384432480506
 20
-559.7310787496067
 30
0.0
  0
VERTEX
  5
4FE
  8
_____1
  6
CONTINUOUS
 62
     0
 10
-1113.607480471494
 20
-511.753374506198
 30
0.0
  0
VERTEX
  5
4FF
  8
_____1
  6
CONTINUOUS
 62
     0
 10
-1113.607480471494
 20
-511.753374506198
 30
0.0
  0
VERTEX
  5
500
  8
_____1
  6
CONTINUOUS
 62
     0
 10
-1090.507104354291
 20
-454.8909102177146
 30
0.0
  0
VERTEX
  5
501
  8
_____1
  6
CONTINUOUS
 62
     0
 10
-1090.507104354291
 20
-454.8909102177146
 30
0.0
  0
VERTEX
  5
502
  8
_____1
  6
CONTINUOUS
 62
     0
 10
-1060.298920201038
 20
-392.6975899021857
 30
0.0
  0
VERTEX
  5
503
  8
_____1
  6
CONTINUOUS
 62
     0
 10
-1060.298920201038
 20
-392.6975899021857
 30
0.0
  0
VERTEX
  5
504
  8
_____1
  6
CONTINUOUS
 62
     0
 10
-1031.867688056786
 20
-488.6529983890016
 30
0.0
  0
VERTEX
  5
505
  8
_____1
  6
CONTINUOUS
 62
     0
 10
-1031.867688056786
 20
-488.6529983890016
 30
0.0
  0
VERTEX
  5
506
  8
_____1
  6
CONTINUOUS
 62
     0
 10
-1028.313784038763
 20
-525.9689905783196
 30
0.0
  0
VERTEX
  5
507
  8
_____1
  6
CONTINUOUS
 62
     0
 10
-1028.313784038763
 20
-525.9689905783196
 30
0.0
  0
VERTEX
  5
508
  8
_____1
  6
CONTINUOUS
 62
     0
 10
-1030.090736047775
 20
-541.9615586594552
 30
0.0
  0
VERTEX
  5
509
  8
_____1
  6
CONTINUOUS
 62
     0
 10
-1030.090736047775
 20
-541.9615586594552
 30
0.0
  0
VERTEX
  5
50A
  8
_____1
  6
CONTINUOUS
 62
     0
 10
-1046.083304128912
 20
-589.9392629028625
 30
0.0
  0
VERTEX
  5
50B
  8
_____1
  6
CONTINUOUS
 62
     0
 10
-1046.083304128912
 20
-589.9392629028625
 30
0.0
  0
VERTEX
  5
50C
  8
_____1
  6
CONTINUOUS
 62
     0
 10
-1072.737584264142
 20
-629.032207101196
 30
0.0
  0
VERTEX
  5
50D
  8
_____1
  6
CONTINUOUS
 62
     0
 10
-1072.737584264142
 20
-629.032207101196
 30
0.0
  0
VERTEX
  5
50E
  8
_____1
  6
CONTINUOUS
 62
     0
 10
-1079.845392300199
 20
-643.2478231733176
 30
0.0
  0
VERTEX
  5
50F
  8
_____1
  6
CONTINUOUS
 62
     0
 10
-1079.845392300199
 20
-643.2478231733176
 30
0.0
  0
VERTEX
  5
510
  8
_____1
  6
CONTINUOUS
 62
     0
 10
-1079.845392300199
 20
-652.1325832183927
 30
0.0
  0
VERTEX
  5
511
  8
_____1
  6
CONTINUOUS
 62
     0
 10
-1079.845392300199
 20
-652.1325832183927
 30
0.0
  0
VERTEX
  5
512
  8
_____1
  6
CONTINUOUS
 62
     0
 10
-1072.737584264142
 20
-661.0173432634679
 30
0.0
  0
VERTEX
  5
513
  8
_____1
  6
CONTINUOUS
 62
     0
 10
-1072.737584264142
 20
-661.0173432634679
 30
0.0
  0
VERTEX
  5
514
  8
_____1
  6
CONTINUOUS
 62
     0
 10
-1062.07587221005
 20
-664.5712472814987
 30
0.0
  0
VERTEX
  5
515
  8
_____1
  6
CONTINUOUS
 62
     0
 10
-1062.07587221005
 20
-664.5712472814987
 30
0.0
  0
VERTEX
  5
516
  8
_____1
  6
CONTINUOUS
 62
     0
 10
-1030.090736047775
 20
-661.0173432634679
 30
0.0
  0
VERTEX
  5
517
  8
_____1
  6
CONTINUOUS
 62
     0
 10
-1030.090736047775
 20
-661.0173432634679
 30
0.0
  0
VERTEX
  5
518
  8
_____1
  6
CONTINUOUS
 62
     0
 10
-1010.544263948603
 20
-653.9095352274082
 30
0.0
  0
VERTEX
  5
519
  8
_____1
  6
CONTINUOUS
 62
     0
 10
-1010.544263948603
 20
-653.9095352274082
 30
0.0
  0
VERTEX
  5
51A
  8
_____1
  6
CONTINUOUS
 62
     0
 10
-999.8825518945127
 20
-645.024775182332
 30
0.0
  0
VERTEX
  5
51B
  8
_____1
  6
CONTINUOUS
 62
     0
 10
-999.8825518945127
 20
-645.024775182332
 30
0.0
  0
VERTEX
  5
51C
  8
_____1
  6
CONTINUOUS
 62
     0
 10
-992.7747438584561
 20
-630.8091591102104
 30
0.0
  0
VERTEX
  5
51D
  8
_____1
  6
CONTINUOUS
 62
     0
 10
-992.7747438584561
 20
-630.8091591102104
 30
0.0
  0
VERTEX
  5
51E
  8
_____1
  6
CONTINUOUS
 62
     0
 10
-983.8899838133752
 20
-589.9392629028625
 30
0.0
  0
VERTEX
  5
51F
  8
_____1
  6
CONTINUOUS
 62
     0
 10
-983.8899838133752
 20
-589.9392629028625
 30
0.0
  0
VERTEX
  5
520
  8
_____1
  6
CONTINUOUS
 62
     0
 10
-982.1130318043638
 20
-625.4783030831652
 30
0.0
  0
VERTEX
  5
521
  8
_____1
  6
CONTINUOUS
 62
     0
 10
-982.1130318043638
 20
-625.4783030831652
 30
0.0
  0
VERTEX
  5
522
  8
_____1
  6
CONTINUOUS
 62
     0
 10
-971.4513197502715
 20
-627.2552550921807
 30
0.0
  0
VERTEX
  5
523
  8
_____1
  6
CONTINUOUS
 62
     0
 10
-971.4513197502715
 20
-627.2552550921807
 30
0.0
  0
VERTEX
  5
524
  8
_____1
  6
CONTINUOUS
 62
     0
 10
-960.7896076961792
 20
-618.3704950471056
 30
0.0
  0
VERTEX
  5
525
  8
_____1
  6
CONTINUOUS
 62
     0
 10
-960.7896076961792
 20
-618.3704950471056
 30
0.0
  0
VERTEX
  5
526
  8
_____1
  6
CONTINUOUS
 62
     0
 10
-960.7896076961792
 20
-572.1697428127127
 30
0.0
  0
VERTEX
  5
527
  8
_____1
  6
CONTINUOUS
 62
     0
 10
-960.7896076961792
 20
-572.1697428127127
 30
0.0
  0
VERTEX
  5
528
  8
_____1
  6
CONTINUOUS
 62
     0
 10
-957.2357036781455
 20
-533.0767986143792
 30
0.0
  0
VERTEX
  5
529
  8
_____1
  6
CONTINUOUS
 62
     0
 10
-957.2357036781455
 20
-533.0767986143792
 30
0.0
  0
VERTEX
  5
52A
  8
_____1
  6
CONTINUOUS
 62
     0
 10
-967.8974157322377
 20
-504.6455664701384
 30
0.0
  0
VERTEX
  5
52B
  8
_____1
  6
CONTINUOUS
 62
     0
 10
-967.8974157322377
 20
-504.6455664701384
 30
0.0
  0
VERTEX
  5
52C
  8
_____1
  6
CONTINUOUS
 62
     0
 10
-978.55912778633
 20
-486.8760463799861
 30
0.0
  0
VERTEX
  5
52D
  8
_____1
  6
CONTINUOUS
 62
     0
 10
-978.55912778633
 20
-486.8760463799861
 30
0.0
  0
VERTEX
  5
52E
  8
_____1
  6
CONTINUOUS
 62
     0
 10
-982.1130318043638
 20
-467.3295742808205
 30
0.0
  0
VERTEX
  5
52F
  8
_____1
  6
CONTINUOUS
 62
     0
 10
-982.1130318043638
 20
-467.3295742808205
 30
0.0
  0
VERTEX
  5
530
  8
_____1
  6
CONTINUOUS
 62
     0
 10
-985.6669358223976
 20
-300.2960854333996
 30
0.0
  0
VERTEX
  5
531
  8
_____1
  6
CONTINUOUS
 62
     0
 10
-985.6669358223976
 20
-300.2960854333996
 30
0.0
  0
VERTEX
  5
532
  8
_____1
  6
CONTINUOUS
 62
     0
 10
-992.7747438584561
 20
-223.8871490457493
 30
0.0
  0
VERTEX
  5
533
  8
_____1
  6
CONTINUOUS
 62
     0
 10
-992.7747438584561
 20
-223.8871490457493
 30
0.0
  0
VERTEX
  5
534
  8
_____1
  6
CONTINUOUS
 62
     0
 10
-999.8825518945127
 20
-190.1250608744613
 30
0.0
  0
VERTEX
  5
535
  8
_____1
  6
CONTINUOUS
 62
     0
 10
-999.8825518945127
 20
-190.1250608744613
 30
0.0
  0
VERTEX
  5
536
  8
_____1
  6
CONTINUOUS
 62
     0
 10
-999.8825518945127
 20
-170.5785887752957
 30
0.0
  0
VERTEX
  5
537
  8
_____1
  6
CONTINUOUS
 62
     0
 10
-999.8825518945127
 20
-170.5785887752957
 30
0.0
  0
VERTEX
  5
538
  8
_____1
  6
CONTINUOUS
 62
     0
 10
-992.7747438584561
 20
-136.8165006040085
 30
0.0
  0
VERTEX
  5
539
  8
_____1
  6
CONTINUOUS
 62
     0
 10
-992.7747438584561
 20
-136.8165006040085
 30
0.0
  0
VERTEX
  5
53A
  8
_____1
  6
CONTINUOUS
 62
     0
 10
-973.2282717592848
 20
-72.84622827946441
 30
0.0
  0
VERTEX
  5
53B
  8
_____1
  6
CONTINUOUS
 62
     0
 10
-973.2282717592848
 20
-72.84622827946441
 30
0.0
  0
VERTEX
  5
53C
  8
_____1
  6
CONTINUOUS
 62
     0
 10
-969.6743677412601
 20
-69.29232426143335
 30
0.0
  0
VERTEX
  5
53D
  8
_____1
  6
CONTINUOUS
 62
     0
 10
-969.6743677412601
 20
-69.29232426143335
 30
0.0
  0
VERTEX
  5
53E
  8
_____1
  6
CONTINUOUS
 62
     0
 10
-941.243135597008
 20
-67.51537225241782
 30
0.0
  0
VERTEX
  5
53F
  8
_____1
  6
CONTINUOUS
 62
     0
 10
-941.243135597008
 20
-67.51537225241782
 30
0.0
  0
VERTEX
  5
540
  8
_____1
  6
CONTINUOUS
 62
     0
 10
-937.6892315789851
 20
-63.96146823438812
 30
0.0
  0
VERTEX
  5
541
  8
_____1
  6
CONTINUOUS
 62
     0
 10
-937.6892315789851
 20
-63.96146823438812
 30
0.0
  0
VERTEX
  5
542
  8
_____1
  6
CONTINUOUS
 62
     0
 10
-911.0349514437553
 20
62.20212440568503
 30
0.0
  0
VERTEX
  5
543
  8
_____1
  6
CONTINUOUS
 62
     0
 10
-911.0349514437553
 20
62.20212440568503
 30
0.0
  0
VERTEX
  5
544
  8
_____1
  6
CONTINUOUS
 62
     0
 10
-889.7115273355744
 20
200.8043811088646
 30
0.0
  0
VERTEX
  5
545
  8
_____1
  6
CONTINUOUS
 62
     0
 10
-889.7115273355744
 20
200.8043811088646
 30
0.0
  0
VERTEX
  5
546
  8
_____1
  6
CONTINUOUS
 62
     0
 10
-889.7115273355744
 20
284.321125532575
 30
0.0
  0
VERTEX
  5
547
  8
_____1
  6
CONTINUOUS
 62
     0
 10
-889.7115273355744
 20
284.321125532575
 30
0.0
  0
VERTEX
  5
548
  8
_____1
  6
CONTINUOUS
 62
     0
 10
-895.0423833626196
 20
328.7449257579533
 30
0.0
  0
VERTEX
  5
549
  8
_____1
  6
CONTINUOUS
 62
     0
 10
-895.0423833626196
 20
328.7449257579533
 30
0.0
  0
VERTEX
  5
54A
  8
_____1
  6
CONTINUOUS
 62
     0
 10
-919.9197114888252
 20
438.9159503168905
 30
0.0
  0
VERTEX
  5
54B
  8
_____1
  6
CONTINUOUS
 62
     0
 10
-919.9197114888252
 20
438.9159503168905
 30
0.0
  0
VERTEX
  5
54C
  8
_____1
  6
CONTINUOUS
 62
     0
 10
-912.8119034527667
 20
446.0237583529513
 30
0.0
  0
VERTEX
  5
54D
  8
_____1
  6
CONTINUOUS
 62
     0
 10
-912.8119034527667
 20
446.0237583529513
 30
0.0
  0
VERTEX
  5
54E
  8
_____1
  6
CONTINUOUS
 62
     0
 10
-895.0423833626196
 20
476.231942506208
 30
0.0
  0
VERTEX
  5
54F
  8
_____1
  6
CONTINUOUS
 62
     0
 10
-895.0423833626196
 20
476.231942506208
 30
0.0
  0
VERTEX
  5
550
  8
_____1
  6
CONTINUOUS
 62
     0
 10
-877.2728632724597
 20
518.8787907225712
 30
0.0
  0
VERTEX
  5
551
  8
_____1
  6
CONTINUOUS
 62
     0
 10
-877.2728632724597
 20
518.8787907225712
 30
0.0
  0
VERTEX
  5
552
  8
_____1
  6
CONTINUOUS
 62
     0
 10
-861.2802951913222
 20
568.6334469749941
 30
0.0
  0
VERTEX
  5
553
  8
_____1
  6
CONTINUOUS
 62
     0
 10
-861.2802951913222
 20
568.6334469749941
 30
0.0
  0
VERTEX
  5
554
  8
_____1
  6
CONTINUOUS
 62
     0
 10
-848.8416311282094
 20
632.6037192995386
 30
0.0
  0
VERTEX
  5
555
  8
_____1
  6
CONTINUOUS
 62
     0
 10
-848.8416311282094
 20
632.6037192995386
 30
0.0
  0
VERTEX
  5
556
  8
_____1
  6
CONTINUOUS
 62
     0
 10
-848.8416311282094
 20
698.3509436330983
 30
0.0
  0
VERTEX
  5
557
  8
_____1
  6
CONTINUOUS
 62
     0
 10
-848.8416311282094
 20
698.3509436330983
 30
0.0
  0
VERTEX
  5
558
  8
_____1
  6
CONTINUOUS
 62
     0
 10
-852.3955351462432
 20
710.7896076962043
 30
0.0
  0
VERTEX
  5
559
  8
_____1
  6
CONTINUOUS
 62
     0
 10
-852.3955351462432
 20
710.7896076962043
 30
0.0
  0
VERTEX
  5
55A
  8
_____1
  6
CONTINUOUS
 62
     0
 10
-863.0572472003355
 20
721.4513197502943
 30
0.0
  0
VERTEX
  5
55B
  8
_____1
  6
CONTINUOUS
 62
     0
 10
-863.0572472003355
 20
721.4513197502943
 30
0.0
  0
VERTEX
  5
55C
  8
_____1
  6
CONTINUOUS
 62
     0
 10
-875.4959112634483
 20
726.78217577734
 30
0.0
  0
VERTEX
  5
55D
  8
_____1
  6
CONTINUOUS
 62
     0
 10
-875.4959112634483
 20
726.78217577734
 30
0.0
  0
VERTEX
  5
55E
  8
_____1
  6
CONTINUOUS
 62
     0
 10
-900.373239389663
 20
730.3360797953696
 30
0.0
  0
VERTEX
  5
55F
  8
_____1
  6
CONTINUOUS
 62
     0
 10
-900.373239389663
 20
730.3360797953696
 30
0.0
  0
VERTEX
  5
560
  8
_____1
  6
CONTINUOUS
 62
     0
 10
-907.4810474257215
 20
740.9977918494606
 30
0.0
  0
VERTEX
  5
561
  8
_____1
  6
CONTINUOUS
 62
     0
 10
-907.4810474257215
 20
740.9977918494606
 30
0.0
  0
VERTEX
  5
562
  8
_____1
  6
CONTINUOUS
 62
     0
 10
-912.8119034527667
 20
760.5442639486278
 30
0.0
  0
VERTEX
  5
563
  8
_____1
  6
CONTINUOUS
 62
     0
 10
-912.8119034527667
 20
760.5442639486278
 30
0.0
  0
VERTEX
  5
564
  8
_____1
  6
CONTINUOUS
 62
     0
 10
-916.3658074708005
 20
794.3063521199142
 30
0.0
  0
VERTEX
  5
565
  8
_____1
  6
CONTINUOUS
 62
     0
 10
-916.3658074708005
 20
794.3063521199142
 30
0.0
  0
VERTEX
  5
566
  8
_____1
  6
CONTINUOUS
 62
     0
 10
-914.58885546178
 20
865.3844324805195
 30
0.0
  0
VERTEX
  5
567
  8
_____1
  6
CONTINUOUS
 62
     0
 10
-914.58885546178
 20
865.3844324805195
 30
0.0
  0
VERTEX
  5
568
  8
_____1
  6
CONTINUOUS
 62
     0
 10
-923.473615506859
 20
913.3621367239275
 30
0.0
  0
VERTEX
  5
569
  8
_____1
  6
CONTINUOUS
 62
     0
 10
-923.473615506859
 20
913.3621367239275
 30
0.0
  0
VERTEX
  5
56A
  8
_____1
  6
CONTINUOUS
 62
     0
 10
-934.1353275609513
 20
941.7933688681692
 30
0.0
  0
VERTEX
  5
56B
  8
_____1
  6
CONTINUOUS
 62
     0
 10
-934.1353275609513
 20
941.7933688681692
 30
0.0
  0
VERTEX
  5
56C
  8
_____1
  6
CONTINUOUS
 62
     0
 10
-944.7970396150417
 20
961.339840967335
 30
0.0
  0
VERTEX
  5
56D
  8
_____1
  6
CONTINUOUS
 62
     0
 10
-944.7970396150417
 20
961.339840967335
 30
0.0
  0
VERTEX
  5
56E
  8
_____1
  6
CONTINUOUS
 62
     0
 10
-964.343511714213
 20
979.1093610574871
 30
0.0
  0
VERTEX
  5
56F
  8
_____1
  6
CONTINUOUS
 62
     0
 10
-964.343511714213
 20
979.1093610574871
 30
0.0
  0
VERTEX
  5
570
  8
_____1
  6
CONTINUOUS
 62
     0
 10
-980.3360797953505
 20
984.4402170845319
 30
0.0
  0
SEQEND
  5
571
  8
_____1
  6
CONTINUOUS
 62
     0
  0
POLYLINE
  5
572
  8
_____1
 62
     0
 66
     1
 10
0.0
 20
0.0
 30
0.0
 70
   128
  0
VERTEX
  5
573
  8
_____1
 62
     0
 10
-143.3639598776613
 20
-115.849831106523
 30
0.0
  0
VERTEX
  5
574
  8
_____1
 62
     0
 10
-143.3692901437139
 20
-115.844474583002
 30
0.0
  0
VERTEX
  5
575
  8
_____1
 62
     0
 10
-143.3746204097647
 20
-115.849831106523
 30
0.0
  0
VERTEX
  5
576
  8
_____1
 62
     0
 10
-143.3692901437139
 20
-115.855187630043
 30
0.0
  0
VERTEX
  5
577
  8
_____1
 62
     0
 10
-143.3639598776613
 20
-115.849831106523
 30
0.0
  0
SEQEND
  5
578
  8
_____1
 62
     0
  0
VIEWPORT
  5
5E
 67
     1
  8
0
 10
128.5
 20
97.5
 30
0.0
 40
314.226
 41
222.18
 68
     1
 69
     1
1001
ACAD
1000
MVIEW
1002
{
1070
    16
1010
0.0
1020
0.0
1030
0.0
1010
0.0
1020
0.0
1030
1.0
1040
0.0
1040
222.18
1040
128.5
1040
97.5
1040
50.0
1040
0.0
1040
0.0
1070
     0
1070
   100
1070
     0
1070
     3
1070
     0
1070
     0
1070
     0
1070
     0
1040
0.0
1040
0.0
1040
0.0
1040
10.0
1040
10.0
1040
10.0
1040
10.0
1070
     0
1002
{
1002
}
1002
}
  0
ENDSEC
  0
EOF
