  0
SECTION
  2
HEADER
  9
$ACADVER
  1
AC1009
  9
$DWGCODEPAGE
  3
dos932
  9
$INSBASE
 10
0.0
 20
0.0
 30
0.0
  9
$EXTMIN
 10
-1974.727606602753
 20
-442.7663313170865
 30
0.0
  9
$EXTMAX
 10
1949.622564923541
 20
1241.819736486155
 30
0.0
  9
$LIMMIN
 10
0.0
 20
0.0
  9
$LIMMAX
 10
12.0
 20
9.0
  9
$ORTHOMODE
 70
     0
  9
$REGENMODE
 70
     1
  9
$FILLMODE
 70
     1
  9
$QTEXTMODE
 70
     0
  9
$MIRRTEXT
 70
     1
  9
$DRAGMODE
 70
     2
  9
$LTSCALE
 40
20.0
  9
$OSMODE
 70
    37
  9
$ATTMODE
 70
     1
  9
$TEXTSIZE
 40
0.2
  9
$TRACEWID
 40
1.0
  9
$TEXTSTYLE
  7
STANDARD
  9
$CLAYER
  8
__
  9
$CELTYPE
  6
BYLAYER
  9
$CECOLOR
 62
   256
  9
$DIMSCALE
 40
1.0
  9
$DIMASZ
 40
0.18
  9
$DIMEXO
 40
0.0625
  9
$DIMDLI
 40
0.38
  9
$DIMRND
 40
0.0
  9
$DIMDLE
 40
0.0
  9
$DIMEXE
 40
0.18
  9
$DIMTP
 40
0.0
  9
$DIMTM
 40
0.0
  9
$DIMTXT
 40
0.18
  9
$DIMCEN
 40
0.09
  9
$DIMTSZ
 40
0.0
  9
$DIMTOL
 70
     0
  9
$DIMLIM
 70
     0
  9
$DIMTIH
 70
     1
  9
$DIMTOH
 70
     1
  9
$DIMSE1
 70
     0
  9
$DIMSE2
 70
     0
  9
$DIMTAD
 70
     0
  9
$DIMZIN
 70
     0
  9
$DIMBLK
  1

  9
$DIMASO
 70
     1
  9
$DIMSHO
 70
     1
  9
$DIMPOST
  1

  9
$DIMAPOST
  1

  9
$DIMALT
 70
     0
  9
$DIMALTD
 70
     2
  9
$DIMALTF
 40
25.4
  9
$DIMLFAC
 40
1.0
  9
$DIMTOFL
 70
     0
  9
$DIMTVP
 40
0.0
  9
$DIMTIX
 70
     0
  9
$DIMSOXD
 70
     0
  9
$DIMSAH
 70
     0
  9
$DIMBLK1
  1

  9
$DIMBLK2
  1

  9
$DIMSTYLE
  2
STANDARD
  9
$DIMCLRD
 70
     0
  9
$DIMCLRE
 70
     0
  9
$DIMCLRT
 70
     0
  9
$DIMTFAC
 40
1.0
  9
$DIMGAP
 40
0.09
  9
$LUNITS
 70
     2
  9
$LUPREC
 70
     2
  9
$SKETCHINC
 40
0.1
  9
$FILLETRAD
 40
0.0
  9
$AUNITS
 70
     0
  9
$AUPREC
 70
     2
  9
$MENU
  1
.
  9
$ELEVATION
 40
0.0
  9
$PELEVATION
 40
0.0
  9
$THICKNESS
 40
0.0
  9
$LIMCHECK
 70
     0
  9
$CHAMFERA
 40
0.0
  9
$CHAMFERB
 40
0.0
  9
$SKPOLY
 70
     0
  9
$TDCREATE
 40
2460803.471711898
  9
$TDUPDATE
 40
2460803.471713183
  9
$TDINDWG
 40
0.0000000116
  9
$TDUSRTIMER
 40
0.0000000116
  9
$USRTIMER
 70
     1
  9
$ANGBASE
 50
0.0
  9
$ANGDIR
 70
     0
  9
$PDMODE
 70
     1
  9
$PDSIZE
 40
-2.0
  9
$PLINEWID
 40
0.0
  9
$COORDS
 70
     1
  9
$SPLFRAME
 70
     0
  9
$SPLINETYPE
 70
     6
  9
$SPLINESEGS
 70
     8
  9
$ATTDIA
 70
     0
  9
$ATTREQ
 70
     1
  9
$HANDLING
 70
     1
  9
$HANDSEED
  5
5AB
  9
$SURFTAB1
 70
     6
  9
$SURFTAB2
 70
     6
  9
$SURFTYPE
 70
     6
  9
$SURFU
 70
     6
  9
$SURFV
 70
     6
  9
$UCSNAME
  2

  9
$UCSORG
 10
0.0
 20
0.0
 30
0.0
  9
$UCSXDIR
 10
1.0
 20
0.0
 30
0.0
  9
$UCSYDIR
 10
0.0
 20
1.0
 30
0.0
  9
$PUCSNAME
  2

  9
$PUCSORG
 10
0.0
 20
0.0
 30
0.0
  9
$PUCSXDIR
 10
1.0
 20
0.0
 30
0.0
  9
$PUCSYDIR
 10
0.0
 20
1.0
 30
0.0
  9
$USERI1
 70
     0
  9
$USERI2
 70
     0
  9
$USERI3
 70
     0
  9
$USERI4
 70
     0
  9
$USERI5
 70
     0
  9
$USERR1
 40
0.0
  9
$USERR2
 40
0.0
  9
$USERR3
 40
0.0
  9
$USERR4
 40
0.0
  9
$USERR5
 40
0.0
  9
$WORLDVIEW
 70
     1
  9
$SHADEDGE
 70
     3
  9
$SHADEDIF
 70
    70
  9
$TILEMODE
 70
     1
  9
$MAXACTVP
 70
    64
  9
$PLIMCHECK
 70
     0
  9
$PEXTMIN
 10
1.000000000000000E+20
 20
1.000000000000000E+20
 30
1.000000000000000E+20
  9
$PEXTMAX
 10
-1.000000000000000E+20
 20
-1.000000000000000E+20
 30
-1.000000000000000E+20
  9
$PLIMMIN
 10
-20.0
 20
-7.5
  9
$PLIMMAX
 10
277.0
 20
202.5
  9
$UNITMODE
 70
     0
  9
$VISRETAIN
 70
     1
  9
$PLINEGEN
 70
     0
  9
$PSLTSCALE
 70
     1
  0
ENDSEC
  0
SECTION
  2
TABLES
  0
TABLE
  2
VPORT
 70
     1
  0
VPORT
  2
*ACTIVE
 70
     0
 10
0.0
 20
0.0
 11
1.0
 21
1.0
 12
-12.5525208396059
 22
399.5267025845342
 13
0.0
 23
0.0
 14
0.5
 24
0.5
 15
0.5
 25
0.5
 16
0.0
 26
0.0
 36
1.0
 17
0.0
 27
0.0
 37
0.0
 40
1684.586067803241
 41
2.32956347350289
 42
2000.0
 43
0.0
 44
0.0
 50
0.0
 51
0.0
 71
     0
 72
   100
 73
     1
 74
     3
 75
     0
 76
     0
 77
     0
 78
     0
  0
ENDTAB
  0
TABLE
  2
LTYPE
 70
     1
  0
LTYPE
  2
CONTINUOUS
 70
     0
  3
Solid line
 72
    65
 73
     0
 40
0.0
  0
ENDTAB
  0
TABLE
  2
LAYER
 70
     4
  0
LAYER
  2
0
 70
     0
 62
     7
  6
CONTINUOUS
  0
LAYER
  2
__
 70
     0
 62
     7
  6
CONTINUOUS
  0
LAYER
  2
_____1
 70
     0
 62
     7
  6
CONTINUOUS
  0
ENDTAB
  0
TABLE
  2
STYLE
 70
     1
  0
STYLE
  2
STANDARD
 70
     0
 40
0.0
 41
1.0
 50
0.0
 71
     0
 42
0.2
  3
txt
  4
BIGFONT.SHX
  0
ENDTAB
  0
TABLE
  2
VIEW
 70
     0
  0
ENDTAB
  0
TABLE
  2
UCS
 70
     0
  0
ENDTAB
  0
TABLE
  2
APPID
 70
     3
  0
APPID
  2
ACAD
 70
     0
  0
APPID
  2
ACCMTRANSPARENCY
 70
     0
  0
APPID
  2
ACAECLAYERSTANDARD
 70
     0
  0
ENDTAB
  0
TABLE
  2
DIMSTYLE
 70
     1
  0
DIMSTYLE
  2
STANDARD
 70
     0
  3

  4

  5

  6

  7

 40
1.0
 41
0.18
 42
0.0625
 43
0.38
 44
0.18
 45
0.0
 46
0.0
 47
0.0
 48
0.0
140
0.18
141
0.09
142
0.0
143
25.4
144
1.0
145
0.0
146
1.0
147
0.09
 71
     0
 72
     0
 73
     1
 74
     1
 75
     0
 76
     0
 77
     0
 78
     0
170
     0
171
     2
172
     0
173
     0
174
     0
175
     0
176
     0
177
     0
178
     0
  0
ENDTAB
  0
ENDSEC
  0
SECTION
  2
BLOCKS
  0
BLOCK
  8
0
  2
$MODEL_SPACE
 70
     0
 10
0.0
 20
0.0
 30
0.0
  3
$MODEL_SPACE
  1

  0
ENDBLK
  5
21
  8
0
  0
BLOCK
 67
     1
  8
0
  2
$PAPER_SPACE
 70
     0
 10
0.0
 20
0.0
 30
0.0
  3
$PAPER_SPACE
  1

  0
ENDBLK
  5
1D
 67
     1
  8
0
  0
ENDSEC
  0
SECTION
  2
ENTITIES
  0
POLYLINE
  5
67
  8
_____1
  6
CONTINUOUS
 62
     0
 66
     1
 10
0.0
 20
0.0
 30
0.0
 70
   129
  0
VERTEX
  5
68
  8
_____1
  6
CONTINUOUS
 62
     0
 10
1534.747416495483
 20
1237.960432779851
 30
0.0
  0
VERTEX
  5
69
  8
_____1
  6
CONTINUOUS
 62
     0
 10
1511.591594257629
 20
1230.241825367232
 30
0.0
  0
VERTEX
  5
6A
  8
_____1
  6
CONTINUOUS
 62
     0
 10
1494.224727579249
 20
1220.593566101465
 30
0.0
  0
VERTEX
  5
6B
  8
_____1
  6
CONTINUOUS
 62
     0
 10
1472.998557194564
 20
1201.297047569931
 30
0.0
  0
VERTEX
  5
6C
  8
_____1
  6
CONTINUOUS
 62
     0
 10
1457.561342369335
 20
1170.422617919466
 30
0.0
  0
VERTEX
  5
6D
  8
_____1
  6
CONTINUOUS
 62
     0
 10
1453.702038663031
 20
1153.055751241085
 30
0.0
  0
VERTEX
  5
6E
  8
_____1
  6
CONTINUOUS
 62
     0
 10
1453.702038663031
 20
1129.899929003239
 30
0.0
  0
VERTEX
  5
6F
  8
_____1
  6
CONTINUOUS
 62
     0
 10
1420.8979571594
 20
1099.02549935278
 30
0.0
  0
VERTEX
  5
70
  8
_____1
  6
CONTINUOUS
 62
     0
 10
1413.179349746794
 20
1083.58828452755
 30
0.0
  0
VERTEX
  5
71
  8
_____1
  6
CONTINUOUS
 62
     0
 10
1413.179349746794
 20
1054.643506730241
 30
0.0
  0
VERTEX
  5
72
  8
_____1
  6
CONTINUOUS
 62
     0
 10
1418.968305306251
 20
1043.065595611318
 30
0.0
  0
VERTEX
  5
73
  8
_____1
  6
CONTINUOUS
 62
     0
 10
1430.546216425175
 20
1031.487684492396
 30
0.0
  0
VERTEX
  5
74
  8
_____1
  6
CONTINUOUS
 62
     0
 10
1445.983431250407
 20
1023.769077079781
 30
0.0
  0
VERTEX
  5
75
  8
_____1
  6
CONTINUOUS
 62
     0
 10
1467.20960163511
 20
1021.839425226625
 30
0.0
  0
VERTEX
  5
76
  8
_____1
  6
CONTINUOUS
 62
     0
 10
1490.365423872946
 20
1033.417336345553
 30
0.0
  0
VERTEX
  5
77
  8
_____1
  6
CONTINUOUS
 62
     0
 10
1492.295075726096
 20
1017.980121520323
 30
0.0
  0
VERTEX
  5
78
  8
_____1
  6
CONTINUOUS
 62
     0
 10
1486.506120166642
 20
990.9649955761656
 30
0.0
  0
VERTEX
  5
79
  8
_____1
  6
CONTINUOUS
 62
     0
 10
1474.928209047716
 20
985.1760400167063
 30
0.0
  0
VERTEX
  5
7A
  8
_____1
  6
CONTINUOUS
 62
     0
 10
1469.139253488262
 20
960.0905659257055
 30
0.0
  0
VERTEX
  5
7B
  8
_____1
  6
CONTINUOUS
 62
     0
 10
1455.631690516179
 20
942.723699247324
 30
0.0
  0
VERTEX
  5
7C
  8
_____1
  6
CONTINUOUS
 62
     0
 10
1440.194475690953
 20
911.8492695968621
 30
0.0
  0
VERTEX
  5
7D
  8
_____1
  6
CONTINUOUS
 62
     0
 10
1368.797357124257
 20
688.0096546310256
 30
0.0
  0
VERTEX
  5
7E
  8
_____1
  6
CONTINUOUS
 62
     0
 10
1353.360142299027
 20
622.4014916237979
 30
0.0
  0
VERTEX
  5
7F
  8
_____1
  6
CONTINUOUS
 62
     0
 10
1351.430490445876
 20
589.5974101201841
 30
0.0
  0
VERTEX
  5
80
  8
_____1
  6
CONTINUOUS
 62
     0
 10
1341.782231180102
 20
545.215417497644
 30
0.0
  0
VERTEX
  5
81
  8
_____1
  6
CONTINUOUS
 62
     0
 10
1328.27466820802
 20
454.5217803994178
 30
0.0
  0
VERTEX
  5
82
  8
_____1
  6
CONTINUOUS
 62
     0
 10
1322.485712648568
 20
435.2252618678781
 30
0.0
  0
VERTEX
  5
83
  8
_____1
  6
CONTINUOUS
 62
     0
 10
1326.34501635487
 20
427.5066544552651
 30
0.0
  0
VERTEX
  5
84
  8
_____1
  6
CONTINUOUS
 62
     0
 10
1337.922927473798
 20
423.6473507489577
 30
0.0
  0
VERTEX
  5
85
  8
_____1
  6
CONTINUOUS
 62
     0
 10
1339.85257932695
 20
419.7880470426503
 30
0.0
  0
VERTEX
  5
86
  8
_____1
  6
CONTINUOUS
 62
     0
 10
1326.34501635487
 20
398.5618766579591
 30
0.0
  0
VERTEX
  5
87
  8
_____1
  6
CONTINUOUS
 62
     0
 10
1310.907801529639
 20
363.8281433011916
 30
0.0
  0
VERTEX
  5
88
  8
_____1
  6
CONTINUOUS
 62
     0
 10
1301.259542263881
 20
323.305454384963
 30
0.0
  0
VERTEX
  5
89
  8
_____1
  6
CONTINUOUS
 62
     0
 10
1301.259542263881
 20
315.5868469723459
 30
0.0
  0
VERTEX
  5
8A
  8
_____1
  6
CONTINUOUS
 62
     0
 10
1308.97814967649
 20
309.7978914128871
 30
0.0
  0
VERTEX
  5
8B
  8
_____1
  6
CONTINUOUS
 62
     0
 10
1310.907801529639
 20
298.2199802939645
 30
0.0
  0
VERTEX
  5
8C
  8
_____1
  6
CONTINUOUS
 62
     0
 10
1335.993275620646
 20
273.1345062029659
 30
0.0
  0
VERTEX
  5
8D
  8
_____1
  6
CONTINUOUS
 62
     0
 10
1345.64153488642
 20
273.1345062029659
 30
0.0
  0
VERTEX
  5
8E
  8
_____1
  6
CONTINUOUS
 62
     0
 10
1345.64153488642
 20
280.8531136155784
 30
0.0
  0
VERTEX
  5
8F
  8
_____1
  6
CONTINUOUS
 62
     0
 10
1351.430490445876
 20
290.5013728813497
 30
0.0
  0
VERTEX
  5
90
  8
_____1
  6
CONTINUOUS
 62
     0
 10
1357.219446005331
 20
311.7275432660431
 30
0.0
  0
VERTEX
  5
91
  8
_____1
  6
CONTINUOUS
 62
     0
 10
1359.149097858479
 20
292.4310247345034
 30
0.0
  0
VERTEX
  5
92
  8
_____1
  6
CONTINUOUS
 62
     0
 10
1364.938053417953
 20
288.571721028196
 30
0.0
  0
VERTEX
  5
93
  8
_____1
  6
CONTINUOUS
 62
     0
 10
1372.656660830579
 20
290.5013728813497
 30
0.0
  0
VERTEX
  5
94
  8
_____1
  6
CONTINUOUS
 62
     0
 10
1376.515964536879
 20
307.8682395597334
 30
0.0
  0
VERTEX
  5
95
  8
_____1
  6
CONTINUOUS
 62
     0
 10
1390.023527508939
 20
336.8130173570371
 30
0.0
  0
VERTEX
  5
96
  8
_____1
  6
CONTINUOUS
 62
     0
 10
1393.882831215261
 20
365.7577951543435
 30
0.0
  0
VERTEX
  5
97
  8
_____1
  6
CONTINUOUS
 62
     0
 10
1390.023527508939
 20
412.0694396300355
 30
0.0
  0
VERTEX
  5
98
  8
_____1
  6
CONTINUOUS
 62
     0
 10
1401.601438627868
 20
413.9990914831892
 30
0.0
  0
VERTEX
  5
99
  8
_____1
  6
CONTINUOUS
 62
     0
 10
1405.46074233419
 20
460.3107359588812
 30
0.0
  0
VERTEX
  5
9A
  8
_____1
  6
CONTINUOUS
 62
     0
 10
1436.335171984651
 20
616.6125360643368
 30
0.0
  0
VERTEX
  5
9B
  8
_____1
  6
CONTINUOUS
 62
     0
 10
1444.053779397255
 20
643.6276620084868
 30
0.0
  0
VERTEX
  5
9C
  8
_____1
  6
CONTINUOUS
 62
     0
 10
1471.068905341412
 20
711.16547686887
 30
0.0
  0
VERTEX
  5
9D
  8
_____1
  6
CONTINUOUS
 62
     0
 10
1474.928209047716
 20
680.2910472184108
 30
0.0
  0
VERTEX
  5
9E
  8
_____1
  6
CONTINUOUS
 62
     0
 10
1472.998557194564
 20
616.6125360643368
 30
0.0
  0
VERTEX
  5
9F
  8
_____1
  6
CONTINUOUS
 62
     0
 10
1432.475868278329
 20
454.5217803994178
 30
0.0
  0
VERTEX
  5
A0
  8
_____1
  6
CONTINUOUS
 62
     0
 10
1434.405520131497
 20
444.8735211336493
 30
0.0
  0
VERTEX
  5
A1
  8
_____1
  6
CONTINUOUS
 62
     0
 10
1449.842734956711
 20
439.0845655741882
 30
0.0
  0
VERTEX
  5
A2
  8
_____1
  6
CONTINUOUS
 62
     0
 10
1451.772386809859
 20
417.8583951894966
 30
0.0
  0
VERTEX
  5
A3
  8
_____1
  6
CONTINUOUS
 62
     0
 10
1465.279949781938
 20
361.8984914480407
 30
0.0
  0
VERTEX
  5
A4
  8
_____1
  6
CONTINUOUS
 62
     0
 10
1415.109001599946
 20
138.0588764821991
 30
0.0
  0
VERTEX
  5
A5
  8
_____1
  6
CONTINUOUS
 62
     0
 10
1403.531090481038
 20
109.1140986848932
 30
0.0
  0
VERTEX
  5
A6
  8
_____1
  6
CONTINUOUS
 62
     0
 10
1372.656660830579
 20
57.01349864974009
 30
0.0
  0
VERTEX
  5
A7
  8
_____1
  6
CONTINUOUS
 62
     0
 10
1343.711883033272
 20
-2.805708798023716
 30
0.0
  0
VERTEX
  5
A8
  8
_____1
  6
CONTINUOUS
 62
     0
 10
1307.048497823335
 20
-103.1476051620207
 30
0.0
  0
VERTEX
  5
A9
  8
_____1
  6
CONTINUOUS
 62
     0
 10
1283.892675585501
 20
-176.4743755818658
 30
0.0
  0
VERTEX
  5
AA
  8
_____1
  6
CONTINUOUS
 62
     0
 10
1262.6665052008
 20
-228.5749756170144
 30
0.0
  0
VERTEX
  5
AB
  8
_____1
  6
CONTINUOUS
 62
     0
 10
1262.6665052008
 20
-234.3639311764755
 30
0.0
  0
VERTEX
  5
AC
  8
_____1
  6
CONTINUOUS
 62
     0
 10
1278.103720026031
 20
-245.9418422954
 30
0.0
  0
VERTEX
  5
AD
  8
_____1
  6
CONTINUOUS
 62
     0
 10
1249.15894222872
 20
-280.6755756521675
 30
0.0
  0
VERTEX
  5
AE
  8
_____1
  6
CONTINUOUS
 62
     0
 10
1243.369986669263
 20
-292.2534867710906
 30
0.0
  0
VERTEX
  5
AF
  8
_____1
  6
CONTINUOUS
 62
     0
 10
1231.792075550339
 20
-381.0174720161649
 30
0.0
  0
VERTEX
  5
B0
  8
_____1
  6
CONTINUOUS
 62
     0
 10
1243.369986669263
 20
-386.8064275756283
 30
0.0
  0
VERTEX
  5
B1
  8
_____1
  6
CONTINUOUS
 62
     0
 10
1262.6665052008
 20
-346.2837386593928
 30
0.0
  0
VERTEX
  5
B2
  8
_____1
  6
CONTINUOUS
 62
     0
 10
1270.385112613422
 20
-344.3540868062414
 30
0.0
  0
VERTEX
  5
B3
  8
_____1
  6
CONTINUOUS
 62
     0
 10
1295.470586704409
 20
-377.1581683098589
 30
0.0
  0
VERTEX
  5
B4
  8
_____1
  6
CONTINUOUS
 62
     0
 10
1307.048497823335
 20
-400.3139905477024
 30
0.0
  0
VERTEX
  5
B5
  8
_____1
  6
CONTINUOUS
 62
     0
 10
1326.34501635487
 20
-417.6808572260834
 30
0.0
  0
VERTEX
  5
B6
  8
_____1
  6
CONTINUOUS
 62
     0
 10
1364.938053417953
 20
-427.3291164918523
 30
0.0
  0
VERTEX
  5
B7
  8
_____1
  6
CONTINUOUS
 62
     0
 10
1401.601438627868
 20
-427.3291164918523
 30
0.0
  0
VERTEX
  5
B8
  8
_____1
  6
CONTINUOUS
 62
     0
 10
1415.109001599946
 20
-425.3994646386941
 30
0.0
  0
VERTEX
  5
B9
  8
_____1
  6
CONTINUOUS
 62
     0
 10
1422.82760901257
 20
-417.6808572260834
 30
0.0
  0
VERTEX
  5
BA
  8
_____1
  6
CONTINUOUS
 62
     0
 10
1418.968305306251
 20
-409.9622498134754
 30
0.0
  0
VERTEX
  5
BB
  8
_____1
  6
CONTINUOUS
 62
     0
 10
1382.304920096337
 20
-398.3843386945482
 30
0.0
  0
VERTEX
  5
BC
  8
_____1
  6
CONTINUOUS
 62
     0
 10
1370.727008977409
 20
-392.5953831350848
 30
0.0
  0
VERTEX
  5
BD
  8
_____1
  6
CONTINUOUS
 62
     0
 10
1361.078749711633
 20
-381.0174720161649
 30
0.0
  0
VERTEX
  5
BE
  8
_____1
  6
CONTINUOUS
 62
     0
 10
1355.289794152179
 20
-357.8616497783219
 30
0.0
  0
VERTEX
  5
BF
  8
_____1
  6
CONTINUOUS
 62
     0
 10
1351.430490445876
 20
-321.1982645683988
 30
0.0
  0
VERTEX
  5
C0
  8
_____1
  6
CONTINUOUS
 62
     0
 10
1353.360142299027
 20
-272.9569682395527
 30
0.0
  0
VERTEX
  5
C1
  8
_____1
  6
CONTINUOUS
 62
     0
 10
1359.149097858479
 20
-271.0273163864013
 30
0.0
  0
VERTEX
  5
C2
  8
_____1
  6
CONTINUOUS
 62
     0
 10
1366.867705271109
 20
-276.8162719458605
 30
0.0
  0
VERTEX
  5
C3
  8
_____1
  6
CONTINUOUS
 62
     0
 10
1370.727008977409
 20
-272.9569682395527
 30
0.0
  0
VERTEX
  5
C4
  8
_____1
  6
CONTINUOUS
 62
     0
 10
1399.671786774716
 20
-197.7005459665547
 30
0.0
  0
VERTEX
  5
C5
  8
_____1
  6
CONTINUOUS
 62
     0
 10
1413.179349746794
 20
-151.3889014908641
 30
0.0
  0
VERTEX
  5
C6
  8
_____1
  6
CONTINUOUS
 62
     0
 10
1447.913083103557
 20
-64.55456809894395
 30
0.0
  0
VERTEX
  5
C7
  8
_____1
  6
CONTINUOUS
 62
     0
 10
1484.57646831349
 20
8.772202320896213
 30
0.0
  0
VERTEX
  5
C8
  8
_____1
  6
CONTINUOUS
 62
     0
 10
1528.958460936031
 20
87.8879283002002
 30
0.0
  0
VERTEX
  5
C9
  8
_____1
  6
CONTINUOUS
 62
     0
 10
1579.129409118023
 20
221.0339061678101
 30
0.0
  0
VERTEX
  5
CA
  8
_____1
  6
CONTINUOUS
 62
     0
 10
1594.566623943253
 20
178.5815653984305
 30
0.0
  0
VERTEX
  5
CB
  8
_____1
  6
CONTINUOUS
 62
     0
 10
1629.300357300012
 20
107.1844468317395
 30
0.0
  0
VERTEX
  5
CC
  8
_____1
  6
CONTINUOUS
 62
     0
 10
1642.807920272093
 20
68.59140976866229
 30
0.0
  0
VERTEX
  5
CD
  8
_____1
  6
CONTINUOUS
 62
     0
 10
1648.596875831567
 20
4.912898614591086
 30
0.0
  0
VERTEX
  5
CE
  8
_____1
  6
CONTINUOUS
 62
     0
 10
1660.174786950477
 20
-58.76561253948466
 30
0.0
  0
VERTEX
  5
CF
  8
_____1
  6
CONTINUOUS
 62
     0
 10
1700.697475866708
 20
-209.2784570854769
 30
0.0
  0
VERTEX
  5
D0
  8
_____1
  6
CONTINUOUS
 62
     0
 10
1723.853298104545
 20
-280.6755756521675
 30
0.0
  0
VERTEX
  5
D1
  8
_____1
  6
CONTINUOUS
 62
     0
 10
1727.712601810867
 20
-303.8313978900128
 30
0.0
  0
VERTEX
  5
D2
  8
_____1
  6
CONTINUOUS
 62
     0
 10
1731.571905517167
 20
-309.6203534494757
 30
0.0
  0
VERTEX
  5
D3
  8
_____1
  6
CONTINUOUS
 62
     0
 10
1748.938772195549
 20
-309.6203534494757
 30
0.0
  0
VERTEX
  5
D4
  8
_____1
  6
CONTINUOUS
 62
     0
 10
1737.360861076625
 20
-336.6354793936289
 30
0.0
  0
VERTEX
  5
D5
  8
_____1
  6
CONTINUOUS
 62
     0
 10
1733.501557370323
 20
-363.6506053377784
 30
0.0
  0
VERTEX
  5
D6
  8
_____1
  6
CONTINUOUS
 62
     0
 10
1758.587031461308
 20
-440.8366794639264
 30
0.0
  0
VERTEX
  5
D7
  8
_____1
  6
CONTINUOUS
 62
     0
 10
1770.164942580256
 20
-442.7663313170865
 30
0.0
  0
VERTEX
  5
D8
  8
_____1
  6
CONTINUOUS
 62
     0
 10
1777.883549992862
 20
-438.9070276107818
 30
0.0
  0
VERTEX
  5
D9
  8
_____1
  6
CONTINUOUS
 62
     0
 10
1775.953898139708
 20
-406.102946107168
 30
0.0
  0
VERTEX
  5
DA
  8
_____1
  6
CONTINUOUS
 62
     0
 10
1781.742853699163
 20
-390.6657312819329
 30
0.0
  0
VERTEX
  5
DB
  8
_____1
  6
CONTINUOUS
 62
     0
 10
1802.969024083865
 20
-402.2436424008556
 30
0.0
  0
VERTEX
  5
DC
  8
_____1
  6
CONTINUOUS
 62
     0
 10
1828.054498174856
 20
-423.4698127855495
 30
0.0
  0
VERTEX
  5
DD
  8
_____1
  6
CONTINUOUS
 62
     0
 10
1847.351016706386
 20
-433.1180720513175
 30
0.0
  0
VERTEX
  5
DE
  8
_____1
  6
CONTINUOUS
 62
     0
 10
1907.170224154156
 20
-435.0477239044626
 30
0.0
  0
VERTEX
  5
DF
  8
_____1
  6
CONTINUOUS
 62
     0
 10
1939.974305657763
 20
-431.1884201981597
 30
0.0
  0
VERTEX
  5
E0
  8
_____1
  6
CONTINUOUS
 62
     0
 10
1949.622564923541
 20
-425.3994646386941
 30
0.0
  0
VERTEX
  5
E1
  8
_____1
  6
CONTINUOUS
 62
     0
 10
1947.692913070389
 20
-415.7512053729388
 30
0.0
  0
VERTEX
  5
E2
  8
_____1
  6
CONTINUOUS
 62
     0
 10
1909.099876007304
 20
-394.5250349882367
 30
0.0
  0
VERTEX
  5
E3
  8
_____1
  6
CONTINUOUS
 62
     0
 10
1885.944053769467
 20
-388.7360794287802
 30
0.0
  0
VERTEX
  5
E4
  8
_____1
  6
CONTINUOUS
 62
     0
 10
1880.155098210019
 20
-382.9471238693163
 30
0.0
  0
VERTEX
  5
E5
  8
_____1
  6
CONTINUOUS
 62
     0
 10
1880.155098210019
 20
-379.0878201630107
 30
0.0
  0
VERTEX
  5
E6
  8
_____1
  6
CONTINUOUS
 62
     0
 10
1837.702757440626
 20
-313.4796571557818
 30
0.0
  0
VERTEX
  5
E7
  8
_____1
  6
CONTINUOUS
 62
     0
 10
1826.1248463217
 20
-288.394183064785
 30
0.0
  0
VERTEX
  5
E8
  8
_____1
  6
CONTINUOUS
 62
     0
 10
1835.773105587478
 20
-280.6755756521675
 30
0.0
  0
VERTEX
  5
E9
  8
_____1
  6
CONTINUOUS
 62
     0
 10
1835.773105587478
 20
-274.8866200927082
 30
0.0
  0
VERTEX
  5
EA
  8
_____1
  6
CONTINUOUS
 62
     0
 10
1824.195194468549
 20
-245.9418422954
 30
0.0
  0
VERTEX
  5
EB
  8
_____1
  6
CONTINUOUS
 62
     0
 10
1797.180068524391
 20
-137.8813385187887
 30
0.0
  0
VERTEX
  5
EC
  8
_____1
  6
CONTINUOUS
 62
     0
 10
1768.235290727084
 20
8.772202320896213
 30
0.0
  0
VERTEX
  5
ED
  8
_____1
  6
CONTINUOUS
 62
     0
 10
1756.65737960816
 20
103.3251431254344
 30
0.0
  0
VERTEX
  5
EE
  8
_____1
  6
CONTINUOUS
 62
     0
 10
1745.079468489247
 20
161.2146987200463
 30
0.0
  0
VERTEX
  5
EF
  8
_____1
  6
CONTINUOUS
 62
     0
 10
1721.923646251397
 20
244.1897284056572
 30
0.0
  0
VERTEX
  5
F0
  8
_____1
  6
CONTINUOUS
 62
     0
 10
1687.18991289463
 20
334.8833655038839
 30
0.0
  0
VERTEX
  5
F1
  8
_____1
  6
CONTINUOUS
 62
     0
 10
1671.752698069404
 20
390.8432692453466
 30
0.0
  0
VERTEX
  5
F2
  8
_____1
  6
CONTINUOUS
 62
     0
 10
1656.315483244171
 20
431.3659581615752
 30
0.0
  0
VERTEX
  5
F3
  8
_____1
  6
CONTINUOUS
 62
     0
 10
1658.245135097325
 20
441.0142174273437
 30
0.0
  0
VERTEX
  5
F4
  8
_____1
  6
CONTINUOUS
 62
     0
 10
1677.541653628858
 20
446.8031729868053
 30
0.0
  0
VERTEX
  5
F5
  8
_____1
  6
CONTINUOUS
 62
     0
 10
1689.119564747784
 20
429.4363063084193
 30
0.0
  0
VERTEX
  5
F6
  8
_____1
  6
CONTINUOUS
 62
     0
 10
1696.838172160408
 20
433.2956100147267
 30
0.0
  0
VERTEX
  5
F7
  8
_____1
  6
CONTINUOUS
 62
     0
 10
1700.697475866708
 20
429.4363063084193
 30
0.0
  0
VERTEX
  5
F8
  8
_____1
  6
CONTINUOUS
 62
     0
 10
1719.993994398245
 20
386.9839655390369
 30
0.0
  0
VERTEX
  5
F9
  8
_____1
  6
CONTINUOUS
 62
     0
 10
1752.798075901852
 20
358.0391877417305
 30
0.0
  0
VERTEX
  5
FA
  8
_____1
  6
CONTINUOUS
 62
     0
 10
1758.587031461308
 20
344.5316247696542
 30
0.0
  0
VERTEX
  5
FB
  8
_____1
  6
CONTINUOUS
 62
     0
 10
1752.798075901852
 20
323.305454384963
 30
0.0
  0
VERTEX
  5
FC
  8
_____1
  6
CONTINUOUS
 62
     0
 10
1758.587031461308
 20
317.5164988255019
 30
0.0
  0
VERTEX
  5
FD
  8
_____1
  6
CONTINUOUS
 62
     0
 10
1770.164942580256
 20
321.3758025318093
 30
0.0
  0
VERTEX
  5
FE
  8
_____1
  6
CONTINUOUS
 62
     0
 10
1775.953898139708
 20
315.5868469723459
 30
0.0
  0
VERTEX
  5
FF
  8
_____1
  6
CONTINUOUS
 62
     0
 10
1785.602157405464
 20
315.5868469723459
 30
0.0
  0
VERTEX
  5
100
  8
_____1
  6
CONTINUOUS
 62
     0
 10
1793.320764818089
 20
321.3758025318093
 30
0.0
  0
VERTEX
  5
101
  8
_____1
  6
CONTINUOUS
 62
     0
 10
1801.039372230713
 20
317.5164988255019
 30
0.0
  0
VERTEX
  5
102
  8
_____1
  6
CONTINUOUS
 62
     0
 10
1812.617283349623
 20
331.024061797576
 30
0.0
  0
VERTEX
  5
103
  8
_____1
  6
CONTINUOUS
 62
     0
 10
1814.546935202775
 20
344.5316247696542
 30
0.0
  0
VERTEX
  5
104
  8
_____1
  6
CONTINUOUS
 62
     0
 10
1806.828327790167
 20
379.2653581264217
 30
0.0
  0
VERTEX
  5
105
  8
_____1
  6
CONTINUOUS
 62
     0
 10
1787.531809258619
 20
412.0694396300355
 30
0.0
  0
VERTEX
  5
106
  8
_____1
  6
CONTINUOUS
 62
     0
 10
1775.953898139708
 20
425.5770026021119
 30
0.0
  0
VERTEX
  5
107
  8
_____1
  6
CONTINUOUS
 62
     0
 10
1733.501557370323
 20
462.2403878120349
 30
0.0
  0
VERTEX
  5
108
  8
_____1
  6
CONTINUOUS
 62
     0
 10
1737.360861076625
 20
473.8182989309553
 30
0.0
  0
VERTEX
  5
109
  8
_____1
  6
CONTINUOUS
 62
     0
 10
1718.06434254509
 20
506.6223804345714
 30
0.0
  0
VERTEX
  5
10A
  8
_____1
  6
CONTINUOUS
 62
     0
 10
1679.471305482025
 20
587.6677582670304
 30
0.0
  0
VERTEX
  5
10B
  8
_____1
  6
CONTINUOUS
 62
     0
 10
1671.752698069404
 20
632.0497508895646
 30
0.0
  0
VERTEX
  5
10C
  8
_____1
  6
CONTINUOUS
 62
     0
 10
1671.752698069404
 20
688.0096546310256
 30
0.0
  0
VERTEX
  5
10D
  8
_____1
  6
CONTINUOUS
 62
     0
 10
1681.400957335176
 20
761.3364250508675
 30
0.0
  0
VERTEX
  5
10E
  8
_____1
  6
CONTINUOUS
 62
     0
 10
1679.471305482025
 20
790.2812028481762
 30
0.0
  0
VERTEX
  5
10F
  8
_____1
  6
CONTINUOUS
 62
     0
 10
1669.823046216249
 20
815.3666769391725
 30
0.0
  0
VERTEX
  5
110
  8
_____1
  6
CONTINUOUS
 62
     0
 10
1586.848016530647
 20
942.723699247324
 30
0.0
  0
VERTEX
  5
111
  8
_____1
  6
CONTINUOUS
 62
     0
 10
1581.059060971175
 20
958.1609140725536
 30
0.0
  0
VERTEX
  5
112
  8
_____1
  6
CONTINUOUS
 62
     0
 10
1581.059060971175
 20
983.2463881635508
 30
0.0
  0
VERTEX
  5
113
  8
_____1
  6
CONTINUOUS
 62
     0
 10
1588.777668383795
 20
1006.4022104014
 30
0.0
  0
VERTEX
  5
114
  8
_____1
  6
CONTINUOUS
 62
     0
 10
1592.636972090101
 20
1010.261514107703
 30
0.0
  0
VERTEX
  5
115
  8
_____1
  6
CONTINUOUS
 62
     0
 10
1635.08931285949
 20
1010.261514107703
 30
0.0
  0
VERTEX
  5
116
  8
_____1
  6
CONTINUOUS
 62
     0
 10
1646.667223978394
 20
1023.769077079781
 30
0.0
  0
VERTEX
  5
117
  8
_____1
  6
CONTINUOUS
 62
     0
 10
1646.667223978394
 20
1035.346988198704
 30
0.0
  0
VERTEX
  5
118
  8
_____1
  6
CONTINUOUS
 62
     0
 10
1652.456179537867
 20
1044.99524746447
 30
0.0
  0
VERTEX
  5
119
  8
_____1
  6
CONTINUOUS
 62
     0
 10
1654.385831391023
 20
1073.940025261778
 30
0.0
  0
VERTEX
  5
11A
  8
_____1
  6
CONTINUOUS
 62
     0
 10
1667.893394363097
 20
1081.658632674399
 30
0.0
  0
VERTEX
  5
11B
  8
_____1
  6
CONTINUOUS
 62
     0
 10
1648.596875831567
 20
1126.040625296932
 30
0.0
  0
VERTEX
  5
11C
  8
_____1
  6
CONTINUOUS
 62
     0
 10
1652.456179537867
 20
1147.266795681624
 30
0.0
  0
VERTEX
  5
11D
  8
_____1
  6
CONTINUOUS
 62
     0
 10
1646.667223978394
 20
1162.704010506853
 30
0.0
  0
VERTEX
  5
11E
  8
_____1
  6
CONTINUOUS
 62
     0
 10
1646.667223978394
 20
1180.070877185237
 30
0.0
  0
VERTEX
  5
11F
  8
_____1
  6
CONTINUOUS
 62
     0
 10
1635.08931285949
 20
1207.086003129389
 30
0.0
  0
VERTEX
  5
120
  8
_____1
  6
CONTINUOUS
 62
     0
 10
1611.933490621631
 20
1228.31217351408
 30
0.0
  0
VERTEX
  5
121
  8
_____1
  6
CONTINUOUS
 62
     0
 10
1581.059060971175
 20
1237.960432779851
 30
0.0
  0
SEQEND
  5
122
  8
_____1
  6
CONTINUOUS
 62
     0
  0
POLYLINE
  5
123
  8
_____1
  6
CONTINUOUS
 62
     0
 66
     1
 10
0.0
 20
0.0
 30
0.0
 70
   129
  0
VERTEX
  5
124
  8
_____1
  6
CONTINUOUS
 62
     0
 10
-127.3992548563801
 20
1239.890084632999
 30
0.0
  0
VERTEX
  5
125
  8
_____1
  6
CONTINUOUS
 62
     0
 10
-156.3440326536875
 20
1226.382521660924
 30
0.0
  0
VERTEX
  5
126
  8
_____1
  6
CONTINUOUS
 62
     0
 10
-179.4998548915228
 20
1197.437743863619
 30
0.0
  0
VERTEX
  5
127
  8
_____1
  6
CONTINUOUS
 62
     0
 10
-194.9370697167687
 20
1156.915054947388
 30
0.0
  0
VERTEX
  5
128
  8
_____1
  6
CONTINUOUS
 62
     0
 10
-204.5853289825263
 20
1116.392366031159
 30
0.0
  0
VERTEX
  5
129
  8
_____1
  6
CONTINUOUS
 62
     0
 10
-229.6708030735354
 20
1093.236543793314
 30
0.0
  0
VERTEX
  5
12A
  8
_____1
  6
CONTINUOUS
 62
     0
 10
-241.248714192443
 20
1070.080721555469
 30
0.0
  0
VERTEX
  5
12B
  8
_____1
  6
CONTINUOUS
 62
     0
 10
-243.1783660456149
 20
1037.276640051853
 30
0.0
  0
VERTEX
  5
12C
  8
_____1
  6
CONTINUOUS
 62
     0
 10
-229.6708030735354
 20
1010.261514107701
 30
0.0
  0
VERTEX
  5
12D
  8
_____1
  6
CONTINUOUS
 62
     0
 10
-258.6155808708409
 20
1006.402210401393
 30
0.0
  0
VERTEX
  5
12E
  8
_____1
  6
CONTINUOUS
 62
     0
 10
-245.1080178987631
 20
998.6836029887822
 30
0.0
  0
VERTEX
  5
12F
  8
_____1
  6
CONTINUOUS
 62
     0
 10
-223.8818475140633
 20
992.8946474293193
 30
0.0
  0
VERTEX
  5
130
  8
_____1
  6
CONTINUOUS
 62
     0
 10
-223.8818475140633
 20
989.0353437230119
 30
0.0
  0
VERTEX
  5
131
  8
_____1
  6
CONTINUOUS
 62
     0
 10
-241.248714192443
 20
987.1056918698564
 30
0.0
  0
VERTEX
  5
132
  8
_____1
  6
CONTINUOUS
 62
     0
 10
-218.0928919546059
 20
975.5277807509333
 30
0.0
  0
VERTEX
  5
133
  8
_____1
  6
CONTINUOUS
 62
     0
 10
-189.1481141573004
 20
975.5277807509333
 30
0.0
  0
VERTEX
  5
134
  8
_____1
  6
CONTINUOUS
 62
     0
 10
-177.5702030383745
 20
979.3870844572407
 30
0.0
  0
VERTEX
  5
135
  8
_____1
  6
CONTINUOUS
 62
     0
 10
-167.9219437726151
 20
987.1056918698564
 30
0.0
  0
VERTEX
  5
136
  8
_____1
  6
CONTINUOUS
 62
     0
 10
-164.0626400663132
 20
985.1760400167045
 30
0.0
  0
VERTEX
  5
137
  8
_____1
  6
CONTINUOUS
 62
     0
 10
-185.2888104509966
 20
960.0905659257028
 30
0.0
  0
VERTEX
  5
138
  8
_____1
  6
CONTINUOUS
 62
     0
 10
-202.6556771293781
 20
925.3568325689362
 30
0.0
  0
VERTEX
  5
139
  8
_____1
  6
CONTINUOUS
 62
     0
 10
-210.3742845419838
 20
900.2713584779372
 30
0.0
  0
VERTEX
  5
13A
  8
_____1
  6
CONTINUOUS
 62
     0
 10
-216.1632401014576
 20
857.819017708553
 30
0.0
  0
VERTEX
  5
13B
  8
_____1
  6
CONTINUOUS
 62
     0
 10
-260.5452327239946
 20
740.1102546661718
 30
0.0
  0
VERTEX
  5
13C
  8
_____1
  6
CONTINUOUS
 62
     0
 10
-285.6307068149817
 20
660.9945286868706
 30
0.0
  0
VERTEX
  5
13D
  8
_____1
  6
CONTINUOUS
 62
     0
 10
-299.1382697870595
 20
591.527061973336
 30
0.0
  0
VERTEX
  5
13E
  8
_____1
  6
CONTINUOUS
 62
     0
 10
-310.7161809059835
 20
502.7630767282612
 30
0.0
  0
VERTEX
  5
13F
  8
_____1
  6
CONTINUOUS
 62
     0
 10
-324.223743878063
 20
442.9438692804929
 30
0.0
  0
VERTEX
  5
140
  8
_____1
  6
CONTINUOUS
 62
     0
 10
-306.8568771996834
 20
433.2956100147244
 30
0.0
  0
VERTEX
  5
141
  8
_____1
  6
CONTINUOUS
 62
     0
 10
-324.223743878063
 20
404.3508322174162
 30
0.0
  0
VERTEX
  5
142
  8
_____1
  6
CONTINUOUS
 62
     0
 10
-324.223743878063
 20
398.5618766579569
 30
0.0
  0
VERTEX
  5
143
  8
_____1
  6
CONTINUOUS
 62
     0
 10
-335.8016549969943
 20
373.4764025669583
 30
0.0
  0
VERTEX
  5
144
  8
_____1
  6
CONTINUOUS
 62
     0
 10
-341.5906105564445
 20
340.6723210633422
 30
0.0
  0
VERTEX
  5
145
  8
_____1
  6
CONTINUOUS
 62
     0
 10
-349.3092179690721
 20
329.09440994442
 30
0.0
  0
VERTEX
  5
146
  8
_____1
  6
CONTINUOUS
 62
     0
 10
-355.0981735285222
 20
329.09440994442
 30
0.0
  0
VERTEX
  5
147
  8
_____1
  6
CONTINUOUS
 62
     0
 10
-353.168521675374
 20
313.6571951191922
 30
0.0
  0
VERTEX
  5
148
  8
_____1
  6
CONTINUOUS
 62
     0
 10
-333.8720031438206
 20
311.7275432660363
 30
0.0
  0
VERTEX
  5
149
  8
_____1
  6
CONTINUOUS
 62
     0
 10
-341.5906105564445
 20
307.8682395597289
 30
0.0
  0
VERTEX
  5
14A
  8
_____1
  6
CONTINUOUS
 62
     0
 10
-345.4499142627701
 20
302.0792840002655
 30
0.0
  0
VERTEX
  5
14B
  8
_____1
  6
CONTINUOUS
 62
     0
 10
-331.9423512906742
 20
296.2903284408062
 30
0.0
  0
VERTEX
  5
14C
  8
_____1
  6
CONTINUOUS
 62
     0
 10
-337.7313068501426
 20
294.3606765876548
 30
0.0
  0
VERTEX
  5
14D
  8
_____1
  6
CONTINUOUS
 62
     0
 10
-331.9423512906742
 20
288.5717210281914
 30
0.0
  0
VERTEX
  5
14E
  8
_____1
  6
CONTINUOUS
 62
     0
 10
-302.9975734933632
 20
288.5717210281914
 30
0.0
  0
VERTEX
  5
14F
  8
_____1
  6
CONTINUOUS
 62
     0
 10
-277.912099402376
 20
307.8682395597289
 30
0.0
  0
VERTEX
  5
150
  8
_____1
  6
CONTINUOUS
 62
     0
 10
-270.1934919897521
 20
317.5164988254996
 30
0.0
  0
VERTEX
  5
151
  8
_____1
  6
CONTINUOUS
 62
     0
 10
-260.5452327239946
 20
356.1095358885723
 30
0.0
  0
VERTEX
  5
152
  8
_____1
  6
CONTINUOUS
 62
     0
 10
-260.5452327239946
 20
427.5066544552651
 30
0.0
  0
VERTEX
  5
153
  8
_____1
  6
CONTINUOUS
 62
     0
 10
-256.6859290176926
 20
431.3659581615684
 30
0.0
  0
VERTEX
  5
154
  8
_____1
  6
CONTINUOUS
 62
     0
 10
-248.9673216050651
 20
429.436306308417
 30
0.0
  0
VERTEX
  5
155
  8
_____1
  6
CONTINUOUS
 62
     0
 10
-220.0225438077596
 20
574.16019529495
 30
0.0
  0
VERTEX
  5
156
  8
_____1
  6
CONTINUOUS
 62
     0
 10
-177.5702030383745
 20
715.0247805751756
 30
0.0
  0
VERTEX
  5
157
  8
_____1
  6
CONTINUOUS
 62
     0
 10
-175.640551185219
 20
653.2759212742535
 30
0.0
  0
VERTEX
  5
158
  8
_____1
  6
CONTINUOUS
 62
     0
 10
-179.4998548915228
 20
626.2607953301035
 30
0.0
  0
VERTEX
  5
159
  8
_____1
  6
CONTINUOUS
 62
     0
 10
-189.1481141573004
 20
583.8084545607185
 30
0.0
  0
VERTEX
  5
15A
  8
_____1
  6
CONTINUOUS
 62
     0
 10
-218.0928919546059
 20
489.2555137561853
 30
0.0
  0
VERTEX
  5
15B
  8
_____1
  6
CONTINUOUS
 62
     0
 10
-218.0928919546059
 20
473.8182989309553
 30
0.0
  0
VERTEX
  5
15C
  8
_____1
  6
CONTINUOUS
 62
     0
 10
-196.8667215699224
 20
471.8886470777993
 30
0.0
  0
VERTEX
  5
15D
  8
_____1
  6
CONTINUOUS
 62
     0
 10
-202.6556771293781
 20
437.1549137210318
 30
0.0
  0
VERTEX
  5
15E
  8
_____1
  6
CONTINUOUS
 62
     0
 10
-202.6556771293781
 20
412.069439630031
 30
0.0
  0
VERTEX
  5
15F
  8
_____1
  6
CONTINUOUS
 62
     0
 10
-198.7963734230761
 20
390.8432692453398
 30
0.0
  0
VERTEX
  5
160
  8
_____1
  6
CONTINUOUS
 62
     0
 10
-193.0074178636205
 20
377.3357062732657
 30
0.0
  0
VERTEX
  5
161
  8
_____1
  6
CONTINUOUS
 62
     0
 10
-193.0074178636205
 20
363.8281433011894
 30
0.0
  0
VERTEX
  5
162
  8
_____1
  6
CONTINUOUS
 62
     0
 10
-206.51498083568
 20
276.9938099092687
 30
0.0
  0
VERTEX
  5
163
  8
_____1
  6
CONTINUOUS
 62
     0
 10
-241.248714192443
 20
130.3402690695843
 30
0.0
  0
VERTEX
  5
164
  8
_____1
  6
CONTINUOUS
 62
     0
 10
-291.4196623744538
 20
43.50593567766145
 30
0.0
  0
VERTEX
  5
165
  8
_____1
  6
CONTINUOUS
 62
     0
 10
-326.1533957312167
 20
-33.68013844848838
 30
0.0
  0
VERTEX
  5
166
  8
_____1
  6
CONTINUOUS
 62
     0
 10
-395.6208624447609
 20
-245.9418422954022
 30
0.0
  0
VERTEX
  5
167
  8
_____1
  6
CONTINUOUS
 62
     0
 10
-385.9726031789833
 20
-247.8714941485564
 30
0.0
  0
VERTEX
  5
168
  8
_____1
  6
CONTINUOUS
 62
     0
 10
-382.1132994726813
 20
-253.6604497080198
 30
0.0
  0
VERTEX
  5
169
  8
_____1
  6
CONTINUOUS
 62
     0
 10
-389.8319068852888
 20
-267.1680126800939
 30
0.0
  0
VERTEX
  5
16A
  8
_____1
  6
CONTINUOUS
 62
     0
 10
-411.0580772699905
 20
-290.3238349179451
 30
0.0
  0
VERTEX
  5
16B
  8
_____1
  6
CONTINUOUS
 62
     0
 10
-416.8470328294443
 20
-301.9017460368655
 30
0.0
  0
VERTEX
  5
16C
  8
_____1
  6
CONTINUOUS
 62
     0
 10
-432.2842476546757
 20
-379.0878201630107
 30
0.0
  0
VERTEX
  5
16D
  8
_____1
  6
CONTINUOUS
 62
     0
 10
-420.7063365357499
 20
-386.8064275756283
 30
0.0
  0
VERTEX
  5
16E
  8
_____1
  6
CONTINUOUS
 62
     0
 10
-414.9173809762924
 20
-386.8064275756283
 30
0.0
  0
VERTEX
  5
16F
  8
_____1
  6
CONTINUOUS
 62
     0
 10
-395.6208624447609
 20
-350.1430423657043
 30
0.0
  0
VERTEX
  5
170
  8
_____1
  6
CONTINUOUS
 62
     0
 10
-374.3946920600574
 20
-369.4395608972418
 30
0.0
  0
VERTEX
  5
171
  8
_____1
  6
CONTINUOUS
 62
     0
 10
-360.8871290879797
 20
-390.6657312819402
 30
0.0
  0
VERTEX
  5
172
  8
_____1
  6
CONTINUOUS
 62
     0
 10
-353.168521675374
 20
-409.9622498134777
 30
0.0
  0
VERTEX
  5
173
  8
_____1
  6
CONTINUOUS
 62
     0
 10
-335.8016549969943
 20
-425.3994646387027
 30
0.0
  0
VERTEX
  5
174
  8
_____1
  6
CONTINUOUS
 62
     0
 10
-308.7865290528371
 20
-433.1180720513198
 30
0.0
  0
VERTEX
  5
175
  8
_____1
  6
CONTINUOUS
 62
     0
 10
-262.4748845771446
 20
-433.1180720513198
 30
0.0
  0
VERTEX
  5
176
  8
_____1
  6
CONTINUOUS
 62
     0
 10
-252.8266253113688
 20
-431.188420198167
 30
0.0
  0
VERTEX
  5
177
  8
_____1
  6
CONTINUOUS
 62
     0
 10
-245.1080178987631
 20
-425.3994646387027
 30
0.0
  0
VERTEX
  5
178
  8
_____1
  6
CONTINUOUS
 62
     0
 10
-245.1080178987631
 20
-419.6105090792466
 30
0.0
  0
VERTEX
  5
179
  8
_____1
  6
CONTINUOUS
 62
     0
 10
-252.8266253113688
 20
-411.8919016666291
 30
0.0
  0
VERTEX
  5
17A
  8
_____1
  6
CONTINUOUS
 62
     0
 10
-297.208617933904
 20
-388.7360794287802
 30
0.0
  0
VERTEX
  5
17B
  8
_____1
  6
CONTINUOUS
 62
     0
 10
-304.9272253465151
 20
-375.2285164567056
 30
0.0
  0
VERTEX
  5
17C
  8
_____1
  6
CONTINUOUS
 62
     0
 10
-312.645832759139
 20
-325.0575682747085
 30
0.0
  0
VERTEX
  5
17D
  8
_____1
  6
CONTINUOUS
 62
     0
 10
-312.645832759139
 20
-278.7459237990183
 30
0.0
  0
VERTEX
  5
17E
  8
_____1
  6
CONTINUOUS
 62
     0
 10
-308.7865290528371
 20
-276.8162719458628
 30
0.0
  0
VERTEX
  5
17F
  8
_____1
  6
CONTINUOUS
 62
     0
 10
-293.3493142276038
 20
-282.6052275053257
 30
0.0
  0
VERTEX
  5
180
  8
_____1
  6
CONTINUOUS
 62
     0
 10
-285.6307068149817
 20
-267.1680126800939
 30
0.0
  0
VERTEX
  5
181
  8
_____1
  6
CONTINUOUS
 62
     0
 10
-204.5853289825263
 20
-51.04700512687214
 30
0.0
  0
VERTEX
  5
182
  8
_____1
  6
CONTINUOUS
 62
     0
 10
-181.4295067446928
 20
-2.805708798028263
 30
0.0
  0
VERTEX
  5
183
  8
_____1
  6
CONTINUOUS
 62
     0
 10
-121.6102992969227
 20
99.46583941912468
 30
0.0
  0
VERTEX
  5
184
  8
_____1
  6
CONTINUOUS
 62
     0
 10
-106.1730844716967
 20
134.1995727758872
 30
0.0
  0
VERTEX
  5
185
  8
_____1
  6
CONTINUOUS
 62
     0
 10
-77.22830667438757
 20
226.8228617272716
 30
0.0
  0
VERTEX
  5
186
  8
_____1
  6
CONTINUOUS
 62
     0
 10
-73.3690029680838
 20
228.7525135804276
 30
0.0
  0
VERTEX
  5
187
  8
_____1
  6
CONTINUOUS
 62
     0
 10
-56.00213628968231
 20
199.8077357831194
 30
0.0
  0
VERTEX
  5
188
  8
_____1
  6
CONTINUOUS
 62
     0
 10
-11.62014366716357
 20
107.1844468317372
 30
0.0
  0
VERTEX
  5
189
  8
_____1
  6
CONTINUOUS
 62
     0
 10
-5.831188107689741
 20
89.81758015335345
 30
0.0
  0
VERTEX
  5
18A
  8
_____1
  6
CONTINUOUS
 62
     0
 10
9.606026717538043
 20
-16.31327177010462
 30
0.0
  0
VERTEX
  5
18B
  8
_____1
  6
CONTINUOUS
 62
     0
 10
79.07349343106762
 20
-278.7459237990183
 30
0.0
  0
VERTEX
  5
18C
  8
_____1
  6
CONTINUOUS
 62
     0
 10
88.72175269683976
 20
-301.9017460368655
 30
0.0
  0
VERTEX
  5
18D
  8
_____1
  6
CONTINUOUS
 62
     0
 10
106.0886193752231
 20
-301.9017460368655
 30
0.0
  0
VERTEX
  5
18E
  8
_____1
  6
CONTINUOUS
 62
     0
 10
94.51070825631359
 20
-334.705827540477
 30
0.0
  0
VERTEX
  5
18F
  8
_____1
  6
CONTINUOUS
 62
     0
 10
94.51070825631359
 20
-365.5802571909367
 30
0.0
  0
VERTEX
  5
190
  8
_____1
  6
CONTINUOUS
 62
     0
 10
108.0182712283731
 20
-409.9622498134777
 30
0.0
  0
VERTEX
  5
191
  8
_____1
  6
CONTINUOUS
 62
     0
 10
111.8775749346933
 20
-438.9070276107818
 30
0.0
  0
VERTEX
  5
192
  8
_____1
  6
CONTINUOUS
 62
     0
 10
133.1037453193767
 20
-438.9070276107818
 30
0.0
  0
VERTEX
  5
193
  8
_____1
  6
CONTINUOUS
 62
     0
 10
133.1037453193767
 20
-404.1732942540143
 30
0.0
  0
VERTEX
  5
194
  8
_____1
  6
CONTINUOUS
 62
     0
 10
136.9630490256786
 20
-384.8767757224746
 30
0.0
  0
VERTEX
  5
195
  8
_____1
  6
CONTINUOUS
 62
     0
 10
154.3299157040838
 20
-392.5953831350921
 30
0.0
  0
VERTEX
  5
196
  8
_____1
  6
CONTINUOUS
 62
     0
 10
190.993300913995
 20
-423.4698127855513
 30
0.0
  0
VERTEX
  5
197
  8
_____1
  6
CONTINUOUS
 62
     0
 10
210.2898194455283
 20
-435.0477239044717
 30
0.0
  0
VERTEX
  5
198
  8
_____1
  6
CONTINUOUS
 62
     0
 10
273.9683305996023
 20
-435.0477239044717
 30
0.0
  0
VERTEX
  5
199
  8
_____1
  6
CONTINUOUS
 62
     0
 10
299.0538046906058
 20
-427.3291164918546
 30
0.0
  0
VERTEX
  5
19A
  8
_____1
  6
CONTINUOUS
 62
     0
 10
302.9131083969078
 20
-423.4698127855513
 30
0.0
  0
VERTEX
  5
19B
  8
_____1
  6
CONTINUOUS
 62
     0
 10
300.9834565437577
 20
-413.8215535197805
 30
0.0
  0
VERTEX
  5
19C
  8
_____1
  6
CONTINUOUS
 62
     0
 10
270.1090268932949
 20
-396.4546868413968
 30
0.0
  0
VERTEX
  5
19D
  8
_____1
  6
CONTINUOUS
 62
     0
 10
245.0235528022913
 20
-386.8064275756283
 30
0.0
  0
VERTEX
  5
19E
  8
_____1
  6
CONTINUOUS
 62
     0
 10
227.6566861239098
 20
-369.4395608972418
 30
0.0
  0
VERTEX
  5
19F
  8
_____1
  6
CONTINUOUS
 62
     0
 10
212.2194712986839
 20
-348.2133905125534
 30
0.0
  0
VERTEX
  5
1A0
  8
_____1
  6
CONTINUOUS
 62
     0
 10
181.3450416482192
 20
-282.6052275053257
 30
0.0
  0
VERTEX
  5
1A1
  8
_____1
  6
CONTINUOUS
 62
     0
 10
185.204345354543
 20
-276.8162719458628
 30
0.0
  0
VERTEX
  5
1A2
  8
_____1
  6
CONTINUOUS
 62
     0
 10
190.993300913995
 20
-274.8866200927109
 30
0.0
  0
VERTEX
  5
1A3
  8
_____1
  6
CONTINUOUS
 62
     0
 10
190.993300913995
 20
-269.0976645332498
 30
0.0
  0
VERTEX
  5
1A4
  8
_____1
  6
CONTINUOUS
 62
     0
 10
133.1037453193767
 20
-49.11735327371616
 30
0.0
  0
VERTEX
  5
1A5
  8
_____1
  6
CONTINUOUS
 62
     0
 10
111.8775749346933
 20
72.45071347496742
 30
0.0
  0
VERTEX
  5
1A6
  8
_____1
  6
CONTINUOUS
 62
     0
 10
106.0886193752231
 20
132.2699209227358
 30
0.0
  0
VERTEX
  5
1A7
  8
_____1
  6
CONTINUOUS
 62
     0
 10
73.28453787161015
 20
248.0490321119651
 30
0.0
  0
VERTEX
  5
1A8
  8
_____1
  6
CONTINUOUS
 62
     0
 10
28.90254524907323
 20
383.1246618327273
 30
0.0
  0
VERTEX
  5
1A9
  8
_____1
  6
CONTINUOUS
 62
     0
 10
11.53567857069174
 20
419.7880470426458
 30
0.0
  0
VERTEX
  5
1AA
  8
_____1
  6
CONTINUOUS
 62
     0
 10
17.32463413014739
 20
427.5066544552651
 30
0.0
  0
VERTEX
  5
1AB
  8
_____1
  6
CONTINUOUS
 62
     0
 10
23.11358968961576
 20
471.8886470777993
 30
0.0
  0
VERTEX
  5
1AC
  8
_____1
  6
CONTINUOUS
 62
     0
 10
44.33976007430465
 20
441.0142174273392
 30
0.0
  0
VERTEX
  5
1AD
  8
_____1
  6
CONTINUOUS
 62
     0
 10
57.84732304638055
 20
446.803172986803
 30
0.0
  0
VERTEX
  5
1AE
  8
_____1
  6
CONTINUOUS
 62
     0
 10
65.56593045900627
 20
442.9438692804929
 30
0.0
  0
VERTEX
  5
1AF
  8
_____1
  6
CONTINUOUS
 62
     0
 10
79.07349343106762
 20
427.5066544552651
 30
0.0
  0
VERTEX
  5
1B0
  8
_____1
  6
CONTINUOUS
 62
     0
 10
82.93279713738593
 20
415.9287433363384
 30
0.0
  0
VERTEX
  5
1B1
  8
_____1
  6
CONTINUOUS
 62
     0
 10
96.44036010946547
 20
394.7025729516495
 30
0.0
  0
VERTEX
  5
1B2
  8
_____1
  6
CONTINUOUS
 62
     0
 10
123.4554860536246
 20
371.5467507138023
 30
0.0
  0
VERTEX
  5
1B3
  8
_____1
  6
CONTINUOUS
 62
     0
 10
131.1740934662284
 20
358.0391877417283
 30
0.0
  0
VERTEX
  5
1B4
  8
_____1
  6
CONTINUOUS
 62
     0
 10
125.3851379067728
 20
342.6019729164964
 30
0.0
  0
VERTEX
  5
1B5
  8
_____1
  6
CONTINUOUS
 62
     0
 10
125.3851379067728
 20
334.8833655038811
 30
0.0
  0
VERTEX
  5
1B6
  8
_____1
  6
CONTINUOUS
 62
     0
 10
129.2444416130747
 20
331.0240617975737
 30
0.0
  0
VERTEX
  5
1B7
  8
_____1
  6
CONTINUOUS
 62
     0
 10
136.9630490256786
 20
331.0240617975737
 30
0.0
  0
VERTEX
  5
1B8
  8
_____1
  6
CONTINUOUS
 62
     0
 10
142.7520045851525
 20
334.8833655038811
 30
0.0
  0
VERTEX
  5
1B9
  8
_____1
  6
CONTINUOUS
 62
     0
 10
148.5409601446099
 20
325.2351062381126
 30
0.0
  0
VERTEX
  5
1BA
  8
_____1
  6
CONTINUOUS
 62
     0
 10
156.259567557232
 20
331.0240617975737
 30
0.0
  0
VERTEX
  5
1BB
  8
_____1
  6
CONTINUOUS
 62
     0
 10
165.9078268229896
 20
332.9537136507251
 30
0.0
  0
VERTEX
  5
1BC
  8
_____1
  6
CONTINUOUS
 62
     0
 10
171.6967823824634
 20
329.09440994442
 30
0.0
  0
VERTEX
  5
1BD
  8
_____1
  6
CONTINUOUS
 62
     0
 10
185.204345354543
 20
342.6019729164964
 30
0.0
  0
VERTEX
  5
1BE
  8
_____1
  6
CONTINUOUS
 62
     0
 10
183.2746935013711
 20
383.1246618327273
 30
0.0
  0
VERTEX
  5
1BF
  8
_____1
  6
CONTINUOUS
 62
     0
 10
163.9781749698377
 20
417.8583951894943
 30
0.0
  0
VERTEX
  5
1C0
  8
_____1
  6
CONTINUOUS
 62
     0
 10
136.9630490256786
 20
444.8735211336466
 30
0.0
  0
VERTEX
  5
1C1
  8
_____1
  6
CONTINUOUS
 62
     0
 10
119.596182347299
 20
456.4514322525715
 30
0.0
  0
VERTEX
  5
1C2
  8
_____1
  6
CONTINUOUS
 62
     0
 10
102.2293156689157
 20
477.6776026372631
 30
0.0
  0
VERTEX
  5
1C3
  8
_____1
  6
CONTINUOUS
 62
     0
 10
106.0886193752231
 20
485.3962100498757
 30
0.0
  0
VERTEX
  5
1C4
  8
_____1
  6
CONTINUOUS
 62
     0
 10
28.90254524907323
 20
624.3311434769471
 30
0.0
  0
VERTEX
  5
1C5
  8
_____1
  6
CONTINUOUS
 62
     0
 10
26.97289339591771
 20
684.1503509247136
 30
0.0
  0
VERTEX
  5
1C6
  8
_____1
  6
CONTINUOUS
 62
     0
 10
30.83219710222147
 20
728.5323435472496
 30
0.0
  0
VERTEX
  5
1C7
  8
_____1
  6
CONTINUOUS
 62
     0
 10
36.62115266169531
 20
757.4771213445579
 30
0.0
  0
VERTEX
  5
1C8
  8
_____1
  6
CONTINUOUS
 62
     0
 10
36.62115266169531
 20
794.1405065544814
 30
0.0
  0
VERTEX
  5
1C9
  8
_____1
  6
CONTINUOUS
 62
     0
 10
32.76184895539518
 20
809.5777213797069
 30
0.0
  0
VERTEX
  5
1CA
  8
_____1
  6
CONTINUOUS
 62
     0
 10
19.25428598329563
 20
838.5224991770151
 30
0.0
  0
VERTEX
  5
1CB
  8
_____1
  6
CONTINUOUS
 62
     0
 10
-17.40909922662104
 20
890.6230992121687
 30
0.0
  0
VERTEX
  5
1CC
  8
_____1
  6
CONTINUOUS
 62
     0
 10
-32.84631405184882
 20
921.4975288626288
 30
0.0
  0
VERTEX
  5
1CD
  8
_____1
  6
CONTINUOUS
 62
     0
 10
-52.14283258338037
 20
948.5126548067806
 30
0.0
  0
VERTEX
  5
1CE
  8
_____1
  6
CONTINUOUS
 62
     0
 10
-59.86143999598607
 20
950.442306659937
 30
0.0
  0
VERTEX
  5
1CF
  8
_____1
  6
CONTINUOUS
 62
     0
 10
-63.72074370230803
 20
958.1609140725473
 30
0.0
  0
VERTEX
  5
1D0
  8
_____1
  6
CONTINUOUS
 62
     0
 10
-61.79109184915615
 20
985.1760400167045
 30
0.0
  0
VERTEX
  5
1D1
  8
_____1
  6
CONTINUOUS
 62
     0
 10
-44.42422517077466
 20
1006.402210401393
 30
0.0
  0
VERTEX
  5
1D2
  8
_____1
  6
CONTINUOUS
 62
     0
 10
-9.690491813991684
 20
1008.331862254549
 30
0.0
  0
VERTEX
  5
1D3
  8
_____1
  6
CONTINUOUS
 62
     0
 10
-0.0422325482340966
 20
1012.191165960856
 30
0.0
  0
VERTEX
  5
1D4
  8
_____1
  6
CONTINUOUS
 62
     0
 10
7.6763748643898
 20
1021.839425226623
 30
0.0
  0
VERTEX
  5
1D5
  8
_____1
  6
CONTINUOUS
 62
     0
 10
9.606026717538043
 20
1037.276640051853
 30
0.0
  0
VERTEX
  5
1D6
  8
_____1
  6
CONTINUOUS
 62
     0
 10
13.46533042383999
 20
1043.065595611317
 30
0.0
  0
VERTEX
  5
1D7
  8
_____1
  6
CONTINUOUS
 62
     0
 10
15.39498227699369
 20
1066.221417849162
 30
0.0
  0
VERTEX
  5
1D8
  8
_____1
  6
CONTINUOUS
 62
     0
 10
28.90254524907323
 20
1079.728980821238
 30
0.0
  0
VERTEX
  5
1D9
  8
_____1
  6
CONTINUOUS
 62
     0
 10
26.97289339591771
 20
1089.377240087006
 30
0.0
  0
VERTEX
  5
1DA
  8
_____1
  6
CONTINUOUS
 62
     0
 10
13.46533042383999
 20
1104.814454912236
 30
0.0
  0
VERTEX
  5
1DB
  8
_____1
  6
CONTINUOUS
 62
     0
 10
1.887419304932337
 20
1126.040625296926
 30
0.0
  0
VERTEX
  5
1DC
  8
_____1
  6
CONTINUOUS
 62
     0
 10
7.6763748643898
 20
1168.492966066312
 30
0.0
  0
VERTEX
  5
1DD
  8
_____1
  6
CONTINUOUS
 62
     0
 10
11.53567857069174
 20
1168.492966066312
 30
0.0
  0
VERTEX
  5
1DE
  8
_____1
  6
CONTINUOUS
 62
     0
 10
15.39498227699369
 20
1156.915054947388
 30
0.0
  0
VERTEX
  5
1DF
  8
_____1
  6
CONTINUOUS
 62
     0
 10
21.18393783644933
 20
1180.070877185232
 30
0.0
  0
VERTEX
  5
1E0
  8
_____1
  6
CONTINUOUS
 62
     0
 10
17.32463413014739
 20
1193.578440157312
 30
0.0
  0
VERTEX
  5
1E1
  8
_____1
  6
CONTINUOUS
 62
     0
 10
7.6763748643898
 20
1205.156351276231
 30
0.0
  0
VERTEX
  5
1E2
  8
_____1
  6
CONTINUOUS
 62
     0
 10
-11.62014366716357
 20
1214.804610542002
 30
0.0
  0
VERTEX
  5
1E3
  8
_____1
  6
CONTINUOUS
 62
     0
 10
-28.98701034552687
 20
1218.66391424831
 30
0.0
  0
VERTEX
  5
1E4
  8
_____1
  6
CONTINUOUS
 62
     0
 10
-57.93178814283056
 20
1236.030780926691
 30
0.0
  0
VERTEX
  5
1E5
  8
_____1
  6
CONTINUOUS
 62
     0
 10
-79.15795852753945
 20
1241.819736486155
 30
0.0
  0
SEQEND
  5
1E6
  8
_____1
  6
CONTINUOUS
 62
     0
  0
POLYLINE
  5
1E7
  8
_____1
  6
CONTINUOUS
 62
     0
 66
     1
 10
0.0
 20
0.0
 30
0.0
 70
   129
  0
VERTEX
  5
1E8
  8
_____1
  6
CONTINUOUS
 62
     0
 10
-905.6295984766311
 20
1186.566007993939
 30
0.0
  0
VERTEX
  5
1E9
  8
_____1
  6
CONTINUOUS
 62
     0
 10
-919.0330492949488
 20
1180.473530349246
 30
0.0
  0
VERTEX
  5
1EA
  8
_____1
  6
CONTINUOUS
 62
     0
 10
-919.0330492949488
 20
1180.473530349246
 30
0.0
  0
VERTEX
  5
1EB
  8
_____1
  6
CONTINUOUS
 62
     0
 10
-937.3104822290425
 20
1167.070079530917
 30
0.0
  0
VERTEX
  5
1EC
  8
_____1
  6
CONTINUOUS
 62
     0
 10
-937.3104822290425
 20
1167.070079530917
 30
0.0
  0
VERTEX
  5
1ED
  8
_____1
  6
CONTINUOUS
 62
     0
 10
-947.0584464605399
 20
1156.103619770463
 30
0.0
  0
VERTEX
  5
1EE
  8
_____1
  6
CONTINUOUS
 62
     0
 10
-947.0584464605399
 20
1156.103619770463
 30
0.0
  0
VERTEX
  5
1EF
  8
_____1
  6
CONTINUOUS
 62
     0
 10
-954.3694196341876
 20
1143.918664481073
 30
0.0
  0
VERTEX
  5
1F0
  8
_____1
  6
CONTINUOUS
 62
     0
 10
-954.3694196341876
 20
1143.918664481073
 30
0.0
  0
VERTEX
  5
1F1
  8
_____1
  6
CONTINUOUS
 62
     0
 10
-971.4283570393291
 20
1097.61583438139
 30
0.0
  0
VERTEX
  5
1F2
  8
_____1
  6
CONTINUOUS
 62
     0
 10
-971.4283570393291
 20
1097.61583438139
 30
0.0
  0
VERTEX
  5
1F3
  8
_____1
  6
CONTINUOUS
 62
     0
 10
-990.9242855023585
 20
1029.380084760802
 30
0.0
  0
VERTEX
  5
1F4
  8
_____1
  6
CONTINUOUS
 62
     0
 10
-990.9242855023585
 20
1029.380084760802
 30
0.0
  0
VERTEX
  5
1F5
  8
_____1
  6
CONTINUOUS
 62
     0
 10
-1033.571629015223
 20
946.5223887929428
 30
0.0
  0
VERTEX
  5
1F6
  8
_____1
  6
CONTINUOUS
 62
     0
 10
-1033.571629015223
 20
946.5223887929428
 30
0.0
  0
VERTEX
  5
1F7
  8
_____1
  6
CONTINUOUS
 62
     0
 10
-1040.882602188854
 20
925.8079648009793
 30
0.0
  0
VERTEX
  5
1F8
  8
_____1
  6
CONTINUOUS
 62
     0
 10
-1040.882602188854
 20
925.8079648009793
 30
0.0
  0
VERTEX
  5
1F9
  8
_____1
  6
CONTINUOUS
 62
     0
 10
-1046.975079833546
 20
888.0346034038698
 30
0.0
  0
VERTEX
  5
1FA
  8
_____1
  6
CONTINUOUS
 62
     0
 10
-1046.975079833546
 20
888.0346034038698
 30
0.0
  0
VERTEX
  5
1FB
  8
_____1
  6
CONTINUOUS
 62
     0
 10
-1045.756584304612
 20
867.3201794119045
 30
0.0
  0
VERTEX
  5
1FC
  8
_____1
  6
CONTINUOUS
 62
     0
 10
-1045.756584304612
 20
867.3201794119045
 30
0.0
  0
VERTEX
  5
1FD
  8
_____1
  6
CONTINUOUS
 62
     0
 10
-1042.101097717805
 20
852.6982330646365
 30
0.0
  0
VERTEX
  5
1FE
  8
_____1
  6
CONTINUOUS
 62
     0
 10
-1042.101097717805
 20
852.6982330646365
 30
0.0
  0
VERTEX
  5
1FF
  8
_____1
  6
CONTINUOUS
 62
     0
 10
-1029.916142428401
 20
830.765313543729
 30
0.0
  0
VERTEX
  5
200
  8
_____1
  6
CONTINUOUS
 62
     0
 10
-1029.916142428401
 20
830.765313543729
 30
0.0
  0
VERTEX
  5
201
  8
_____1
  6
CONTINUOUS
 62
     0
 10
-1025.042160312645
 20
825.8913314279766
 30
0.0
  0
VERTEX
  5
202
  8
_____1
  6
CONTINUOUS
 62
     0
 10
-1025.042160312645
 20
825.8913314279766
 30
0.0
  0
VERTEX
  5
203
  8
_____1
  6
CONTINUOUS
 62
     0
 10
-1018.94968266795
 20
823.4543403700955
 30
0.0
  0
VERTEX
  5
204
  8
_____1
  6
CONTINUOUS
 62
     0
 10
-1018.94968266795
 20
823.4543403700955
 30
0.0
  0
VERTEX
  5
205
  8
_____1
  6
CONTINUOUS
 62
     0
 10
-1028.697646899467
 20
844.1687643620648
 30
0.0
  0
VERTEX
  5
206
  8
_____1
  6
CONTINUOUS
 62
     0
 10
-1028.697646899467
 20
844.1687643620648
 30
0.0
  0
VERTEX
  5
207
  8
_____1
  6
CONTINUOUS
 62
     0
 10
-1028.697646899467
 20
862.4461972961467
 30
0.0
  0
VERTEX
  5
208
  8
_____1
  6
CONTINUOUS
 62
     0
 10
-1028.697646899467
 20
862.4461972961467
 30
0.0
  0
VERTEX
  5
209
  8
_____1
  6
CONTINUOUS
 62
     0
 10
-1027.479151370517
 20
867.3201794119045
 30
0.0
  0
VERTEX
  5
20A
  8
_____1
  6
CONTINUOUS
 62
     0
 10
-1027.479151370517
 20
867.3201794119045
 30
0.0
  0
VERTEX
  5
20B
  8
_____1
  6
CONTINUOUS
 62
     0
 10
-1025.042160312645
 20
867.3201794119045
 30
0.0
  0
VERTEX
  5
20C
  8
_____1
  6
CONTINUOUS
 62
     0
 10
-1025.042160312645
 20
867.3201794119045
 30
0.0
  0
VERTEX
  5
20D
  8
_____1
  6
CONTINUOUS
 62
     0
 10
-1023.823664783708
 20
853.916728593576
 30
0.0
  0
VERTEX
  5
20E
  8
_____1
  6
CONTINUOUS
 62
     0
 10
-1023.823664783708
 20
853.916728593576
 30
0.0
  0
VERTEX
  5
20F
  8
_____1
  6
CONTINUOUS
 62
     0
 10
-1020.168178196906
 20
841.7317733041841
 30
0.0
  0
VERTEX
  5
210
  8
_____1
  6
CONTINUOUS
 62
     0
 10
-1020.168178196906
 20
841.7317733041841
 30
0.0
  0
VERTEX
  5
211
  8
_____1
  6
CONTINUOUS
 62
     0
 10
-1011.638709494326
 20
825.8913314279766
 30
0.0
  0
VERTEX
  5
212
  8
_____1
  6
CONTINUOUS
 62
     0
 10
-1011.638709494326
 20
825.8913314279766
 30
0.0
  0
VERTEX
  5
213
  8
_____1
  6
CONTINUOUS
 62
     0
 10
-1000.672249733874
 20
813.7063761385848
 30
0.0
  0
VERTEX
  5
214
  8
_____1
  6
CONTINUOUS
 62
     0
 10
-1000.672249733874
 20
813.7063761385848
 30
0.0
  0
VERTEX
  5
215
  8
_____1
  6
CONTINUOUS
 62
     0
 10
-999.453754204922
 20
808.8323940228297
 30
0.0
  0
VERTEX
  5
216
  8
_____1
  6
CONTINUOUS
 62
     0
 10
-999.453754204922
 20
808.8323940228297
 30
0.0
  0
VERTEX
  5
217
  8
_____1
  6
CONTINUOUS
 62
     0
 10
-1018.94968266795
 20
747.907617575876
 30
0.0
  0
VERTEX
  5
218
  8
_____1
  6
CONTINUOUS
 62
     0
 10
-1018.94968266795
 20
747.907617575876
 30
0.0
  0
VERTEX
  5
219
  8
_____1
  6
CONTINUOUS
 62
     0
 10
-1038.445611130981
 20
697.9493008893724
 30
0.0
  0
VERTEX
  5
21A
  8
_____1
  6
CONTINUOUS
 62
     0
 10
-1038.445611130981
 20
697.9493008893724
 30
0.0
  0
VERTEX
  5
21B
  8
_____1
  6
CONTINUOUS
 62
     0
 10
-1050.630566420368
 20
660.1759394922651
 30
0.0
  0
VERTEX
  5
21C
  8
_____1
  6
CONTINUOUS
 62
     0
 10
-1050.630566420368
 20
660.1759394922651
 30
0.0
  0
VERTEX
  5
21D
  8
_____1
  6
CONTINUOUS
 62
     0
 10
-1061.597026180818
 20
634.5875333845447
 30
0.0
  0
VERTEX
  5
21E
  8
_____1
  6
CONTINUOUS
 62
     0
 10
-1061.597026180818
 20
634.5875333845447
 30
0.0
  0
VERTEX
  5
21F
  8
_____1
  6
CONTINUOUS
 62
     0
 10
-1070.1264948834
 20
605.3436406900032
 30
0.0
  0
VERTEX
  5
220
  8
_____1
  6
CONTINUOUS
 62
     0
 10
-1070.1264948834
 20
605.3436406900032
 30
0.0
  0
VERTEX
  5
221
  8
_____1
  6
CONTINUOUS
 62
     0
 10
-1093.277909933233
 20
501.7715207301803
 30
0.0
  0
VERTEX
  5
222
  8
_____1
  6
CONTINUOUS
 62
     0
 10
-1093.277909933233
 20
501.7715207301803
 30
0.0
  0
VERTEX
  5
223
  8
_____1
  6
CONTINUOUS
 62
     0
 10
-1100.588883106875
 20
460.3426727462547
 30
0.0
  0
VERTEX
  5
224
  8
_____1
  6
CONTINUOUS
 62
     0
 10
-1100.588883106875
 20
460.3426727462547
 30
0.0
  0
VERTEX
  5
225
  8
_____1
  6
CONTINUOUS
 62
     0
 10
-1112.773838396264
 20
410.3843560597556
 30
0.0
  0
VERTEX
  5
226
  8
_____1
  6
CONTINUOUS
 62
     0
 10
-1112.773838396264
 20
410.3843560597556
 30
0.0
  0
VERTEX
  5
227
  8
_____1
  6
CONTINUOUS
 62
     0
 10
-1112.773838396264
 20
403.0733828861148
 30
0.0
  0
VERTEX
  5
228
  8
_____1
  6
CONTINUOUS
 62
     0
 10
-1112.773838396264
 20
403.0733828861148
 30
0.0
  0
VERTEX
  5
229
  8
_____1
  6
CONTINUOUS
 62
     0
 10
-1100.588883106875
 20
396.9809052414203
 30
0.0
  0
VERTEX
  5
22A
  8
_____1
  6
CONTINUOUS
 62
     0
 10
-1100.588883106875
 20
396.9809052414203
 30
0.0
  0
VERTEX
  5
22B
  8
_____1
  6
CONTINUOUS
 62
     0
 10
-1101.807378635813
 20
390.8884275967253
 30
0.0
  0
VERTEX
  5
22C
  8
_____1
  6
CONTINUOUS
 62
     0
 10
-1101.807378635813
 20
390.8884275967253
 30
0.0
  0
VERTEX
  5
22D
  8
_____1
  6
CONTINUOUS
 62
     0
 10
-1134.706757917162
 20
327.5266600918953
 30
0.0
  0
VERTEX
  5
22E
  8
_____1
  6
CONTINUOUS
 62
     0
 10
-1134.706757917162
 20
327.5266600918953
 30
0.0
  0
VERTEX
  5
22F
  8
_____1
  6
CONTINUOUS
 62
     0
 10
-1142.017731090809
 20
303.1567495131139
 30
0.0
  0
VERTEX
  5
230
  8
_____1
  6
CONTINUOUS
 62
     0
 10
-1142.017731090809
 20
303.1567495131139
 30
0.0
  0
VERTEX
  5
231
  8
_____1
  6
CONTINUOUS
 62
     0
 10
-1142.017731090809
 20
297.0642718684176
 30
0.0
  0
VERTEX
  5
232
  8
_____1
  6
CONTINUOUS
 62
     0
 10
-1142.017731090809
 20
297.0642718684176
 30
0.0
  0
VERTEX
  5
233
  8
_____1
  6
CONTINUOUS
 62
     0
 10
-1137.143748975052
 20
292.1902897526597
 30
0.0
  0
VERTEX
  5
234
  8
_____1
  6
CONTINUOUS
 62
     0
 10
-1137.143748975052
 20
292.1902897526597
 30
0.0
  0
VERTEX
  5
235
  8
_____1
  6
CONTINUOUS
 62
     0
 10
-1137.143748975052
 20
281.2238299922124
 30
0.0
  0
VERTEX
  5
236
  8
_____1
  6
CONTINUOUS
 62
     0
 10
-1137.143748975052
 20
281.2238299922124
 30
0.0
  0
VERTEX
  5
237
  8
_____1
  6
CONTINUOUS
 62
     0
 10
-1127.395784743538
 20
272.6943612896362
 30
0.0
  0
VERTEX
  5
238
  8
_____1
  6
CONTINUOUS
 62
     0
 10
-1127.395784743538
 20
272.6943612896362
 30
0.0
  0
VERTEX
  5
239
  8
_____1
  6
CONTINUOUS
 62
     0
 10
-1123.740298156716
 20
264.164892587065
 30
0.0
  0
VERTEX
  5
23A
  8
_____1
  6
CONTINUOUS
 62
     0
 10
-1123.740298156716
 20
264.164892587065
 30
0.0
  0
VERTEX
  5
23B
  8
_____1
  6
CONTINUOUS
 62
     0
 10
-1115.210829454149
 20
260.5094060002425
 30
0.0
  0
VERTEX
  5
23C
  8
_____1
  6
CONTINUOUS
 62
     0
 10
-1115.210829454149
 20
260.5094060002425
 30
0.0
  0
VERTEX
  5
23D
  8
_____1
  6
CONTINUOUS
 62
     0
 10
-1111.555342867327
 20
254.416928355548
 30
0.0
  0
VERTEX
  5
23E
  8
_____1
  6
CONTINUOUS
 62
     0
 10
-1111.555342867327
 20
254.416928355548
 30
0.0
  0
VERTEX
  5
23F
  8
_____1
  6
CONTINUOUS
 62
     0
 10
-1101.807378635813
 20
247.1059551819185
 30
0.0
  0
VERTEX
  5
240
  8
_____1
  6
CONTINUOUS
 62
     0
 10
-1101.807378635813
 20
247.1059551819185
 30
0.0
  0
VERTEX
  5
241
  8
_____1
  6
CONTINUOUS
 62
     0
 10
-1096.933396520055
 20
250.7614417687319
 30
0.0
  0
VERTEX
  5
242
  8
_____1
  6
CONTINUOUS
 62
     0
 10
-1096.933396520055
 20
250.7614417687319
 30
0.0
  0
VERTEX
  5
243
  8
_____1
  6
CONTINUOUS
 62
     0
 10
-1098.151892048991
 20
260.5094060002425
 30
0.0
  0
VERTEX
  5
244
  8
_____1
  6
CONTINUOUS
 62
     0
 10
-1098.151892048991
 20
260.5094060002425
 30
0.0
  0
VERTEX
  5
245
  8
_____1
  6
CONTINUOUS
 62
     0
 10
-1082.311450172781
 20
304.3752450420534
 30
0.0
  0
VERTEX
  5
246
  8
_____1
  6
CONTINUOUS
 62
     0
 10
-1082.311450172781
 20
304.3752450420534
 30
0.0
  0
VERTEX
  5
247
  8
_____1
  6
CONTINUOUS
 62
     0
 10
-1078.655963585959
 20
308.0307316288718
 30
0.0
  0
VERTEX
  5
248
  8
_____1
  6
CONTINUOUS
 62
     0
 10
-1078.655963585959
 20
308.0307316288718
 30
0.0
  0
VERTEX
  5
249
  8
_____1
  6
CONTINUOUS
 62
     0
 10
-1077.437468057024
 20
304.3752450420534
 30
0.0
  0
VERTEX
  5
24A
  8
_____1
  6
CONTINUOUS
 62
     0
 10
-1077.437468057024
 20
304.3752450420534
 30
0.0
  0
VERTEX
  5
24B
  8
_____1
  6
CONTINUOUS
 62
     0
 10
-1085.966936759603
 20
280.0053344632729
 30
0.0
  0
VERTEX
  5
24C
  8
_____1
  6
CONTINUOUS
 62
     0
 10
-1085.966936759603
 20
280.0053344632729
 30
0.0
  0
VERTEX
  5
24D
  8
_____1
  6
CONTINUOUS
 62
     0
 10
-1088.403927817477
 20
269.0388747028228
 30
0.0
  0
VERTEX
  5
24E
  8
_____1
  6
CONTINUOUS
 62
     0
 10
-1088.403927817477
 20
269.0388747028228
 30
0.0
  0
VERTEX
  5
24F
  8
_____1
  6
CONTINUOUS
 62
     0
 10
-1084.748441230673
 20
262.9463970581232
 30
0.0
  0
VERTEX
  5
250
  8
_____1
  6
CONTINUOUS
 62
     0
 10
-1084.748441230673
 20
262.9463970581232
 30
0.0
  0
VERTEX
  5
251
  8
_____1
  6
CONTINUOUS
 62
     0
 10
-1078.655963585959
 20
264.164892587065
 30
0.0
  0
VERTEX
  5
252
  8
_____1
  6
CONTINUOUS
 62
     0
 10
-1078.655963585959
 20
264.164892587065
 30
0.0
  0
VERTEX
  5
253
  8
_____1
  6
CONTINUOUS
 62
     0
 10
-1068.907999354464
 20
282.4423255211491
 30
0.0
  0
VERTEX
  5
254
  8
_____1
  6
CONTINUOUS
 62
     0
 10
-1068.907999354464
 20
282.4423255211491
 30
0.0
  0
VERTEX
  5
255
  8
_____1
  6
CONTINUOUS
 62
     0
 10
-1055.504548536126
 20
312.9047137446273
 30
0.0
  0
VERTEX
  5
256
  8
_____1
  6
CONTINUOUS
 62
     0
 10
-1055.504548536126
 20
312.9047137446273
 30
0.0
  0
VERTEX
  5
257
  8
_____1
  6
CONTINUOUS
 62
     0
 10
-1050.630566420368
 20
389.6699320677858
 30
0.0
  0
VERTEX
  5
258
  8
_____1
  6
CONTINUOUS
 62
     0
 10
-1050.630566420368
 20
389.6699320677858
 30
0.0
  0
VERTEX
  5
259
  8
_____1
  6
CONTINUOUS
 62
     0
 10
-1044.538088775675
 20
392.106923125667
 30
0.0
  0
VERTEX
  5
25A
  8
_____1
  6
CONTINUOUS
 62
     0
 10
-1044.538088775675
 20
392.106923125667
 30
0.0
  0
VERTEX
  5
25B
  8
_____1
  6
CONTINUOUS
 62
     0
 10
-1040.882602188854
 20
411.6028515886951
 30
0.0
  0
VERTEX
  5
25C
  8
_____1
  6
CONTINUOUS
 62
     0
 10
-1040.882602188854
 20
411.6028515886951
 30
0.0
  0
VERTEX
  5
25D
  8
_____1
  6
CONTINUOUS
 62
     0
 10
-1032.353133486293
 20
442.0652398121661
 30
0.0
  0
VERTEX
  5
25E
  8
_____1
  6
CONTINUOUS
 62
     0
 10
-1032.353133486293
 20
442.0652398121661
 30
0.0
  0
VERTEX
  5
25F
  8
_____1
  6
CONTINUOUS
 62
     0
 10
-1021.386673725821
 20
499.3345296723037
 30
0.0
  0
VERTEX
  5
260
  8
_____1
  6
CONTINUOUS
 62
     0
 10
-1021.386673725821
 20
499.3345296723037
 30
0.0
  0
VERTEX
  5
261
  8
_____1
  6
CONTINUOUS
 62
     0
 10
-1005.546231849632
 20
565.1332882350152
 30
0.0
  0
VERTEX
  5
262
  8
_____1
  6
CONTINUOUS
 62
     0
 10
-1005.546231849632
 20
565.1332882350152
 30
0.0
  0
VERTEX
  5
263
  8
_____1
  6
CONTINUOUS
 62
     0
 10
-989.7057899734064
 20
608.9991272768175
 30
0.0
  0
VERTEX
  5
264
  8
_____1
  6
CONTINUOUS
 62
     0
 10
-989.7057899734064
 20
608.9991272768175
 30
0.0
  0
VERTEX
  5
265
  8
_____1
  6
CONTINUOUS
 62
     0
 10
-959.2434017499472
 20
678.453372426347
 30
0.0
  0
VERTEX
  5
266
  8
_____1
  6
CONTINUOUS
 62
     0
 10
-959.2434017499472
 20
678.453372426347
 30
0.0
  0
VERTEX
  5
267
  8
_____1
  6
CONTINUOUS
 62
     0
 10
-956.8064106920556
 20
676.0163813684699
 30
0.0
  0
VERTEX
  5
268
  8
_____1
  6
CONTINUOUS
 62
     0
 10
-956.8064106920556
 20
676.0163813684699
 30
0.0
  0
VERTEX
  5
269
  8
_____1
  6
CONTINUOUS
 62
     0
 10
-950.7139330473656
 20
652.8649663186266
 30
0.0
  0
VERTEX
  5
26A
  8
_____1
  6
CONTINUOUS
 62
     0
 10
-950.7139330473656
 20
652.8649663186266
 30
0.0
  0
VERTEX
  5
26B
  8
_____1
  6
CONTINUOUS
 62
     0
 10
-948.2769419894757
 20
635.8060289134814
 30
0.0
  0
VERTEX
  5
26C
  8
_____1
  6
CONTINUOUS
 62
     0
 10
-948.2769419894757
 20
635.8060289134814
 30
0.0
  0
VERTEX
  5
26D
  8
_____1
  6
CONTINUOUS
 62
     0
 10
-948.2769419894757
 20
613.8731093925749
 30
0.0
  0
VERTEX
  5
26E
  8
_____1
  6
CONTINUOUS
 62
     0
 10
-948.2769419894757
 20
613.8731093925749
 30
0.0
  0
VERTEX
  5
26F
  8
_____1
  6
CONTINUOUS
 62
     0
 10
-987.2687989155384
 20
502.9900162591175
 30
0.0
  0
VERTEX
  5
270
  8
_____1
  6
CONTINUOUS
 62
     0
 10
-987.2687989155384
 20
502.9900162591175
 30
0.0
  0
VERTEX
  5
271
  8
_____1
  6
CONTINUOUS
 62
     0
 10
-1006.76472737857
 20
432.3172755806536
 30
0.0
  0
VERTEX
  5
272
  8
_____1
  6
CONTINUOUS
 62
     0
 10
-1006.76472737857
 20
432.3172755806536
 30
0.0
  0
VERTEX
  5
273
  8
_____1
  6
CONTINUOUS
 62
     0
 10
-1004.327736320694
 20
427.443293464898
 30
0.0
  0
VERTEX
  5
274
  8
_____1
  6
CONTINUOUS
 62
     0
 10
-1004.327736320694
 20
427.443293464898
 30
0.0
  0
VERTEX
  5
275
  8
_____1
  6
CONTINUOUS
 62
     0
 10
-993.3612765602302
 20
421.3508158202035
 30
0.0
  0
VERTEX
  5
276
  8
_____1
  6
CONTINUOUS
 62
     0
 10
-993.3612765602302
 20
421.3508158202035
 30
0.0
  0
VERTEX
  5
277
  8
_____1
  6
CONTINUOUS
 62
     0
 10
-988.4872944444742
 20
388.4514365388491
 30
0.0
  0
VERTEX
  5
278
  8
_____1
  6
CONTINUOUS
 62
     0
 10
-988.4872944444742
 20
388.4514365388491
 30
0.0
  0
VERTEX
  5
279
  8
_____1
  6
CONTINUOUS
 62
     0
 10
-978.7393302129767
 20
364.0815259600654
 30
0.0
  0
VERTEX
  5
27A
  8
_____1
  6
CONTINUOUS
 62
     0
 10
-978.7393302129767
 20
364.0815259600654
 30
0.0
  0
VERTEX
  5
27B
  8
_____1
  6
CONTINUOUS
 62
     0
 10
-979.9578257418907
 20
349.4595796127978
 30
0.0
  0
VERTEX
  5
27C
  8
_____1
  6
CONTINUOUS
 62
     0
 10
-979.9578257418907
 20
349.4595796127978
 30
0.0
  0
VERTEX
  5
27D
  8
_____1
  6
CONTINUOUS
 62
     0
 10
-1010.42021396539
 20
222.7360446031303
 30
0.0
  0
VERTEX
  5
27E
  8
_____1
  6
CONTINUOUS
 62
     0
 10
-1010.42021396539
 20
222.7360446031303
 30
0.0
  0
VERTEX
  5
27F
  8
_____1
  6
CONTINUOUS
 62
     0
 10
-1032.353133486293
 20
143.5338352220951
 30
0.0
  0
VERTEX
  5
280
  8
_____1
  6
CONTINUOUS
 62
     0
 10
-1032.353133486293
 20
143.5338352220951
 30
0.0
  0
VERTEX
  5
281
  8
_____1
  6
CONTINUOUS
 62
     0
 10
-1045.756584304612
 20
117.9454291143743
 30
0.0
  0
VERTEX
  5
282
  8
_____1
  6
CONTINUOUS
 62
     0
 10
-1045.756584304612
 20
117.9454291143743
 30
0.0
  0
VERTEX
  5
283
  8
_____1
  6
CONTINUOUS
 62
     0
 10
-1050.630566420368
 20
102.1049872381673
 30
0.0
  0
VERTEX
  5
284
  8
_____1
  6
CONTINUOUS
 62
     0
 10
-1050.630566420368
 20
102.1049872381673
 30
0.0
  0
VERTEX
  5
285
  8
_____1
  6
CONTINUOUS
 62
     0
 10
-1072.563485941266
 20
76.51658113044414
 30
0.0
  0
VERTEX
  5
286
  8
_____1
  6
CONTINUOUS
 62
     0
 10
-1072.563485941266
 20
76.51658113044414
 30
0.0
  0
VERTEX
  5
287
  8
_____1
  6
CONTINUOUS
 62
     0
 10
-1104.244369693684
 20
25.33976891500834
 30
0.0
  0
VERTEX
  5
288
  8
_____1
  6
CONTINUOUS
 62
     0
 10
-1104.244369693684
 20
25.33976891500834
 30
0.0
  0
VERTEX
  5
289
  8
_____1
  6
CONTINUOUS
 62
     0
 10
-1143.236226619745
 20
-56.29943152390797
 30
0.0
  0
VERTEX
  5
28A
  8
_____1
  6
CONTINUOUS
 62
     0
 10
-1143.236226619745
 20
-56.29943152390797
 30
0.0
  0
VERTEX
  5
28B
  8
_____1
  6
CONTINUOUS
 62
     0
 10
-1170.043128256402
 20
-122.0981900866195
 30
0.0
  0
VERTEX
  5
28C
  8
_____1
  6
CONTINUOUS
 62
     0
 10
-1170.043128256402
 20
-122.0981900866195
 30
0.0
  0
VERTEX
  5
28D
  8
_____1
  6
CONTINUOUS
 62
     0
 10
-1212.690471769265
 20
-215.9223458149322
 30
0.0
  0
VERTEX
  5
28E
  8
_____1
  6
CONTINUOUS
 62
     0
 10
-1212.690471769265
 20
-215.9223458149322
 30
0.0
  0
VERTEX
  5
28F
  8
_____1
  6
CONTINUOUS
 62
     0
 10
-1212.690471769265
 20
-220.7963279306855
 30
0.0
  0
VERTEX
  5
290
  8
_____1
  6
CONTINUOUS
 62
     0
 10
-1212.690471769265
 20
-220.7963279306855
 30
0.0
  0
VERTEX
  5
291
  8
_____1
  6
CONTINUOUS
 62
     0
 10
-1200.505516479883
 20
-229.3257966332608
 30
0.0
  0
VERTEX
  5
292
  8
_____1
  6
CONTINUOUS
 62
     0
 10
-1200.505516479883
 20
-229.3257966332608
 30
0.0
  0
VERTEX
  5
293
  8
_____1
  6
CONTINUOUS
 62
     0
 10
-1198.068525421994
 20
-232.9812832200746
 30
0.0
  0
VERTEX
  5
294
  8
_____1
  6
CONTINUOUS
 62
     0
 10
-1198.068525421994
 20
-232.9812832200746
 30
0.0
  0
VERTEX
  5
295
  8
_____1
  6
CONTINUOUS
 62
     0
 10
-1210.253480711397
 20
-250.0402206252261
 30
0.0
  0
VERTEX
  5
296
  8
_____1
  6
CONTINUOUS
 62
     0
 10
-1210.253480711397
 20
-250.0402206252261
 30
0.0
  0
VERTEX
  5
297
  8
_____1
  6
CONTINUOUS
 62
     0
 10
-1238.278877876988
 20
-276.8471222618878
 30
0.0
  0
VERTEX
  5
298
  8
_____1
  6
CONTINUOUS
 62
     0
 10
-1238.278877876988
 20
-276.8471222618878
 30
0.0
  0
VERTEX
  5
299
  8
_____1
  6
CONTINUOUS
 62
     0
 10
-1249.24533763744
 20
-296.3430507249091
 30
0.0
  0
VERTEX
  5
29A
  8
_____1
  6
CONTINUOUS
 62
     0
 10
-1249.24533763744
 20
-296.3430507249091
 30
0.0
  0
VERTEX
  5
29B
  8
_____1
  6
CONTINUOUS
 62
     0
 10
-1252.900824224244
 20
-310.9649970721753
 30
0.0
  0
VERTEX
  5
29C
  8
_____1
  6
CONTINUOUS
 62
     0
 10
-1252.900824224244
 20
-310.9649970721753
 30
0.0
  0
VERTEX
  5
29D
  8
_____1
  6
CONTINUOUS
 62
     0
 10
-1256.556310811066
 20
-358.4863227008045
 30
0.0
  0
VERTEX
  5
29E
  8
_____1
  6
CONTINUOUS
 62
     0
 10
-1256.556310811066
 20
-358.4863227008045
 30
0.0
  0
VERTEX
  5
29F
  8
_____1
  6
CONTINUOUS
 62
     0
 10
-1265.085779513645
 20
-393.8226930400356
 30
0.0
  0
VERTEX
  5
2A0
  8
_____1
  6
CONTINUOUS
 62
     0
 10
-1265.085779513645
 20
-393.8226930400356
 30
0.0
  0
VERTEX
  5
2A1
  8
_____1
  6
CONTINUOUS
 62
     0
 10
-1255.33781528213
 20
-399.9151706847347
 30
0.0
  0
VERTEX
  5
2A2
  8
_____1
  6
CONTINUOUS
 62
     0
 10
-1255.33781528213
 20
-399.9151706847347
 30
0.0
  0
VERTEX
  5
2A3
  8
_____1
  6
CONTINUOUS
 62
     0
 10
-1252.900824224244
 20
-398.6966751557907
 30
0.0
  0
VERTEX
  5
2A4
  8
_____1
  6
CONTINUOUS
 62
     0
 10
-1252.900824224244
 20
-398.6966751557907
 30
0.0
  0
VERTEX
  5
2A5
  8
_____1
  6
CONTINUOUS
 62
     0
 10
-1241.93436446381
 20
-369.4527824612542
 30
0.0
  0
VERTEX
  5
2A6
  8
_____1
  6
CONTINUOUS
 62
     0
 10
-1241.93436446381
 20
-369.4527824612542
 30
0.0
  0
VERTEX
  5
2A7
  8
_____1
  6
CONTINUOUS
 62
     0
 10
-1232.186400232295
 20
-351.1753495271682
 30
0.0
  0
VERTEX
  5
2A8
  8
_____1
  6
CONTINUOUS
 62
     0
 10
-1232.186400232295
 20
-351.1753495271682
 30
0.0
  0
VERTEX
  5
2A9
  8
_____1
  6
CONTINUOUS
 62
     0
 10
-1226.093922587603
 20
-345.0828718824714
 30
0.0
  0
VERTEX
  5
2AA
  8
_____1
  6
CONTINUOUS
 62
     0
 10
-1226.093922587603
 20
-345.0828718824714
 30
0.0
  0
VERTEX
  5
2AB
  8
_____1
  6
CONTINUOUS
 62
     0
 10
-1216.345958356087
 20
-354.8308361139884
 30
0.0
  0
VERTEX
  5
2AC
  8
_____1
  6
CONTINUOUS
 62
     0
 10
-1216.345958356087
 20
-354.8308361139884
 30
0.0
  0
VERTEX
  5
2AD
  8
_____1
  6
CONTINUOUS
 62
     0
 10
-1207.816489653507
 20
-367.0157914033712
 30
0.0
  0
VERTEX
  5
2AE
  8
_____1
  6
CONTINUOUS
 62
     0
 10
-1207.816489653507
 20
-367.0157914033712
 30
0.0
  0
VERTEX
  5
2AF
  8
_____1
  6
CONTINUOUS
 62
     0
 10
-1195.631534364124
 20
-390.1672064532218
 30
0.0
  0
VERTEX
  5
2B0
  8
_____1
  6
CONTINUOUS
 62
     0
 10
-1195.631534364124
 20
-390.1672064532218
 30
0.0
  0
VERTEX
  5
2B1
  8
_____1
  6
CONTINUOUS
 62
     0
 10
-1185.88357013261
 20
-415.7556125609394
 30
0.0
  0
VERTEX
  5
2B2
  8
_____1
  6
CONTINUOUS
 62
     0
 10
-1185.88357013261
 20
-415.7556125609394
 30
0.0
  0
VERTEX
  5
2B3
  8
_____1
  6
CONTINUOUS
 62
     0
 10
-1174.917110372158
 20
-429.1590633792684
 30
0.0
  0
VERTEX
  5
2B4
  8
_____1
  6
CONTINUOUS
 62
     0
 10
-1174.917110372158
 20
-429.1590633792684
 30
0.0
  0
VERTEX
  5
2B5
  8
_____1
  6
CONTINUOUS
 62
     0
 10
-1160.295164024885
 20
-435.2515410239657
 30
0.0
  0
VERTEX
  5
2B6
  8
_____1
  6
CONTINUOUS
 62
     0
 10
-1160.295164024885
 20
-435.2515410239657
 30
0.0
  0
VERTEX
  5
2B7
  8
_____1
  6
CONTINUOUS
 62
     0
 10
-1139.580740032918
 20
-438.9070276107818
 30
0.0
  0
VERTEX
  5
2B8
  8
_____1
  6
CONTINUOUS
 62
     0
 10
-1139.580740032918
 20
-438.9070276107818
 30
0.0
  0
VERTEX
  5
2B9
  8
_____1
  6
CONTINUOUS
 62
     0
 10
-1106.681360751569
 20
-438.9070276107818
 30
0.0
  0
VERTEX
  5
2BA
  8
_____1
  6
CONTINUOUS
 62
     0
 10
-1106.681360751569
 20
-438.9070276107818
 30
0.0
  0
VERTEX
  5
2BB
  8
_____1
  6
CONTINUOUS
 62
     0
 10
-1082.311450172781
 20
-435.2515410239657
 30
0.0
  0
VERTEX
  5
2BC
  8
_____1
  6
CONTINUOUS
 62
     0
 10
-1082.311450172781
 20
-435.2515410239657
 30
0.0
  0
VERTEX
  5
2BD
  8
_____1
  6
CONTINUOUS
 62
     0
 10
-1077.437468057024
 20
-432.8145499660891
 30
0.0
  0
VERTEX
  5
2BE
  8
_____1
  6
CONTINUOUS
 62
     0
 10
-1077.437468057024
 20
-432.8145499660891
 30
0.0
  0
VERTEX
  5
2BF
  8
_____1
  6
CONTINUOUS
 62
     0
 10
-1076.218972528088
 20
-423.0665857345762
 30
0.0
  0
VERTEX
  5
2C0
  8
_____1
  6
CONTINUOUS
 62
     0
 10
-1076.218972528088
 20
-423.0665857345762
 30
0.0
  0
VERTEX
  5
2C1
  8
_____1
  6
CONTINUOUS
 62
     0
 10
-1081.092954643846
 20
-418.1926036188161
 30
0.0
  0
VERTEX
  5
2C2
  8
_____1
  6
CONTINUOUS
 62
     0
 10
-1081.092954643846
 20
-418.1926036188161
 30
0.0
  0
VERTEX
  5
2C3
  8
_____1
  6
CONTINUOUS
 62
     0
 10
-1127.395784743538
 20
-397.4781796268517
 30
0.0
  0
VERTEX
  5
2C4
  8
_____1
  6
CONTINUOUS
 62
     0
 10
-1127.395784743538
 20
-397.4781796268517
 30
0.0
  0
VERTEX
  5
2C5
  8
_____1
  6
CONTINUOUS
 62
     0
 10
-1131.051271330358
 20
-391.3857019821589
 30
0.0
  0
VERTEX
  5
2C6
  8
_____1
  6
CONTINUOUS
 62
     0
 10
-1131.051271330358
 20
-391.3857019821589
 30
0.0
  0
VERTEX
  5
2C7
  8
_____1
  6
CONTINUOUS
 62
     0
 10
-1135.925253446098
 20
-370.6712779901936
 30
0.0
  0
VERTEX
  5
2C8
  8
_____1
  6
CONTINUOUS
 62
     0
 10
-1135.925253446098
 20
-370.6712779901936
 30
0.0
  0
VERTEX
  5
2C9
  8
_____1
  6
CONTINUOUS
 62
     0
 10
-1142.017731090809
 20
-320.7129613036946
 30
0.0
  0
VERTEX
  5
2CA
  8
_____1
  6
CONTINUOUS
 62
     0
 10
-1142.017731090809
 20
-320.7129613036946
 30
0.0
  0
VERTEX
  5
2CB
  8
_____1
  6
CONTINUOUS
 62
     0
 10
-1142.017731090809
 20
-296.3430507249091
 30
0.0
  0
VERTEX
  5
2CC
  8
_____1
  6
CONTINUOUS
 62
     0
 10
-1142.017731090809
 20
-296.3430507249091
 30
0.0
  0
VERTEX
  5
2CD
  8
_____1
  6
CONTINUOUS
 62
     0
 10
-1137.143748975052
 20
-268.3176535593079
 30
0.0
  0
VERTEX
  5
2CE
  8
_____1
  6
CONTINUOUS
 62
     0
 10
-1137.143748975052
 20
-268.3176535593079
 30
0.0
  0
VERTEX
  5
2CF
  8
_____1
  6
CONTINUOUS
 62
     0
 10
-1133.488262388231
 20
-261.0066803856757
 30
0.0
  0
VERTEX
  5
2D0
  8
_____1
  6
CONTINUOUS
 62
     0
 10
-1133.488262388231
 20
-261.0066803856757
 30
0.0
  0
VERTEX
  5
2D1
  8
_____1
  6
CONTINUOUS
 62
     0
 10
-1115.210829454149
 20
-268.3176535593079
 30
0.0
  0
VERTEX
  5
2D2
  8
_____1
  6
CONTINUOUS
 62
     0
 10
-1115.210829454149
 20
-268.3176535593079
 30
0.0
  0
VERTEX
  5
2D3
  8
_____1
  6
CONTINUOUS
 62
     0
 10
-1109.118351809442
 20
-267.0991580303685
 30
0.0
  0
VERTEX
  5
2D4
  8
_____1
  6
CONTINUOUS
 62
     0
 10
-1109.118351809442
 20
-267.0991580303685
 30
0.0
  0
VERTEX
  5
2D5
  8
_____1
  6
CONTINUOUS
 62
     0
 10
-1029.916142428401
 20
-91.63580186314175
 30
0.0
  0
VERTEX
  5
2D6
  8
_____1
  6
CONTINUOUS
 62
     0
 10
-1029.916142428401
 20
-91.63580186314175
 30
0.0
  0
VERTEX
  5
2D7
  8
_____1
  6
CONTINUOUS
 62
     0
 10
-1003.109240791748
 20
-38.02199858982658
 30
0.0
  0
VERTEX
  5
2D8
  8
_____1
  6
CONTINUOUS
 62
     0
 10
-1003.109240791748
 20
-38.02199858982658
 30
0.0
  0
VERTEX
  5
2D9
  8
_____1
  6
CONTINUOUS
 62
     0
 10
-979.9578257418907
 20
3.406849394103574
 30
0.0
  0
VERTEX
  5
2DA
  8
_____1
  6
CONTINUOUS
 62
     0
 10
-979.9578257418907
 20
3.406849394103574
 30
0.0
  0
VERTEX
  5
2DB
  8
_____1
  6
CONTINUOUS
 62
     0
 10
-927.5625179975286
 20
82.60905877513915
 30
0.0
  0
VERTEX
  5
2DC
  8
_____1
  6
CONTINUOUS
 62
     0
 10
-927.5625179975286
 20
82.60905877513915
 30
0.0
  0
VERTEX
  5
2DD
  8
_____1
  6
CONTINUOUS
 62
     0
 10
-911.7220761213248
 20
114.2899425275564
 30
0.0
  0
VERTEX
  5
2DE
  8
_____1
  6
CONTINUOUS
 62
     0
 10
-911.7220761213248
 20
114.2899425275564
 30
0.0
  0
VERTEX
  5
2DF
  8
_____1
  6
CONTINUOUS
 62
     0
 10
-881.259687897842
 20
184.962683206023
 30
0.0
  0
VERTEX
  5
2E0
  8
_____1
  6
CONTINUOUS
 62
     0
 10
-881.259687897842
 20
184.962683206023
 30
0.0
  0
VERTEX
  5
2E1
  8
_____1
  6
CONTINUOUS
 62
     0
 10
-872.7302191952622
 20
200.8031250822351
 30
0.0
  0
VERTEX
  5
2E2
  8
_____1
  6
CONTINUOUS
 62
     0
 10
-872.7302191952622
 20
200.8031250822351
 30
0.0
  0
VERTEX
  5
2E3
  8
_____1
  6
CONTINUOUS
 62
     0
 10
-866.6377415505685
 20
208.1140982558645
 30
0.0
  0
VERTEX
  5
2E4
  8
_____1
  6
CONTINUOUS
 62
     0
 10
-866.6377415505685
 20
208.1140982558645
 30
0.0
  0
VERTEX
  5
2E5
  8
_____1
  6
CONTINUOUS
 62
     0
 10
-823.9903980377057
 20
119.1639246433115
 30
0.0
  0
VERTEX
  5
2E6
  8
_____1
  6
CONTINUOUS
 62
     0
 10
-823.9903980377057
 20
119.1639246433115
 30
0.0
  0
VERTEX
  5
2E7
  8
_____1
  6
CONTINUOUS
 62
     0
 10
-800.8389829878688
 20
75.29808560150514
 30
0.0
  0
VERTEX
  5
2E8
  8
_____1
  6
CONTINUOUS
 62
     0
 10
-800.8389829878688
 20
75.29808560150514
 30
0.0
  0
VERTEX
  5
2E9
  8
_____1
  6
CONTINUOUS
 62
     0
 10
-799.6204874589166
 20
58.23914819636275
 30
0.0
  0
VERTEX
  5
2EA
  8
_____1
  6
CONTINUOUS
 62
     0
 10
-799.6204874589166
 20
58.23914819636275
 30
0.0
  0
VERTEX
  5
2EB
  8
_____1
  6
CONTINUOUS
 62
     0
 10
-791.091018756355
 20
10.71782256773304
 30
0.0
  0
VERTEX
  5
2EC
  8
_____1
  6
CONTINUOUS
 62
     0
 10
-791.091018756355
 20
10.71782256773304
 30
0.0
  0
VERTEX
  5
2ED
  8
_____1
  6
CONTINUOUS
 62
     0
 10
-776.4690724090833
 20
-53.86244046603179
 30
0.0
  0
VERTEX
  5
2EE
  8
_____1
  6
CONTINUOUS
 62
     0
 10
-776.4690724090833
 20
-53.86244046603179
 30
0.0
  0
VERTEX
  5
2EF
  8
_____1
  6
CONTINUOUS
 62
     0
 10
-735.0402244251491
 20
-191.5524352361513
 30
0.0
  0
VERTEX
  5
2F0
  8
_____1
  6
CONTINUOUS
 62
     0
 10
-735.0402244251491
 20
-191.5524352361513
 30
0.0
  0
VERTEX
  5
2F1
  8
_____1
  6
CONTINUOUS
 62
     0
 10
-703.3593406727377
 20
-289.0320775512773
 30
0.0
  0
VERTEX
  5
2F2
  8
_____1
  6
CONTINUOUS
 62
     0
 10
-703.3593406727377
 20
-289.0320775512773
 30
0.0
  0
VERTEX
  5
2F3
  8
_____1
  6
CONTINUOUS
 62
     0
 10
-699.7038540859157
 20
-293.9060596670324
 30
0.0
  0
VERTEX
  5
2F4
  8
_____1
  6
CONTINUOUS
 62
     0
 10
-699.7038540859157
 20
-293.9060596670324
 30
0.0
  0
VERTEX
  5
2F5
  8
_____1
  6
CONTINUOUS
 62
     0
 10
-674.1154479781908
 20
-287.8135820223401
 30
0.0
  0
VERTEX
  5
2F6
  8
_____1
  6
CONTINUOUS
 62
     0
 10
-674.1154479781908
 20
-287.8135820223401
 30
0.0
  0
VERTEX
  5
2F7
  8
_____1
  6
CONTINUOUS
 62
     0
 10
-670.459961391387
 20
-293.9060596670324
 30
0.0
  0
VERTEX
  5
2F8
  8
_____1
  6
CONTINUOUS
 62
     0
 10
-670.459961391387
 20
-293.9060596670324
 30
0.0
  0
VERTEX
  5
2F9
  8
_____1
  6
CONTINUOUS
 62
     0
 10
-671.6784569203228
 20
-304.8725194274848
 30
0.0
  0
VERTEX
  5
2FA
  8
_____1
  6
CONTINUOUS
 62
     0
 10
-671.6784569203228
 20
-304.8725194274848
 30
0.0
  0
VERTEX
  5
2FB
  8
_____1
  6
CONTINUOUS
 62
     0
 10
-682.6449166807706
 20
-330.4609255352029
 30
0.0
  0
VERTEX
  5
2FC
  8
_____1
  6
CONTINUOUS
 62
     0
 10
-682.6449166807706
 20
-330.4609255352029
 30
0.0
  0
VERTEX
  5
2FD
  8
_____1
  6
CONTINUOUS
 62
     0
 10
-683.8634122097264
 20
-347.5198629403453
 30
0.0
  0
VERTEX
  5
2FE
  8
_____1
  6
CONTINUOUS
 62
     0
 10
-683.8634122097264
 20
-347.5198629403453
 30
0.0
  0
VERTEX
  5
2FF
  8
_____1
  6
CONTINUOUS
 62
     0
 10
-680.2079256229044
 20
-365.7972958744344
 30
0.0
  0
VERTEX
  5
300
  8
_____1
  6
CONTINUOUS
 62
     0
 10
-680.2079256229044
 20
-365.7972958744344
 30
0.0
  0
VERTEX
  5
301
  8
_____1
  6
CONTINUOUS
 62
     0
 10
-665.585979275631
 20
-403.5706572715485
 30
0.0
  0
VERTEX
  5
302
  8
_____1
  6
CONTINUOUS
 62
     0
 10
-665.585979275631
 20
-403.5706572715485
 30
0.0
  0
VERTEX
  5
303
  8
_____1
  6
CONTINUOUS
 62
     0
 10
-661.930492688809
 20
-419.4110991477555
 30
0.0
  0
VERTEX
  5
304
  8
_____1
  6
CONTINUOUS
 62
     0
 10
-661.930492688809
 20
-419.4110991477555
 30
0.0
  0
VERTEX
  5
305
  8
_____1
  6
CONTINUOUS
 62
     0
 10
-660.7119971598731
 20
-437.6885320818424
 30
0.0
  0
VERTEX
  5
306
  8
_____1
  6
CONTINUOUS
 62
     0
 10
-660.7119971598731
 20
-437.6885320818424
 30
0.0
  0
VERTEX
  5
307
  8
_____1
  6
CONTINUOUS
 62
     0
 10
-643.6530597547098
 20
-437.6885320818424
 30
0.0
  0
VERTEX
  5
308
  8
_____1
  6
CONTINUOUS
 62
     0
 10
-643.6530597547098
 20
-437.6885320818424
 30
0.0
  0
VERTEX
  5
309
  8
_____1
  6
CONTINUOUS
 62
     0
 10
-642.4345642257758
 20
-391.3857019821589
 30
0.0
  0
VERTEX
  5
30A
  8
_____1
  6
CONTINUOUS
 62
     0
 10
-642.4345642257758
 20
-391.3857019821589
 30
0.0
  0
VERTEX
  5
30B
  8
_____1
  6
CONTINUOUS
 62
     0
 10
-641.2160686968418
 20
-384.0747288085227
 30
0.0
  0
VERTEX
  5
30C
  8
_____1
  6
CONTINUOUS
 62
     0
 10
-641.2160686968418
 20
-384.0747288085227
 30
0.0
  0
VERTEX
  5
30D
  8
_____1
  6
CONTINUOUS
 62
     0
 10
-638.7790776389702
 20
-381.637737750646
 30
0.0
  0
VERTEX
  5
30E
  8
_____1
  6
CONTINUOUS
 62
     0
 10
-638.7790776389702
 20
-381.637737750646
 30
0.0
  0
VERTEX
  5
30F
  8
_____1
  6
CONTINUOUS
 62
     0
 10
-629.0311134074545
 20
-384.0747288085227
 30
0.0
  0
VERTEX
  5
310
  8
_____1
  6
CONTINUOUS
 62
     0
 10
-629.0311134074545
 20
-384.0747288085227
 30
0.0
  0
VERTEX
  5
311
  8
_____1
  6
CONTINUOUS
 62
     0
 10
-611.9721760022967
 20
-393.8226930400356
 30
0.0
  0
VERTEX
  5
312
  8
_____1
  6
CONTINUOUS
 62
     0
 10
-611.9721760022967
 20
-393.8226930400356
 30
0.0
  0
VERTEX
  5
313
  8
_____1
  6
CONTINUOUS
 62
     0
 10
-591.2577520103478
 20
-408.4446393873036
 30
0.0
  0
VERTEX
  5
314
  8
_____1
  6
CONTINUOUS
 62
     0
 10
-591.2577520103478
 20
-408.4446393873036
 30
0.0
  0
VERTEX
  5
315
  8
_____1
  6
CONTINUOUS
 62
     0
 10
-571.7618235473165
 20
-425.5035767924528
 30
0.0
  0
VERTEX
  5
316
  8
_____1
  6
CONTINUOUS
 62
     0
 10
-571.7618235473165
 20
-425.5035767924528
 30
0.0
  0
VERTEX
  5
317
  8
_____1
  6
CONTINUOUS
 62
     0
 10
-560.7953637868522
 20
-432.8145499660891
 30
0.0
  0
VERTEX
  5
318
  8
_____1
  6
CONTINUOUS
 62
     0
 10
-560.7953637868522
 20
-432.8145499660891
 30
0.0
  0
VERTEX
  5
319
  8
_____1
  6
CONTINUOUS
 62
     0
 10
-548.6104084974668
 20
-437.6885320818424
 30
0.0
  0
VERTEX
  5
31A
  8
_____1
  6
CONTINUOUS
 62
     0
 10
-548.6104084974668
 20
-437.6885320818424
 30
0.0
  0
VERTEX
  5
31B
  8
_____1
  6
CONTINUOUS
 62
     0
 10
-502.3075783977984
 20
-438.9070276107818
 30
0.0
  0
VERTEX
  5
31C
  8
_____1
  6
CONTINUOUS
 62
     0
 10
-502.3075783977984
 20
-438.9070276107818
 30
0.0
  0
VERTEX
  5
31D
  8
_____1
  6
CONTINUOUS
 62
     0
 10
-453.5677572402201
 20
-431.5960544371496
 30
0.0
  0
VERTEX
  5
31E
  8
_____1
  6
CONTINUOUS
 62
     0
 10
-453.5677572402201
 20
-431.5960544371496
 30
0.0
  0
VERTEX
  5
31F
  8
_____1
  6
CONTINUOUS
 62
     0
 10
-447.4752795955283
 20
-429.1590633792684
 30
0.0
  0
VERTEX
  5
320
  8
_____1
  6
CONTINUOUS
 62
     0
 10
-447.4752795955283
 20
-429.1590633792684
 30
0.0
  0
VERTEX
  5
321
  8
_____1
  6
CONTINUOUS
 62
     0
 10
-445.0382885376603
 20
-425.5035767924528
 30
0.0
  0
VERTEX
  5
322
  8
_____1
  6
CONTINUOUS
 62
     0
 10
-445.0382885376603
 20
-425.5035767924528
 30
0.0
  0
VERTEX
  5
323
  8
_____1
  6
CONTINUOUS
 62
     0
 10
-447.4752795955283
 20
-416.9741080898771
 30
0.0
  0
VERTEX
  5
324
  8
_____1
  6
CONTINUOUS
 62
     0
 10
-447.4752795955283
 20
-416.9741080898771
 30
0.0
  0
VERTEX
  5
325
  8
_____1
  6
CONTINUOUS
 62
     0
 10
-452.3492617112861
 20
-412.1001259741197
 30
0.0
  0
VERTEX
  5
326
  8
_____1
  6
CONTINUOUS
 62
     0
 10
-452.3492617112861
 20
-412.1001259741197
 30
0.0
  0
VERTEX
  5
327
  8
_____1
  6
CONTINUOUS
 62
     0
 10
-465.7527125296037
 20
-406.007648329427
 30
0.0
  0
VERTEX
  5
328
  8
_____1
  6
CONTINUOUS
 62
     0
 10
-465.7527125296037
 20
-406.007648329427
 30
0.0
  0
VERTEX
  5
329
  8
_____1
  6
CONTINUOUS
 62
     0
 10
-509.6185515714224
 20
-395.041188568975
 30
0.0
  0
VERTEX
  5
32A
  8
_____1
  6
CONTINUOUS
 62
     0
 10
-509.6185515714224
 20
-395.041188568975
 30
0.0
  0
VERTEX
  5
32B
  8
_____1
  6
CONTINUOUS
 62
     0
 10
-521.8035068608096
 20
-384.0747288085227
 30
0.0
  0
VERTEX
  5
32C
  8
_____1
  6
CONTINUOUS
 62
     0
 10
-521.8035068608096
 20
-384.0747288085227
 30
0.0
  0
VERTEX
  5
32D
  8
_____1
  6
CONTINUOUS
 62
     0
 10
-581.5097877788321
 20
-302.4355283696063
 30
0.0
  0
VERTEX
  5
32E
  8
_____1
  6
CONTINUOUS
 62
     0
 10
-581.5097877788321
 20
-302.4355283696063
 30
0.0
  0
VERTEX
  5
32F
  8
_____1
  6
CONTINUOUS
 62
     0
 10
-598.5687251839772
 20
-265.880662501429
 30
0.0
  0
VERTEX
  5
330
  8
_____1
  6
CONTINUOUS
 62
     0
 10
-598.5687251839772
 20
-265.880662501429
 30
0.0
  0
VERTEX
  5
331
  8
_____1
  6
CONTINUOUS
 62
     0
 10
-597.3502296550414
 20
-263.4436714435546
 30
0.0
  0
VERTEX
  5
332
  8
_____1
  6
CONTINUOUS
 62
     0
 10
-597.3502296550414
 20
-263.4436714435546
 30
0.0
  0
VERTEX
  5
333
  8
_____1
  6
CONTINUOUS
 62
     0
 10
-587.6022654235276
 20
-259.788184856739
 30
0.0
  0
VERTEX
  5
334
  8
_____1
  6
CONTINUOUS
 62
     0
 10
-587.6022654235276
 20
-259.788184856739
 30
0.0
  0
VERTEX
  5
335
  8
_____1
  6
CONTINUOUS
 62
     0
 10
-583.9467788367056
 20
-254.9142027409789
 30
0.0
  0
VERTEX
  5
336
  8
_____1
  6
CONTINUOUS
 62
     0
 10
-583.9467788367056
 20
-254.9142027409789
 30
0.0
  0
VERTEX
  5
337
  8
_____1
  6
CONTINUOUS
 62
     0
 10
-614.4091670601847
 20
-183.0229665335751
 30
0.0
  0
VERTEX
  5
338
  8
_____1
  6
CONTINUOUS
 62
     0
 10
-614.4091670601847
 20
-183.0229665335751
 30
0.0
  0
VERTEX
  5
339
  8
_____1
  6
CONTINUOUS
 62
     0
 10
-646.0900508125997
 20
-84.32482868951001
 30
0.0
  0
VERTEX
  5
33A
  8
_____1
  6
CONTINUOUS
 62
     0
 10
-646.0900508125997
 20
-84.32482868951001
 30
0.0
  0
VERTEX
  5
33B
  8
_____1
  6
CONTINUOUS
 62
     0
 10
-660.7119971598731
 20
-29.49252988725084
 30
0.0
  0
VERTEX
  5
33C
  8
_____1
  6
CONTINUOUS
 62
     0
 10
-660.7119971598731
 20
-29.49252988725084
 30
0.0
  0
VERTEX
  5
33D
  8
_____1
  6
CONTINUOUS
 62
     0
 10
-683.8634122097264
 20
83.82755430408315
 30
0.0
  0
VERTEX
  5
33E
  8
_____1
  6
CONTINUOUS
 62
     0
 10
-683.8634122097264
 20
83.82755430408315
 30
0.0
  0
VERTEX
  5
33F
  8
_____1
  6
CONTINUOUS
 62
     0
 10
-689.9558898544001
 20
136.2228620484611
 30
0.0
  0
VERTEX
  5
340
  8
_____1
  6
CONTINUOUS
 62
     0
 10
-689.9558898544001
 20
136.2228620484611
 30
0.0
  0
VERTEX
  5
341
  8
_____1
  6
CONTINUOUS
 62
     0
 10
-696.0483674991101
 20
160.5927726272416
 30
0.0
  0
VERTEX
  5
342
  8
_____1
  6
CONTINUOUS
 62
     0
 10
-696.0483674991101
 20
160.5927726272416
 30
0.0
  0
VERTEX
  5
343
  8
_____1
  6
CONTINUOUS
 62
     0
 10
-752.0991618302942
 20
332.4006422076486
 30
0.0
  0
VERTEX
  5
344
  8
_____1
  6
CONTINUOUS
 62
     0
 10
-752.0991618302942
 20
332.4006422076486
 30
0.0
  0
VERTEX
  5
345
  8
_____1
  6
CONTINUOUS
 62
     0
 10
-764.2841171196778
 20
376.2664812494572
 30
0.0
  0
VERTEX
  5
346
  8
_____1
  6
CONTINUOUS
 62
     0
 10
-764.2841171196778
 20
376.2664812494572
 30
0.0
  0
VERTEX
  5
347
  8
_____1
  6
CONTINUOUS
 62
     0
 10
-775.2505768801475
 20
401.8548873571776
 30
0.0
  0
VERTEX
  5
348
  8
_____1
  6
CONTINUOUS
 62
     0
 10
-775.2505768801475
 20
401.8548873571776
 30
0.0
  0
VERTEX
  5
349
  8
_____1
  6
CONTINUOUS
 62
     0
 10
-774.0320813511917
 20
405.5103739439915
 30
0.0
  0
VERTEX
  5
34A
  8
_____1
  6
CONTINUOUS
 62
     0
 10
-774.0320813511917
 20
405.5103739439915
 30
0.0
  0
VERTEX
  5
34B
  8
_____1
  6
CONTINUOUS
 62
     0
 10
-765.5026126486337
 20
406.7288694729327
 30
0.0
  0
VERTEX
  5
34C
  8
_____1
  6
CONTINUOUS
 62
     0
 10
-765.5026126486337
 20
406.7288694729327
 30
0.0
  0
VERTEX
  5
34D
  8
_____1
  6
CONTINUOUS
 62
     0
 10
-760.6286305328558
 20
411.6028515886951
 30
0.0
  0
VERTEX
  5
34E
  8
_____1
  6
CONTINUOUS
 62
     0
 10
-760.6286305328558
 20
411.6028515886951
 30
0.0
  0
VERTEX
  5
34F
  8
_____1
  6
CONTINUOUS
 62
     0
 10
-756.973143946052
 20
500.5530252012431
 30
0.0
  0
VERTEX
  5
350
  8
_____1
  6
CONTINUOUS
 62
     0
 10
-756.973143946052
 20
500.5530252012431
 30
0.0
  0
VERTEX
  5
351
  8
_____1
  6
CONTINUOUS
 62
     0
 10
-699.7038540859157
 20
437.1912576964087
 30
0.0
  0
VERTEX
  5
352
  8
_____1
  6
CONTINUOUS
 62
     0
 10
-699.7038540859157
 20
437.1912576964087
 30
0.0
  0
VERTEX
  5
353
  8
_____1
  6
CONTINUOUS
 62
     0
 10
-693.6113764412221
 20
433.5357711095926
 30
0.0
  0
VERTEX
  5
354
  8
_____1
  6
CONTINUOUS
 62
     0
 10
-693.6113764412221
 20
433.5357711095926
 30
0.0
  0
VERTEX
  5
355
  8
_____1
  6
CONTINUOUS
 62
     0
 10
-677.7709345650128
 20
442.0652398121661
 30
0.0
  0
VERTEX
  5
356
  8
_____1
  6
CONTINUOUS
 62
     0
 10
-677.7709345650128
 20
442.0652398121661
 30
0.0
  0
VERTEX
  5
357
  8
_____1
  6
CONTINUOUS
 62
     0
 10
-663.1489882177393
 20
422.5693113491429
 30
0.0
  0
VERTEX
  5
358
  8
_____1
  6
CONTINUOUS
 62
     0
 10
-663.1489882177393
 20
422.5693113491429
 30
0.0
  0
VERTEX
  5
359
  8
_____1
  6
CONTINUOUS
 62
     0
 10
-648.5270418704677
 20
407.9473650018745
 30
0.0
  0
VERTEX
  5
35A
  8
_____1
  6
CONTINUOUS
 62
     0
 10
-648.5270418704677
 20
407.9473650018745
 30
0.0
  0
VERTEX
  5
35B
  8
_____1
  6
CONTINUOUS
 62
     0
 10
-629.0311134074545
 20
395.7624097124831
 30
0.0
  0
VERTEX
  5
35C
  8
_____1
  6
CONTINUOUS
 62
     0
 10
-629.0311134074545
 20
395.7624097124831
 30
0.0
  0
VERTEX
  5
35D
  8
_____1
  6
CONTINUOUS
 62
     0
 10
-615.6276625891187
 20
382.3589588941545
 30
0.0
  0
VERTEX
  5
35E
  8
_____1
  6
CONTINUOUS
 62
     0
 10
-615.6276625891187
 20
382.3589588941545
 30
0.0
  0
VERTEX
  5
35F
  8
_____1
  6
CONTINUOUS
 62
     0
 10
-608.3166894154747
 20
370.1740036047604
 30
0.0
  0
VERTEX
  5
360
  8
_____1
  6
CONTINUOUS
 62
     0
 10
-608.3166894154747
 20
370.1740036047604
 30
0.0
  0
VERTEX
  5
361
  8
_____1
  6
CONTINUOUS
 62
     0
 10
-608.3166894154747
 20
362.8630304311259
 30
0.0
  0
VERTEX
  5
362
  8
_____1
  6
CONTINUOUS
 62
     0
 10
-608.3166894154747
 20
362.8630304311259
 30
0.0
  0
VERTEX
  5
363
  8
_____1
  6
CONTINUOUS
 62
     0
 10
-614.4091670601847
 20
354.3335617285552
 30
0.0
  0
VERTEX
  5
364
  8
_____1
  6
CONTINUOUS
 62
     0
 10
-614.4091670601847
 20
354.3335617285552
 30
0.0
  0
VERTEX
  5
365
  8
_____1
  6
CONTINUOUS
 62
     0
 10
-611.9721760022967
 20
348.2410840838606
 30
0.0
  0
VERTEX
  5
366
  8
_____1
  6
CONTINUOUS
 62
     0
 10
-611.9721760022967
 20
348.2410840838606
 30
0.0
  0
VERTEX
  5
367
  8
_____1
  6
CONTINUOUS
 62
     0
 10
-608.3166894154747
 20
348.2410840838606
 30
0.0
  0
VERTEX
  5
368
  8
_____1
  6
CONTINUOUS
 62
     0
 10
-608.3166894154747
 20
348.2410840838606
 30
0.0
  0
VERTEX
  5
369
  8
_____1
  6
CONTINUOUS
 62
     0
 10
-602.2242117707829
 20
351.896570670674
 30
0.0
  0
VERTEX
  5
36A
  8
_____1
  6
CONTINUOUS
 62
     0
 10
-602.2242117707829
 20
351.896570670674
 30
0.0
  0
VERTEX
  5
36B
  8
_____1
  6
CONTINUOUS
 62
     0
 10
-592.4762475392654
 20
364.0815259600654
 30
0.0
  0
VERTEX
  5
36C
  8
_____1
  6
CONTINUOUS
 62
     0
 10
-592.4762475392654
 20
364.0815259600654
 30
0.0
  0
VERTEX
  5
36D
  8
_____1
  6
CONTINUOUS
 62
     0
 10
-591.2577520103478
 20
360.4260393732498
 30
0.0
  0
VERTEX
  5
36E
  8
_____1
  6
CONTINUOUS
 62
     0
 10
-591.2577520103478
 20
360.4260393732498
 30
0.0
  0
VERTEX
  5
36F
  8
_____1
  6
CONTINUOUS
 62
     0
 10
-596.1317341260874
 20
350.6780751417368
 30
0.0
  0
VERTEX
  5
370
  8
_____1
  6
CONTINUOUS
 62
     0
 10
-596.1317341260874
 20
350.6780751417368
 30
0.0
  0
VERTEX
  5
371
  8
_____1
  6
CONTINUOUS
 62
     0
 10
-596.1317341260874
 20
345.804093025984
 30
0.0
  0
VERTEX
  5
372
  8
_____1
  6
CONTINUOUS
 62
     0
 10
-596.1317341260874
 20
345.804093025984
 30
0.0
  0
VERTEX
  5
373
  8
_____1
  6
CONTINUOUS
 62
     0
 10
-593.6947430682212
 20
343.3671019681028
 30
0.0
  0
VERTEX
  5
374
  8
_____1
  6
CONTINUOUS
 62
     0
 10
-593.6947430682212
 20
343.3671019681028
 30
0.0
  0
VERTEX
  5
375
  8
_____1
  6
CONTINUOUS
 62
     0
 10
-590.0392564813974
 20
343.3671019681028
 30
0.0
  0
VERTEX
  5
376
  8
_____1
  6
CONTINUOUS
 62
     0
 10
-590.0392564813974
 20
343.3671019681028
 30
0.0
  0
VERTEX
  5
377
  8
_____1
  6
CONTINUOUS
 62
     0
 10
-581.5097877788321
 20
350.6780751417368
 30
0.0
  0
VERTEX
  5
378
  8
_____1
  6
CONTINUOUS
 62
     0
 10
-581.5097877788321
 20
350.6780751417368
 30
0.0
  0
VERTEX
  5
379
  8
_____1
  6
CONTINUOUS
 62
     0
 10
-574.1988146051881
 20
366.518517017942
 30
0.0
  0
VERTEX
  5
37A
  8
_____1
  6
CONTINUOUS
 62
     0
 10
-574.1988146051881
 20
366.518517017942
 30
0.0
  0
VERTEX
  5
37B
  8
_____1
  6
CONTINUOUS
 62
     0
 10
-577.8543011920101
 20
379.9219678362756
 30
0.0
  0
VERTEX
  5
37C
  8
_____1
  6
CONTINUOUS
 62
     0
 10
-577.8543011920101
 20
379.9219678362756
 30
0.0
  0
VERTEX
  5
37D
  8
_____1
  6
CONTINUOUS
 62
     0
 10
-576.6358056630761
 20
384.7959499520307
 30
0.0
  0
VERTEX
  5
37E
  8
_____1
  6
CONTINUOUS
 62
     0
 10
-576.6358056630761
 20
384.7959499520307
 30
0.0
  0
VERTEX
  5
37F
  8
_____1
  6
CONTINUOUS
 62
     0
 10
-569.3248324894321
 20
366.518517017942
 30
0.0
  0
VERTEX
  5
380
  8
_____1
  6
CONTINUOUS
 62
     0
 10
-569.3248324894321
 20
366.518517017942
 30
0.0
  0
VERTEX
  5
381
  8
_____1
  6
CONTINUOUS
 62
     0
 10
-570.5433280183679
 20
354.3335617285552
 30
0.0
  0
VERTEX
  5
382
  8
_____1
  6
CONTINUOUS
 62
     0
 10
-570.5433280183679
 20
354.3335617285552
 30
0.0
  0
VERTEX
  5
383
  8
_____1
  6
CONTINUOUS
 62
     0
 10
-568.1063369604963
 20
350.6780751417368
 30
0.0
  0
VERTEX
  5
384
  8
_____1
  6
CONTINUOUS
 62
     0
 10
-568.1063369604963
 20
350.6780751417368
 30
0.0
  0
VERTEX
  5
385
  8
_____1
  6
CONTINUOUS
 62
     0
 10
-563.2323548447384
 20
349.4595796127978
 30
0.0
  0
VERTEX
  5
386
  8
_____1
  6
CONTINUOUS
 62
     0
 10
-563.2323548447384
 20
349.4595796127978
 30
0.0
  0
VERTEX
  5
387
  8
_____1
  6
CONTINUOUS
 62
     0
 10
-558.3583727289806
 20
354.3335617285552
 30
0.0
  0
VERTEX
  5
388
  8
_____1
  6
CONTINUOUS
 62
     0
 10
-558.3583727289806
 20
354.3335617285552
 30
0.0
  0
VERTEX
  5
389
  8
_____1
  6
CONTINUOUS
 62
     0
 10
-554.7028861421604
 20
362.8630304311259
 30
0.0
  0
VERTEX
  5
38A
  8
_____1
  6
CONTINUOUS
 62
     0
 10
-554.7028861421604
 20
362.8630304311259
 30
0.0
  0
VERTEX
  5
38B
  8
_____1
  6
CONTINUOUS
 62
     0
 10
-554.7028861421604
 20
378.7034723073384
 30
0.0
  0
VERTEX
  5
38C
  8
_____1
  6
CONTINUOUS
 62
     0
 10
-554.7028861421604
 20
378.7034723073384
 30
0.0
  0
VERTEX
  5
38D
  8
_____1
  6
CONTINUOUS
 62
     0
 10
-562.0138593158026
 20
400.6363918282404
 30
0.0
  0
VERTEX
  5
38E
  8
_____1
  6
CONTINUOUS
 62
     0
 10
-562.0138593158026
 20
400.6363918282404
 30
0.0
  0
VERTEX
  5
38F
  8
_____1
  6
CONTINUOUS
 62
     0
 10
-577.8543011920101
 20
420.1323202912663
 30
0.0
  0
VERTEX
  5
390
  8
_____1
  6
CONTINUOUS
 62
     0
 10
-577.8543011920101
 20
420.1323202912663
 30
0.0
  0
VERTEX
  5
391
  8
_____1
  6
CONTINUOUS
 62
     0
 10
-596.1317341260874
 20
438.4097532253527
 30
0.0
  0
VERTEX
  5
392
  8
_____1
  6
CONTINUOUS
 62
     0
 10
-596.1317341260874
 20
438.4097532253527
 30
0.0
  0
VERTEX
  5
393
  8
_____1
  6
CONTINUOUS
 62
     0
 10
-630.2496089363922
 20
457.9056816883781
 30
0.0
  0
VERTEX
  5
394
  8
_____1
  6
CONTINUOUS
 62
     0
 10
-630.2496089363922
 20
457.9056816883781
 30
0.0
  0
VERTEX
  5
395
  8
_____1
  6
CONTINUOUS
 62
     0
 10
-646.0900508125997
 20
472.5276280356443
 30
0.0
  0
VERTEX
  5
396
  8
_____1
  6
CONTINUOUS
 62
     0
 10
-646.0900508125997
 20
472.5276280356443
 30
0.0
  0
VERTEX
  5
397
  8
_____1
  6
CONTINUOUS
 62
     0
 10
-644.8715552836638
 20
473.7461235645815
 30
0.0
  0
VERTEX
  5
398
  8
_____1
  6
CONTINUOUS
 62
     0
 10
-644.8715552836638
 20
473.7461235645815
 30
0.0
  0
VERTEX
  5
399
  8
_____1
  6
CONTINUOUS
 62
     0
 10
-648.5270418704677
 20
481.0570967382178
 30
0.0
  0
VERTEX
  5
39A
  8
_____1
  6
CONTINUOUS
 62
     0
 10
-648.5270418704677
 20
481.0570967382178
 30
0.0
  0
VERTEX
  5
39B
  8
_____1
  6
CONTINUOUS
 62
     0
 10
-707.0148272595397
 20
546.8558553009266
 30
0.0
  0
VERTEX
  5
39C
  8
_____1
  6
CONTINUOUS
 62
     0
 10
-707.0148272595397
 20
546.8558553009266
 30
0.0
  0
VERTEX
  5
39D
  8
_____1
  6
CONTINUOUS
 62
     0
 10
-760.6286305328558
 20
617.5285959793932
 30
0.0
  0
VERTEX
  5
39E
  8
_____1
  6
CONTINUOUS
 62
     0
 10
-760.6286305328558
 20
617.5285959793932
 30
0.0
  0
VERTEX
  5
39F
  8
_____1
  6
CONTINUOUS
 62
     0
 10
-759.4101350039382
 20
667.4869126658991
 30
0.0
  0
VERTEX
  5
3A0
  8
_____1
  6
CONTINUOUS
 62
     0
 10
-759.4101350039382
 20
667.4869126658991
 30
0.0
  0
VERTEX
  5
3A1
  8
_____1
  6
CONTINUOUS
 62
     0
 10
-753.3176573592482
 20
728.4116891128501
 30
0.0
  0
VERTEX
  5
3A2
  8
_____1
  6
CONTINUOUS
 62
     0
 10
-753.3176573592482
 20
728.4116891128501
 30
0.0
  0
VERTEX
  5
3A3
  8
_____1
  6
CONTINUOUS
 62
     0
 10
-756.973143946052
 20
758.8740773363261
 30
0.0
  0
VERTEX
  5
3A4
  8
_____1
  6
CONTINUOUS
 62
     0
 10
-756.973143946052
 20
758.8740773363261
 30
0.0
  0
VERTEX
  5
3A5
  8
_____1
  6
CONTINUOUS
 62
     0
 10
-763.065621590762
 20
775.9330147414726
 30
0.0
  0
VERTEX
  5
3A6
  8
_____1
  6
CONTINUOUS
 62
     0
 10
-763.065621590762
 20
775.9330147414726
 30
0.0
  0
VERTEX
  5
3A7
  8
_____1
  6
CONTINUOUS
 62
     0
 10
-775.2505768801475
 20
800.3029253202517
 30
0.0
  0
VERTEX
  5
3A8
  8
_____1
  6
CONTINUOUS
 62
     0
 10
-775.2505768801475
 20
800.3029253202517
 30
0.0
  0
VERTEX
  5
3A9
  8
_____1
  6
CONTINUOUS
 62
     0
 10
-816.6794248640745
 20
868.5386749408422
 30
0.0
  0
VERTEX
  5
3AA
  8
_____1
  6
CONTINUOUS
 62
     0
 10
-816.6794248640745
 20
868.5386749408422
 30
0.0
  0
VERTEX
  5
3AB
  8
_____1
  6
CONTINUOUS
 62
     0
 10
-845.9233175586032
 20
924.5894692720417
 30
0.0
  0
VERTEX
  5
3AC
  8
_____1
  6
CONTINUOUS
 62
     0
 10
-845.9233175586032
 20
924.5894692720417
 30
0.0
  0
VERTEX
  5
3AD
  8
_____1
  6
CONTINUOUS
 62
     0
 10
-845.9233175586032
 20
930.6819469167344
 30
0.0
  0
VERTEX
  5
3AE
  8
_____1
  6
CONTINUOUS
 62
     0
 10
-845.9233175586032
 20
930.6819469167344
 30
0.0
  0
VERTEX
  5
3AF
  8
_____1
  6
CONTINUOUS
 62
     0
 10
-832.5198667402856
 20
962.3628306691503
 30
0.0
  0
VERTEX
  5
3B0
  8
_____1
  6
CONTINUOUS
 62
     0
 10
-832.5198667402856
 20
962.3628306691503
 30
0.0
  0
VERTEX
  5
3B1
  8
_____1
  6
CONTINUOUS
 62
     0
 10
-827.6458846245259
 20
967.2368127849072
 30
0.0
  0
VERTEX
  5
3B2
  8
_____1
  6
CONTINUOUS
 62
     0
 10
-827.6458846245259
 20
967.2368127849072
 30
0.0
  0
VERTEX
  5
3B3
  8
_____1
  6
CONTINUOUS
 62
     0
 10
-815.4609293351259
 20
968.4553083138449
 30
0.0
  0
VERTEX
  5
3B4
  8
_____1
  6
CONTINUOUS
 62
     0
 10
-815.4609293351259
 20
968.4553083138449
 30
0.0
  0
VERTEX
  5
3B5
  8
_____1
  6
CONTINUOUS
 62
     0
 10
-797.183496401045
 20
966.0183172559678
 30
0.0
  0
VERTEX
  5
3B6
  8
_____1
  6
CONTINUOUS
 62
     0
 10
-797.183496401045
 20
966.0183172559678
 30
0.0
  0
VERTEX
  5
3B7
  8
_____1
  6
CONTINUOUS
 62
     0
 10
-786.217036640599
 20
969.6738038427861
 30
0.0
  0
VERTEX
  5
3B8
  8
_____1
  6
CONTINUOUS
 62
     0
 10
-786.217036640599
 20
969.6738038427861
 30
0.0
  0
VERTEX
  5
3B9
  8
_____1
  6
CONTINUOUS
 62
     0
 10
-781.3430545248411
 20
974.5477859585394
 30
0.0
  0
VERTEX
  5
3BA
  8
_____1
  6
CONTINUOUS
 62
     0
 10
-781.3430545248411
 20
974.5477859585394
 30
0.0
  0
VERTEX
  5
3BB
  8
_____1
  6
CONTINUOUS
 62
     0
 10
-781.3430545248411
 20
995.2622099505038
 30
0.0
  0
VERTEX
  5
3BC
  8
_____1
  6
CONTINUOUS
 62
     0
 10
-781.3430545248411
 20
995.2622099505038
 30
0.0
  0
VERTEX
  5
3BD
  8
_____1
  6
CONTINUOUS
 62
     0
 10
-774.0320813511917
 20
1005.01017418202
 30
0.0
  0
VERTEX
  5
3BE
  8
_____1
  6
CONTINUOUS
 62
     0
 10
-774.0320813511917
 20
1005.01017418202
 30
0.0
  0
VERTEX
  5
3BF
  8
_____1
  6
CONTINUOUS
 62
     0
 10
-774.0320813511917
 20
1012.321147355654
 30
0.0
  0
VERTEX
  5
3C0
  8
_____1
  6
CONTINUOUS
 62
     0
 10
-774.0320813511917
 20
1012.321147355654
 30
0.0
  0
VERTEX
  5
3C1
  8
_____1
  6
CONTINUOUS
 62
     0
 10
-771.5950902933255
 20
1015.976633942467
 30
0.0
  0
VERTEX
  5
3C2
  8
_____1
  6
CONTINUOUS
 62
     0
 10
-771.5950902933255
 20
1015.976633942467
 30
0.0
  0
VERTEX
  5
3C3
  8
_____1
  6
CONTINUOUS
 62
     0
 10
-772.8135858222595
 20
1028.161589231861
 30
0.0
  0
VERTEX
  5
3C4
  8
_____1
  6
CONTINUOUS
 62
     0
 10
-772.8135858222595
 20
1028.161589231861
 30
0.0
  0
VERTEX
  5
3C5
  8
_____1
  6
CONTINUOUS
 62
     0
 10
-767.9396037065053
 20
1035.472562405498
 30
0.0
  0
VERTEX
  5
3C6
  8
_____1
  6
CONTINUOUS
 62
     0
 10
-767.9396037065053
 20
1035.472562405498
 30
0.0
  0
VERTEX
  5
3C7
  8
_____1
  6
CONTINUOUS
 62
     0
 10
-760.6286305328558
 20
1036.691057934434
 30
0.0
  0
VERTEX
  5
3C8
  8
_____1
  6
CONTINUOUS
 62
     0
 10
-760.6286305328558
 20
1036.691057934434
 30
0.0
  0
VERTEX
  5
3C9
  8
_____1
  6
CONTINUOUS
 62
     0
 10
-754.5361528881804
 20
1041.56504005019
 30
0.0
  0
VERTEX
  5
3CA
  8
_____1
  6
CONTINUOUS
 62
     0
 10
-754.5361528881804
 20
1041.56504005019
 30
0.0
  0
VERTEX
  5
3CB
  8
_____1
  6
CONTINUOUS
 62
     0
 10
-754.5361528881804
 20
1048.876013223826
 30
0.0
  0
VERTEX
  5
3CC
  8
_____1
  6
CONTINUOUS
 62
     0
 10
-754.5361528881804
 20
1048.876013223826
 30
0.0
  0
VERTEX
  5
3CD
  8
_____1
  6
CONTINUOUS
 62
     0
 10
-756.973143946052
 20
1053.749995339579
 30
0.0
  0
VERTEX
  5
3CE
  8
_____1
  6
CONTINUOUS
 62
     0
 10
-756.973143946052
 20
1053.749995339579
 30
0.0
  0
VERTEX
  5
3CF
  8
_____1
  6
CONTINUOUS
 62
     0
 10
-767.9396037065053
 20
1065.934950628971
 30
0.0
  0
VERTEX
  5
3D0
  8
_____1
  6
CONTINUOUS
 62
     0
 10
-767.9396037065053
 20
1065.934950628971
 30
0.0
  0
VERTEX
  5
3D1
  8
_____1
  6
CONTINUOUS
 62
     0
 10
-777.6875679380173
 20
1086.649374620936
 30
0.0
  0
VERTEX
  5
3D2
  8
_____1
  6
CONTINUOUS
 62
     0
 10
-777.6875679380173
 20
1086.649374620936
 30
0.0
  0
VERTEX
  5
3D3
  8
_____1
  6
CONTINUOUS
 62
     0
 10
-776.4690724090833
 20
1114.674771786537
 30
0.0
  0
VERTEX
  5
3D4
  8
_____1
  6
CONTINUOUS
 62
     0
 10
-776.4690724090833
 20
1114.674771786537
 30
0.0
  0
VERTEX
  5
3D5
  8
_____1
  6
CONTINUOUS
 62
     0
 10
-782.5615500537715
 20
1140.263177894255
 30
0.0
  0
VERTEX
  5
3D6
  8
_____1
  6
CONTINUOUS
 62
     0
 10
-782.5615500537715
 20
1140.263177894255
 30
0.0
  0
VERTEX
  5
3D7
  8
_____1
  6
CONTINUOUS
 62
     0
 10
-789.8725232274028
 20
1154.885124241521
 30
0.0
  0
VERTEX
  5
3D8
  8
_____1
  6
CONTINUOUS
 62
     0
 10
-789.8725232274028
 20
1154.885124241521
 30
0.0
  0
VERTEX
  5
3D9
  8
_____1
  6
CONTINUOUS
 62
     0
 10
-806.9314606325606
 20
1173.16255717561
 30
0.0
  0
VERTEX
  5
3DA
  8
_____1
  6
CONTINUOUS
 62
     0
 10
-806.9314606325606
 20
1173.16255717561
 30
0.0
  0
VERTEX
  5
3DB
  8
_____1
  6
CONTINUOUS
 62
     0
 10
-831.3013712113298
 20
1185.347512464999
 30
0.0
  0
VERTEX
  5
3DC
  8
_____1
  6
CONTINUOUS
 62
     0
 10
-831.3013712113298
 20
1185.347512464999
 30
0.0
  0
VERTEX
  5
3DD
  8
_____1
  6
CONTINUOUS
 62
     0
 10
-845.9233175586032
 20
1189.002999051817
 30
0.0
  0
VERTEX
  5
3DE
  8
_____1
  6
CONTINUOUS
 62
     0
 10
-845.9233175586032
 20
1189.002999051817
 30
0.0
  0
VERTEX
  5
3DF
  8
_____1
  6
CONTINUOUS
 62
     0
 10
-887.3521655425357
 20
1190.221494580757
 30
0.0
  0
VERTEX
  5
3E0
  8
_____1
  6
CONTINUOUS
 62
     0
 10
-887.3521655425357
 20
1190.221494580757
 30
0.0
  0
VERTEX
  5
3E1
  8
_____1
  6
CONTINUOUS
 62
     0
 10
-905.6295984766311
 20
1186.566007993939
 30
0.0
  0
SEQEND
  5
3E2
  8
_____1
  6
CONTINUOUS
 62
     0
  0
POLYLINE
  5
3E3
  8
_____1
  6
CONTINUOUS
 62
     0
 66
     1
 10
0.0
 20
0.0
 30
0.0
 70
   129
  0
VERTEX
  5
3E4
  8
_____1
  6
CONTINUOUS
 62
     0
 10
729.3682150678471
 20
1185.347512464999
 30
0.0
  0
VERTEX
  5
3E5
  8
_____1
  6
CONTINUOUS
 62
     0
 10
715.9647642495258
 20
1179.255034820309
 30
0.0
  0
VERTEX
  5
3E6
  8
_____1
  6
CONTINUOUS
 62
     0
 10
697.6873313154322
 20
1165.851584001981
 30
0.0
  0
VERTEX
  5
3E7
  8
_____1
  6
CONTINUOUS
 62
     0
 10
687.9393670839293
 20
1154.885124241524
 30
0.0
  0
VERTEX
  5
3E8
  8
_____1
  6
CONTINUOUS
 62
     0
 10
680.6283939102871
 20
1142.700168952134
 30
0.0
  0
VERTEX
  5
3E9
  8
_____1
  6
CONTINUOUS
 62
     0
 10
663.5694565051474
 20
1096.397338852449
 30
0.0
  0
VERTEX
  5
3EA
  8
_____1
  6
CONTINUOUS
 62
     0
 10
644.0735280421179
 20
1028.161589231866
 30
0.0
  0
VERTEX
  5
3EB
  8
_____1
  6
CONTINUOUS
 62
     0
 10
601.4261845292478
 20
945.3038932640034
 30
0.0
  0
VERTEX
  5
3EC
  8
_____1
  6
CONTINUOUS
 62
     0
 10
594.1152113556238
 20
924.5894692720399
 30
0.0
  0
VERTEX
  5
3ED
  8
_____1
  6
CONTINUOUS
 62
     0
 10
588.0227337109302
 20
886.8161078749276
 30
0.0
  0
VERTEX
  5
3EE
  8
_____1
  6
CONTINUOUS
 62
     0
 10
589.241229239866
 20
866.1016838829651
 30
0.0
  0
VERTEX
  5
3EF
  8
_____1
  6
CONTINUOUS
 62
     0
 10
592.8967158266862
 20
851.479737535697
 30
0.0
  0
VERTEX
  5
3F0
  8
_____1
  6
CONTINUOUS
 62
     0
 10
605.0816711160753
 20
829.5468180147905
 30
0.0
  0
VERTEX
  5
3F1
  8
_____1
  6
CONTINUOUS
 62
     0
 10
609.9556532318313
 20
824.6728358990372
 30
0.0
  0
VERTEX
  5
3F2
  8
_____1
  6
CONTINUOUS
 62
     0
 10
616.0481308765213
 20
822.235844841156
 30
0.0
  0
VERTEX
  5
3F3
  8
_____1
  6
CONTINUOUS
 62
     0
 10
606.3001666450057
 20
842.9502688331254
 30
0.0
  0
VERTEX
  5
3F4
  8
_____1
  6
CONTINUOUS
 62
     0
 10
606.3001666450057
 20
861.2277017672054
 30
0.0
  0
VERTEX
  5
3F5
  8
_____1
  6
CONTINUOUS
 62
     0
 10
607.5186621739415
 20
866.1016838829651
 30
0.0
  0
VERTEX
  5
3F6
  8
_____1
  6
CONTINUOUS
 62
     0
 10
609.9556532318313
 20
866.1016838829651
 30
0.0
  0
VERTEX
  5
3F7
  8
_____1
  6
CONTINUOUS
 62
     0
 10
611.1741487607635
 20
852.6982330646338
 30
0.0
  0
VERTEX
  5
3F8
  8
_____1
  6
CONTINUOUS
 62
     0
 10
614.829635347591
 20
840.5132777752447
 30
0.0
  0
VERTEX
  5
3F9
  8
_____1
  6
CONTINUOUS
 62
     0
 10
623.3591040501508
 20
824.6728358990372
 30
0.0
  0
VERTEX
  5
3FA
  8
_____1
  6
CONTINUOUS
 62
     0
 10
634.3255638106004
 20
812.4878806096453
 30
0.0
  0
VERTEX
  5
3FB
  8
_____1
  6
CONTINUOUS
 62
     0
 10
635.5440593395526
 20
807.6138984938902
 30
0.0
  0
VERTEX
  5
3FC
  8
_____1
  6
CONTINUOUS
 62
     0
 10
616.0481308765213
 20
746.6891220469365
 30
0.0
  0
VERTEX
  5
3FD
  8
_____1
  6
CONTINUOUS
 62
     0
 10
596.55220241349
 20
696.7308053604334
 30
0.0
  0
VERTEX
  5
3FE
  8
_____1
  6
CONTINUOUS
 62
     0
 10
584.3672471241082
 20
658.9574439633257
 30
0.0
  0
VERTEX
  5
3FF
  8
_____1
  6
CONTINUOUS
 62
     0
 10
573.4007873636549
 20
633.369037855603
 30
0.0
  0
VERTEX
  5
400
  8
_____1
  6
CONTINUOUS
 62
     0
 10
564.8713186610769
 20
604.1251451610642
 30
0.0
  0
VERTEX
  5
401
  8
_____1
  6
CONTINUOUS
 62
     0
 10
541.7199036112436
 20
500.5530252012409
 30
0.0
  0
VERTEX
  5
402
  8
_____1
  6
CONTINUOUS
 62
     0
 10
534.4089304375977
 20
459.1241772173153
 30
0.0
  0
VERTEX
  5
403
  8
_____1
  6
CONTINUOUS
 62
     0
 10
522.2239751482123
 20
409.1658605308139
 30
0.0
  0
VERTEX
  5
404
  8
_____1
  6
CONTINUOUS
 62
     0
 10
522.2239751482123
 20
401.8548873571754
 30
0.0
  0
VERTEX
  5
405
  8
_____1
  6
CONTINUOUS
 62
     0
 10
534.4089304375977
 20
395.7624097124808
 30
0.0
  0
VERTEX
  5
406
  8
_____1
  6
CONTINUOUS
 62
     0
 10
533.1904349086656
 20
389.6699320677858
 30
0.0
  0
VERTEX
  5
407
  8
_____1
  6
CONTINUOUS
 62
     0
 10
500.2910556273148
 20
326.3081645629536
 30
0.0
  0
VERTEX
  5
408
  8
_____1
  6
CONTINUOUS
 62
     0
 10
492.9800824536671
 20
301.9382539841749
 30
0.0
  0
VERTEX
  5
409
  8
_____1
  6
CONTINUOUS
 62
     0
 10
492.9800824536671
 20
295.8457763394781
 30
0.0
  0
VERTEX
  5
40A
  8
_____1
  6
CONTINUOUS
 62
     0
 10
497.8540645694432
 20
290.9717942237207
 30
0.0
  0
VERTEX
  5
40B
  8
_____1
  6
CONTINUOUS
 62
     0
 10
497.8540645694432
 20
280.0053344632729
 30
0.0
  0
VERTEX
  5
40C
  8
_____1
  6
CONTINUOUS
 62
     0
 10
507.6020288009588
 20
271.4758657606967
 30
0.0
  0
VERTEX
  5
40D
  8
_____1
  6
CONTINUOUS
 62
     0
 10
511.2575153877608
 20
262.946397058126
 30
0.0
  0
VERTEX
  5
40E
  8
_____1
  6
CONTINUOUS
 62
     0
 10
519.7869840903243
 20
259.2909104713031
 30
0.0
  0
VERTEX
  5
40F
  8
_____1
  6
CONTINUOUS
 62
     0
 10
523.4424706771481
 20
253.1984328266085
 30
0.0
  0
VERTEX
  5
410
  8
_____1
  6
CONTINUOUS
 62
     0
 10
533.1904349086656
 20
245.8874596529786
 30
0.0
  0
VERTEX
  5
411
  8
_____1
  6
CONTINUOUS
 62
     0
 10
538.0644170244234
 20
249.5429462397924
 30
0.0
  0
VERTEX
  5
412
  8
_____1
  6
CONTINUOUS
 62
     0
 10
536.8459214954858
 20
259.2909104713031
 30
0.0
  0
VERTEX
  5
413
  8
_____1
  6
CONTINUOUS
 62
     0
 10
552.6863633716914
 20
303.1567495131139
 30
0.0
  0
VERTEX
  5
414
  8
_____1
  6
CONTINUOUS
 62
     0
 10
556.341849958497
 20
306.8122360999323
 30
0.0
  0
VERTEX
  5
415
  8
_____1
  6
CONTINUOUS
 62
     0
 10
557.5603454874529
 20
303.1567495131139
 30
0.0
  0
VERTEX
  5
416
  8
_____1
  6
CONTINUOUS
 62
     0
 10
549.0308767848676
 20
278.7868389343334
 30
0.0
  0
VERTEX
  5
417
  8
_____1
  6
CONTINUOUS
 62
     0
 10
546.5938857270014
 20
267.8203791738811
 30
0.0
  0
VERTEX
  5
418
  8
_____1
  6
CONTINUOUS
 62
     0
 10
550.2493723138034
 20
261.7279015291838
 30
0.0
  0
VERTEX
  5
419
  8
_____1
  6
CONTINUOUS
 62
     0
 10
556.341849958497
 20
262.946397058126
 30
0.0
  0
VERTEX
  5
41A
  8
_____1
  6
CONTINUOUS
 62
     0
 10
566.0898141900127
 20
281.2238299922096
 30
0.0
  0
VERTEX
  5
41B
  8
_____1
  6
CONTINUOUS
 62
     0
 10
579.4932650083504
 20
311.6862182156901
 30
0.0
  0
VERTEX
  5
41C
  8
_____1
  6
CONTINUOUS
 62
     0
 10
584.3672471241082
 20
388.4514365388491
 30
0.0
  0
VERTEX
  5
41D
  8
_____1
  6
CONTINUOUS
 62
     0
 10
590.4597247688018
 20
390.888427596728
 30
0.0
  0
VERTEX
  5
41E
  8
_____1
  6
CONTINUOUS
 62
     0
 10
594.1152113556238
 20
410.3843560597534
 30
0.0
  0
VERTEX
  5
41F
  8
_____1
  6
CONTINUOUS
 62
     0
 10
602.6446800581818
 20
440.8467442832266
 30
0.0
  0
VERTEX
  5
420
  8
_____1
  6
CONTINUOUS
 62
     0
 10
613.6111398186351
 20
498.1160341433665
 30
0.0
  0
VERTEX
  5
421
  8
_____1
  6
CONTINUOUS
 62
     0
 10
629.4515816948444
 20
563.9147927060758
 30
0.0
  0
VERTEX
  5
422
  8
_____1
  6
CONTINUOUS
 62
     0
 10
645.2920235710465
 20
607.780631747878
 30
0.0
  0
VERTEX
  5
423
  8
_____1
  6
CONTINUOUS
 62
     0
 10
675.7544117945492
 20
677.2348768974075
 30
0.0
  0
VERTEX
  5
424
  8
_____1
  6
CONTINUOUS
 62
     0
 10
678.1914028524172
 20
674.7978858395309
 30
0.0
  0
VERTEX
  5
425
  8
_____1
  6
CONTINUOUS
 62
     0
 10
684.2838804971072
 20
651.6464707896871
 30
0.0
  0
VERTEX
  5
426
  8
_____1
  6
CONTINUOUS
 62
     0
 10
686.7208715549825
 20
634.5875333845424
 30
0.0
  0
VERTEX
  5
427
  8
_____1
  6
CONTINUOUS
 62
     0
 10
686.7208715549825
 20
612.6546138636354
 30
0.0
  0
VERTEX
  5
428
  8
_____1
  6
CONTINUOUS
 62
     0
 10
647.7290146289399
 20
501.7715207301803
 30
0.0
  0
VERTEX
  5
429
  8
_____1
  6
CONTINUOUS
 62
     0
 10
628.2330861659068
 20
431.0987800517141
 30
0.0
  0
VERTEX
  5
42A
  8
_____1
  6
CONTINUOUS
 62
     0
 10
630.6700772237948
 20
426.224797935959
 30
0.0
  0
VERTEX
  5
42B
  8
_____1
  6
CONTINUOUS
 62
     0
 10
641.6365369842445
 20
420.132320291264
 30
0.0
  0
VERTEX
  5
42C
  8
_____1
  6
CONTINUOUS
 62
     0
 10
646.5105191000023
 20
387.2329410099096
 30
0.0
  0
VERTEX
  5
42D
  8
_____1
  6
CONTINUOUS
 62
     0
 10
656.2584833315179
 20
362.8630304311259
 30
0.0
  0
VERTEX
  5
42E
  8
_____1
  6
CONTINUOUS
 62
     0
 10
655.0399878025621
 20
348.2410840838579
 30
0.0
  0
VERTEX
  5
42F
  8
_____1
  6
CONTINUOUS
 62
     0
 10
624.5775995791048
 20
221.5175490741908
 30
0.0
  0
VERTEX
  5
430
  8
_____1
  6
CONTINUOUS
 62
     0
 10
602.6446800581818
 20
142.3153396931557
 30
0.0
  0
VERTEX
  5
431
  8
_____1
  6
CONTINUOUS
 62
     0
 10
589.241229239866
 20
116.726933585433
 30
0.0
  0
VERTEX
  5
432
  8
_____1
  6
CONTINUOUS
 62
     0
 10
584.3672471241082
 20
100.8864917092255
 30
0.0
  0
VERTEX
  5
433
  8
_____1
  6
CONTINUOUS
 62
     0
 10
562.4343276031907
 20
75.29808560150286
 30
0.0
  0
VERTEX
  5
434
  8
_____1
  6
CONTINUOUS
 62
     0
 10
530.7534438507739
 20
24.1212733860666
 30
0.0
  0
VERTEX
  5
435
  8
_____1
  6
CONTINUOUS
 62
     0
 10
491.7615869247313
 20
-57.51792705285015
 30
0.0
  0
VERTEX
  5
436
  8
_____1
  6
CONTINUOUS
 62
     0
 10
464.954685288076
 20
-123.316685615559
 30
0.0
  0
VERTEX
  5
437
  8
_____1
  6
CONTINUOUS
 62
     0
 10
422.3073417752114
 20
-217.1408413438717
 30
0.0
  0
VERTEX
  5
438
  8
_____1
  6
CONTINUOUS
 62
     0
 10
422.3073417752114
 20
-222.0148234596249
 30
0.0
  0
VERTEX
  5
439
  8
_____1
  6
CONTINUOUS
 62
     0
 10
434.4922970645932
 20
-230.5442921622002
 30
0.0
  0
VERTEX
  5
43A
  8
_____1
  6
CONTINUOUS
 62
     0
 10
436.9292881224849
 20
-234.1997787490136
 30
0.0
  0
VERTEX
  5
43B
  8
_____1
  6
CONTINUOUS
 62
     0
 10
424.7443328330958
 20
-251.2587161541628
 30
0.0
  0
VERTEX
  5
43C
  8
_____1
  6
CONTINUOUS
 62
     0
 10
396.7189356674864
 20
-278.0656177908272
 30
0.0
  0
VERTEX
  5
43D
  8
_____1
  6
CONTINUOUS
 62
     0
 10
385.7524759070368
 20
-297.5615462538485
 30
0.0
  0
VERTEX
  5
43E
  8
_____1
  6
CONTINUOUS
 62
     0
 10
382.0969893202148
 20
-312.1834926011147
 30
0.0
  0
VERTEX
  5
43F
  8
_____1
  6
CONTINUOUS
 62
     0
 10
378.441502733411
 20
-359.704818229744
 30
0.0
  0
VERTEX
  5
440
  8
_____1
  6
CONTINUOUS
 62
     0
 10
369.9120340308311
 20
-395.041188568975
 30
0.0
  0
VERTEX
  5
441
  8
_____1
  6
CONTINUOUS
 62
     0
 10
379.6599982623468
 20
-401.1336662136741
 30
0.0
  0
VERTEX
  5
442
  8
_____1
  6
CONTINUOUS
 62
     0
 10
382.0969893202148
 20
-399.9151706847279
 30
0.0
  0
VERTEX
  5
443
  8
_____1
  6
CONTINUOUS
 62
     0
 10
393.0634490806644
 20
-370.6712779901959
 30
0.0
  0
VERTEX
  5
444
  8
_____1
  6
CONTINUOUS
 62
     0
 10
402.8114133121819
 20
-352.3938450561077
 30
0.0
  0
VERTEX
  5
445
  8
_____1
  6
CONTINUOUS
 62
     0
 10
408.9038909568756
 20
-346.3013674114086
 30
0.0
  0
VERTEX
  5
446
  8
_____1
  6
CONTINUOUS
 62
     0
 10
418.6518551883876
 20
-356.0493316429279
 30
0.0
  0
VERTEX
  5
447
  8
_____1
  6
CONTINUOUS
 62
     0
 10
427.1813238909692
 20
-368.2342869323124
 30
0.0
  0
VERTEX
  5
448
  8
_____1
  6
CONTINUOUS
 62
     0
 10
439.3662791803511
 20
-391.3857019821612
 30
0.0
  0
VERTEX
  5
449
  8
_____1
  6
CONTINUOUS
 62
     0
 10
449.1142434118685
 20
-416.9741080898789
 30
0.0
  0
VERTEX
  5
44A
  8
_____1
  6
CONTINUOUS
 62
     0
 10
460.0807031723182
 20
-430.3775589082084
 30
0.0
  0
VERTEX
  5
44B
  8
_____1
  6
CONTINUOUS
 62
     0
 10
474.7026495195898
 20
-436.4700365529052
 30
0.0
  0
VERTEX
  5
44C
  8
_____1
  6
CONTINUOUS
 62
     0
 10
495.417073511557
 20
-440.1255231397213
 30
0.0
  0
VERTEX
  5
44D
  8
_____1
  6
CONTINUOUS
 62
     0
 10
528.3164527929059
 20
-440.1255231397213
 30
0.0
  0
VERTEX
  5
44E
  8
_____1
  6
CONTINUOUS
 62
     0
 10
552.6863633716914
 20
-436.4700365529052
 30
0.0
  0
VERTEX
  5
44F
  8
_____1
  6
CONTINUOUS
 62
     0
 10
557.5603454874529
 20
-434.0330454950304
 30
0.0
  0
VERTEX
  5
450
  8
_____1
  6
CONTINUOUS
 62
     0
 10
558.7788410163832
 20
-424.2850812635156
 30
0.0
  0
VERTEX
  5
451
  8
_____1
  6
CONTINUOUS
 62
     0
 10
553.9048589006254
 20
-419.4110991477555
 30
0.0
  0
VERTEX
  5
452
  8
_____1
  6
CONTINUOUS
 62
     0
 10
507.6020288009588
 20
-398.6966751557907
 30
0.0
  0
VERTEX
  5
453
  8
_____1
  6
CONTINUOUS
 62
     0
 10
503.9465422141368
 20
-392.6041975110988
 30
0.0
  0
VERTEX
  5
454
  8
_____1
  6
CONTINUOUS
 62
     0
 10
499.0725600983808
 20
-371.8897735191326
 30
0.0
  0
VERTEX
  5
455
  8
_____1
  6
CONTINUOUS
 62
     0
 10
492.9800824536671
 20
-321.931456832634
 30
0.0
  0
VERTEX
  5
456
  8
_____1
  6
CONTINUOUS
 62
     0
 10
492.9800824536671
 20
-297.5615462538485
 30
0.0
  0
VERTEX
  5
457
  8
_____1
  6
CONTINUOUS
 62
     0
 10
497.8540645694432
 20
-269.5361490882474
 30
0.0
  0
VERTEX
  5
458
  8
_____1
  6
CONTINUOUS
 62
     0
 10
501.509551156247
 20
-262.2251759146152
 30
0.0
  0
VERTEX
  5
459
  8
_____1
  6
CONTINUOUS
 62
     0
 10
519.7869840903243
 20
-269.5361490882474
 30
0.0
  0
VERTEX
  5
45A
  8
_____1
  6
CONTINUOUS
 62
     0
 10
525.8794617350343
 20
-268.3176535593102
 30
0.0
  0
VERTEX
  5
45B
  8
_____1
  6
CONTINUOUS
 62
     0
 10
605.0816711160753
 20
-92.85429739207893
 30
0.0
  0
VERTEX
  5
45C
  8
_____1
  6
CONTINUOUS
 62
     0
 10
631.8885727527288
 20
-39.24049411876558
 30
0.0
  0
VERTEX
  5
45D
  8
_____1
  6
CONTINUOUS
 62
     0
 10
655.0399878025621
 20
2.188353865164572
 30
0.0
  0
VERTEX
  5
45E
  8
_____1
  6
CONTINUOUS
 62
     0
 10
707.435295546946
 20
81.39056324619969
 30
0.0
  0
VERTEX
  5
45F
  8
_____1
  6
CONTINUOUS
 62
     0
 10
723.2757374231699
 20
113.0714469986146
 30
0.0
  0
VERTEX
  5
460
  8
_____1
  6
CONTINUOUS
 62
     0
 10
753.7381256466344
 20
183.7441876770836
 30
0.0
  0
VERTEX
  5
461
  8
_____1
  6
CONTINUOUS
 62
     0
 10
762.2675943492125
 20
199.5846295532933
 30
0.0
  0
VERTEX
  5
462
  8
_____1
  6
CONTINUOUS
 62
     0
 10
768.3600719939061
 20
206.8956027269251
 30
0.0
  0
VERTEX
  5
463
  8
_____1
  6
CONTINUOUS
 62
     0
 10
811.0074155067707
 20
117.9454291143725
 30
0.0
  0
VERTEX
  5
464
  8
_____1
  6
CONTINUOUS
 62
     0
 10
834.158830556624
 20
74.07959007256568
 30
0.0
  0
VERTEX
  5
465
  8
_____1
  6
CONTINUOUS
 62
     0
 10
835.3773260855598
 20
57.02065266742329
 30
0.0
  0
VERTEX
  5
466
  8
_____1
  6
CONTINUOUS
 62
     0
 10
843.9067947881379
 20
9.49932703879358
 30
0.0
  0
VERTEX
  5
467
  8
_____1
  6
CONTINUOUS
 62
     0
 10
858.5287411353931
 20
-55.08093599497124
 30
0.0
  0
VERTEX
  5
468
  8
_____1
  6
CONTINUOUS
 62
     0
 10
899.9575891193219
 20
-192.7709307650903
 30
0.0
  0
VERTEX
  5
469
  8
_____1
  6
CONTINUOUS
 62
     0
 10
931.6384728717405
 20
-290.2505730802191
 30
0.0
  0
VERTEX
  5
46A
  8
_____1
  6
CONTINUOUS
 62
     0
 10
935.2939594585625
 20
-295.1245551959719
 30
0.0
  0
VERTEX
  5
46B
  8
_____1
  6
CONTINUOUS
 62
     0
 10
960.8823655662839
 20
-289.0320775512796
 30
0.0
  0
VERTEX
  5
46C
  8
_____1
  6
CONTINUOUS
 62
     0
 10
964.5378521531059
 20
-295.1245551959719
 30
0.0
  0
VERTEX
  5
46D
  8
_____1
  6
CONTINUOUS
 62
     0
 10
963.3193566241519
 20
-306.091014956422
 30
0.0
  0
VERTEX
  5
46E
  8
_____1
  6
CONTINUOUS
 62
     0
 10
952.3528968637058
 20
-331.6794210641424
 30
0.0
  0
VERTEX
  5
46F
  8
_____1
  6
CONTINUOUS
 62
     0
 10
951.13440133477
 20
-348.7383584692848
 30
0.0
  0
VERTEX
  5
470
  8
_____1
  6
CONTINUOUS
 62
     0
 10
954.789887921572
 20
-367.0157914033734
 30
0.0
  0
VERTEX
  5
471
  8
_____1
  6
CONTINUOUS
 62
     0
 10
969.4118342688455
 20
-404.7891528004898
 30
0.0
  0
VERTEX
  5
472
  8
_____1
  6
CONTINUOUS
 62
     0
 10
973.0673208556675
 20
-420.6295946766927
 30
0.0
  0
VERTEX
  5
473
  8
_____1
  6
CONTINUOUS
 62
     0
 10
974.2858163846033
 20
-438.9070276107818
 30
0.0
  0
VERTEX
  5
474
  8
_____1
  6
CONTINUOUS
 62
     0
 10
991.3447537897503
 20
-438.9070276107818
 30
0.0
  0
VERTEX
  5
475
  8
_____1
  6
CONTINUOUS
 62
     0
 10
992.563249318697
 20
-392.6041975110988
 30
0.0
  0
VERTEX
  5
476
  8
_____1
  6
CONTINUOUS
 62
     0
 10
993.7817448476346
 20
-385.2932243374621
 30
0.0
  0
VERTEX
  5
477
  8
_____1
  6
CONTINUOUS
 62
     0
 10
996.218735905519
 20
-382.8562332795855
 30
0.0
  0
VERTEX
  5
478
  8
_____1
  6
CONTINUOUS
 62
     0
 10
1005.966700137035
 20
-385.2932243374621
 30
0.0
  0
VERTEX
  5
479
  8
_____1
  6
CONTINUOUS
 62
     0
 10
1023.025637542162
 20
-395.041188568975
 30
0.0
  0
VERTEX
  5
47A
  8
_____1
  6
CONTINUOUS
 62
     0
 10
1043.740061534143
 20
-409.6631349162431
 30
0.0
  0
VERTEX
  5
47B
  8
_____1
  6
CONTINUOUS
 62
     0
 10
1063.235989997158
 20
-426.7220723213918
 30
0.0
  0
VERTEX
  5
47C
  8
_____1
  6
CONTINUOUS
 62
     0
 10
1074.202449757604
 20
-434.0330454950304
 30
0.0
  0
VERTEX
  5
47D
  8
_____1
  6
CONTINUOUS
 62
     0
 10
1086.387405046992
 20
-438.9070276107818
 30
0.0
  0
VERTEX
  5
47E
  8
_____1
  6
CONTINUOUS
 62
     0
 10
1132.690235146678
 20
-440.1255231397213
 30
0.0
  0
VERTEX
  5
47F
  8
_____1
  6
CONTINUOUS
 62
     0
 10
1181.430056304255
 20
-432.8145499660914
 30
0.0
  0
VERTEX
  5
480
  8
_____1
  6
CONTINUOUS
 62
     0
 10
1187.522533948948
 20
-430.3775589082084
 30
0.0
  0
VERTEX
  5
481
  8
_____1
  6
CONTINUOUS
 62
     0
 10
1189.959525006835
 20
-426.7220723213918
 30
0.0
  0
VERTEX
  5
482
  8
_____1
  6
CONTINUOUS
 62
     0
 10
1187.522533948948
 20
-418.1926036188183
 30
0.0
  0
VERTEX
  5
483
  8
_____1
  6
CONTINUOUS
 62
     0
 10
1182.648551833192
 20
-413.3186215030569
 30
0.0
  0
VERTEX
  5
484
  8
_____1
  6
CONTINUOUS
 62
     0
 10
1169.245101014851
 20
-407.2261438583669
 30
0.0
  0
VERTEX
  5
485
  8
_____1
  6
CONTINUOUS
 62
     0
 10
1125.379261973054
 20
-396.2596840979145
 30
0.0
  0
VERTEX
  5
486
  8
_____1
  6
CONTINUOUS
 62
     0
 10
1113.194306683667
 20
-385.2932243374621
 30
0.0
  0
VERTEX
  5
487
  8
_____1
  6
CONTINUOUS
 62
     0
 10
1053.488025765643
 20
-303.6540238985476
 30
0.0
  0
VERTEX
  5
488
  8
_____1
  6
CONTINUOUS
 62
     0
 10
1036.429088360497
 20
-267.0991580303707
 30
0.0
  0
VERTEX
  5
489
  8
_____1
  6
CONTINUOUS
 62
     0
 10
1037.647583889435
 20
-264.6621669724923
 30
0.0
  0
VERTEX
  5
48A
  8
_____1
  6
CONTINUOUS
 62
     0
 10
1047.395548120951
 20
-261.0066803856785
 30
0.0
  0
VERTEX
  5
48B
  8
_____1
  6
CONTINUOUS
 62
     0
 10
1051.051034707771
 20
-256.1326982699161
 30
0.0
  0
VERTEX
  5
48C
  8
_____1
  6
CONTINUOUS
 62
     0
 10
1020.58864648429
 20
-184.2414620625145
 30
0.0
  0
VERTEX
  5
48D
  8
_____1
  6
CONTINUOUS
 62
     0
 10
988.907762731875
 20
-85.54332421845129
 30
0.0
  0
VERTEX
  5
48E
  8
_____1
  6
CONTINUOUS
 62
     0
 10
974.2858163846033
 20
-30.71102541619211
 30
0.0
  0
VERTEX
  5
48F
  8
_____1
  6
CONTINUOUS
 62
     0
 10
951.13440133477
 20
82.6090587751437
 30
0.0
  0
VERTEX
  5
490
  8
_____1
  6
CONTINUOUS
 62
     0
 10
945.0419236900764
 20
135.004366519524
 30
0.0
  0
VERTEX
  5
491
  8
_____1
  6
CONTINUOUS
 62
     0
 10
938.9494460453845
 20
159.3742770983026
 30
0.0
  0
VERTEX
  5
492
  8
_____1
  6
CONTINUOUS
 62
     0
 10
882.8986517141805
 20
331.1821466787092
 30
0.0
  0
VERTEX
  5
493
  8
_____1
  6
CONTINUOUS
 62
     0
 10
870.7136964247768
 20
375.04798572052
 30
0.0
  0
VERTEX
  5
494
  8
_____1
  6
CONTINUOUS
 62
     0
 10
859.747236664329
 20
400.6363918282382
 30
0.0
  0
VERTEX
  5
495
  8
_____1
  6
CONTINUOUS
 62
     0
 10
860.9657321932812
 20
404.291878415052
 30
0.0
  0
VERTEX
  5
496
  8
_____1
  6
CONTINUOUS
 62
     0
 10
869.4952008958446
 20
405.5103739439955
 30
0.0
  0
VERTEX
  5
497
  8
_____1
  6
CONTINUOUS
 62
     0
 10
874.3691830116024
 20
410.3843560597534
 30
0.0
  0
VERTEX
  5
498
  8
_____1
  6
CONTINUOUS
 62
     0
 10
878.0246695984245
 20
499.3345296723037
 30
0.0
  0
VERTEX
  5
499
  8
_____1
  6
CONTINUOUS
 62
     0
 10
935.2939594585625
 20
435.9727621674692
 30
0.0
  0
VERTEX
  5
49A
  8
_____1
  6
CONTINUOUS
 62
     0
 10
941.3864371032544
 20
432.3172755806536
 30
0.0
  0
VERTEX
  5
49B
  8
_____1
  6
CONTINUOUS
 62
     0
 10
957.2268789794618
 20
440.8467442832266
 30
0.0
  0
VERTEX
  5
49C
  8
_____1
  6
CONTINUOUS
 62
     0
 10
971.8488253267317
 20
421.3508158202035
 30
0.0
  0
VERTEX
  5
49D
  8
_____1
  6
CONTINUOUS
 62
     0
 10
986.4707716740033
 20
406.7288694729355
 30
0.0
  0
VERTEX
  5
49E
  8
_____1
  6
CONTINUOUS
 62
     0
 10
1005.966700137035
 20
394.5439141835413
 30
0.0
  0
VERTEX
  5
49F
  8
_____1
  6
CONTINUOUS
 62
     0
 10
1019.37015095536
 20
381.1404633652128
 30
0.0
  0
VERTEX
  5
4A0
  8
_____1
  6
CONTINUOUS
 62
     0
 10
1026.681124128984
 20
368.9555080758209
 30
0.0
  0
VERTEX
  5
4A1
  8
_____1
  6
CONTINUOUS
 62
     0
 10
1026.681124128984
 20
361.6445349021869
 30
0.0
  0
VERTEX
  5
4A2
  8
_____1
  6
CONTINUOUS
 62
     0
 10
1020.58864648429
 20
353.1150661996157
 30
0.0
  0
VERTEX
  5
4A3
  8
_____1
  6
CONTINUOUS
 62
     0
 10
1023.025637542162
 20
347.0225885549189
 30
0.0
  0
VERTEX
  5
4A4
  8
_____1
  6
CONTINUOUS
 62
     0
 10
1026.681124128984
 20
347.0225885549189
 30
0.0
  0
VERTEX
  5
4A5
  8
_____1
  6
CONTINUOUS
 62
     0
 10
1032.773601773677
 20
350.6780751417368
 30
0.0
  0
VERTEX
  5
4A6
  8
_____1
  6
CONTINUOUS
 62
     0
 10
1042.521566005191
 20
362.8630304311259
 30
0.0
  0
VERTEX
  5
4A7
  8
_____1
  6
CONTINUOUS
 62
     0
 10
1043.740061534143
 20
359.2075438443103
 30
0.0
  0
VERTEX
  5
4A8
  8
_____1
  6
CONTINUOUS
 62
     0
 10
1038.866079418389
 20
349.4595796127978
 30
0.0
  0
VERTEX
  5
4A9
  8
_____1
  6
CONTINUOUS
 62
     0
 10
1038.866079418389
 20
344.5855974970445
 30
0.0
  0
VERTEX
  5
4AA
  8
_____1
  6
CONTINUOUS
 62
     0
 10
1041.303070476257
 20
342.1486064391634
 30
0.0
  0
VERTEX
  5
4AB
  8
_____1
  6
CONTINUOUS
 62
     0
 10
1044.958557063079
 20
342.1486064391634
 30
0.0
  0
VERTEX
  5
4AC
  8
_____1
  6
CONTINUOUS
 62
     0
 10
1053.488025765643
 20
349.4595796127978
 30
0.0
  0
VERTEX
  5
4AD
  8
_____1
  6
CONTINUOUS
 62
     0
 10
1060.798998939287
 20
365.3000214890026
 30
0.0
  0
VERTEX
  5
4AE
  8
_____1
  6
CONTINUOUS
 62
     0
 10
1057.143512352465
 20
378.7034723073384
 30
0.0
  0
VERTEX
  5
4AF
  8
_____1
  6
CONTINUOUS
 62
     0
 10
1058.362007881402
 20
383.5774544230912
 30
0.0
  0
VERTEX
  5
4B0
  8
_____1
  6
CONTINUOUS
 62
     0
 10
1065.672981055044
 20
365.3000214890026
 30
0.0
  0
VERTEX
  5
4B1
  8
_____1
  6
CONTINUOUS
 62
     0
 10
1064.454485526089
 20
353.1150661996157
 30
0.0
  0
VERTEX
  5
4B2
  8
_____1
  6
CONTINUOUS
 62
     0
 10
1066.891476583982
 20
349.4595796127978
 30
0.0
  0
VERTEX
  5
4B3
  8
_____1
  6
CONTINUOUS
 62
     0
 10
1071.765458699738
 20
348.2410840838579
 30
0.0
  0
VERTEX
  5
4B4
  8
_____1
  6
CONTINUOUS
 62
     0
 10
1076.639440815496
 20
353.1150661996157
 30
0.0
  0
VERTEX
  5
4B5
  8
_____1
  6
CONTINUOUS
 62
     0
 10
1080.2949274023
 20
361.6445349021869
 30
0.0
  0
VERTEX
  5
4B6
  8
_____1
  6
CONTINUOUS
 62
     0
 10
1080.2949274023
 20
377.484976778399
 30
0.0
  0
VERTEX
  5
4B7
  8
_____1
  6
CONTINUOUS
 62
     0
 10
1072.983954228676
 20
399.4178962992987
 30
0.0
  0
VERTEX
  5
4B8
  8
_____1
  6
CONTINUOUS
 62
     0
 10
1057.143512352465
 20
418.9138247623273
 30
0.0
  0
VERTEX
  5
4B9
  8
_____1
  6
CONTINUOUS
 62
     0
 10
1038.866079418389
 20
437.191257696411
 30
0.0
  0
VERTEX
  5
4BA
  8
_____1
  6
CONTINUOUS
 62
     0
 10
1004.748204608086
 20
456.6871861594364
 30
0.0
  0
VERTEX
  5
4BB
  8
_____1
  6
CONTINUOUS
 62
     0
 10
988.907762731875
 20
471.3091325067048
 30
0.0
  0
VERTEX
  5
4BC
  8
_____1
  6
CONTINUOUS
 62
     0
 10
990.1262582608126
 20
472.5276280356443
 30
0.0
  0
VERTEX
  5
4BD
  8
_____1
  6
CONTINUOUS
 62
     0
 10
986.4707716740033
 20
479.8386012092806
 30
0.0
  0
VERTEX
  5
4BE
  8
_____1
  6
CONTINUOUS
 62
     0
 10
927.9829862849349
 20
545.6373597719871
 30
0.0
  0
VERTEX
  5
4BF
  8
_____1
  6
CONTINUOUS
 62
     0
 10
874.3691830116024
 20
616.3101004504538
 30
0.0
  0
VERTEX
  5
4C0
  8
_____1
  6
CONTINUOUS
 62
     0
 10
875.5876785405328
 20
666.2684171369597
 30
0.0
  0
VERTEX
  5
4C1
  8
_____1
  6
CONTINUOUS
 62
     0
 10
881.6801561852465
 20
727.1931935839089
 30
0.0
  0
VERTEX
  5
4C2
  8
_____1
  6
CONTINUOUS
 62
     0
 10
878.0246695984245
 20
757.6555818073844
 30
0.0
  0
VERTEX
  5
4C3
  8
_____1
  6
CONTINUOUS
 62
     0
 10
871.9321919537308
 20
774.7145192125336
 30
0.0
  0
VERTEX
  5
4C4
  8
_____1
  6
CONTINUOUS
 62
     0
 10
859.747236664329
 20
799.0844297913122
 30
0.0
  0
VERTEX
  5
4C5
  8
_____1
  6
CONTINUOUS
 62
     0
 10
818.3183886803984
 20
867.3201794119018
 30
0.0
  0
VERTEX
  5
4C6
  8
_____1
  6
CONTINUOUS
 62
     0
 10
789.0744959858732
 20
923.3709737431004
 30
0.0
  0
VERTEX
  5
4C7
  8
_____1
  6
CONTINUOUS
 62
     0
 10
789.0744959858732
 20
929.4634513877932
 30
0.0
  0
VERTEX
  5
4C8
  8
_____1
  6
CONTINUOUS
 62
     0
 10
802.4779468042109
 20
961.1443351402127
 30
0.0
  0
VERTEX
  5
4C9
  8
_____1
  6
CONTINUOUS
 62
     0
 10
807.3519289199487
 20
966.0183172559678
 30
0.0
  0
VERTEX
  5
4CA
  8
_____1
  6
CONTINUOUS
 62
     0
 10
819.5368842093487
 20
967.2368127849054
 30
0.0
  0
VERTEX
  5
4CB
  8
_____1
  6
CONTINUOUS
 62
     0
 10
837.814317143426
 20
964.799821727031
 30
0.0
  0
VERTEX
  5
4CC
  8
_____1
  6
CONTINUOUS
 62
     0
 10
848.7807769038775
 20
968.4553083138494
 30
0.0
  0
VERTEX
  5
4CD
  8
_____1
  6
CONTINUOUS
 62
     0
 10
853.6547590196335
 20
973.3292904296018
 30
0.0
  0
VERTEX
  5
4CE
  8
_____1
  6
CONTINUOUS
 62
     0
 10
853.6547590196335
 20
994.0437144215671
 30
0.0
  0
VERTEX
  5
4CF
  8
_____1
  6
CONTINUOUS
 62
     0
 10
860.9657321932812
 20
1003.79167865308
 30
0.0
  0
VERTEX
  5
4D0
  8
_____1
  6
CONTINUOUS
 62
     0
 10
860.9657321932812
 20
1011.102651826714
 30
0.0
  0
VERTEX
  5
4D1
  8
_____1
  6
CONTINUOUS
 62
     0
 10
863.402723251151
 20
1014.758138413528
 30
0.0
  0
VERTEX
  5
4D2
  8
_____1
  6
CONTINUOUS
 62
     0
 10
862.1842277222152
 20
1026.943093702922
 30
0.0
  0
VERTEX
  5
4D3
  8
_____1
  6
CONTINUOUS
 62
     0
 10
867.058209837973
 20
1034.254066876558
 30
0.0
  0
VERTEX
  5
4D4
  8
_____1
  6
CONTINUOUS
 62
     0
 10
874.3691830116024
 20
1035.472562405498
 30
0.0
  0
VERTEX
  5
4D5
  8
_____1
  6
CONTINUOUS
 62
     0
 10
880.4616606562925
 20
1040.34654452125
 30
0.0
  0
VERTEX
  5
4D6
  8
_____1
  6
CONTINUOUS
 62
     0
 10
880.4616606562925
 20
1047.657517694887
 30
0.0
  0
VERTEX
  5
4D7
  8
_____1
  6
CONTINUOUS
 62
     0
 10
878.0246695984245
 20
1052.531499810639
 30
0.0
  0
VERTEX
  5
4D8
  8
_____1
  6
CONTINUOUS
 62
     0
 10
867.058209837973
 20
1064.716455100034
 30
0.0
  0
VERTEX
  5
4D9
  8
_____1
  6
CONTINUOUS
 62
     0
 10
857.3102456064573
 20
1085.430879091995
 30
0.0
  0
VERTEX
  5
4DA
  8
_____1
  6
CONTINUOUS
 62
     0
 10
858.5287411353931
 20
1113.456276257596
 30
0.0
  0
VERTEX
  5
4DB
  8
_____1
  6
CONTINUOUS
 62
     0
 10
852.4362634906995
 20
1139.044682365313
 30
0.0
  0
VERTEX
  5
4DC
  8
_____1
  6
CONTINUOUS
 62
     0
 10
845.1252903170737
 20
1153.666628712581
 30
0.0
  0
VERTEX
  5
4DD
  8
_____1
  6
CONTINUOUS
 62
     0
 10
828.0663529119322
 20
1171.944061646671
 30
0.0
  0
VERTEX
  5
4DE
  8
_____1
  6
CONTINUOUS
 62
     0
 10
803.6964423331467
 20
1184.129016936062
 30
0.0
  0
VERTEX
  5
4DF
  8
_____1
  6
CONTINUOUS
 62
     0
 10
789.0744959858732
 20
1187.78450352288
 30
0.0
  0
VERTEX
  5
4E0
  8
_____1
  6
CONTINUOUS
 62
     0
 10
747.645648001939
 20
1189.00299905182
 30
0.0
  0
SEQEND
  5
4E1
  8
_____1
  6
CONTINUOUS
 62
     0
  0
POLYLINE
  5
4E2
  8
_____1
  6
CONTINUOUS
 62
     0
 66
     1
 10
0.0
 20
0.0
 30
0.0
 70
   129
  0
VERTEX
  5
4E3
  8
_____1
  6
CONTINUOUS
 62
     0
 10
-1647.325739968289
 20
1170.671407121084
 30
0.0
  0
VERTEX
  5
4E4
  8
_____1
  6
CONTINUOUS
 62
     0
 10
-1667.048743982402
 20
1164.754505916845
 30
0.0
  0
VERTEX
  5
4E5
  8
_____1
  6
CONTINUOUS
 62
     0
 10
-1692.688649200766
 20
1148.97610270555
 30
0.0
  0
VERTEX
  5
4E6
  8
_____1
  6
CONTINUOUS
 62
     0
 10
-1712.411653214896
 20
1123.336197487188
 30
0.0
  0
VERTEX
  5
4E7
  8
_____1
  6
CONTINUOUS
 62
     0
 10
-1726.217756024788
 20
1083.890189458934
 30
0.0
  0
VERTEX
  5
4E8
  8
_____1
  6
CONTINUOUS
 62
     0
 10
-1732.134657229027
 20
1077.973288254702
 30
0.0
  0
VERTEX
  5
4E9
  8
_____1
  6
CONTINUOUS
 62
     0
 10
-1749.88536084173
 20
1076.000987853282
 30
0.0
  0
VERTEX
  5
4EA
  8
_____1
  6
CONTINUOUS
 62
     0
 10
-1765.663764053029
 20
1070.084086649049
 30
0.0
  0
VERTEX
  5
4EB
  8
_____1
  6
CONTINUOUS
 62
     0
 10
-1779.469866862922
 20
1056.277983839162
 30
0.0
  0
VERTEX
  5
4EC
  8
_____1
  6
CONTINUOUS
 62
     0
 10
-1785.386768067158
 20
1044.444181430688
 30
0.0
  0
VERTEX
  5
4ED
  8
_____1
  6
CONTINUOUS
 62
     0
 10
-1785.386768067158
 20
1020.776576613743
 30
0.0
  0
VERTEX
  5
4EE
  8
_____1
  6
CONTINUOUS
 62
     0
 10
-1781.442167264329
 20
1006.970473803849
 30
0.0
  0
VERTEX
  5
4EF
  8
_____1
  6
CONTINUOUS
 62
     0
 10
-1761.719163250199
 20
981.3305685854898
 30
0.0
  0
VERTEX
  5
4F0
  8
_____1
  6
CONTINUOUS
 62
     0
 10
-1747.913060440325
 20
975.413667381255
 30
0.0
  0
VERTEX
  5
4F1
  8
_____1
  6
CONTINUOUS
 62
     0
 10
-1728.190056426193
 20
979.3582681840803
 30
0.0
  0
VERTEX
  5
4F2
  8
_____1
  6
CONTINUOUS
 62
     0
 10
-1728.190056426193
 20
1020.776576613743
 30
0.0
  0
VERTEX
  5
4F3
  8
_____1
  6
CONTINUOUS
 62
     0
 10
-1722.273155221959
 20
1034.582679423628
 30
0.0
  0
VERTEX
  5
4F4
  8
_____1
  6
CONTINUOUS
 62
     0
 10
-1718.32855441913
 20
1036.554979825038
 30
0.0
  0
VERTEX
  5
4F5
  8
_____1
  6
CONTINUOUS
 62
     0
 10
-1712.411653214896
 20
1012.887375008093
 30
0.0
  0
VERTEX
  5
4F6
  8
_____1
  6
CONTINUOUS
 62
     0
 10
-1704.522451609258
 20
999.0812721982088
 30
0.0
  0
VERTEX
  5
4F7
  8
_____1
  6
CONTINUOUS
 62
     0
 10
-1680.854846792297
 20
979.3582681840803
 30
0.0
  0
VERTEX
  5
4F8
  8
_____1
  6
CONTINUOUS
 62
     0
 10
-1696.633250003596
 20
930.0507581487659
 30
0.0
  0
VERTEX
  5
4F9
  8
_____1
  6
CONTINUOUS
 62
     0
 10
-1736.079258031835
 20
882.7155485148674
 30
0.0
  0
VERTEX
  5
4FA
  8
_____1
  6
CONTINUOUS
 62
     0
 10
-1761.719163250199
 20
841.2972400852136
 30
0.0
  0
VERTEX
  5
4FB
  8
_____1
  6
CONTINUOUS
 62
     0
 10
-1820.888175292587
 20
726.9038168032916
 30
0.0
  0
VERTEX
  5
4FC
  8
_____1
  6
CONTINUOUS
 62
     0
 10
-1842.583479708118
 20
671.6794055637433
 30
0.0
  0
VERTEX
  5
4FD
  8
_____1
  6
CONTINUOUS
 62
     0
 10
-1848.500380912355
 20
642.0948995425592
 30
0.0
  0
VERTEX
  5
4FE
  8
_____1
  6
CONTINUOUS
 62
     0
 10
-1864.278784123656
 20
606.5934923171349
 30
0.0
  0
VERTEX
  5
4FF
  8
_____1
  6
CONTINUOUS
 62
     0
 10
-1872.167985729292
 20
578.9812866973607
 30
0.0
  0
VERTEX
  5
500
  8
_____1
  6
CONTINUOUS
 62
     0
 10
-1880.057187334952
 20
533.6183774648771
 30
0.0
  0
VERTEX
  5
501
  8
_____1
  6
CONTINUOUS
 62
     0
 10
-1889.91868934202
 20
423.169554985785
 30
0.0
  0
VERTEX
  5
502
  8
_____1
  6
CONTINUOUS
 62
     0
 10
-1899.780191349083
 20
399.5019501688357
 30
0.0
  0
VERTEX
  5
503
  8
_____1
  6
CONTINUOUS
 62
     0
 10
-1911.613993757553
 20
381.7512465561213
 30
0.0
  0
VERTEX
  5
504
  8
_____1
  6
CONTINUOUS
 62
     0
 10
-1915.558594560383
 20
362.0282425420019
 30
0.0
  0
VERTEX
  5
505
  8
_____1
  6
CONTINUOUS
 62
     0
 10
-1929.364697370259
 20
328.4991357179879
 30
0.0
  0
VERTEX
  5
506
  8
_____1
  6
CONTINUOUS
 62
     0
 10
-1915.558594560383
 20
302.8592304996287
 30
0.0
  0
VERTEX
  5
507
  8
_____1
  6
CONTINUOUS
 62
     0
 10
-1907.669392954723
 20
302.8592304996287
 30
0.0
  0
VERTEX
  5
508
  8
_____1
  6
CONTINUOUS
 62
     0
 10
-1901.752491750488
 20
294.9700288939762
 30
0.0
  0
VERTEX
  5
509
  8
_____1
  6
CONTINUOUS
 62
     0
 10
-1887.946388940595
 20
292.9977284925685
 30
0.0
  0
VERTEX
  5
50A
  8
_____1
  6
CONTINUOUS
 62
     0
 10
-1872.167985729292
 20
306.8038313024531
 30
0.0
  0
VERTEX
  5
50B
  8
_____1
  6
CONTINUOUS
 62
     0
 10
-1854.417282116588
 20
334.4160369222227
 30
0.0
  0
VERTEX
  5
50C
  8
_____1
  6
CONTINUOUS
 62
     0
 10
-1846.528080510948
 20
364.0005429434118
 30
0.0
  0
VERTEX
  5
50D
  8
_____1
  6
CONTINUOUS
 62
     0
 10
-1846.528080510948
 20
415.2803533801302
 30
0.0
  0
VERTEX
  5
50E
  8
_____1
  6
CONTINUOUS
 62
     0
 10
-1840.611179306711
 20
433.0310569928452
 30
0.0
  0
VERTEX
  5
50F
  8
_____1
  6
CONTINUOUS
 62
     0
 10
-1838.638878905294
 20
452.7540610069691
 30
0.0
  0
VERTEX
  5
510
  8
_____1
  6
CONTINUOUS
 62
     0
 10
-1801.165171278462
 20
584.8981879016005
 30
0.0
  0
VERTEX
  5
511
  8
_____1
  6
CONTINUOUS
 62
     0
 10
-1781.442167264329
 20
632.2333975354991
 30
0.0
  0
VERTEX
  5
512
  8
_____1
  6
CONTINUOUS
 62
     0
 10
-1730.1623568276
 20
709.1531131905826
 30
0.0
  0
VERTEX
  5
513
  8
_____1
  6
CONTINUOUS
 62
     0
 10
-1724.245455623365
 20
713.0977139934071
 30
0.0
  0
VERTEX
  5
514
  8
_____1
  6
CONTINUOUS
 62
     0
 10
-1720.300854820555
 20
701.2639115849329
 30
0.0
  0
VERTEX
  5
515
  8
_____1
  6
CONTINUOUS
 62
     0
 10
-1712.411653214896
 20
610.5380931199625
 30
0.0
  0
VERTEX
  5
516
  8
_____1
  6
CONTINUOUS
 62
     0
 10
-1720.300854820555
 20
571.092085091716
 30
0.0
  0
VERTEX
  5
517
  8
_____1
  6
CONTINUOUS
 62
     0
 10
-1745.94076003892
 20
507.9784722465179
 30
0.0
  0
VERTEX
  5
518
  8
_____1
  6
CONTINUOUS
 62
     0
 10
-1769.608364855863
 20
433.0310569928452
 30
0.0
  0
VERTEX
  5
519
  8
_____1
  6
CONTINUOUS
 62
     0
 10
-1773.552965658689
 20
413.3080529787226
 30
0.0
  0
VERTEX
  5
51A
  8
_____1
  6
CONTINUOUS
 62
     0
 10
-1775.525266060094
 20
360.0559421405846
 30
0.0
  0
VERTEX
  5
51B
  8
_____1
  6
CONTINUOUS
 62
     0
 10
-1793.275969672798
 20
277.2193252812644
 30
0.0
  0
VERTEX
  5
51C
  8
_____1
  6
CONTINUOUS
 62
     0
 10
-1814.971274088351
 20
214.1057124360659
 30
0.0
  0
VERTEX
  5
51D
  8
_____1
  6
CONTINUOUS
 62
     0
 10
-1844.555780109523
 20
145.075198386633
 30
0.0
  0
VERTEX
  5
51E
  8
_____1
  6
CONTINUOUS
 62
     0
 10
-1840.611179306711
 20
135.2136963795733
 30
0.0
  0
VERTEX
  5
51F
  8
_____1
  6
CONTINUOUS
 62
     0
 10
-1803.137471679863
 20
121.4075935696883
 30
0.0
  0
VERTEX
  5
520
  8
_____1
  6
CONTINUOUS
 62
     0
 10
-1799.192870877035
 20
117.4629927668634
 30
0.0
  0
VERTEX
  5
521
  8
_____1
  6
CONTINUOUS
 62
     0
 10
-1799.192870877035
 20
109.5737911612141
 30
0.0
  0
VERTEX
  5
522
  8
_____1
  6
CONTINUOUS
 62
     0
 10
-1816.943574489757
 20
70.12778313296485
 30
0.0
  0
VERTEX
  5
523
  8
_____1
  6
CONTINUOUS
 62
     0
 10
-1850.47268131376
 20
16.87567229482647
 30
0.0
  0
VERTEX
  5
524
  8
_____1
  6
CONTINUOUS
 62
     0
 10
-1866.251084525057
 20
-2.847331719292924
 30
0.0
  0
VERTEX
  5
525
  8
_____1
  6
CONTINUOUS
 62
     0
 10
-1885.974088539189
 20
-42.29333974754672
 30
0.0
  0
VERTEX
  5
526
  8
_____1
  6
CONTINUOUS
 62
     0
 10
-1899.780191349083
 20
-97.51775098708504
 30
0.0
  0
VERTEX
  5
527
  8
_____1
  6
CONTINUOUS
 62
     0
 10
-1925.420096567429
 20
-239.5233798887862
 30
0.0
  0
VERTEX
  5
528
  8
_____1
  6
CONTINUOUS
 62
     0
 10
-1935.281598574492
 20
-263.1909847057309
 30
0.0
  0
VERTEX
  5
529
  8
_____1
  6
CONTINUOUS
 62
     0
 10
-1964.866104595688
 20
-300.664692332567
 30
0.0
  0
VERTEX
  5
52A
  8
_____1
  6
CONTINUOUS
 62
     0
 10
-1974.727606602753
 20
-359.8337043749402
 30
0.0
  0
VERTEX
  5
52B
  8
_____1
  6
CONTINUOUS
 62
     0
 10
-1960.921503792858
 20
-375.6121075862352
 30
0.0
  0
VERTEX
  5
52C
  8
_____1
  6
CONTINUOUS
 62
     0
 10
-1949.087701384388
 20
-383.5013091918877
 30
0.0
  0
VERTEX
  5
52D
  8
_____1
  6
CONTINUOUS
 62
     0
 10
-1943.170800180152
 20
-363.7783051777683
 30
0.0
  0
VERTEX
  5
52E
  8
_____1
  6
CONTINUOUS
 62
     0
 10
-1937.253898975897
 20
-355.8891035721158
 30
0.0
  0
VERTEX
  5
52F
  8
_____1
  6
CONTINUOUS
 62
     0
 10
-1923.447796166024
 20
-369.6952063820004
 30
0.0
  0
VERTEX
  5
530
  8
_____1
  6
CONTINUOUS
 62
     0
 10
-1897.807890947658
 20
-405.196613607422
 30
0.0
  0
VERTEX
  5
531
  8
_____1
  6
CONTINUOUS
 62
     0
 10
-1878.084886933547
 20
-424.9196176215487
 30
0.0
  0
VERTEX
  5
532
  8
_____1
  6
CONTINUOUS
 62
     0
 10
-1866.251084525057
 20
-430.8365188257808
 30
0.0
  0
VERTEX
  5
533
  8
_____1
  6
CONTINUOUS
 62
     0
 10
-1836.666578503889
 20
-438.725720431436
 30
0.0
  0
VERTEX
  5
534
  8
_____1
  6
CONTINUOUS
 62
     0
 10
-1801.165171278462
 20
-438.725720431436
 30
0.0
  0
VERTEX
  5
535
  8
_____1
  6
CONTINUOUS
 62
     0
 10
-1791.303669271393
 20
-430.8365188257808
 30
0.0
  0
VERTEX
  5
536
  8
_____1
  6
CONTINUOUS
 62
     0
 10
-1793.275969672798
 20
-419.0027164173139
 30
0.0
  0
VERTEX
  5
537
  8
_____1
  6
CONTINUOUS
 62
     0
 10
-1805.109772081288
 20
-407.168914008837
 30
0.0
  0
VERTEX
  5
538
  8
_____1
  6
CONTINUOUS
 62
     0
 10
-1838.638878905294
 20
-385.4736095933026
 30
0.0
  0
VERTEX
  5
539
  8
_____1
  6
CONTINUOUS
 62
     0
 10
-1850.47268131376
 20
-363.7783051777683
 30
0.0
  0
VERTEX
  5
53A
  8
_____1
  6
CONTINUOUS
 62
     0
 10
-1860.334183320824
 20
-334.1937991565787
 30
0.0
  0
VERTEX
  5
53B
  8
_____1
  6
CONTINUOUS
 62
     0
 10
-1866.251084525057
 20
-304.6092931353946
 30
0.0
  0
VERTEX
  5
53C
  8
_____1
  6
CONTINUOUS
 62
     0
 10
-1866.251084525057
 20
-267.1355855085553
 30
0.0
  0
VERTEX
  5
53D
  8
_____1
  6
CONTINUOUS
 62
     0
 10
-1854.417282116588
 20
-229.6618778817165
 30
0.0
  0
VERTEX
  5
53E
  8
_____1
  6
CONTINUOUS
 62
     0
 10
-1812.998973686929
 20
-125.1299566068642
 30
0.0
  0
VERTEX
  5
53F
  8
_____1
  6
CONTINUOUS
 62
     0
 10
-1769.608364855863
 20
-34.40413814189424
 30
0.0
  0
VERTEX
  5
540
  8
_____1
  6
CONTINUOUS
 62
     0
 10
-1740.023858834663
 20
10.95877109059165
 30
0.0
  0
VERTEX
  5
541
  8
_____1
  6
CONTINUOUS
 62
     0
 10
-1708.467052412084
 20
42.51557751319069
 30
0.0
  0
VERTEX
  5
542
  8
_____1
  6
CONTINUOUS
 62
     0
 10
-1692.688649200766
 20
72.10008353437479
 30
0.0
  0
VERTEX
  5
543
  8
_____1
  6
CONTINUOUS
 62
     0
 10
-1686.77174799653
 20
91.82308754850419
 30
0.0
  0
VERTEX
  5
544
  8
_____1
  6
CONTINUOUS
 62
     0
 10
-1680.854846792297
 20
95.76768835132907
 30
0.0
  0
VERTEX
  5
545
  8
_____1
  6
CONTINUOUS
 62
     0
 10
-1592.101328728732
 20
93.79538794991186
 30
0.0
  0
VERTEX
  5
546
  8
_____1
  6
CONTINUOUS
 62
     0
 10
-1580.267526320266
 20
85.90618634425937
 30
0.0
  0
VERTEX
  5
547
  8
_____1
  6
CONTINUOUS
 62
     0
 10
-1566.46142351039
 20
58.29398072449021
 30
0.0
  0
VERTEX
  5
548
  8
_____1
  6
CONTINUOUS
 62
     0
 10
-1554.6276211019
 20
24.76487390047851
 30
0.0
  0
VERTEX
  5
549
  8
_____1
  6
CONTINUOUS
 62
     0
 10
-1548.710719897667
 20
-65.960944564491
 30
0.0
  0
VERTEX
  5
54A
  8
_____1
  6
CONTINUOUS
 62
     0
 10
-1536.876917489198
 20
-115.268454599805
 30
0.0
  0
VERTEX
  5
54B
  8
_____1
  6
CONTINUOUS
 62
     0
 10
-1523.070814679301
 20
-148.7975614238089
 30
0.0
  0
VERTEX
  5
54C
  8
_____1
  6
CONTINUOUS
 62
     0
 10
-1448.123399425634
 20
-292.775490726915
 30
0.0
  0
VERTEX
  5
54D
  8
_____1
  6
CONTINUOUS
 62
     0
 10
-1434.317296615757
 20
-330.2491983537534
 30
0.0
  0
VERTEX
  5
54E
  8
_____1
  6
CONTINUOUS
 62
     0
 10
-1434.317296615757
 20
-338.1383999594032
 30
0.0
  0
VERTEX
  5
54F
  8
_____1
  6
CONTINUOUS
 62
     0
 10
-1446.151099024227
 20
-365.750605579175
 30
0.0
  0
VERTEX
  5
550
  8
_____1
  6
CONTINUOUS
 62
     0
 10
-1434.317296615757
 20
-436.7534200300256
 30
0.0
  0
VERTEX
  5
551
  8
_____1
  6
CONTINUOUS
 62
     0
 10
-1414.594292601626
 20
-438.725720431436
 30
0.0
  0
VERTEX
  5
552
  8
_____1
  6
CONTINUOUS
 62
     0
 10
-1402.760490193156
 20
-434.7811196286079
 30
0.0
  0
VERTEX
  5
553
  8
_____1
  6
CONTINUOUS
 62
     0
 10
-1400.78818979173
 20
-420.9750168187215
 30
0.0
  0
VERTEX
  5
554
  8
_____1
  6
CONTINUOUS
 62
     0
 10
-1404.732790594563
 20
-401.2520128045967
 30
0.0
  0
VERTEX
  5
555
  8
_____1
  6
CONTINUOUS
 62
     0
 10
-1400.78818979173
 20
-399.2797124031867
 30
0.0
  0
VERTEX
  5
556
  8
_____1
  6
CONTINUOUS
 62
     0
 10
-1363.314482164896
 20
-428.8642184243736
 30
0.0
  0
VERTEX
  5
557
  8
_____1
  6
CONTINUOUS
 62
     0
 10
-1343.591478150788
 20
-436.7534200300256
 30
0.0
  0
VERTEX
  5
558
  8
_____1
  6
CONTINUOUS
 62
     0
 10
-1321.896173735232
 20
-440.6980208328509
 30
0.0
  0
VERTEX
  5
559
  8
_____1
  6
CONTINUOUS
 62
     0
 10
-1262.727161692869
 20
-438.725720431436
 30
0.0
  0
VERTEX
  5
55A
  8
_____1
  6
CONTINUOUS
 62
     0
 10
-1235.1149560731
 20
-426.8919180229555
 30
0.0
  0
VERTEX
  5
55B
  8
_____1
  6
CONTINUOUS
 62
     0
 10
-1233.142655671693
 20
-419.0027164173139
 30
0.0
  0
VERTEX
  5
55C
  8
_____1
  6
CONTINUOUS
 62
     0
 10
-1241.031857277335
 20
-413.0858152130718
 30
0.0
  0
VERTEX
  5
55D
  8
_____1
  6
CONTINUOUS
 62
     0
 10
-1270.616363298529
 20
-405.196613607422
 30
0.0
  0
VERTEX
  5
55E
  8
_____1
  6
CONTINUOUS
 62
     0
 10
-1290.33936731264
 20
-393.3628111989515
 30
0.0
  0
VERTEX
  5
55F
  8
_____1
  6
CONTINUOUS
 62
     0
 10
-1319.923873333827
 20
-359.8337043749402
 30
0.0
  0
VERTEX
  5
560
  8
_____1
  6
CONTINUOUS
 62
     0
 10
-1333.729976143704
 20
-351.9445027692886
 30
0.0
  0
VERTEX
  5
561
  8
_____1
  6
CONTINUOUS
 62
     0
 10
-1355.425280559258
 20
-330.2491983537534
 30
0.0
  0
VERTEX
  5
562
  8
_____1
  6
CONTINUOUS
 62
     0
 10
-1381.065185777622
 20
-284.8862891212652
 30
0.0
  0
VERTEX
  5
563
  8
_____1
  6
CONTINUOUS
 62
     0
 10
-1398.815889390327
 20
-233.6064786845413
 30
0.0
  0
VERTEX
  5
564
  8
_____1
  6
CONTINUOUS
 62
     0
 10
-1434.317296615757
 20
-103.4346521913276
 30
0.0
  0
VERTEX
  5
565
  8
_____1
  6
CONTINUOUS
 62
     0
 10
-1454.040300629869
 20
-18.6257349305929
 30
0.0
  0
VERTEX
  5
566
  8
_____1
  6
CONTINUOUS
 62
     0
 10
-1457.984901432697
 20
8.986470689176713
 30
0.0
  0
VERTEX
  5
567
  8
_____1
  6
CONTINUOUS
 62
     0
 10
-1457.984901432697
 20
68.15548273155036
 30
0.0
  0
VERTEX
  5
568
  8
_____1
  6
CONTINUOUS
 62
     0
 10
-1465.874103038336
 20
101.6845895555643
 30
0.0
  0
VERTEX
  5
569
  8
_____1
  6
CONTINUOUS
 62
     0
 10
-1465.874103038336
 20
109.5737911612141
 30
0.0
  0
VERTEX
  5
56A
  8
_____1
  6
CONTINUOUS
 62
     0
 10
-1456.01260103129
 20
119.4352931682733
 30
0.0
  0
VERTEX
  5
56B
  8
_____1
  6
CONTINUOUS
 62
     0
 10
-1456.01260103129
 20
125.3521943725132
 30
0.0
  0
VERTEX
  5
56C
  8
_____1
  6
CONTINUOUS
 62
     0
 10
-1465.874103038336
 20
147.0474987880502
 30
0.0
  0
VERTEX
  5
56D
  8
_____1
  6
CONTINUOUS
 62
     0
 10
-1473.763304643998
 20
180.5766056120569
 30
0.0
  0
VERTEX
  5
56E
  8
_____1
  6
CONTINUOUS
 62
     0
 10
-1513.209312672255
 20
298.9146296968038
 30
0.0
  0
VERTEX
  5
56F
  8
_____1
  6
CONTINUOUS
 62
     0
 10
-1519.12621387649
 20
330.4714361193978
 30
0.0
  0
VERTEX
  5
570
  8
_____1
  6
CONTINUOUS
 62
     0
 10
-1530.960016284959
 20
365.9728433448267
 30
0.0
  0
VERTEX
  5
571
  8
_____1
  6
CONTINUOUS
 62
     0
 10
-1542.793818693431
 20
438.9479581970845
 30
0.0
  0
VERTEX
  5
572
  8
_____1
  6
CONTINUOUS
 62
     0
 10
-1542.793818693431
 20
573.0643854931259
 30
0.0
  0
VERTEX
  5
573
  8
_____1
  6
CONTINUOUS
 62
     0
 10
-1491.514008256701
 20
515.8676738521676
 30
0.0
  0
VERTEX
  5
574
  8
_____1
  6
CONTINUOUS
 62
     0
 10
-1402.760490193156
 20
446.8371598027343
 30
0.0
  0
VERTEX
  5
575
  8
_____1
  6
CONTINUOUS
 62
     0
 10
-1373.175984171962
 20
415.2803533801302
 30
0.0
  0
VERTEX
  5
576
  8
_____1
  6
CONTINUOUS
 62
     0
 10
-1361.342181763495
 20
407.3911517744805
 30
0.0
  0
VERTEX
  5
577
  8
_____1
  6
CONTINUOUS
 62
     0
 10
-1347.536078953598
 20
407.3911517744805
 30
0.0
  0
VERTEX
  5
578
  8
_____1
  6
CONTINUOUS
 62
     0
 10
-1339.646877347958
 20
399.5019501688357
 30
0.0
  0
VERTEX
  5
579
  8
_____1
  6
CONTINUOUS
 62
     0
 10
-1331.757675742297
 20
397.5296497674212
 30
0.0
  0
VERTEX
  5
57A
  8
_____1
  6
CONTINUOUS
 62
     0
 10
-1329.785375340895
 20
391.6127485631864
 30
0.0
  0
VERTEX
  5
57B
  8
_____1
  6
CONTINUOUS
 62
     0
 10
-1333.729976143704
 20
385.6958473589461
 30
0.0
  0
VERTEX
  5
57C
  8
_____1
  6
CONTINUOUS
 62
     0
 10
-1333.729976143704
 20
377.8066457533014
 30
0.0
  0
VERTEX
  5
57D
  8
_____1
  6
CONTINUOUS
 62
     0
 10
-1312.034671728187
 20
375.8343453518864
 30
0.0
  0
VERTEX
  5
57E
  8
_____1
  6
CONTINUOUS
 62
     0
 10
-1298.228568918298
 20
387.6681477603611
 30
0.0
  0
VERTEX
  5
57F
  8
_____1
  6
CONTINUOUS
 62
     0
 10
-1296.256268516893
 20
417.2526537815502
 30
0.0
  0
VERTEX
  5
580
  8
_____1
  6
CONTINUOUS
 62
     0
 10
-1308.090070925363
 20
440.9202585984945
 30
0.0
  0
VERTEX
  5
581
  8
_____1
  6
CONTINUOUS
 62
     0
 10
-1323.868474136659
 20
456.698661809794
 30
0.0
  0
VERTEX
  5
582
  8
_____1
  6
CONTINUOUS
 62
     0
 10
-1363.314482164896
 20
470.504764619679
 30
0.0
  0
VERTEX
  5
583
  8
_____1
  6
CONTINUOUS
 62
     0
 10
-1390.926687784669
 20
494.1723694366333
 30
0.0
  0
VERTEX
  5
584
  8
_____1
  6
CONTINUOUS
 62
     0
 10
-1428.400395411521
 20
543.4798794719368
 30
0.0
  0
VERTEX
  5
585
  8
_____1
  6
CONTINUOUS
 62
     0
 10
-1497.430909460957
 20
624.3441959298466
 30
0.0
  0
VERTEX
  5
586
  8
_____1
  6
CONTINUOUS
 62
     0
 10
-1519.12621387649
 20
685.4855083736306
 30
0.0
  0
VERTEX
  5
587
  8
_____1
  6
CONTINUOUS
 62
     0
 10
-1515.181613073662
 20
693.3747099792804
 30
0.0
  0
VERTEX
  5
588
  8
_____1
  6
CONTINUOUS
 62
     0
 10
-1513.209312672255
 20
722.9592160004668
 30
0.0
  0
VERTEX
  5
589
  8
_____1
  6
CONTINUOUS
 62
     0
 10
-1521.098514277895
 20
762.4052240287133
 30
0.0
  0
VERTEX
  5
58A
  8
_____1
  6
CONTINUOUS
 62
     0
 10
-1538.849217890601
 20
795.9343308527245
 30
0.0
  0
VERTEX
  5
58B
  8
_____1
  6
CONTINUOUS
 62
     0
 10
-1605.907431538627
 20
892.5770505219375
 30
0.0
  0
VERTEX
  5
58C
  8
_____1
  6
CONTINUOUS
 62
     0
 10
-1601.962830735797
 20
930.0507581487659
 30
0.0
  0
VERTEX
  5
58D
  8
_____1
  6
CONTINUOUS
 62
     0
 10
-1586.184427524496
 20
947.8014617614858
 30
0.0
  0
VERTEX
  5
58E
  8
_____1
  6
CONTINUOUS
 62
     0
 10
-1548.710719897667
 20
945.8291613600682
 30
0.0
  0
VERTEX
  5
58F
  8
_____1
  6
CONTINUOUS
 62
     0
 10
-1540.821518292026
 20
951.746062564303
 30
0.0
  0
VERTEX
  5
590
  8
_____1
  6
CONTINUOUS
 62
     0
 10
-1536.876917489198
 20
961.6075645713704
 30
0.0
  0
VERTEX
  5
591
  8
_____1
  6
CONTINUOUS
 62
     0
 10
-1538.849217890601
 20
973.4413669798455
 30
0.0
  0
VERTEX
  5
592
  8
_____1
  6
CONTINUOUS
 62
     0
 10
-1530.960016284959
 20
979.3582681840803
 30
0.0
  0
VERTEX
  5
593
  8
_____1
  6
CONTINUOUS
 62
     0
 10
-1530.960016284959
 20
987.2474697897292
 30
0.0
  0
VERTEX
  5
594
  8
_____1
  6
CONTINUOUS
 62
     0
 10
-1527.015415482131
 20
993.164370993964
 30
0.0
  0
VERTEX
  5
595
  8
_____1
  6
CONTINUOUS
 62
     0
 10
-1528.987715883534
 20
1006.970473803849
 30
0.0
  0
VERTEX
  5
596
  8
_____1
  6
CONTINUOUS
 62
     0
 10
-1515.181613073662
 20
1014.859675409502
 30
0.0
  0
VERTEX
  5
597
  8
_____1
  6
CONTINUOUS
 62
     0
 10
-1513.209312672255
 20
1024.721177416569
 30
0.0
  0
VERTEX
  5
598
  8
_____1
  6
CONTINUOUS
 62
     0
 10
-1538.849217890601
 20
1058.250284240573
 30
0.0
  0
VERTEX
  5
599
  8
_____1
  6
CONTINUOUS
 62
     0
 10
-1534.904617087791
 20
1077.973288254702
 30
0.0
  0
VERTEX
  5
59A
  8
_____1
  6
CONTINUOUS
 62
     0
 10
-1534.904617087791
 20
1099.668592670236
 30
0.0
  0
VERTEX
  5
59B
  8
_____1
  6
CONTINUOUS
 62
     0
 10
-1548.710719897667
 20
1127.280798290005
 30
0.0
  0
VERTEX
  5
59C
  8
_____1
  6
CONTINUOUS
 62
     0
 10
-1548.710719897667
 20
1139.114600698482
 30
0.0
  0
VERTEX
  5
59D
  8
_____1
  6
CONTINUOUS
 62
     0
 10
-1552.655320700496
 20
1147.003802304133
 30
0.0
  0
VERTEX
  5
59E
  8
_____1
  6
CONTINUOUS
 62
     0
 10
-1570.40602431322
 20
1160.809905114019
 30
0.0
  0
VERTEX
  5
59F
  8
_____1
  6
CONTINUOUS
 62
     0
 10
-1590.129028327326
 20
1168.699106719669
 30
0.0
  0
VERTEX
  5
5A0
  8
_____1
  6
CONTINUOUS
 62
     0
 10
-1607.879731940052
 20
1172.643707522495
 30
0.0
  0
SEQEND
  5
5A1
  8
_____1
  6
CONTINUOUS
 62
     0
  0
VIEWPORT
  5
5E
 67
     1
  8
0
 10
128.5
 20
97.5
 30
0.0
 40
314.226
 41
222.18
 68
     1
 69
     1
1001
ACAD
1000
MVIEW
1002
{
1070
    16
1010
0.0
1020
0.0
1030
0.0
1010
0.0
1020
0.0
1030
1.0
1040
0.0
1040
222.18
1040
128.5
1040
97.5
1040
50.0
1040
0.0
1040
0.0
1070
     0
1070
   100
1070
     0
1070
     3
1070
     0
1070
     0
1070
     0
1070
     0
1040
0.0
1040
0.0
1040
0.0
1040
10.0
1040
10.0
1040
10.0
1040
10.0
1070
     0
1002
{
1002
}
1002
}
  0
ENDSEC
  0
EOF
